<svg width="92" height="100" fill="none" xmlns="http://www.w3.org/2000/svg"><path d="M63.241 51.533a5.37 5.37 0 005.364-5.364 5.37 5.37 0 00-5.364-5.364 5.37 5.37 0 00-5.364 5.364 5.37 5.37 0 005.364 5.364zM59.41 39.655h7.663c.846 0 1.532-.686 1.532-1.532V19.732c0-.846-.686-1.533-1.532-1.533H59.41c-.846 0-1.533.687-1.533 1.533v18.39c0 .847.687 1.533 1.533 1.533z" fill="#163BA4"/><path d="M63.433 7.471c-2.952 0-5.84.477-8.62 1.381v-1.19C54.812 3.439 51.374 0 47.148 0H8.26C4.035 0 .598 3.438.598 7.663v84.674C.598 96.562 4.035 100 8.26 100h38.89c4.225 0 7.662-3.438 7.662-7.663V62.011c2.786.918 5.677 1.4 8.62 1.4 15.422 0 27.97-12.547 27.97-27.969s-12.548-27.97-27.97-27.97zM27.706 95.39a5.37 5.37 0 01-5.364-5.364 5.37 5.37 0 015.364-5.364 5.37 5.37 0 015.364 5.364 5.37 5.37 0 01-5.364 5.364zm35.727-35.045a24.54 24.54 0 01-9.56-1.934 25.082 25.082 0 01-5.373-3.078 1.456 1.456 0 00-.544-.239c-.057-.015-.112-.018-.172-.027-.065-.008-.126-.031-.192-.031a1.677 1.677 0 00-.403.05l-13.95 1.677 6.073-12.9c.21-.261.334-.593.334-.954 0-.225-.057-.44-.144-.633-.086-.302-.158-.606-.233-.907-.061-.247-.129-.494-.182-.74-.073-.336-.128-.675-.186-1.014-.041-.237-.09-.475-.126-.712-.053-.376-.087-.751-.122-1.127-.02-.202-.05-.404-.064-.607a24.847 24.847 0 0115.277-24.728 24.749 24.749 0 019.564-1.91c13.732 0 24.904 11.173 24.904 24.905 0 13.733-11.17 24.909-24.901 24.909z" fill="#163BA4"/><path d="M27.706 92.325a2.299 2.299 0 100-4.598 2.299 2.299 0 000 4.598z" fill="#163BA4"/></svg>