<svg width="480" height="480" fill="none" xmlns="http://www.w3.org/2000/svg"><g clip-path="url(#clip0_81_3113)" fill="#163BA4"><path d="M264 48H72c-13.254 0-24 10.746-24 24v48c0 13.254 10.746 24 24 24h192c13.254 0 24-10.746 24-24V72c0-13.254-10.746-24-24-24zm8 72a8 8 0 01-8 8H72a8 8 0 01-8-8V72a8 8 0 018-8h192a8 8 0 018 8v48zm-112 56h16v16h-16v-16zm32 0h16v16h-16v-16zm32 0h16v16h-16v-16zm-96 0h16v16h-16v-16zm-32 0h16v16H96v-16z"/><path d="M464 96V68c0-11.047-8.953-20-20-20s-20 8.953-20 20v28h-16V68c0-11.047-8.953-20-20-20s-20 8.953-20 20v28c-8.836 0-16 7.164-16 16v8a15.944 15.944 0 008 13.777V176c.027 22.082 17.918 39.973 40 40h8v216a8 8 0 01-16 0v-64c0-13.254-10.746-24-24-24h-8v-8c0-13.254-10.746-24-24-24h-8V56c-.035-30.914-25.086-55.965-56-56H64C33.086.035 8.035 25.086 8 56v336a55.808 55.808 0 0016.879 40H24c-13.254 0-24 10.746-24 24s10.746 24 24 24h288c13.254 0 24-10.746 24-24s-10.746-24-24-24h-.879A55.808 55.808 0 00328 392h8c13.254 0 24-10.746 24-24v-8h8a8 8 0 018 8v64c0 13.254 10.746 24 24 24s24-10.746 24-24V216h8c22.082-.027 39.973-17.918 40-40v-42.223A15.944 15.944 0 00480 120v-8c0-8.836-7.164-16-16-16zM312 448a8 8 0 010 16H24a8 8 0 010-16h288zm0-56c-.027 22.082-17.918 39.973-40 40H64c-22.082-.027-39.973-17.918-40-40V56c.027-22.082 17.918-39.973 40-40h208c22.082.027 39.973 17.918 40 40v336zm32-24a8 8 0 01-8 8h-8v-48h8a8 8 0 018 8v32zm96-300c0-2.21 1.789-4 4-4 2.211 0 4 1.79 4 4v28h-8V68zm-56 0c0-2.21 1.789-4 4-4 2.211 0 4 1.79 4 4v28h-8V68zm-16 44h96v8h-96v-8zm64 88h-32c-13.254 0-24-10.746-24-24v-40h80v40c0 13.254-10.746 24-24 24z"/><path d="M219.575 304.801l-41.246-20.625 21.023-49.063a8.002 8.002 0 00-2.668-9.656 7.997 7.997 0 00-10.004.52l-72 64a8.005 8.005 0 00-2.621 7.035 8.018 8.018 0 004.367 6.109l42.399 21.199-14.641 65.903a8.001 8.001 0 0014.055 6.738l64-80a7.998 7.998 0 00-2.672-12.16h.008zm-52.285 55.246l8.519-38.352a7.995 7.995 0 00-4.234-8.894l-37.422-18.711 36.375-32.336-9.879 23.055a8 8 0 003.777 10.312l39.141 19.567-36.277 45.359z"/></g><defs><clipPath id="clip0_81_3113"><path fill="#fff" d="M0 0h480v480H0z"/></clipPath></defs></svg>