<svg width="100" height="100" fill="none" xmlns="http://www.w3.org/2000/svg"><path d="M87.393 83.141C95.228 74.312 100 62.705 100 50c0-13.219-5.165-25.247-13.572-34.197v-.001c-.007-.01-.018-.014-.023-.023C77.648 6.471 65.38.512 51.733.045L51.73.043l-.974-.026A22.072 22.072 0 0050 0c-.253 0-.505.009-.757.017l-.97.026-.002.002C34.624.512 22.355 6.47 13.598 15.779c-.007.009-.017.012-.022.023l-.002.003C5.166 24.753 0 36.781 0 50c0 12.705 4.772 24.312 12.607 33.141.01.016.01.033.022.049.031.043.076.064.109.103 8.803 9.841 21.434 16.181 35.531 16.664l.002.002.97.025c.254.007.506.016.759.016s.505-.009.757-.017l.97-.026.002-.002c14.112-.484 26.757-6.836 35.56-16.698.023-.03.06-.038.08-.07.014-.013.014-.03.024-.046zM3.491 51.724h20.695a63.716 63.716 0 004.164 21.064 63.581 63.581 0 00-13.985 7.122c-6.46-7.684-10.48-17.479-10.874-28.186zm11.816-32.719a63.424 63.424 0 0013.62 6.693c-2.917 7.081-4.53 14.716-4.74 22.578H3.49c.412-11.22 4.806-21.435 11.816-29.27zm81.202 29.27H75.814c-.21-7.861-1.824-15.496-4.742-22.577a63.422 63.422 0 0013.621-6.693c7.01 7.836 11.404 18.052 11.816 29.27zM48.276 25.799a60.274 60.274 0 01-14.605-2.212C37.166 16.417 42.1 9.946 48.276 4.56V25.8zm0 3.449v19.029H27.634c.213-7.497 1.785-14.767 4.597-21.509a63.703 63.703 0 0016.045 2.48zm3.448 0a63.652 63.652 0 0016.047-2.48c2.812 6.742 4.384 14.012 4.596 21.509H51.724v-19.03zm0-3.449V4.558c6.176 5.389 11.11 11.86 14.605 19.028a60.274 60.274 0 01-14.605 2.212zm17.947-3.26c-3.312-6.94-7.909-13.262-13.6-18.681 10.096 1.32 19.18 5.886 26.177 12.617a59.967 59.967 0 01-12.577 6.064zm-39.342 0a59.914 59.914 0 01-12.576-6.064c6.995-6.73 16.081-11.296 26.178-12.617-5.693 5.419-10.29 11.741-13.602 18.68zm-2.695 29.186h20.642v17.307a63.595 63.595 0 00-16.657 2.657 60.212 60.212 0 01-3.985-19.964zM48.276 72.48v22.962c-6.61-5.767-11.793-12.774-15.317-20.546a60.117 60.117 0 0115.317-2.416zm3.448 22.962V72.48c5.24.147 10.374.959 15.317 2.414-3.524 7.774-8.706 14.781-15.317 20.548zm0-26.41V51.724h20.642a60.19 60.19 0 01-3.987 19.966 63.498 63.498 0 00-16.655-2.659zm24.09-17.307h20.695c-.394 10.707-4.412 20.502-10.874 28.186a63.579 63.579 0 00-13.985-7.122 63.672 63.672 0 004.164-21.064zm-59.105 30.77a60.088 60.088 0 0112.96-6.52 63.62 63.62 0 0014.26 20.17c-10.605-1.389-20.096-6.354-27.22-13.65zm39.362 13.65a63.581 63.581 0 0014.26-20.17 60.129 60.129 0 0112.96 6.52c-7.124 7.296-16.615 12.261-27.22 13.65z" fill="#163BA4"/></svg>