<svg width="242" height="70" fill="none" xmlns="http://www.w3.org/2000/svg"><path d="M67.378 20.187c0-.668-.3-1.002-.9-1.002H58.52c-1.59 0-2.653.062-3.186.181-2.486.566-3.73 1.86-3.73 3.89v10.43c0 .66.297.99.889.99h.747c.6 0 .903-.33.903-.99v-10.43c0-.829.588-1.365 1.765-1.608.47-.095 1.332-.145 2.59-.145h7.98c.6 0 .9-.334.9-1.002v-.314zm17.127 10.61c0 2.521-1.735 3.784-5.202 3.784h-7.515v2.479c0 .66-.296.99-.888.99h-.629c-.592 0-.888-.33-.888-.99V26.107c0-1.48.626-2.504 1.876-3.07.825-.37 2.031-.556 3.619-.556h3.84c3.86 0 5.787 1.196 5.787 3.589v4.728zm-2.438.038v-4.728c0-.643-.448-1.064-1.343-1.258-.378-.079-1.04-.12-1.987-.12h-3.752c-2.131 0-3.197.479-3.197 1.44v6.176h7.515c1.842 0 2.764-.504 2.764-1.51zm20.334.057c0 1.411-.643 2.447-1.927 3.107-.877.45-2.013.676-3.415.676h-4c-2.583 0-4.288-.713-5.128-2.14a3.18 3.18 0 01-.455-1.642v-4.497c0-.99.414-1.848 1.247-2.574 1.017-.895 2.46-1.341 4.325-1.341h4.01c3.564 0 5.343 1.295 5.343 3.89v4.521zm-2.449 0v-4.698c0-.97-.988-1.452-2.96-1.452h-3.915c-.706 0-1.346.095-1.916.288-.855.293-1.28.747-1.28 1.366v4.496c0 .595.433 1.024 1.302 1.28.563.169 1.2.255 1.906.255h3.914c.622 0 1.21-.095 1.769-.289.788-.276 1.18-.688 1.18-1.245zm20.531 3.387c0 1.403-.795 2.43-2.386 3.082-1.11.458-2.42.689-3.922.689h-1.011c-.599 0-.899-.33-.899-.99v-.268c0-.66.3-.99.899-.99h1.747c.425 0 1.021-.128 1.787-.388.869-.289 1.302-.57 1.302-.833h-6.6c-1.547 0-2.827-.22-3.837-.652-1.469-.632-2.202-1.67-2.202-3.119v-4.521c0-1.283.592-2.265 1.776-2.95.992-.573 2.198-.858 3.623-.858h3.544c1.517 0 2.816.235 3.893.701 1.524.66 2.286 1.704 2.286 3.131v7.966zm-2.438-1.934V26.42c0-.61-.451-1.073-1.354-1.378a6.187 6.187 0 00-1.995-.314h-3.807c-.881 0-1.521.054-1.92.157-.803.21-1.203.656-1.203 1.34v4.547c0 1.048 1.192 1.572 3.578 1.572h6.701zm19.41 1.501c0 .54-.245.809-.737.809h-.814c-.492 0-.736-.268-.736-.809v-4.352h-9.672v4.352c0 .54-.244.809-.736.809h-.836c-.485 0-.725-.268-.725-.809V23.12c0-.54.24-.808.725-.808h.836c.492 0 .736.268.736.808v4.245h9.672V23.12c0-.54.244-.808.736-.808h.814c.492 0 .737.268.737.808v10.726zm17.922-5.057c0 .742-.226 1.113-.673 1.113h-11.966c0 1.683 1.04 2.525 3.123 2.525h1.798c.592 0 .888.334.888 1.003v.243c0 .668-.296 1.002-.888 1.002h-1.539c-1.539 0-2.797-.226-3.774-.676-1.395-.644-2.091-1.704-2.091-3.18v-4.485c0-1.407.692-2.45 2.073-3.127 1.002-.49 2.234-.738 3.696-.738h4.495c1.217 0 2.261.23 3.134.689 1.151.606 1.724 1.501 1.724 2.693v2.938zm-2.342-1.217V26.07c0-.458-.462-.813-1.388-1.064a7.086 7.086 0 00-1.864-.264h-3.489c-2.424 0-3.634.474-3.634 1.427v1.403h10.375zm19.173 6.274c0 .54-.244.809-.736.809h-.814c-.492 0-.736-.268-.736-.809v-4.352h-9.672v4.352c0 .54-.244.809-.736.809h-.837c-.484 0-.725-.268-.725-.809V23.12c0-.54.241-.808.725-.808h.837c.492 0 .736.268.736.808v4.245h9.672V23.12c0-.54.244-.808.736-.808h.814c.492 0 .736.268.736.808v10.726zm18.333-.173c0 .668-.37 1.002-1.113 1.002h-8.914c-1.639 0-2.871-.181-3.696-.544-1.291-.573-1.939-1.617-1.939-3.144v-4.81c0-2.463 1.713-3.696 5.14-3.696h9.538c.599 0 .899.334.899 1.002v.269c0 .66-.3.99-.899.99h-9.379c-.829 0-1.432.053-1.81.156-.721.203-1.084.607-1.084 1.21v4.772c0 1.031 1.099 1.547 3.297 1.547h9.061c.6 0 .899.334.899 1.003v.243zm14.907-.895c.418.235.629.56.629.977 0 .615-.344.92-1.028.92h-.759a.833.833 0 01-.403-.107l-8.225-4.591v3.696c0 .668-.296 1.002-.888 1.002h-.611c-.592 0-.887-.334-.887-1.002V23.339c0-.66.295-.99.887-.99h.611c.592 0 .888.33.888.99v3.87l8.118-4.522c.196-.07.329-.107.399-.107h.696c.677 0 1.017.305 1.017.92 0 .42-.203.742-.614.97l-7.378 4.092 7.548 4.216zm18.515-1.741c0 .322.026 1.423.074 3.3.007.227-.363.338-1.114.338-.832 0-1.224-.152-1.184-.457.03-.22 0-.33-.085-.339a.164.164 0 00-.055.013c-1.199.524-2.357.783-3.467.783h-3.589c-3.911 0-5.864-1.212-5.864-3.638v-7.553c0-.669.296-1.003.887-1.003h.629c.592 0 .888.334.888 1.002v7.554c0 .928 1.155 1.39 3.46 1.39h3.589c1.039 0 1.891-.181 2.545-.544.566-.314.848-.665.848-1.052v-7.348c0-.668.296-1.002.888-1.002h.651c.599 0 .899.334.899 1.002v7.554zM242 28.789c0 .742-.226 1.113-.673 1.113h-11.966c0 1.683 1.04 2.525 3.123 2.525h1.798c.592 0 .888.334.888 1.003v.243c0 .668-.296 1.002-.888 1.002h-1.539c-1.539 0-2.797-.226-3.774-.676-1.395-.644-2.091-1.704-2.091-3.18v-4.485c0-1.407.692-2.45 2.073-3.127 1.002-.49 2.234-.738 3.696-.738h4.495c1.217 0 2.261.23 3.134.689 1.151.606 1.724 1.501 1.724 2.693v2.938zm-2.342-1.217V26.07c0-.458-.462-.813-1.388-1.064a7.086 7.086 0 00-1.864-.264h-3.489c-2.424 0-3.634.474-3.634 1.427v1.403h10.375zM59.855 47.192c0 .187.015.827.043 1.916.004.132-.21.197-.647.197-.483 0-.71-.09-.687-.266.017-.127 0-.192-.05-.197a.097.097 0 00-.032.008c-.696.304-1.368.454-2.012.454h-2.083c-2.27 0-3.405-.703-3.405-2.111v-4.385c0-.388.172-.582.516-.582h.365c.344 0 .516.194.516.582v4.385c0 .538.67.806 2.008.806h2.083c.604 0 1.097-.105 1.478-.316.328-.182.492-.385.492-.61v-4.265c0-.388.171-.582.515-.582h.378c.348 0 .522.194.522.582v4.385zm9.852 1.631c0 .314-.142.47-.428.47h-.472c-.286 0-.428-.156-.428-.47v-2.526h-5.614v2.526c0 .314-.142.47-.428.47h-.485c-.281 0-.42-.156-.42-.47v-6.226c0-.314.139-.47.42-.47h.486c.285 0 .427.156.427.47v2.464h5.614v-2.464c0-.314.142-.47.428-.47h.472c.286 0 .428.156.428.47v6.226zm6.292.462v-.421c0-.242.009-.541.024-.898-2.324-.055-3.486-.352-3.486-.89v-2.743c0-.328.26-.548.78-.66l1.153-.07c-.004.029.125.05.389.062.777.043 1.164.218 1.164.527v3.774c0 .146-.004.366-.01.66-.01.295-.014.513-.014.66l.007-.037.006 1.44c0 .383.174.574.52.574h.367c.346 0 .52-.191.52-.574v-6.322c0-.51.597-.764 1.793-.764h.039c.507 0 .87.024 1.09.07.519.112.779.356.779.73v2.742c0 .272-.293.49-.875.653a5.562 5.562 0 01-1.675.19l-1.151-.036.021 1.297c.185.034.488.05.907.05 1.048 0 1.928-.126 2.642-.38 1.03-.364 1.546-.963 1.546-1.796V44.38c0-1.389-1.097-2.083-3.297-2.083h-.088c-.767 0-1.448.06-2.038.182-.138.029-.303.04-.49.04-.249 0-.61-.03-1.082-.095a16.133 16.133 0 00-1.06-.127c-2.24.158-3.358.83-3.358 2.014v2.742c0 1.463 1.005 2.195 3.013 2.195h.754l1.11.036zm16.727-2.176c0 .819-.373 1.42-1.119 1.803-.509.26-1.168.392-1.982.392h-2.322c-1.499 0-2.49-.414-2.977-1.242a1.846 1.846 0 01-.264-.953v-2.61c0-.575.24-1.073.724-1.495.59-.52 1.428-.778 2.51-.778h2.329c2.068 0 3.101.752 3.101 2.258v2.625zm-1.422 0V44.38c0-.563-.573-.843-1.718-.843h-2.272c-.41 0-.782.055-1.113.168-.496.17-.743.433-.743.792v2.61c0 .346.251.594.756.743a3.84 3.84 0 001.106.148h2.273c.36 0 .702-.055 1.026-.167.457-.16.685-.4.685-.723zm11.918-.055c0 1.463-1.007 2.195-3.02 2.195h-4.361v1.44c0 .383-.172.574-.516.574h-.365c-.344 0-.516-.191-.516-.574V44.33c0-.86.363-1.454 1.09-1.782.478-.215 1.178-.323 2.1-.323h2.23c2.239 0 3.358.694 3.358 2.083v2.745zm-1.415.021v-2.744c0-.374-.26-.618-.78-.73-.219-.046-.603-.07-1.153-.07h-2.178c-1.237 0-1.855.278-1.855.836v3.585h4.361c1.07 0 1.605-.293 1.605-.877zm12.094 1.748c0 .314-.116.47-.346.47h-.486c-.233 0-.352-.156-.352-.47V44.52l-2.931 4.42c-.172.257-.381.386-.63.386-.26 0-.47-.13-.633-.385l-2.732-4.301v4.183c0 .314-.118.47-.352.47h-.548c-.23 0-.346-.156-.346-.47v-5.922c0-.187.056-.347.168-.484a.512.512 0 01.419-.203c.414 0 .702.12.861.361l3.176 4.907 3.411-4.918c.15-.22.408-.331.773-.331.365 0 .548.242.548.723v5.867zm10.498-1.645c0 1.418-.953 2.127-2.863 2.127h-3.417c-.329 0-.689-.05-1.083-.154-1.267-.333-1.9-.965-1.9-1.894v-.905c0-.735.343-1.288 1.031-1.662.524-.285 1.155-.429 1.896-.429h4.94c-.071-.481-.619-.723-1.643-.723h-1.055c-.341 0-.513-.191-.513-.575v-.155c0-.388.172-.582.515-.582h.77c2.214 0 3.322.725 3.322 2.174v2.778zm-1.396.08v-1.684h-4.966c-.266 0-.552.052-.863.16-.427.151-.642.354-.642.61v.899c0 .294.249.503.749.622.172.043.439.087.799.134h3.469c.969 0 1.454-.246 1.454-.742zm11.77.658h.799c.143.019.285.033.429.043.292.014.428.177.402.49l-.043.513c-.013.163-.159.259-.441.287h-6.72c-2.102 0-3.153-.704-3.153-2.112v-4.33c0-.387.172-.581.516-.581h.365c.344 0 .516.194.516.582v4.33c0 .543.584.814 1.754.814h4.173v-5.144c0-.388.174-.582.522-.582h.365c.344 0 .516.194.516.582v5.108zm11.125-.723c0 .186.015.826.043 1.915.004.132-.21.197-.647.197-.483 0-.71-.09-.687-.266.017-.127 0-.192-.049-.197a.09.09 0 00-.032.008c-.696.304-1.369.454-2.013.454h-2.083c-2.27 0-3.404-.703-3.404-2.111v-4.385c0-.388.171-.582.515-.582h.365c.344 0 .516.194.516.582v4.385c0 .538.67.806 2.008.806h2.083c.604 0 1.098-.105 1.478-.316.328-.182.492-.385.492-.61v-4.265c0-.388.171-.582.515-.582h.378c.348 0 .522.194.522.582v4.385zm10.389-.084c0 .819-.374 1.42-1.119 1.803-.509.26-1.169.392-1.983.392h-2.321c-1.5 0-2.49-.414-2.977-1.242a1.846 1.846 0 01-.264-.953v-2.61c0-.575.24-1.073.723-1.495.591-.52 1.429-.778 2.511-.778h2.328c2.068 0 3.102.752 3.102 2.258v2.625zm-1.422 0V44.38c0-.563-.574-.843-1.718-.843h-2.273c-.41 0-.782.055-1.112.168-.496.17-.743.433-.743.792v2.61c0 .346.251.594.756.743a3.84 3.84 0 001.106.148h2.272a3.11 3.11 0 001.027-.167c.457-.16.685-.4.685-.723zm11.267 1.714c0 .314-.142.47-.428.47h-.472c-.286 0-.427-.156-.427-.47v-2.526h-5.615v2.526c0 .314-.141.47-.427.47h-.485c-.282 0-.421-.156-.421-.47v-6.226c0-.314.139-.47.421-.47h.485c.286 0 .427.156.427.47v2.464h5.615v-2.464c0-.314.141-.47.427-.47h.472c.286 0 .428.156.428.47v6.226zm9.785 0c0 .314-.142.47-.427.47h-.473c-.286 0-.427-.156-.427-.47v-2.526h-5.614v2.526c0 .314-.142.47-.428.47h-.485c-.282 0-.421-.156-.421-.47v-6.226c0-.314.139-.47.421-.47h.485c.286 0 .428.156.428.47v2.464h5.614v-2.464c0-.314.141-.47.427-.47h.473c.285 0 .427.156.427.47v6.226zm8.488-1.312c0 1.188-.857 1.782-2.573 1.782h-1.675c-.357 0-.718-.05-1.083-.154-1.048-.297-1.572-.828-1.572-1.602v-4.98c0-.314.133-.47.397-.47h.415c.264 0 .397.156.397.47v1.752h3.121c1.716 0 2.573.587 2.573 1.763v1.439zm-1.145-.182v-1.166c0-.486-.47-.73-1.409-.73h-3.14v1.958c0 .22.198.4.591.541.333.118.661.175.988.175h1.548c.524 0 .877-.04 1.057-.12.243-.107.365-.328.365-.658zm1.703-5.292h.554c.076 0 .14.05.196.148a.594.594 0 01.081.28v6.356a.594.594 0 01-.081.28c-.056.098-.12.148-.196.148h-.554c-.075 0-.139-.05-.191-.148a.579.579 0 01-.079-.28v-6.356a.58.58 0 01.079-.28c.052-.098.116-.148.191-.148zm11.248 3.85c0 .431-.131.647-.391.647h-6.946c0 .977.604 1.465 1.813 1.465h1.044c.344 0 .515.194.515.582v.142c0 .388-.171.581-.515.581h-.894c-.893 0-1.624-.131-2.19-.392-.81-.374-1.214-.99-1.214-1.846v-2.603c0-.817.402-1.423 1.203-1.816.582-.285 1.297-.428 2.146-.428h2.609c.707 0 1.312.134 1.819.4.668.352 1.001.871 1.001 1.563v1.705zm-1.36-.706v-.872c0-.266-.268-.472-.805-.618a4.116 4.116 0 00-1.083-.153h-2.025c-1.407 0-2.109.276-2.109.829v.814h6.022zm18.991 3.542c0 .388-.215.581-.647.581h-5.174c-.951 0-1.666-.105-2.145-.316-.75-.332-1.126-.938-1.126-1.824V44.37c0-1.43.995-2.145 2.984-2.145h5.537c.348 0 .521.194.521.582v.155c0 .383-.173.575-.521.575h-5.445c-.481 0-.831.031-1.05.091-.419.117-.629.352-.629.702v2.77c0 .6.637.898 1.913.898h5.26c.348 0 .522.194.522.582v.142zm10.333-2.836c0 .431-.131.647-.391.647h-6.946c0 .977.604 1.465 1.813 1.465h1.044c.343 0 .515.194.515.582v.142c0 .388-.172.581-.515.581h-.894c-.893 0-1.624-.131-2.191-.392-.809-.374-1.213-.99-1.213-1.846v-2.603c0-.817.402-1.423 1.203-1.816.582-.285 1.297-.428 2.145-.428h2.61c.706 0 1.312.134 1.819.4.668.352 1.001.871 1.001 1.563v1.705zm-1.36-.706v-.872c0-.266-.268-.472-.805-.618a4.116 4.116 0 00-1.083-.153h-2.025c-1.407 0-2.109.276-2.109.829v.814h6.022zm9.268-2.086c0 .304-.135.458-.404.458H229.2v5.285c0 .304-.135.455-.403.455h-.34c-.352 0-.528-.151-.528-.456v-5.285h-2.466c-.268 0-.403-.153-.403-.457v-.426c0-.3.135-.45.403-.45h6.216c.269 0 .404.15.404.45v.426zm9.836 4.098c0 .186.015.826.043 1.915.005.132-.21.197-.646.197-.483 0-.711-.09-.687-.266.017-.127 0-.192-.05-.197a.101.101 0 00-.032.008c-.696.304-1.368.454-2.012.454h-2.084c-2.27 0-3.404-.703-3.404-2.111v-4.385c0-.388.172-.582.516-.582h.365c.343 0 .515.194.515.582v4.385c0 .538.67.806 2.008.806h2.084c.603 0 1.097-.105 1.477-.316.329-.182.492-.385.492-.61v-4.265c0-.388.172-.582.515-.582h.379c.347 0 .521.194.521.582v4.385z" fill="#2B2A29"/><path fill-rule="evenodd" clip-rule="evenodd" d="M0 0h39.61v13.487c-2.854-1.322-6.09-2.068-9.524-2.068-11.467 0-20.775 8.334-20.775 18.604s9.308 18.605 20.775 18.605c3.434 0 6.67-.75 9.524-2.071V70H0V0z" fill="#2B2A29"/><path d="M21.056 46.818l-1.486-.748V70h1.486V46.818z" fill="#FEFEFE"/><path fill-rule="evenodd" clip-rule="evenodd" d="M20.573 46.563c2.85 1.318 6.087 2.065 9.514 2.065 3.433 0 6.67-.749 9.524-2.07V70H20.573V46.563z" fill="#00A0E3"/><path d="M30.387 19.68c3.19 0 6.076 1.158 8.164 3.028s3.38 4.455 3.38 7.31h.002v.001h-.001c0 2.855-1.293 5.44-3.381 7.31-2.088 1.87-4.974 3.027-8.162 3.028h-.002c-3.19 0-6.076-1.158-8.164-3.028s-3.38-4.454-3.38-7.309h-.002v-.002h.001c0-2.855 1.293-5.44 3.381-7.31 2.089-1.87 4.975-3.027 8.163-3.027v-.002h.001zm0 .648v.002h-.002v-.002c-.212 0-.424.006-.633.017a5.434 5.434 0 00-2.597 1.076c.879-.014 1.815.037 2.773.148a8.23 8.23 0 01.82-1.235c-.12-.004-.24-.006-.36-.006zm7.65 2.84l-.02-.019c.106.322.192.651.258.986a12.666 12.666 0 011.408.924 9.972 9.972 0 00-1.645-1.89zm-1.176-.913a11.174 11.174 0 00-2.075-1.091c-.027.474-.067.95-.12 1.425.968.31 1.901.677 2.762 1.1a7.274 7.274 0 00-.567-1.434zm-2.786-1.348a11.779 11.779 0 00-2.446-.515c-.332.32-.653.752-.96 1.275l.04.006c1.081.16 2.182.397 3.253.703.051-.491.09-.981.113-1.47zm7.133 9.11a8.71 8.71 0 00-.219-1.946 9.119 9.119 0 01-.148 1.557c.129.13.252.26.367.394v-.003h-.001v-.002h.001zm-3.17 6.852a10.008 10.008 0 001.549-1.75 4.705 4.705 0 00-.753-1.002c-.14.189-.284.375-.436.558a14.066 14.066 0 01-2.213 2.13c.344.303.594.617.73.94.396-.27.771-.561 1.122-.876zm1.969-2.412a8.9 8.9 0 001.134-3.355 5.35 5.35 0 00-.486-.66 10.913 10.913 0 01-1.42 3.102c.3.294.559.598.772.913zm-9.618 5.252c.557 0 1.105-.038 1.64-.112a2.045 2.045 0 00-.4-.354 16.141 16.141 0 01-1.626.46c.127.003.255.006.383.006v-.002h.003v.002zm2.393-.24a11.463 11.463 0 003.51-1.331c-.065-.297-.301-.607-.669-.919a15.719 15.719 0 01-3.248 1.75c.179.16.317.328.407.5zm-10.045-2.6c.191.171.39.336.594.494.102-.066.216-.125.343-.175a12.745 12.745 0 01-2.11-2.951c-.291.088-.537.2-.729.336a9.901 9.901 0 001.902 2.296zm1.195.925c.358.239.732.458 1.122.656-.3-.24-.587-.488-.859-.744a1.873 1.873 0 00-.263.088zm-4.343-7.138a8.82 8.82 0 00.923 3.328c.22-.134.477-.246.768-.338l-.105-.24a11.47 11.47 0 01-.845-3.233c-.293.139-.542.3-.74.483zm1.528-5.636a9.25 9.25 0 00-.28.44 5.09 5.09 0 01.112-.05 8.89 8.89 0 01.168-.39zm-.896 1.672a8.768 8.768 0 00-.653 3.138c.214-.132.45-.25.71-.354a9.852 9.852 0 01.355-3.136 2.425 2.425 0 00-.412.352zm6.804 11.926a14.326 14.326 0 01-.12-.922 13.309 13.309 0 00-.659-.075c.24.348.5.681.78.997zm.622-.802c.04.37.093.72.158 1.05.192-.292.382-.59.57-.895a16.583 16.583 0 00-.729-.154zm-.794-.783a25.508 25.508 0 010-2.815v-.025a22.599 22.599 0 00-2.332-.216c.312 1.04.74 2.043 1.289 2.965.334.015.685.046 1.043.091zm.72-2.728a24.409 24.409 0 00.014 2.839 17.028 17.028 0 011.144.24l.048-.08c.463-.782.91-1.6 1.337-2.445l.003-.008a30.08 30.08 0 00-2.546-.546zm-.679-.763c.09-1.26.256-2.574.485-3.871a23.121 23.121 0 00-3.492-.178 15.436 15.436 0 00.454 3.83c.802.02 1.666.096 2.553.22zm.602-4.51a36.52 36.52 0 01.866-3.554c-1.35-.153-2.65-.204-3.815-.14-.096.286-.181.58-.256.88a13.68 13.68 0 00-.385 2.629 24.066 24.066 0 013.59.184zm1.064-4.186a21.11 21.11 0 011.049-2.66 19.202 19.202 0 00-3.201-.092c-.67.708-1.212 1.59-1.618 2.586 1.17-.047 2.45.012 3.77.166zm1.776-2.57c-.387.764-.747 1.668-1.071 2.66a31.13 31.13 0 014.132.873c.205-.922.37-1.85.488-2.774a24.858 24.858 0 00-3.549-.759zm-1.269 3.291a35.645 35.645 0 00-.862 3.56 30.857 30.857 0 013.99.86 37.01 37.01 0 001.053-3.538 30.477 30.477 0 00-4.18-.882zm-.979 4.2a38.39 38.39 0 00-.476 3.885c.938.155 1.888.358 2.803.6a41.422 41.422 0 001.557-3.65 30.17 30.17 0 00-3.884-.835zm-2.338 8.365a11.88 11.88 0 01-.373-.55c-.1 0-.197.003-.292.007.213.186.435.367.665.543zm-.755-1.19a14.064 14.064 0 01-1.227-2.975 10.42 10.42 0 00-1.487.11 12.15 12.15 0 002.165 2.916 5.802 5.802 0 01.549-.05zm-1.397-3.621a15.987 15.987 0 01-.436-3.79c-.797.063-1.518.185-2.13.374a10.83 10.83 0 00.952 3.568c.485-.09 1.028-.139 1.614-.152zm-.42-4.437a14.4 14.4 0 01.406-2.808c.058-.229.121-.455.19-.677-.853.09-1.612.25-2.24.486a8.864 8.864 0 00-.407 1.549c-.1.587-.144 1.19-.131 1.8a11.42 11.42 0 012.183-.35zm.826-4.156c.357-.943.825-1.8 1.402-2.533-.62.09-1.177.225-1.651.409l-.075.067a7.926 7.926 0 00-1.808 2.417 11.959 11.959 0 012.132-.36zm2.048-3.253a7.444 7.444 0 01.616-.535 9.015 9.015 0 00-1.44.63c.265-.039.54-.071.824-.095zm3.037 16.681c-.184.3-.37.595-.56.885l.05-.022a12.76 12.76 0 001.253-.63c-.239-.082-.488-.16-.743-.233zm1.688-3.03a41.804 41.804 0 01-1.339 2.45c.388.114.763.24 1.111.377a15.898 15.898 0 002.59-2.116 23.091 23.091 0 00-2.32-.794l-.042.083zm3.81-11.874a32.063 32.063 0 01-.498 2.764c1.25.39 2.444.857 3.518 1.394a9.465 9.465 0 00.005-2.881 18.634 18.634 0 00-3.026-1.277zm-.648 3.405a37.628 37.628 0 01-1.057 3.535c1.205.377 2.351.827 3.376 1.337a14.05 14.05 0 001.227-3.436 22.237 22.237 0 00-3.546-1.436zm-1.28 4.152a41.984 41.984 0 01-1.546 3.636c.896.26 1.75.558 2.514.88a17.16 17.16 0 002.32-3.21 22.219 22.219 0 00-3.287-1.306zm3.913 1.638a17.806 17.806 0 01-2.283 3.176c.505.241.957.494 1.34.754a13.417 13.417 0 002.187-2.089 12.2 12.2 0 00.505-.652 8.513 8.513 0 00-.327-.264 11.713 11.713 0 00-1.422-.925zm-2.757 3.684a16.81 16.81 0 01-2.531 2.141c.158.078.308.157.446.238a15.018 15.018 0 003.318-1.712c-.355-.23-.771-.453-1.233-.667zm-3.188 2.567a14.17 14.17 0 01-.531.312 14.79 14.79 0 00.76-.208 7.928 7.928 0 00-.229-.104zm7.773-13.71c.087.902.043 1.836-.118 2.777.442.245.858.504 1.244.774.235.165.459.334.671.508a8.384 8.384 0 00-.105-2.727 8.588 8.588 0 00-1.009-.866c-.217-.16-.445-.315-.683-.466zm-.256 3.466a14.819 14.819 0 01-1.257 3.405c.58.32 1.11.66 1.578 1.02.082.063.161.127.24.19a10.071 10.071 0 001.357-3.237 9.615 9.615 0 00-.982-.782 12.993 12.993 0 00-.936-.596z" fill="#2B2A29"/></svg>