<svg version="1.1" id="Layer_1" xmlns="http://www.w3.org/2000/svg" x="0" y="0" viewBox="0 0 67 52" xml:space="preserve"><style>.st1{fill:#2b2a28}</style><path d="M37.4 1.1C20.3 2.5 3.8 13.6 1.3 28.4-1 42.2 11.5 51.7 28.4 51c14.6-.6 34.3-10.3 37.3-27.1C68.1 10.4 55.6-.4 37.4 1.1z" fill="#ffcc01"/><path class="st1" d="M37.2 5.3c-14 1.2-27 11.4-29.1 22.8s7.6 19.7 21.6 18.5 27-11.4 29.1-22.8c2.1-11.4-7.6-19.7-21.6-18.5zm-6.4 35.8C20.5 42 13.5 35.9 15 27.6c1-5.5 5.4-10.6 11.3-13.7l.9-5 19.2-1.6-.9 5.1c4.9 2.2 7.6 6.6 6.6 12.1-1.6 8.3-11.1 15.7-21.3 16.6z"/><path class="st1" d="M28.7 35.5l1.1-5.7 6.1-.5-1 5.7 6.5-.6 4-22.2-6.5.6-2.3 12.9-6.2.6 2.3-13-6.5.6-4 22.2z"/></svg>