<svg width="627" height="388" fill="none" xmlns="http://www.w3.org/2000/svg"><path d="M308.124 1.62c-4 2-6.134 6-22.667 41.466L267.324 82.42l-40.4 6.933c-45.734 7.867-46.934 8.267-46.934 18.4 0 5.2.934 6.267 29.734 35.467l29.866 30-6.4 38c-7.733 45.866-8 48.533-3.733 52.666 7.067 6.934 9.333 6.134 60.267-21.066l23.733-12.667 9.6 5.333c5.333 2.934 21.867 11.6 36.667 19.334 29.333 15.066 30.933 15.466 37.466 9.066 4.134-4.133 4-5.866-3.6-52l-6.533-38.666 29.867-30c28.8-29.2 29.733-30.267 29.733-35.467 0-10.133-1.2-10.533-46.933-18.4l-40.4-6.933-18.267-39.334c-10-21.6-19.333-39.866-20.667-40.666-4.533-2.934-7.733-3.2-12.266-.8zm19.066 68.933c7.334 15.733 14.4 29.733 16 31.2 2.134 2 9.334 3.733 30.8 7.467 15.467 2.533 29.6 5.066 31.734 5.466 3.466.667 2.8 1.6-19.067 24.134-13.067 13.466-23.067 24.8-23.6 26.933-.533 2 1.333 16.933 4.4 35.733 2.933 17.867 5.2 32.4 4.933 32.4-.933 0-17.466-8.533-36.533-18.8-10.667-5.866-20.8-10.533-22.533-10.533-1.734 0-11.867 4.667-22.534 10.533-18.933 10.267-35.6 18.8-36.533 18.8-.267 0 2-14.533 4.8-32.4 2.933-17.866 4.933-33.866 4.533-35.733-.533-1.867-11.066-14-23.6-26.933-21.866-22.534-22.533-23.467-19.066-24.134 2.133-.4 16.4-2.933 31.733-5.466 20.933-3.6 28.667-5.467 30.667-7.334 1.466-1.466 8.666-15.466 16-31.333 7.2-15.733 13.6-28.667 14-28.667.4 0 6.666 12.934 13.866 28.667z" fill="#163BA4"/><path d="M61.724 143.22c-1.6.667-3.867 2.933-4.934 4.933-1.733 3.334-1.733 8 0 37.067.934 18.4 1.867 35.467 1.733 38 0 4.533-.933 5.467-28.533 26.533-15.6 12-28.8 22.667-29.2 23.734-1.6 4.133-.666 10.666 1.867 13.333 1.467 1.6 7.733 4.4 14.267 6.4 6.533 1.867 22.266 6.933 35.066 11.067l23.2 7.6 11.867 35.733c12.8 38.533 13.6 40 22.667 40 5.466 0 9.466-4.533 30.933-36.133l17.333-25.467 36.4-.133h36.534l3.866-3.867c4.134-4.267 4.934-8.933 2.267-13.867-.8-1.6-11.067-15.466-22.8-30.8l-21.333-28 1.733-6.666c.933-3.734 5.6-18.934 10.267-33.734 4.533-14.933 8.4-28.8 8.4-30.933 0-5.467-4.934-10.933-10-11.067-3.067-.133-56.134 16.134-69.067 21.067-1.067.4-14.133-8.8-30.533-21.333-15.734-12-30-22.534-31.467-23.334-3.2-1.733-6.4-1.733-10.534-.133zm42.266 54c14.534 10.933 23.2 16.667 25.334 16.667 1.866 0 14.266-3.6 27.733-8.134 13.467-4.533 24.667-7.866 25.067-7.466.266.266-2.667 11.6-6.8 25.066-4 13.467-7.334 26.4-7.334 28.667 0 3.2 3.734 9.067 17.467 26.933l17.333 22.934h-26.666c-16.4 0-27.867.533-29.734 1.466-1.733.8-9.6 11.2-17.733 23.334-8 12-14.933 21.866-15.333 21.866-.4 0-4.534-11.6-9.2-25.6-6.134-18.666-9.467-26.666-12-29.066-2.534-2.4-10.4-5.6-28.4-11.334-13.867-4.266-25.067-8.266-25.067-8.666 0-.4 9.333-7.867 20.667-16.534 11.466-8.666 21.466-17.066 22.266-18.533 1.334-2.667.534-50.533-1.067-56-.4-1.2-.133-2.267.4-2.267.667 0 11.067 7.467 23.067 16.667zm447.868-52.267c-2.534 1.733-16.534 12.267-31.067 23.467-14.667 11.066-27.333 20-28.4 19.6-12.533-4.8-66-21.2-69.067-21.067-8.666.267-12.133 9.733-8 21.733 3.2 8.8 18 58.134 18 59.734 0 .666-9.466 13.866-21.2 29.2-11.6 15.2-21.733 29.066-22.666 30.533-2.534 4.933-1.734 9.733 2.4 13.867l3.866 3.866h72.934l4.533 7.067c2.533 3.733 11.467 16.933 20 29.2 17.867 25.733 20.8 28.267 29.2 24.133l4.933-2.4 12.134-36 12-36 23.333-7.6c12.667-4.133 28.4-9.2 34.933-11.066 6.534-2 12.8-4.8 14.267-6.4 2.533-2.667 3.467-9.2 1.867-13.334-.4-1.066-13.6-11.866-29.334-23.866l-28.533-21.734.133-6c0-3.333.8-20.4 1.734-38 2-35.2 1.6-38.133-5.334-40.666-5.066-2-7.733-1.6-12.666 1.733zm-5.6 37.467c-.4.933-1.2 14.133-1.734 29.066l-.933 27.467 10 7.733c5.333 4.4 15.333 12 22.133 17.2 6.8 5.067 12.267 9.6 12.267 10 0 .4-11.6 4.4-25.733 8.934-18 5.733-26.534 9.2-28.534 11.333-1.466 1.733-6.533 14.4-11.2 28.667-4.666 14.133-8.8 25.733-9.2 25.733-.4 0-7.2-9.867-15.333-21.867-8-12.133-16-22.533-17.733-23.333-1.867-.933-13.467-1.467-29.734-1.467h-26.666l17.333-22.933c13.333-17.467 17.467-23.867 17.467-26.933 0-2.134-3.334-15.067-7.467-28.534-4-13.466-7.067-24.933-6.667-25.2.4-.4 11.6 2.934 25.067 7.467 13.467 4.533 25.867 8.133 27.733 8.133 2.134 0 10.8-5.733 25.2-16.666 21.2-16.134 25.2-18.667 23.734-14.8z" fill="#163BA4"/></svg>