<svg width="114" height="106" fill="none" xmlns="http://www.w3.org/2000/svg"><path d="M57.196.5l-56.25 15v45c0 24.856 25.181 45 56.25 45 31.07 0 56.25-20.144 56.25-45v-45L57.196.5zm45.703 60c0 20.191-20.463 36.563-45.703 36.563-25.239 0-45.703-16.372-45.703-36.563V21.828l45.703-12.89 45.703 12.89V60.5z" fill="#163BA4"/><path d="M37.626 48.676a5.493 5.493 0 00-1.71-.917 6.418 6.418 0 00-2.018-.323c-.693 0-1.379.11-2.019.323-.64.212-1.22.524-1.71.917a4.29 4.29 0 00-1.146 1.367 3.493 3.493 0 00-.402 1.615c0 .554.137 1.103.402 1.615.266.512.656.977 1.147 1.368l18.955 15.164.307.246c.463.37 1.012.664 1.616.865.605.2 1.253.304 1.907.304.655 0 1.303-.103 1.907-.304a5.203 5.203 0 001.616-.865l32.74-26.192c.463-.37.83-.809 1.081-1.292.25-.484.38-1.002.38-1.526 0-.523-.13-1.042-.38-1.526a4.054 4.054 0 00-1.081-1.292l-.41-.328a5.203 5.203 0 00-1.617-.866 6.073 6.073 0 00-1.907-.303c-.654 0-1.302.103-1.907.303a5.218 5.218 0 00-1.615.865l-28.814 23.04-15.322-12.258z" fill="#163BA4"/></svg>