<svg width="92" height="86" fill="none" xmlns="http://www.w3.org/2000/svg"><path d="M75.265 71.167a4.167 4.167 0 100-8.334 4.167 4.167 0 000 8.334zm-12.5 0a4.167 4.167 0 100-8.334 4.167 4.167 0 000 8.334zm12.5-25a4.167 4.167 0 100-8.334 4.167 4.167 0 000 8.334zm-12.5 0a4.167 4.167 0 100-8.334 4.167 4.167 0 000 8.334z" fill="#163BA4"/><path d="M87.765.333H4.43A4.167 4.167 0 00.265 4.5v25a4.167 4.167 0 004.166 4.167h79.167v16.666H54.431a4.167 4.167 0 100 8.334h29.167v16.666H54.431a4.167 4.167 0 100 8.334h33.334A4.167 4.167 0 0091.93 79.5v-75A4.167 4.167 0 0087.765.333zm-4.167 25h-75V8.668h75v16.666z" fill="#163BA4"/><path d="M75.265 21.167a4.167 4.167 0 100-8.334 4.167 4.167 0 000 8.334zm-12.5 0a4.167 4.167 0 100-8.334 4.167 4.167 0 000 8.334zm-25.001 31.25h-2.083a12.5 12.5 0 00-25 0H8.598a4.167 4.167 0 00-4.167 4.167v25a4.167 4.167 0 004.167 4.166h29.166a4.167 4.167 0 004.167-4.166v-25a4.167 4.167 0 00-4.166-4.167zM23.181 48.25a4.167 4.167 0 014.167 4.167h-8.333a4.167 4.167 0 014.166-4.167zm10.417 29.167H12.764V60.75h20.834v16.667z" fill="#163BA4"/><path d="M25.265 64.917h-4.167v8.333h4.167v-8.333z" fill="#163BA4"/></svg>