<svg width="101" height="100" fill="none" xmlns="http://www.w3.org/2000/svg"><g clip-path="url(#clip0_123_2760)" fill="#163BA4"><path d="M94.691 84.259l-8.393-44.235a1.764 1.764 0 00-1.733-1.436h-68.39c-.849 0-1.577.603-1.735 1.436l-4.19 22.089-4.202 22.146a1.764 1.764 0 001.733 2.094H20.46l-5.412 11.109a1.765 1.765 0 003.173 1.546l6.165-12.655h51.97l6.164 12.655a1.765 1.765 0 103.173-1.546l-5.412-11.11h12.678a1.764 1.764 0 001.733-2.093zm-46.086-1.436H30.013l1.454-14.634a1.765 1.765 0 00-3.512-.35l-1.49 14.984H9.913l3.527-18.588h35.166v18.588zm0-22.117H14.109l3.527-18.589H30.51l-1.498 15.076a1.765 1.765 0 103.512.349l1.532-15.425h14.548v18.589zm3.529 22.117V64.235h12.883a1.765 1.765 0 100-3.53H52.134V42.119H66.68l4.045 40.705H52.134zm25.323 0h-3.184l-4.045-40.706h12.875l3.527 18.589H76.311a1.765 1.765 0 100 3.529H87.3l3.527 18.588h-13.37zM58.441.517a1.765 1.765 0 00-2.496 0L29.357 27.105a1.764 1.764 0 102.496 2.496L58.44 3.012c.69-.689.69-1.806 0-2.495zm17.941 0a1.765 1.765 0 00-2.496 0L47.298 27.105a1.764 1.764 0 102.496 2.496L76.382 3.012c.69-.689.69-1.806 0-2.495zm17.941 0a1.765 1.765 0 00-2.496 0L65.24 27.105a1.765 1.765 0 102.496 2.496L94.323 3.012c.69-.689.69-1.806 0-2.495z"/></g><defs><clipPath id="clip0_123_2760"><path fill="#fff" transform="translate(.428)" d="M0 0h100v100H0z"/></clipPath></defs></svg>