<svg width="152" height="85" fill="none" xmlns="http://www.w3.org/2000/svg"><path d="M41.815 28.432h25.35l-20.51 17.57 7.834 28.433L33.98 56.863 13.47 74.435l7.834-28.432L.797 28.432h25.35L33.981 0c2.61 9.478 5.222 18.954 7.834 28.432zM30.19 34.996H17.93l9.92 8.5-3.788 13.752 9.92-8.5 9.92 8.5-3.79-13.753 9.92-8.5H37.77l-3.788-13.75-3.79 13.75z" fill="#163BA4"/><path d="M82.96 38.997h25.35L87.8 56.568 95.636 85 75.127 67.429 54.617 85l7.834-28.432-20.508-17.57h25.35l7.834-28.433c2.61 9.478 5.222 18.954 7.833 28.432zm-11.623 6.564H59.075l9.92 8.5-3.788 13.753 9.92-8.5 9.92 8.5-3.79-13.753 9.92-8.5H78.915l-3.788-13.75-3.79 13.75z" fill="#163BA4"/><path d="M126.65 28.432H152l-20.509 17.57 7.833 28.433-20.507-17.572-20.51 17.572 7.834-28.432-20.508-17.571h25.35L118.817 0c2.61 9.478 5.222 18.954 7.833 28.432zm-11.623 6.564h-12.262l9.92 8.5-3.789 13.752 9.921-8.5 9.92 8.5-3.79-13.753 9.92-8.5h-12.262l-3.788-13.75-3.79 13.75z" fill="#163BA4"/></svg>