<svg width="101" height="100" fill="none" xmlns="http://www.w3.org/2000/svg"><g clip-path="url(#clip0_123_2748)" fill="#163BA4"><path d="M48.594 64.73a1.487 1.487 0 00-2.104 0l-3.009 3.009-5.736-5.736 3.01-3.01a1.487 1.487 0 10-2.104-2.104l-3.13 3.131a2.72 2.72 0 00-3.075.55L14.997 78.016a1.487 1.487 0 102.104 2.104l17.277-17.277 8.261 8.261-24.016 24.017a5.808 5.808 0 01-4.2 1.707 5.798 5.798 0 01-4.16-1.808c-2.17-2.275-2.082-5.98.195-8.257l2.856-2.856a1.488 1.488 0 10-2.104-2.103L8.354 84.66c-3.41 3.41-3.52 8.98-.244 12.415a8.75 8.75 0 006.385 2.73 8.745 8.745 0 006.232-2.58l24.187-24.187c.83-.83 1.01-2.063.548-3.072l3.131-3.132a1.487 1.487 0 000-2.104zM95.17 39.51a1.488 1.488 0 00-2.588 1.467c2.69 4.744 3.094 10.203 1.216 15.077-3.434-6.15-8.952-12.037-13.31-15.115l6.498-6.493 2.618 2.618c.29.29.671.436 1.052.436a1.488 1.488 0 001.052-2.54l-2.617-2.616 1.748-1.746a1.487 1.487 0 000-2.105L77.16 14.812a1.488 1.488 0 00-2.093-.011c-.153.15-.327.274-.52.37-1.209.609-3.02.118-4.303-1.166-1.277-1.276-1.765-3.023-1.184-4.257a2.01 2.01 0 01.39-.564 1.487 1.487 0 00-.011-2.093L62.782.436a1.487 1.487 0 00-2.103 0l-14.51 14.51a1.487 1.487 0 000 2.103l6.655 6.655a1.488 1.488 0 002.087.017 2.07 2.07 0 01.54-.377c1.207-.588 3.006-.094 4.277 1.176 1.28 1.28 1.771 3.088 1.169 4.298a2.074 2.074 0 01-.368.52 1.488 1.488 0 00.016 2.087l1.784 1.784-12.769 12.77a1.488 1.488 0 102.104 2.104l12.769-12.77 5.737 5.737L57.4 53.82a1.487 1.487 0 102.103 2.104l12.77-12.77 1.946 1.945a1.488 1.488 0 002.104 0l2.026-2.023c4.698 3.143 11.167 10.303 14.113 16.941a1.488 1.488 0 002.643.15c3.752-6.388 3.777-14.11.065-20.657zM53.876 20.549l-4.551-4.552L61.73 3.591l4.552 4.552-12.406 12.406zm7.956 1.868c-1.04-1.04-2.276-1.741-3.54-2.076l7.774-7.775c.334 1.268 1.035 2.506 2.073 3.543 1.136 1.136 2.534 1.87 3.946 2.155l-8.1 8.1c-.285-1.413-1.018-2.812-2.154-3.947zM75.27 41.944l-11.329-11.33L76.348 18.21l11.335 11.335-12.412 12.4z"/><path d="M90.295 84.566l-2.388-2.387a1.487 1.487 0 10-2.103 2.103l2.388 2.389a6.025 6.025 0 011.775 4.289c0 1.62-.63 3.144-1.775 4.289a6.027 6.027 0 01-4.29 1.777 6.027 6.027 0 01-4.289-1.777l-14.04-14.04c.38-.717.582-1.521.582-2.356a5.008 5.008 0 00-1.477-3.565 5.008 5.008 0 00-3.565-1.477c-.835 0-1.639.202-2.356.582l-1.066-1.066 8.579-8.578 1.067 1.067a5.05 5.05 0 00.894 5.92 5.008 5.008 0 003.564 1.476c.835 0 1.64-.202 2.356-.582l7.883 7.883a1.487 1.487 0 102.103-2.104l-8.777-8.777a1.487 1.487 0 00-2.104 0c-.39.39-.909.605-1.46.605a2.068 2.068 0 01-1.46-3.527 1.487 1.487 0 00-.002-2.104l-3.013-3.013a1.487 1.487 0 00-2.103 0l-.175.175-3.058-3.058a1.487 1.487 0 00-2.104 0l-.68.68-37.125-37.127-.818-5.803a1.487 1.487 0 00-.81-1.124l-10.146-5.059a1.488 1.488 0 00-1.716.28l-5.087 5.086a1.488 1.488 0 00-.28 1.716l5.06 10.147c.218.438.639.74 1.124.81l5.802.818 4.21 4.21a1.488 1.488 0 102.105-2.103l-4.563-4.562a1.487 1.487 0 00-.844-.421l-5.52-.78L6.36 16.99l3.573-3.572 8.488 4.232.779 5.52c.045.32.192.617.42.845l37.478 37.477-2.663 2.664-29.94-29.94a1.487 1.487 0 10-2.104 2.103l29.94 29.94-.68.679a1.487 1.487 0 000 2.104L54.71 72.1l-.175.175a1.487 1.487 0 000 2.103l3.014 3.013a1.487 1.487 0 002.103 0c.39-.39.91-.605 1.461-.605.552 0 1.07.215 1.461.605.39.39.605.91.605 1.461 0 .552-.215 1.07-.605 1.461a1.487 1.487 0 000 2.104L77.51 97.352A8.981 8.981 0 0083.903 100a8.98 8.98 0 006.393-2.648 8.981 8.981 0 002.646-6.393 8.98 8.98 0 00-2.647-6.393zm-33.482-14.57l-2.006-2.006 5.447-5.446.679-.68 2.006 2.007-6.126 6.125z"/></g><defs><clipPath id="clip0_123_2748"><path fill="#fff" transform="translate(.5)" d="M0 0h100v100H0z"/></clipPath></defs></svg>