<svg width="513" height="512" fill="none" xmlns="http://www.w3.org/2000/svg"><g clip-path="url(#clip0_81_2701)" fill="#163BA4"><path d="M158.234 167.666c-6.266 7.683-15.537 12.089-25.436 12.089-18.098 0-32.82-14.723-32.82-32.82 0-18.098 14.722-32.821 32.82-32.821V98.966c-26.449 0-47.968 21.519-47.968 47.968 0 26.449 21.519 47.968 47.968 47.968 14.471 0 28.022-6.438 37.176-17.664l-11.74-9.572zm197.744-55.571H340.83v15.148h15.148v-15.148zm-60.592 0h-15.148v15.148h15.148v-15.148zm30.297 0h-15.148v15.148h15.148v-15.148z"/><path d="M140.373 140.371h-15.148v15.148h15.148v-15.148z"/><path d="M496.854 221.16v38.375h-18.682c-17.54 0-31.811 14.27-31.811 31.811v18.682H318.109v-74.73h6.564c23.409 0 45.465-9.065 62.109-25.521 14.838-14.673 23.832-33.719 25.803-54.258h.337l.087-7.478v-.01l.009-.271c.01-.274.018-.548.018-.825 0-.174-.006-.346-.007-.519l.075-6.045h-.312c-3.37-45.67-41.603-81.8-88.12-81.8H88.364c-48.723 0-88.362 39.64-88.362 88.364 0 .277.008.551.018.825l.095 7.759h44.739c4.33 44.711 42.117 79.779 87.945 79.779h119.669v139.866c0 18.098 14.723 32.821 32.82 32.821s32.82-14.723 32.82-32.821v-9.594h128.253v17.673c0 17.54 14.27 31.811 31.811 31.811h18.682v38.375h15.148V221.16h-15.148zM324.673 73.72c38.158 0 69.593 29.345 72.923 66.651H176.487c-2.043-27.709-16.922-51.903-38.697-66.651h186.883zM44.694 140.37H15.442c3.176-35.576 31.917-63.892 67.667-66.443-21.87 14.966-36.378 39.373-38.415 66.443zm14.89 6.564c0-31.799 20.874-60.166 51.017-69.752 29.53 9.436 50.979 37.132 50.979 69.752 0 .097-.005.192-.008.287-.008.211-.015.422-.017.634l-.089 7.663h44.019c-4.289 36.274-35.409 64.631-72.686 64.631-40.371 0-73.215-32.844-73.215-73.215zm243.377 228.229c0 9.744-7.928 17.673-17.673 17.673-9.745 0-17.673-7.928-17.673-17.673V236.308h35.345v138.856h.001zM182.271 220.15a89.157 89.157 0 0012.636-10.373c14.838-14.673 23.832-33.719 25.803-54.258h176.654c-4.287 36.275-35.415 64.631-72.692 64.631H182.271zm264.09 130.272H318.109v-25.247h128.253l-.001 25.247zm50.493 49.483h-18.682c-9.188 0-16.663-7.475-16.663-16.663v-91.897c0-9.188 7.475-16.663 16.663-16.663h18.682v125.223z"/></g><defs><clipPath id="clip0_81_2701"><path fill="#fff" transform="translate(.002)" d="M0 0h512v512H0z"/></clipPath></defs></svg>