<svg width="959" height="505" fill="none" xmlns="http://www.w3.org/2000/svg"><path d="M357.7 192.956L213.345 337.311c-3.905 3.905-3.905 10.237 0 14.143a9.968 9.968 0 007.071 2.929 9.966 9.966 0 007.071-2.929l144.355-144.355c3.905-3.905 3.905-10.237 0-14.143a9.998 9.998 0 00-14.142 0zm64.708-50.565c-3.906-3.905-10.236-3.905-14.143 0l-17.942 17.942c-3.905 3.905-3.905 10.237 0 14.143a9.968 9.968 0 007.071 2.929 9.968 9.968 0 007.071-2.929l17.942-17.942c3.906-3.906 3.906-10.238.001-14.143z" fill="#163BA4"/><path d="M489.5 418.872h-44.405c-24.695 0-44.786-20.091-44.786-44.786v-27.03c35.777-4.895 63.437-35.638 63.437-72.738 0-22.301-10.146-43.158-27.12-56.97l62.446-62.447a10.001 10.001 0 000-14.142L361.24 2.929c-3.906-3.905-10.236-3.905-14.143 0L76.33 273.697c-3.905 3.905-3.905 10.237 0 14.142l29.63 29.63-29.225 29.224-39.193.74a10 10 0 00-6.881 2.926l-1.628 1.627-.005.005-26.1 26.098c-3.904 3.905-3.904 10.237 0 14.143l106.84 106.839a9.968 9.968 0 007.071 2.929 9.966 9.966 0 007.071-2.929l26.098-26.098 1.631-1.631a10.003 10.003 0 002.927-6.882l.74-39.194 29.224-29.225 29.63 29.63a10.001 10.001 0 0014.142 0l105.035-105.035c11.724 14.407 28.521 23.894 46.97 26.434v27.018c0 35.723 29.063 64.786 64.786 64.786H489.5c5.522 0 10-4.477 10-10s-4.478-10.002-10-10.002zm-372.661 58.986l-92.697-92.697 11.956-11.956 92.697 92.697-11.956 11.956zm21.474-63.883a10 10 0 00-2.927 6.882l-.433 22.918-76.73-76.729 22.919-.433a10.001 10.001 0 006.882-2.927L120.1 331.61l50.288 50.288-32.075 32.077zm82.919-9.518L97.542 280.768 354.17 24.142 477.857 147.83 221.232 404.457zm169.076-76.702c-16.925 0-32.712-8.03-42.73-21.359l74.808-74.809c13.329 10.019 21.359 25.806 21.359 42.731 0 29.465-23.972 53.437-53.437 53.437zM799.215 25H556.787c-5.173 0-9.367 3.582-9.367 8v464c0 4.418 4.194 8 9.367 8h242.428c5.172 0 9.366-3.582 9.366-8V33c0-4.418-4.194-8-9.366-8zm-9.367 464H566.153V41h223.695v448z" fill="#163BA4"/><path d="M733.76 59c-1.713-1.29-3.917-2.001-6.2-2h-99.119c-2.283-.001-4.487.71-6.2 2-34.918 26.302-38.261 71.8-7.466 101.624C630.778 176.122 653.806 185 678 185c46.559 0 84.301-32.235 84.302-72 0-20.664-10.396-40.332-28.542-54zm-8.936 93.192c-25.348 22.087-66.86 22.442-92.72.792s-26.276-57.105-.928-79.192c.306-.267.615-.531.928-.792h91.793c25.86 21.65 26.276 57.105.927 79.192z" fill="#163BA4"/><path d="M677.999 73c-25.852.026-46.803 17.92-46.833 40 0 22.091 20.968 40 46.833 40s46.834-17.909 46.834-40-20.969-40-46.834-40zm0 64c-15.519 0-28.1-10.745-28.1-24s12.581-24 28.1-24c15.52 0 28.1 10.745 28.1 24s-12.58 24-28.1 24z" fill="#163BA4"/><path d="M678.001 129c10.346 0 18.733-7.163 18.733-16s-8.387-16-18.733-16-18.733 7.163-18.733 16 8.387 16 18.733 16zm84.3 72h-168.6c-5.173 0-9.367 3.582-9.367 8v32c0 4.418 4.194 8 9.367 8h168.6c5.172 0 9.366-3.582 9.366-8v-32c0-4.418-4.194-8-9.366-8zm-9.367 32H603.067v-16h149.867v16zm-149.867 96h-18.733v16h18.733v-16zm37.467 0h-18.733v16h18.733v-16zm37.467 0h-18.733v16h18.733v-16zm-74.934-32h-18.733v16h18.733v-16zm37.467 0h-18.733v16h18.733v-16zm37.467 0h-18.733v16h18.733v-16zm-74.934-32h-18.733v16h18.733v-16zm37.467 0h-18.733v16h18.733v-16zm37.467 0h-18.733v16h18.733v-16zm-74.934 96h-18.733v16h18.733v-16zm37.467 0h-18.733v16h18.733v-16zm37.467 0h-18.733v16h18.733v-16zm-74.934 32h-18.733v16h18.733v-16zm37.467 0h-18.733v16h18.733v-16zm37.467 0h-18.733v16h18.733v-16zm-74.934 32h-18.733v16h18.733v-16zm37.467 0h-18.733v16h18.733v-16zm37.467 0h-18.733v16h18.733v-16zm-74.934 32h-18.733v16h18.733v-16zm37.467 0h-18.733v16h18.733v-16zm37.467 0h-18.733v16h18.733v-16zm84.298-48h-56.2c-5.173 0-9.367 3.582-9.367 8v48c0 4.418 4.194 8 9.367 8h56.2c5.173 0 9.367-3.582 9.367-8v-48c0-4.418-4.194-8-9.367-8zm-9.367 48h-37.466v-32h37.466v32zm12.115-301.666l-28.102 24.002 13.247 11.314 28.102-24.002-13.247-11.314zM771.666 297h-74.934v16h74.934v-16zm0 32h-74.934v16h74.934v-16zm-18.733 32h-37.466v16h37.466v-16z" fill="#163BA4"/></svg>