<svg width="101" height="80" fill="none" xmlns="http://www.w3.org/2000/svg"><mask id="a" fill="#fff"><path d="M89.343 61.102c.613 0 1.11-.522 1.11-1.167V2.953c0-1.628-1.26-2.953-2.807-2.953H42.938c-1.546 0-2.805 1.325-2.805 2.953v73.77c0 1.628 1.259 2.953 2.806 2.953h44.708c1.547 0 2.805-1.325 2.805-2.954v-11.34c0-.645-.496-1.167-1.108-1.167-.613 0-1.11.522-1.11 1.167v11.34c0 .342-.263.62-.587.62H42.938c-.324 0-.588-.278-.588-.62V2.953c0-.341.264-.619.588-.619h44.708c.325 0 .589.278.589.62v56.981c0 .645.496 1.167 1.108 1.167z"/></mask><path d="M89.343 61.102c.613 0 1.11-.522 1.11-1.167V2.953c0-1.628-1.26-2.953-2.807-2.953H42.938c-1.546 0-2.805 1.325-2.805 2.953v73.77c0 1.628 1.259 2.953 2.806 2.953h44.708c1.547 0 2.805-1.325 2.805-2.954v-11.34c0-.645-.496-1.167-1.108-1.167-.613 0-1.11.522-1.11 1.167v11.34c0 .342-.263.62-.587.62H42.938c-.324 0-.588-.278-.588-.62V2.953c0-.341.264-.619.588-.619h44.708c.325 0 .589.278.589.62v56.981c0 .645.496 1.167 1.108 1.167z" fill="#163BA4"/><path d="M89.343 68.103c4.812 0 8.11-4 8.11-8.168h-14c0-2.879 2.303-5.833 5.89-5.833v14zm8.11-8.168V2.953h-14v56.982h14zm0-56.982c0-5.152-4.06-9.953-9.807-9.953V7a4.118 4.118 0 01-4.194-4.047h14zM87.645-7H42.938V7h44.708V-7zM42.938-7c-5.746 0-9.805 4.801-9.805 9.953h14A4.118 4.118 0 0142.938 7V-7zm-9.805 9.953v73.77h14V2.953h-14zm0 73.77c0 5.152 4.06 9.953 9.806 9.953v-14a4.118 4.118 0 014.194 4.046h-14zm9.806 9.953h44.708v-14H42.939v14zm44.708 0c5.746 0 9.805-4.801 9.805-9.954h-14a4.118 4.118 0 014.195-4.046v14zm9.805-9.954v-11.34h-14v11.34h14zm0-11.34c0-4.169-3.296-8.167-8.108-8.167v14c-3.587 0-5.892-2.954-5.892-5.833h14zm-8.108-8.167c-4.812 0-8.11 3.998-8.11 8.167h14c0 2.88-2.303 5.833-5.89 5.833v-14zm-8.11 8.167v11.34h14v-11.34h-14zm0 11.34c0-3.181 2.537-6.38 6.413-6.38v14c4.524 0 7.588-3.755 7.588-7.62h-14zm6.413-6.38H42.938v14h44.709v-14zm-44.709 0c3.875 0 6.412 3.197 6.412 6.38h-14c0 3.867 3.066 7.62 7.588 7.62v-14zm6.412 6.38V2.953h-14v73.77h14zm0-73.769c0 3.182-2.535 6.381-6.412 6.381v-14c-4.525 0-7.588 3.755-7.588 7.62h14zm-6.412 6.381h44.708v-14H42.938v14zm44.708 0c-3.874 0-6.411-3.197-6.411-6.38h14c0-3.867-3.066-7.62-7.589-7.62v14zm-6.411-6.38v56.981h14V2.953h-14zm0 56.981c0 4.17 3.297 8.168 8.108 8.168v-14c3.587 0 5.892 2.953 5.892 5.832h-14z" fill="#163BA4" mask="url(#a)"/><mask id="b" fill="#fff"><path d="M70.794 8.894c.34-.536.204-1.261-.305-1.62a8.982 8.982 0 00-5.195-1.657c-5.157 0-9.353 4.416-9.353 9.844 0 5.428 4.196 9.844 9.353 9.844s9.352-4.416 9.352-9.844c0-1.136-.182-2.249-.542-3.31-.206-.606-.84-.924-1.417-.706-.577.216-.878.884-.672 1.491 1.653 4.872-1.792 10.034-6.721 10.034-3.934 0-7.135-3.368-7.135-7.51 0-4.14 3.2-7.509 7.135-7.509a6.85 6.85 0 013.961 1.263c.51.36 1.198.215 1.539-.32z"/></mask><path d="M70.794 8.894c.34-.536.204-1.261-.305-1.62a8.982 8.982 0 00-5.195-1.657c-5.157 0-9.353 4.416-9.353 9.844 0 5.428 4.196 9.844 9.353 9.844s9.352-4.416 9.352-9.844c0-1.136-.182-2.249-.542-3.31-.206-.606-.84-.924-1.417-.706-.577.216-.878.884-.672 1.491 1.653 4.872-1.792 10.034-6.721 10.034-3.934 0-7.135-3.368-7.135-7.51 0-4.14 3.2-7.509 7.135-7.509a6.85 6.85 0 013.961 1.263c.51.36 1.198.215 1.539-.32z" fill="#163BA4"/><path d="M70.794 8.894l-5.907-3.757 5.907 3.757zm-.305-1.62l-4.031 5.724 4.03-5.723zm3.615 4.878l6.629-2.249-6.63 2.248zm-1.417-.707l2.463 6.552.005-.002-2.468-6.55zm-.672 1.491l6.63-2.248-6.63 2.248zm-2.76-3.722l4.032-5.722h-.001l-4.03 5.722zM76.7 12.65c2.283-3.589 1.481-8.52-2.182-11.1l-8.06 11.448a5.795 5.795 0 01-1.571-7.86L76.7 12.65zM74.52 1.552a15.982 15.982 0 00-9.226-2.935v14c.396 0 .788.116 1.164.38l8.061-11.445zm-9.226-2.935c-9.357 0-16.353 7.892-16.353 16.844h14c0-1.904 1.395-2.844 2.353-2.844v-14zM48.94 15.461c0 8.952 6.996 16.844 16.353 16.844v-14c-.958 0-2.353-.94-2.353-2.844h-14zm16.353 16.844c9.356 0 16.352-7.892 16.352-16.844h-14c0 1.904-1.395 2.844-2.352 2.844v14zM81.646 15.46c0-1.89-.304-3.763-.913-5.558L67.475 14.4c.11.326.17.68.17 1.06h14zm-.913-5.559c-1.385-4.081-5.971-6.72-10.515-5.008l4.937 13.101c-3.39 1.278-6.707-.727-7.68-3.594l13.258-4.499zm-10.509-5.01c-4.342 1.632-6.177 6.345-4.838 10.293l13.258-4.498c.928 2.734-.306 6.112-3.495 7.31L70.225 4.892zm-4.838 10.293a.788.788 0 01-.081.703c-.06.088-.105.112-.095.107a.21.21 0 01.045-.018c.024-.006.04-.007.039-.007v14c10.232 0 16.375-10.366 13.35-19.282l-13.258 4.497zm-.092.785c.026 0 .058.008.076.016.012.005-.008 0-.044-.04-.075-.078-.167-.237-.167-.485h-14c0 7.664 6.001 14.51 14.135 14.51v-14zm-.135-.51c0-.247.092-.406.167-.485.036-.039.056-.045.044-.04a.212.212 0 01-.076.016v-14c-8.134 0-14.135 6.845-14.135 14.51h14zm.135-.509a.205.205 0 01-.054-.01c-.021-.006-.026-.011-.015-.003l8.06-11.447A13.85 13.85 0 0065.294.95v14zm-.07-.014c3.89 2.74 9.068 1.502 11.477-2.288l-11.815-7.51c1.728-2.718 5.53-3.67 8.401-1.646l-8.064 11.444z" fill="#163BA4" mask="url(#b)"/><mask id="c" fill="#fff"><path d="M65.294 10.129c-2.793 0-5.066 2.392-5.066 5.332s2.273 5.332 5.066 5.332c2.793 0 5.066-2.392 5.066-5.332s-2.273-5.332-5.066-5.332zm0 8.33c-1.57 0-2.848-1.346-2.848-2.998 0-1.653 1.278-2.998 2.848-2.998 1.57 0 2.848 1.345 2.848 2.998 0 1.652-1.277 2.997-2.848 2.997z"/></mask><path d="M65.294 10.129c-2.793 0-5.066 2.392-5.066 5.332s2.273 5.332 5.066 5.332c2.793 0 5.066-2.392 5.066-5.332s-2.273-5.332-5.066-5.332zm0 8.33c-1.57 0-2.848-1.346-2.848-2.998 0-1.653 1.278-2.998 2.848-2.998 1.57 0 2.848 1.345 2.848 2.998 0 1.652-1.277 2.997-2.848 2.997z" fill="#163BA4"/><path d="M65.294 3.129c-6.992 0-12.066 5.868-12.066 12.332h14c0 .584-.528 1.668-1.934 1.668v-14zM53.228 15.46c0 6.464 5.073 12.332 12.066 12.332v-14c1.406 0 1.934 1.084 1.934 1.668h-14zm12.066 12.332c6.993 0 12.066-5.869 12.066-12.332h-14c0-.584.528-1.668 1.934-1.668v14zM77.36 15.46c0-6.464-5.073-12.332-12.066-12.332v14c-1.406 0-1.934-1.084-1.934-1.668h14zm-12.066-4.003a4.075 4.075 0 014.152 4.002h-14c0 5.177 4.079 9.998 9.848 9.998v-14zm4.152 4.002a4.075 4.075 0 01-4.152 4.003v-14c-5.77 0-9.848 4.82-9.848 9.997h14zm-4.152 4.003a4.075 4.075 0 01-4.152-4.003h14c0-5.176-4.078-9.997-9.848-9.997v14zm-4.152-4.003a4.075 4.075 0 014.152-4.002v14c5.77 0 9.848-4.821 9.848-9.997h-14z" fill="#163BA4" mask="url(#c)"/><path d="M65.292 16.628c.613 0 1.11-.522 1.11-1.167s-.497-1.167-1.11-1.167c-.612 0-1.108.522-1.108 1.167s.496 1.167 1.108 1.167zM45.308 6.614c.612 0 1.109-.523 1.109-1.168 0-.644-.497-1.167-1.109-1.167S44.2 4.802 44.2 5.446c0 .645.497 1.168 1.11 1.168zm6.022 35.591c.612 0 1.108-.522 1.108-1.167 0-.644-.496-1.167-1.108-1.167-.613 0-1.11.523-1.11 1.167 0 .645.497 1.167 1.11 1.167zm0 3.891c.612 0 1.108-.523 1.108-1.167 0-.645-.496-1.167-1.108-1.167-.613 0-1.11.522-1.11 1.167 0 .644.497 1.167 1.11 1.167zm0 3.891c.612 0 1.108-.523 1.108-1.168 0-.644-.496-1.167-1.108-1.167-.613 0-1.11.523-1.11 1.167 0 .645.497 1.168 1.11 1.168zm5.586-7.782c.612 0 1.108-.522 1.108-1.167 0-.644-.496-1.167-1.108-1.167-.613 0-1.11.523-1.11 1.167 0 .645.497 1.167 1.11 1.167zm0 3.891c.612 0 1.108-.523 1.108-1.167 0-.645-.496-1.167-1.108-1.167-.613 0-1.11.522-1.11 1.167 0 .644.497 1.167 1.11 1.167zm0 3.891c.612 0 1.108-.523 1.108-1.168 0-.644-.496-1.167-1.108-1.167-.613 0-1.11.523-1.11 1.167 0 .645.497 1.168 1.11 1.168zm5.584-7.782c.612 0 1.108-.522 1.108-1.167 0-.644-.496-1.167-1.108-1.167-.613 0-1.11.523-1.11 1.167 0 .645.497 1.167 1.11 1.167zm0 3.891c.612 0 1.108-.523 1.108-1.167 0-.645-.496-1.167-1.108-1.167-.613 0-1.11.522-1.11 1.167 0 .644.497 1.167 1.11 1.167zm0 3.891c.612 0 1.108-.523 1.108-1.168 0-.644-.496-1.167-1.108-1.167-.613 0-1.11.523-1.11 1.167 0 .645.497 1.168 1.11 1.168zm5.585-7.782c.613 0 1.11-.522 1.11-1.167 0-.644-.497-1.167-1.11-1.167-.612 0-1.108.523-1.108 1.167 0 .645.496 1.167 1.108 1.167zm0 3.891c.613 0 1.11-.523 1.11-1.167 0-.645-.497-1.167-1.11-1.167-.612 0-1.108.522-1.108 1.167 0 .644.496 1.167 1.108 1.167zm0 3.891c.613 0 1.11-.523 1.11-1.168 0-.644-.497-1.167-1.11-1.167-.612 0-1.108.523-1.108 1.167 0 .645.496 1.168 1.108 1.168zm5.586-7.782c.613 0 1.11-.522 1.11-1.167 0-.644-.497-1.167-1.11-1.167-.612 0-1.109.523-1.109 1.167 0 .645.497 1.167 1.11 1.167zm0 3.891c.613 0 1.11-.523 1.11-1.167 0-.645-.497-1.167-1.11-1.167-.612 0-1.109.522-1.109 1.167 0 .644.497 1.167 1.11 1.167zm0 3.891c.613 0 1.11-.523 1.11-1.168 0-.644-.497-1.167-1.11-1.167-.612 0-1.109.523-1.109 1.167 0 .645.497 1.168 1.11 1.168zm5.586-7.782c.613 0 1.11-.522 1.11-1.167 0-.644-.497-1.167-1.11-1.167-.612 0-1.109.523-1.109 1.167 0 .645.497 1.167 1.11 1.167zm0 3.891c.613 0 1.11-.523 1.11-1.167 0-.645-.497-1.167-1.11-1.167-.612 0-1.109.522-1.109 1.167 0 .644.497 1.167 1.11 1.167zm0 3.891c.613 0 1.11-.523 1.11-1.168 0-.644-.497-1.167-1.11-1.167-.612 0-1.109.523-1.109 1.167 0 .645.497 1.168 1.11 1.168zM51.33 53.876c.612 0 1.108-.522 1.108-1.167s-.496-1.167-1.108-1.167c-.613 0-1.11.523-1.11 1.167 0 .645.497 1.167 1.11 1.167zm5.586 0c.612 0 1.108-.522 1.108-1.167s-.496-1.167-1.108-1.167c-.613 0-1.11.523-1.11 1.167 0 .645.497 1.167 1.11 1.167zm5.584 0c.612 0 1.108-.522 1.108-1.167s-.496-1.167-1.108-1.167c-.613 0-1.11.523-1.11 1.167 0 .645.497 1.167 1.11 1.167zm5.585 0c.613 0 1.11-.522 1.11-1.167s-.497-1.167-1.11-1.167c-.612 0-1.108.523-1.108 1.167 0 .645.496 1.167 1.108 1.167zm5.586 0c.613 0 1.11-.522 1.11-1.167s-.497-1.167-1.11-1.167c-.612 0-1.109.523-1.109 1.167 0 .645.497 1.167 1.11 1.167zm5.586 0c.613 0 1.11-.522 1.11-1.167s-.497-1.167-1.11-1.167c-.612 0-1.109.523-1.109 1.167 0 .645.497 1.167 1.11 1.167zm6.022-47.262c.612 0 1.109-.523 1.109-1.168 0-.644-.497-1.167-1.11-1.167-.612 0-1.108.523-1.108 1.167 0 .645.496 1.168 1.109 1.168zM45.308 75.389c.612 0 1.109-.523 1.109-1.167 0-.645-.497-1.167-1.109-1.167s-1.109.522-1.109 1.167c0 .644.497 1.167 1.11 1.167zm39.971 0c.612 0 1.109-.523 1.109-1.167 0-.645-.497-1.167-1.11-1.167-.612 0-1.108.522-1.108 1.167 0 .644.496 1.167 1.109 1.167z" fill="#163BA4" stroke="#163BA4" stroke-width="7"/><mask id="d" fill="#fff"><path d="M81.294 28.806c0-.645-.496-1.167-1.109-1.167H57.758c-.612 0-1.109.522-1.109 1.167s.497 1.167 1.11 1.167h1.11v3.673h-7.358v-3.673h1.072c.613 0 1.11-.522 1.11-1.167s-.497-1.167-1.11-1.167h-2.181c-.613 0-1.109.522-1.109 1.167v6.007c0 .645.496 1.167 1.109 1.167h29.783c.612 0 1.109-.522 1.109-1.167v-6.007zm-20.207 1.167H69.5v3.673h-8.413v-3.673zm17.99 3.673h-7.36v-3.673h7.36v3.673z"/></mask><path d="M81.294 28.806c0-.645-.496-1.167-1.109-1.167H57.758c-.612 0-1.109.522-1.109 1.167s.497 1.167 1.11 1.167h1.11v3.673h-7.358v-3.673h1.072c.613 0 1.11-.522 1.11-1.167s-.497-1.167-1.11-1.167h-2.181c-.613 0-1.109.522-1.109 1.167v6.007c0 .645.496 1.167 1.109 1.167h29.783c.612 0 1.109-.522 1.109-1.167v-6.007zm-20.207 1.167H69.5v3.673h-8.413v-3.673zm17.99 3.673h-7.36v-3.673h7.36v3.673z" fill="#163BA4"/><path d="M58.87 29.973h7v-7h-7v7zm0 3.673v7h7v-7h-7zm-7.36 0h-7v7h7v-7zm0-3.673v-7h-7v7h7zm9.577 0v-7h-7v7h7zm8.413 0h7v-7h-7v7zm0 3.673v7h7v-7h-7zm-8.413 0h-7v7h7v-7zm17.99 0v7h7v-7h-7zm-7.36 0h-7v7h7v-7zm0-3.673v-7h-7v7h7zm7.36 0h7v-7h-7v7zm9.217-1.167c0-4.169-3.297-8.167-8.109-8.167v14c-3.587 0-5.891-2.954-5.891-5.833h14zm-8.109-8.167H57.758v14h22.427v-14zm-22.427 0c-4.812 0-8.109 3.998-8.109 8.167h14c0 2.879-2.304 5.833-5.89 5.833v-14zm-8.109 8.167c0 4.168 3.297 8.167 8.11 8.167v-14c3.586 0 5.89 2.954 5.89 5.833h-14zm8.11 8.167h1.11v-14h-1.11v14zm-5.89-7v3.673h14v-3.673h-14zm7-3.327h-7.358v14h7.358v-14zm-.358 7v-3.673h-14v3.673h14zm-7 3.327h1.072v-14h-1.072v14zm1.072 0c4.813 0 8.11-3.999 8.11-8.167h-14c0-2.88 2.303-5.833 5.89-5.833v14zm8.11-8.167c0-4.169-3.297-8.167-8.11-8.167v14c-3.587 0-5.89-2.954-5.89-5.833h14zm-8.11-8.167h-2.181v14h2.181v-14zm-2.181 0c-4.812 0-8.109 3.998-8.109 8.167h14c0 2.879-2.304 5.833-5.891 5.833v-14zm-8.109 8.167v6.007h14v-6.007h-14zm0 6.007c0 4.169 3.297 8.167 8.109 8.167v-14c3.587 0 5.891 2.954 5.891 5.833h-14zm8.109 8.167h29.783v-14H50.402v14zm29.783 0c4.812 0 8.109-3.998 8.109-8.167h-14c0-2.879 2.304-5.833 5.891-5.833v14zm8.109-8.167v-6.007h-14v6.007h14zm-27.207 2.16H69.5v-14h-8.413v14zm1.413-7v3.673h14v-3.673h-14zm7-3.327h-8.413v14H69.5v-14zm-1.413 7v-3.673h-14v3.673h14zm10.99-7h-7.36v14h7.36v-14zm-.36 7v-3.673h-14v3.673h14zm-7 3.327h7.36v-14h-7.36v14zm.36-7v3.673h14v-3.673h-14z" fill="#163BA4" mask="url(#d)"/><mask id="e" fill="#fff"><path d="M49.293 59.323v8.401c0 .645.496 1.167 1.109 1.167h29.783c.612 0 1.109-.522 1.109-1.167v-8.4c0-.645-.496-1.168-1.109-1.168H50.402c-.613 0-1.109.523-1.109 1.167zm2.218 1.167h27.565v6.067H51.511V60.49z"/></mask><path d="M49.293 59.323v8.401c0 .645.496 1.167 1.109 1.167h29.783c.612 0 1.109-.522 1.109-1.167v-8.4c0-.645-.496-1.168-1.109-1.168H50.402c-.613 0-1.109.523-1.109 1.167zm2.218 1.167h27.565v6.067H51.511V60.49z" fill="#163BA4"/><path d="M51.51 60.49v-7h-7v7h7zm27.566 0h7v-7h-7v7zm0 6.067v7h7v-7h-7zm-27.565 0h-7v7h7v-7zm-9.218-7.234v8.401h14v-8.4h-14zm0 8.401c0 4.169 3.297 8.167 8.109 8.167v-14c3.587 0 5.891 2.954 5.891 5.833h-14zm8.109 8.167h29.783v-14H50.402v14zm29.783 0c4.812 0 8.109-3.998 8.109-8.167h-14c0-2.879 2.304-5.833 5.891-5.833v14zm8.109-8.167v-8.4h-14v8.4h14zm0-8.4c0-4.17-3.297-8.168-8.109-8.168v14c-3.587 0-5.891-2.954-5.891-5.833h14zm-8.109-8.168H50.402v14h29.783v-14zm-29.783 0c-4.811 0-8.109 3.998-8.109 8.167h14c0 2.88-2.305 5.833-5.891 5.833v-14zM51.51 67.49h27.565v-14H51.511v14zm20.565-7v6.067h14V60.49h-14zm7-.933H51.511v14h27.565v-14zm-20.565 7V60.49h-14v6.067h14z" fill="#163BA4" mask="url(#e)"/><path d="M65.292 64.69c.613 0 1.11-.522 1.11-1.166 0-.645-.497-1.168-1.11-1.168-.612 0-1.108.523-1.108 1.168 0 .644.496 1.167 1.108 1.167z" fill="#163BA4" stroke="#163BA4" stroke-width="7"/><mask id="f" fill="#fff"><path d="M101 46.418c0-.645-.497-1.167-1.11-1.167h-5.566c-.613 0-1.11.522-1.11 1.167s.497 1.167 1.11 1.167h5.567c.612 0 1.109-.522 1.109-1.167z"/></mask><path d="M101 46.418c0-.645-.497-1.167-1.11-1.167h-5.566c-.613 0-1.11.522-1.11 1.167s.497 1.167 1.11 1.167h5.567c.612 0 1.109-.522 1.109-1.167z" fill="#163BA4"/><path d="M108 46.418c0-4.169-3.297-8.167-8.11-8.167v14c-3.586 0-5.89-2.954-5.89-5.833h14zm-8.11-8.167h-5.566v14h5.567v-14zm-5.566 0c-4.812 0-8.11 3.998-8.11 8.167h14.001c0 2.88-2.304 5.833-5.891 5.833v-14zm-8.11 8.167c0 4.169 3.298 8.167 8.11 8.167v-14c3.587 0 5.891 2.954 5.891 5.833h-14zm8.11 8.167h5.567v-14h-5.567v14zm5.567 0c4.811 0 8.109-3.998 8.109-8.167H94c0-2.88 2.304-5.833 5.89-5.833v14z" fill="#163BA4" mask="url(#f)"/><mask id="g" fill="#fff"><path d="M97.692 35.722l-4.821 2.93c-.53.322-.712 1.036-.406 1.594.308.561.987.748 1.515.427l4.821-2.93c.53-.322.712-1.036.406-1.594-.306-.558-.984-.75-1.515-.427z"/></mask><path d="M97.692 35.722l-4.821 2.93c-.53.322-.712 1.036-.406 1.594.308.561.987.748 1.515.427l4.821-2.93c.53-.322.712-1.036.406-1.594-.306-.558-.984-.75-1.515-.427z" fill="#163BA4"/><path d="M97.692 35.722l3.636 5.982-3.636-5.982zm-4.821 2.93l3.635 5.982-3.635-5.982zm-.406 1.594l-6.137 3.367 6.137-3.367zm1.515.427l3.635 5.983-3.635-5.983zm4.821-2.93l-3.635-5.982 3.635 5.982zm.406-1.594l6.137-3.366-6.137 3.366zm-5.15-6.409l-4.821 2.93 7.27 11.964 4.822-2.93-7.271-11.964zm-4.821 2.93c-3.866 2.349-4.94 7.24-2.908 10.943l12.274-6.733c1.419 2.586.709 6.05-2.096 7.754l-7.27-11.964zm-2.908 10.944c2.151 3.92 7.22 5.513 11.287 3.042l-7.27-11.965c3.011-1.83 6.722-.61 8.257 2.188l-12.274 6.735zm11.287 3.041l4.821-2.93-7.27-11.963-4.822 2.93 7.271 11.963zm4.821-2.93c3.866-2.348 4.939-7.24 2.908-10.942L93.07 39.516c-1.419-2.586-.709-6.05 2.096-7.755l7.27 11.964zm2.908-10.943c-2.137-3.895-7.196-5.529-11.288-3.042l7.272 11.964c-3.03 1.842-6.734.59-8.258-2.188l12.274-6.734z" fill="#163BA4" mask="url(#g)"/><mask id="h" fill="#fff"><path d="M93.98 52.578c-.53-.323-1.209-.132-1.515.427-.306.558-.124 1.272.406 1.594l4.821 2.93c.53.321 1.209.131 1.515-.427.306-.559.125-1.272-.406-1.595l-4.821-2.93z"/></mask><path d="M93.98 52.578c-.53-.323-1.209-.132-1.515.427-.306.558-.124 1.272.406 1.594l4.821 2.93c.53.321 1.209.131 1.515-.427.306-.559.125-1.272-.406-1.595l-4.821-2.93z" fill="#163BA4"/><path d="M93.98 52.578l3.635-5.983h-.001l-3.634 5.983zm-1.515.427l6.137 3.366.001-.002-6.138-3.364zm.406 1.594l-3.635 5.982 3.635-5.982zm4.821 2.93l-3.635 5.982.002.001 3.633-5.983zm1.515-.427l-6.137-3.367v.001l6.137 3.366zm-.406-1.595l3.635-5.982-3.635 5.982zm-1.187-8.912c-4.089-2.484-9.15-.855-11.287 3.045l12.276 6.73c-1.525 2.783-5.23 4.03-8.257 2.19l7.268-11.965zm-11.286 3.043c-2.031 3.703-.958 8.594 2.908 10.943l7.27-11.964c2.805 1.704 3.515 5.168 2.096 7.754l-12.274-6.733zm2.908 10.943l4.821 2.93 7.27-11.964-4.82-2.93-7.271 11.964zm4.823 2.931c4.081 2.478 9.144.862 11.286-3.045l-12.276-6.73c1.53-2.79 5.235-4.026 8.256-2.192l-7.266 11.967zm11.285-3.044c2.031-3.702.958-8.594-2.908-10.943l-7.27 11.964c-2.805-1.704-3.515-5.168-2.096-7.754l12.274 6.733zm-2.908-10.943l-4.821-2.93-7.27 11.965 4.821 2.93 7.27-11.965z" fill="#163BA4" mask="url(#h)"/><mask id="i" fill="#fff"><path d="M36.027 46.418c0-.645-.496-1.167-1.109-1.167h-5.567c-.613 0-1.109.522-1.109 1.167s.496 1.167 1.109 1.167h5.567c.613 0 1.11-.522 1.11-1.167z"/></mask><path d="M36.027 46.418c0-.645-.496-1.167-1.109-1.167h-5.567c-.613 0-1.109.522-1.109 1.167s.496 1.167 1.109 1.167h5.567c.613 0 1.11-.522 1.11-1.167z" fill="#163BA4"/><path d="M43.027 46.418c0-4.169-3.297-8.167-8.109-8.167v14c-3.587 0-5.89-2.954-5.89-5.833h14zm-8.109-8.167h-5.567v14h5.567v-14zm-5.567 0c-4.812 0-8.109 3.998-8.109 8.167h14c0 2.88-2.304 5.833-5.891 5.833v-14zm-8.109 8.167c0 4.169 3.297 8.167 8.109 8.167v-14c3.587 0 5.891 2.954 5.891 5.833h-14zm8.109 8.167h5.567v-14h-5.567v14zm5.567 0c4.811 0 8.11-3.997 8.11-8.167h-14c0-2.88 2.305-5.833 5.89-5.833v14z" fill="#163BA4" mask="url(#i)"/><mask id="j" fill="#fff"><path d="M36.37 38.652l-4.822-2.93c-.53-.322-1.209-.131-1.514.427-.307.558-.125 1.272.405 1.594l4.822 2.93c.527.32 1.206.135 1.514-.427.306-.558.125-1.272-.405-1.594z"/></mask><path d="M36.37 38.652l-4.822-2.93c-.53-.322-1.209-.131-1.514.427-.307.558-.125 1.272.405 1.594l4.822 2.93c.527.32 1.206.135 1.514-.427.306-.558.125-1.272-.405-1.594z" fill="#163BA4"/><path d="M36.37 38.652l-3.636 5.982 3.636-5.982zm-4.822-2.93l-3.636 5.982 3.636-5.982zm-1.514.427l6.137 3.367.002-.003-6.14-3.364zm.405 1.594l3.636-5.982-3.636 5.982zm4.822 2.93l-3.636 5.982.001.001 3.635-5.983zm1.514-.427l-6.137-3.366v.001l6.137 3.365zm3.23-7.576l-4.822-2.93-7.27 11.964 4.821 2.93 7.27-11.964zm-4.82-2.93c-4.09-2.485-9.153-.856-11.29 3.046l12.278 6.727c-1.526 2.785-5.232 4.032-8.26 2.19l7.271-11.963zm-11.289 3.043c-2.03 3.702-.957 8.594 2.908 10.942l7.27-11.964c2.805 1.705 3.515 5.169 2.097 7.755l-12.275-6.733zm2.908 10.942l4.821 2.93 7.271-11.964-4.821-2.93-7.271 11.964zm4.822 2.931c4.057 2.464 9.131.889 11.287-3.045l-12.276-6.73c1.54-2.81 5.256-4.014 8.258-2.19l-7.269 11.965zm11.287-3.043c2.03-3.703.957-8.594-2.908-10.943l-7.27 11.964c-2.805-1.704-3.515-5.168-2.097-7.754l12.275 6.733z" fill="#163BA4" mask="url(#j)"/><mask id="k" fill="#fff"><path d="M31.548 57.529l4.822-2.93c.53-.322.712-1.036.405-1.594-.306-.559-.984-.75-1.514-.428l-4.822 2.93c-.53.323-.712 1.036-.405 1.595.307.56.986.747 1.514.427z"/></mask><path d="M31.548 57.529l4.822-2.93c.53-.322.712-1.036.405-1.594-.306-.559-.984-.75-1.514-.428l-4.822 2.93c-.53.323-.712 1.036-.405 1.595.307.56.986.747 1.514.427z" fill="#163BA4"/><path d="M31.548 57.529l3.635 5.982-3.635-5.982zm4.822-2.93l3.635 5.982-3.636-5.982zm.405-1.594l-6.138 3.365.001.001 6.137-3.366zm-1.514-.428l3.635 5.983-3.635-5.983zm-4.822 2.93l-3.635-5.982 3.635 5.982zm-.405 1.595l6.137-3.366v-.001l-6.137 3.367zm5.15 6.409l4.82-2.93-7.27-11.964-4.821 2.93 7.27 11.964zm4.82-2.93c3.866-2.349 4.94-7.24 2.909-10.943l-12.275 6.733c-1.419-2.586-.708-6.05 2.096-7.754l7.27 11.964zm2.91-10.942c-2.138-3.898-7.2-5.529-11.289-3.044l7.271 11.964c-3.03 1.841-6.733.593-8.259-2.19l12.276-6.73zm-11.289-3.044l-4.82 2.93 7.27 11.964 4.82-2.93-7.27-11.964zm-4.82 2.93c-3.866 2.35-4.94 7.24-2.909 10.943l12.275-6.733c1.418 2.586.708 6.05-2.096 7.754l-7.27-11.964zm-2.91 10.942c2.152 3.923 7.222 5.515 11.288 3.044l-7.27-11.965c3.01-1.829 6.723-.611 8.258 2.19l-12.275 6.731z" fill="#163BA4" mask="url(#k)"/><path d="M.907 15.06h0a.484.484 0 01-.007-.082V2.171c0-.312.289-.542.612-.542h31.084c.324 0 .612.23.612.542V14.98a.486.486 0 01-.007.08h0l-.001.007L.907 15.06zm0 0v.001l.003.014.098-.02-.1.005zm.113.24a.534.534 0 01-.046-.063h0L.97 15.23a.511.511 0 01-.034-.07h0l.084.14zm0 0a.116.116 0 00.007.01m-.007-.01l32.178-.225a.507.507 0 01-.022.077v.001l-.003.006h0m-32.146.15h0l.076-.066-.075.067s0 0 0 0zm0 0l1.925 2.213m0 0c.117 6.638 6.412 11.983 14.102 11.983s13.985-5.345 14.102-11.983m-28.204 0v-.037l.1-.001-.076.065-.024-.027zm28.204 0l1.925-2.213a.104.104 0 00.007-.008V15.3m-1.932 2.222l-.024.027-.076-.066.1.002v.037zm1.932-2.222a.545.545 0 00.046-.063h0a.079.079 0 00.004-.007m-.05.07l-.002.003.005-.006h-.001l-.002.003zm.05-.07a.517.517 0 00.034-.07m-.034.07s0 0 0 0m0 0s0 0 0 0h0m.034-.07s0 0 0 0h0m0 0s0 0 0 0m0 0h0m-.035.07v.003-.002zm-.086-.05a.417.417 0 00.029-.058l.002-.006a.391.391 0 00.018-.061l-.049.125zM17.054 28.422c-6.904 0-12.535-4.696-12.864-10.547h6.53v7.998c0 .313.289.542.613.542.323 0 .612-.23.612-.542v-7.998h10.218v7.998c0 .313.289.542.612.542.324 0 .613-.23.613-.542v-7.998h6.53c-.33 5.851-5.96 10.547-12.864 10.547zm14.93-13.985H6.293c-.323 0-.612.229-.612.542 0 .312.289.541.612.541H31.35l-1.107 1.272H3.864L2.757 15.52h1.488c.324 0 .612-.229.612-.541 0-.313-.288-.542-.612-.542h-2.12V2.713H8.67v10.499c0 .313.288.542.612.542s.613-.23.613-.542v-10.5h6.546v10.5c0 .313.288.542.612.542s.612-.23.612-.542v-10.5h6.546v10.5c0 .313.29.542.613.542.324 0 .612-.23.612-.542v-10.5h6.546v11.725z" fill="#163BA4" stroke="#163BA4" stroke-width=".2"/><path d="M17.054 18.632c-2.3 0-4.199 1.617-4.199 3.633 0 2.017 1.898 3.634 4.199 3.634 2.3 0 4.199-1.617 4.199-3.634 0-2.016-1.898-3.633-4.199-3.633zm0 6.183c-1.654 0-2.974-1.157-2.974-2.55 0-1.392 1.32-2.55 2.974-2.55 1.654 0 2.974 1.158 2.974 2.55 0 1.393-1.32 2.55-2.974 2.55z" fill="#163BA4" stroke="#163BA4" stroke-width=".2"/><path d="M18.59 21.724c-.323 0-.612.229-.612.542 0 .418-.4.783-.925.783-.524 0-.924-.365-.924-.783 0-.419.4-.784.924-.784.324 0 .613-.229.613-.541 0-.313-.289-.542-.613-.542-1.17 0-2.15.824-2.15 1.867 0 1.042.98 1.866 2.15 1.866 1.171 0 2.15-.824 2.15-1.866 0-.313-.289-.542-.613-.542z" fill="#163BA4" stroke="#163BA4" stroke-width=".2"/></svg>