<svg width="101" height="76" viewBox="0 0 101 76" fill="none" xmlns="http://www.w3.org/2000/svg">
<path d="M92.3209 0.5H8.9877C4.39375 0.5 0.654297 4.2373 0.654297 8.8334V42.1668C0.654297 46.7627 4.39375 50.5 8.9877 50.5H92.3211C96.9148 50.5 100.654 46.7627 100.654 42.1666V8.8334C100.654 4.2373 96.9148 0.5 92.3209 0.5ZM96.4877 42.1666C96.4877 44.4635 94.6199 46.3332 92.3211 46.3332H8.9877C6.68867 46.3332 4.82109 44.4635 4.82109 42.1666V8.8334C4.82109 6.53652 6.68887 4.6668 8.9877 4.6668H92.3211C94.6201 4.6668 96.4877 6.53652 96.4877 8.8334V42.1666Z" fill="#163BA4"/>
<path d="M90.2375 29.6666H11.0707C9.91914 29.6666 8.9873 30.5984 8.9873 31.75V40.0834C8.9873 41.235 9.91914 42.1668 11.0707 42.1668H90.2373C91.3889 42.1668 92.3207 41.235 92.3207 40.0834V31.75C92.3207 30.5984 91.3891 29.6666 90.2375 29.6666ZM88.1541 38H13.1541V33.8334H88.1541V38Z" fill="#163BA4"/>
<path d="M11.0707 17.1666H73.5707C74.7223 17.1666 75.6541 16.2348 75.6541 15.0832C75.6541 13.9316 74.7223 12.9998 73.5707 12.9998H11.0707C9.91914 12.9998 8.9873 13.9316 8.9873 15.0832C8.9875 16.235 9.91934 17.1666 11.0707 17.1666Z" fill="#163BA4"/>
<path d="M88.1544 8.8334C85.8554 8.8334 83.9878 10.7031 83.9878 13C83.9878 15.2969 85.8556 17.1666 88.1544 17.1666C90.4534 17.1666 92.321 15.2969 92.321 13C92.321 10.7031 90.4534 8.8334 88.1544 8.8334Z" fill="#163BA4"/>
<path d="M75.6541 56.75C75.6541 55.5984 74.7223 54.6666 73.5707 54.6666C72.4191 54.6666 71.4873 55.5984 71.4873 56.75C71.4873 61.409 72.7121 63.8564 73.7904 66.0152C74.7914 68.0152 75.6541 69.7424 75.6541 73.4168C75.6541 74.5684 76.5859 75.5002 77.7375 75.5002C78.8891 75.5002 79.8209 74.5684 79.8209 73.4168C79.8209 68.7578 78.5961 66.3104 77.5178 64.1516C76.5168 62.1516 75.6541 60.4244 75.6541 56.75Z" fill="#163BA4"/>
<path d="M27.7375 54.6666C26.5859 54.6666 25.6541 55.5984 25.6541 56.75C25.6541 60.4244 24.7914 62.1516 23.7904 64.1516C22.7121 66.3102 21.4873 68.7576 21.4873 73.4168C21.4873 74.5684 22.4191 75.5002 23.5707 75.5002C24.7223 75.5002 25.6541 74.5684 25.6541 73.4168C25.6541 69.7424 26.5168 68.0152 27.5178 66.0152C28.5961 63.8566 29.8209 61.4092 29.8209 56.75C29.8207 55.5984 28.8891 54.6666 27.7375 54.6666Z" fill="#163BA4"/>
<path d="M50.6542 54.6666C49.5026 54.6666 48.5708 55.5984 48.5708 56.75V73.4166C48.5708 74.5682 49.5026 75.5 50.6542 75.5C51.8058 75.5 52.7376 74.5682 52.7376 73.4166V56.75C52.7376 55.5984 51.8058 54.6666 50.6542 54.6666Z" fill="#163BA4"/>
</svg>
