<svg width="92" height="100" viewBox="0 0 92 100" fill="none" xmlns="http://www.w3.org/2000/svg">
<path d="M63.2414 51.5327C66.1993 51.5327 68.6054 49.1265 68.6054 46.1687C68.6054 43.2108 66.1993 40.8047 63.2414 40.8047C60.2836 40.8047 57.8774 43.2108 57.8774 46.1687C57.8774 49.1265 60.2836 51.5327 63.2414 51.5327Z" fill="#163BA4"/>
<path d="M59.41 39.6552H67.0728C67.9188 39.6552 68.6054 38.9686 68.6054 38.1226V19.7318C68.6054 18.8858 67.9188 18.1992 67.0728 18.1992H59.41C58.564 18.1992 57.8774 18.8858 57.8774 19.7318V38.1226C57.8774 38.9686 58.564 39.6552 59.41 39.6552Z" fill="#163BA4"/>
<path d="M63.4329 7.47126C60.4812 7.47126 57.5923 7.94789 54.8122 8.85211V7.66284C54.8122 3.43755 51.3747 0 47.1494 0H8.26049C4.0352 0 0.597656 3.43755 0.597656 7.66284V92.3372C0.597656 96.5625 4.0352 100 8.26049 100H47.1494C51.3747 100 54.8122 96.5625 54.8122 92.3372V62.0107C57.5984 62.9287 60.4888 63.4115 63.4329 63.4115C78.8536 63.4115 91.4023 50.8644 91.4023 35.4421C91.4023 20.0199 78.8536 7.47126 63.4329 7.47126ZM27.7057 95.39C24.7478 95.39 22.3417 92.9839 22.3417 90.0261C22.3417 87.0682 24.7478 84.6621 27.7057 84.6621C30.6636 84.6621 33.0697 87.0682 33.0697 90.0261C33.0697 92.9839 30.662 95.39 27.7057 95.39ZM63.4329 60.3448C60.144 60.3448 56.9272 59.695 53.8728 58.4107C51.9478 57.6031 50.1394 56.567 48.4996 55.3333C48.3387 55.2107 48.1486 55.1418 47.9555 55.0943C47.8988 55.0789 47.8436 55.0759 47.7839 55.0667C47.7195 55.059 47.6582 55.036 47.5923 55.036C47.4682 55.036 47.3425 55.0498 47.2214 55.0774C47.2122 55.0805 47.2015 55.0835 47.1892 55.0866L33.2398 56.7632L39.3118 43.8636C39.5218 43.6015 39.6459 43.2705 39.6459 42.9088C39.6459 42.6835 39.5892 42.469 39.5019 42.2759C39.416 41.9739 39.344 41.6705 39.2689 41.3686C39.2076 41.1218 39.1402 40.8751 39.0865 40.6284C39.0145 40.2927 38.9593 39.954 38.9011 39.6153C38.8597 39.3778 38.8107 39.1402 38.7754 38.9027C38.7218 38.5272 38.6881 38.1517 38.6528 37.7762C38.6329 37.5739 38.6038 37.3716 38.5885 37.1693C38.5471 36.5916 38.5256 36.0138 38.5256 35.436C38.5256 25.3487 44.5471 16.3218 53.8651 12.4414C56.9088 11.1739 60.1256 10.5318 63.4298 10.5318C77.1616 10.5318 88.3341 21.7042 88.3341 35.436C88.3341 49.1693 77.1647 60.3448 63.4329 60.3448Z" fill="#163BA4"/>
<path d="M27.7056 92.3248C28.9752 92.3248 30.0044 91.2955 30.0044 90.0259C30.0044 88.7563 28.9752 87.7271 27.7056 87.7271C26.436 87.7271 25.4067 88.7563 25.4067 90.0259C25.4067 91.2955 26.436 92.3248 27.7056 92.3248Z" fill="#163BA4"/>
</svg>
