<svg width="121" height="120" viewBox="0 0 121 120" fill="none" xmlns="http://www.w3.org/2000/svg">
<path d="M119.357 91.6406V4.45312H1.23193V91.6406H53.2632V105.234H35.4507V115.547H85.1382V105.234H67.3257V91.6406H119.357ZM9.20068 12.4219H110.919V83.2031H9.20068V12.4219ZM94.6365 56.3288C94.6365 62.5898 89.3541 67.6823 83.0996 67.6823H67.2699V55.8773H74.2458L64.6041 42.9797L54.9287 55.8773H61.9046V67.6823H33.7327C29.2937 67.6823 25.9519 64.3223 25.9519 59.9062C25.9519 55.4902 29.5257 51.8841 33.9929 51.8845C34.5235 51.8845 35.0536 51.9408 35.5566 52.0242C35.5566 51.9961 35.5285 51.9403 35.5285 51.8845C35.5285 45.6234 40.6102 40.5366 46.8643 40.5366C48.0647 40.5366 49.2094 40.7602 50.3265 41.1234C51.4154 33.1013 58.4129 26.9016 66.7332 26.9016C75.8354 26.9016 83.0771 34.3031 83.0771 43.4152C83.0771 43.9463 83.049 44.4773 82.9932 45.0084C83.1047 45.0084 83.2168 44.9803 83.3283 44.9803C89.5829 44.9803 94.6646 50.0677 94.6365 56.3288Z" fill="#163BA4"/>
</svg>
