<svg width="93" height="93" viewBox="0 0 93 93" fill="none" xmlns="http://www.w3.org/2000/svg">
<path d="M20 46.3613V73.0002H46.6389L41.0833 67.4447H25.5556V51.9169L20 46.3613Z" fill="#163BA4"/>
<path d="M91.8611 87.6945L83.8889 79.6112V86.889H6.11114V75.3612H11.6667V70.9168H6.11114V52.4445H11.6667V48.0001H6.11114V30.2223H11.6667V25.7779H6.11114V10.2501L50.3889 54.2779V46.4445L5.30559 1.58343C4.91706 1.19168 4.42067 0.924513 3.8797 0.815986C3.33874 0.707459 2.77771 0.762491 2.26814 0.974065C1.75857 1.18564 1.32356 1.54417 1.01855 2.00395C0.713552 2.46372 0.55238 3.00392 0.555589 3.55565V89.6668C0.555589 90.4035 0.848247 91.11 1.36918 91.631C1.89012 92.1519 2.59665 92.4445 3.33337 92.4445H89.8889C90.4407 92.4477 90.9808 92.2866 91.4406 91.9816C91.9004 91.6766 92.2589 91.2416 92.4705 90.732C92.6821 90.2224 92.7371 89.6614 92.6286 89.1204C92.5201 88.5795 92.2529 88.0831 91.8611 87.6945Z" fill="#163BA4"/>
<path d="M61.6666 81.3332H72.7778C74.2512 81.3332 75.6643 80.7478 76.7061 79.706C77.748 78.6641 78.3333 77.251 78.3333 75.7776V22.1665L71.9444 10.4165C71.4503 9.56044 70.7367 8.85172 69.8774 8.36342C69.018 7.87513 68.0439 7.62496 67.0555 7.63872C66.0448 7.64674 65.0554 7.93034 64.194 8.45898C63.3325 8.98761 62.6315 9.74125 62.1666 10.6387L56.1111 22.2221V75.7776C56.1111 77.251 56.6964 78.6641 57.7383 79.706C58.7801 80.7478 60.1932 81.3332 61.6666 81.3332ZM61.6666 23.5554L67.0555 13.0832L72.7778 23.5832V64.6665H61.6666V23.5554ZM61.6666 69.1943H72.7778V75.9721H61.6666V69.1943Z" fill="#163BA4"/>
</svg>
