<svg width="480" height="480" viewBox="0 0 480 480" fill="none" xmlns="http://www.w3.org/2000/svg">
<g clip-path="url(#clip0_81_3113)">
<path d="M264 48H72C58.7461 48 48 58.7461 48 72V120C48 133.254 58.7461 144 72 144H264C277.254 144 288 133.254 288 120V72C288 58.7461 277.254 48 264 48ZM272 120C272 124.418 268.418 128 264 128H72C67.582 128 64 124.418 64 120V72C64 67.582 67.582 64 72 64H264C268.418 64 272 67.582 272 72V120Z" fill="#163BA4"/>
<path d="M160 176H176V192H160V176Z" fill="#163BA4"/>
<path d="M192 176H208V192H192V176Z" fill="#163BA4"/>
<path d="M224 176H240V192H224V176Z" fill="#163BA4"/>
<path d="M128 176H144V192H128V176Z" fill="#163BA4"/>
<path d="M96 176H112V192H96V176Z" fill="#163BA4"/>
<path d="M464 96V68C464 56.9531 455.047 48 444 48C432.953 48 424 56.9531 424 68V96H408V68C408 56.9531 399.047 48 388 48C376.953 48 368 56.9531 368 68V96C359.164 96 352 103.164 352 112V120C352.016 125.691 355.066 130.941 360 133.777V176C360.027 198.082 377.918 215.973 400 216H408V432C408 436.418 404.418 440 400 440C395.582 440 392 436.418 392 432V368C392 354.746 381.254 344 368 344H360V336C360 322.746 349.254 312 336 312H328V56C327.965 25.0859 302.914 0.0351562 272 0H64C33.0859 0.0351562 8.03516 25.0859 8 56V392C7.99609 407.066 14.0859 421.492 24.8789 432H24C10.7461 432 0 442.746 0 456C0 469.254 10.7461 480 24 480H312C325.254 480 336 469.254 336 456C336 442.746 325.254 432 312 432H311.121C321.914 421.492 328.004 407.066 328 392H336C349.254 392 360 381.254 360 368V360H368C372.418 360 376 363.582 376 368V432C376 445.254 386.746 456 400 456C413.254 456 424 445.254 424 432V216H432C454.082 215.973 471.973 198.082 472 176V133.777C476.934 130.941 479.984 125.691 480 120V112C480 103.164 472.836 96 464 96ZM312 448C316.418 448 320 451.582 320 456C320 460.418 316.418 464 312 464H24C19.582 464 16 460.418 16 456C16 451.582 19.582 448 24 448H312ZM312 392C311.973 414.082 294.082 431.973 272 432H64C41.918 431.973 24.0273 414.082 24 392V56C24.0273 33.918 41.918 16.0273 64 16H272C294.082 16.0273 311.973 33.918 312 56V392ZM344 368C344 372.418 340.418 376 336 376H328V328H336C340.418 328 344 331.582 344 336V368ZM440 68C440 65.7891 441.789 64 444 64C446.211 64 448 65.7891 448 68V96H440V68ZM384 68C384 65.7891 385.789 64 388 64C390.211 64 392 65.7891 392 68V96H384V68ZM368 112H464V120H368V112ZM432 200H400C386.746 200 376 189.254 376 176V136H456V176C456 189.254 445.254 200 432 200Z" fill="#163BA4"/>
<path d="M219.575 304.801L178.329 284.176L199.352 235.113C200.837 231.668 199.727 227.652 196.684 225.457C193.641 223.262 189.481 223.477 186.68 225.977L114.68 289.977C112.692 291.742 111.712 294.375 112.059 297.012C112.411 299.645 114.048 301.934 116.426 303.121L158.825 324.32L144.184 390.223C143.376 393.855 145.18 397.57 148.536 399.176C151.891 400.785 155.915 399.867 158.239 396.961L222.239 316.961C223.751 315.074 224.329 312.602 223.809 310.242C223.29 307.879 221.731 305.879 219.567 304.801H219.575ZM167.29 360.047L175.809 321.695C176.606 318.109 174.864 314.441 171.575 312.801L134.153 294.09L170.528 261.754L160.649 284.809C158.977 288.703 160.633 293.227 164.426 295.121L203.567 314.688L167.29 360.047Z" fill="#163BA4"/>
</g>
<defs>
<clipPath id="clip0_81_3113">
<rect width="480" height="480" fill="white"/>
</clipPath>
</defs>
</svg>
