<svg width="20" height="12" viewBox="0 0 20 12" fill="none" xmlns="http://www.w3.org/2000/svg">
<path d="M9.75328 0H10.2467C14.2467 0.0209031 17.7528 2.11634 19.7461 5.26449L19.7735 5.3108L20 5.66201L19.7735 6.01318C17.7527 9.20766 14.2467 11.3031 10.2498 11.3239L10.2467 11.324H9.97456C7.93987 11.324 6.02599 10.8067 4.3573 9.89645L4.41883 9.92713C2.69458 8.9762 1.28238 7.65363 0.253873 6.06013L0.226561 6.01497L0 5.66374L0.226522 5.31253C2.24682 2.11738 5.75295 0.0212974 9.75011 0H9.75327H9.75328ZM9.99998 1.31693H9.75328C6.36664 1.33501 3.3818 3.03915 1.59336 5.63203L1.57155 5.66548C3.44435 8.30786 6.49054 10.0116 9.93465 10.0116C9.9576 10.0116 9.9806 10.0115 10.0035 10.0114L9.99996 10.0114H10.2467C13.633 9.9941 16.6177 8.2909 18.4066 5.69886L18.4284 5.6655C16.6185 3.03926 13.634 1.33519 10.2504 1.31693H10.0158H9.99998ZM9.99998 0.0026031C13.1275 0.0026031 15.6629 2.53798 15.6629 5.66548C15.6629 8.79297 13.1275 11.3283 10 11.3283C6.87249 11.3283 4.33715 8.79299 4.33715 5.66548C4.33715 2.53797 6.87249 0.00262265 10 0.00262265L9.99998 0.0026031ZM9.99998 10.0114C12.4002 10.0114 14.3459 8.06566 14.3459 5.66548C14.3459 3.26529 12.4002 1.31955 10 1.31955C7.59982 1.31955 5.65408 3.26531 5.65408 5.66548C5.65408 8.06566 7.59984 10.0114 10 10.0114L9.99998 10.0114ZM9.99998 3.33889C11.2849 3.33889 12.3266 4.38055 12.3266 5.6655C12.3266 6.95044 11.2849 7.99212 10 7.99212C8.71505 7.99212 7.67339 6.95042 7.67339 5.66548C7.67339 4.38053 8.71505 3.33893 10 3.33893L9.99998 3.33889ZM9.99998 6.67513C10.5576 6.67513 11.0096 6.22309 11.0096 5.66548C11.0096 5.10786 10.5576 4.65582 9.99998 4.65582C9.44238 4.65582 8.99032 5.10786 8.99032 5.66548C8.99032 6.22309 9.44238 6.67513 9.99998 6.67513Z" fill="#353030"/>
</svg>
