<svg width="35" height="33" viewBox="0 0 35 33" fill="none" xmlns="http://www.w3.org/2000/svg">
<path d="M22.9581 14.8072C23.0498 10.5939 16.0498 11.1729 17.8499 3.84341C17.8499 3.84341 13.1498 5.53485 13.9748 10.7234C14.2582 12.5063 13.5748 13.8396 13.5748 13.8396C12.8832 13.9691 11.8082 12.712 12.1832 10.7691C12.1832 10.7691 9.71651 12.4529 9.71651 14.6167C9.71651 16.7806 10.8582 19.0739 10.8582 19.0739C8.01651 18.51 8.29985 15.0054 8.29985 15.0054C8.29985 15.0054 6.49984 17.2072 6.49984 21.3596C6.49984 24.59 10.4832 29.7482 16.9082 29.7482C23.3332 29.7482 28.4915 25.192 28.4915 21.1387C28.4915 19.3634 27.8332 17.07 26.4082 15.8206C26.4082 15.8206 26.5999 19.3634 24.6832 19.1958C24.6832 19.1958 26.2665 14.5711 24.6082 12.4529C24.6082 12.4529 23.8082 14.7387 22.9581 14.8072Z" fill="url(#paint0_linear_125_3321)"/>
<path d="M22.9664 11.6304C24.8329 8.48378 20.208 8.0495 20.1997 6.11426C20.1997 6.11426 19.383 8.11044 21.3331 9.47426C22.9247 10.579 22.9664 11.6304 22.9664 11.6304Z" fill="url(#paint1_linear_125_3321)"/>
<path d="M13.1498 5.61101C12.4415 6.25101 13.4165 8.89482 11.1998 9.93862C11.1998 9.93862 10.4498 7.03577 13.1498 5.61101Z" fill="url(#paint2_linear_125_3321)"/>
<path opacity="0.5" d="M7.95817 16.0643C7.3415 17.032 6.49984 18.8224 6.49984 21.3596C6.49984 24.1939 10.4498 29.4054 16.9082 29.4054C23.2165 29.4054 28.1165 24.9634 28.1165 21.1463C28.1165 19.7672 27.6999 18.0072 26.7749 16.7576C26.7082 17.5424 26.4998 18.6091 25.8582 19.1654C25.5248 19.4548 25.1081 19.5843 24.6498 19.5387L24.1831 19.5006L24.3249 19.0967C24.3415 19.0587 25.5499 15.4472 24.6749 13.3063C24.3249 14.091 23.7249 15.1043 22.9915 15.1576L22.5749 15.1882L22.5832 14.8072C22.6166 13.2301 21.5581 12.392 20.3331 11.4244C18.5831 10.0377 16.6082 8.46817 17.3332 4.4834C16.1165 5.13864 13.7498 6.94436 14.3415 10.6701C14.6415 12.5367 13.9332 13.9234 13.9082 13.9844L13.8248 14.1443L13.6415 14.1748C13.2915 14.2358 12.9248 14.1063 12.5915 13.8167C12.1415 13.4129 11.7332 12.651 11.7165 11.6148C11.0332 12.2548 10.0915 13.3596 10.0915 14.6167C10.0915 16.6815 11.1915 18.9063 11.1998 18.9291L11.5082 19.5539L10.7748 19.4091C8.85817 19.0282 8.14151 17.3976 7.95817 16.0643Z" fill="url(#paint3_linear_125_3321)"/>
<path d="M20.1998 6.11426C20.0331 7.26474 20.5332 8.91807 21.3331 9.47426C22.0665 9.98474 22.8915 10.8609 22.9581 11.6304C24.2082 9.39044 22.4497 8.55998 21.4414 8.23235C21.0165 8.0952 20.2331 7.2952 20.1998 6.11426Z" fill="url(#paint4_radial_125_3321)"/>
<path d="M16.3583 5.78677C13.5917 9.74868 17.1834 13.9315 15.3334 16.4382C13.4833 18.9448 11.6083 16.6287 11.4833 15.0591C11.4833 15.0591 11.5 20.1335 14.2417 22.1372C16.9833 24.1411 8.96667 23.7068 7.86668 21.2611C7.86668 21.2611 7.86668 29.4058 16.9084 29.4058C25.95 29.4058 27.4584 21.8248 27.4584 21.8248C27.4584 21.8248 24.1666 24.3924 21.975 22.3887C21.975 22.3887 23.6167 19.7602 24.0333 17.063C24.0333 17.063 22.9001 17.7182 21.1584 17.4668C21.1584 17.4668 22.125 13.6801 20.1499 12.4382C17.6167 10.8458 15.475 7.05155 16.3583 5.78677Z" fill="url(#paint5_linear_125_3321)"/>
<path d="M17.05 10.4489C15.5999 12.1937 18.425 16.6736 15.4583 18.4488C13.8166 19.4318 12.875 18.2508 12.875 18.2508C12.875 18.2508 13.3167 20.0642 15.0832 21.6794C16.85 23.2946 12.425 25.4812 8.83331 22.6546C8.83331 22.6546 10.0666 29.4432 18.425 28.3003C27.65 27.0432 26.9666 20.7727 26.9666 20.7727C26.9666 20.7727 24.4666 24.3688 20.9083 22.647C20.9083 22.647 23.15 19.7899 23.15 18.1518C23.15 18.1518 21.6334 18.9746 19.9 18.1822C19.9 18.1822 20.725 14.3727 19.7416 13.8013C17.3833 12.4222 17.05 10.4489 17.05 10.4489Z" fill="url(#paint6_linear_125_3321)"/>
<path opacity="0.5" d="M22.9581 14.8072C23.0498 10.5939 16.0498 11.1729 17.8499 3.84341C17.8499 3.84341 13.1498 5.53485 13.9748 10.7234C14.2582 12.5063 13.5748 13.8396 13.5748 13.8396C12.8832 13.9691 11.8082 12.712 12.1832 10.7691C12.1832 10.7691 9.71651 12.4529 9.71651 14.6167C9.71651 16.7806 10.8582 19.0739 10.8582 19.0739C8.01651 18.51 8.29985 15.0054 8.29985 15.0054C8.29985 15.0054 6.49984 17.2072 6.49984 21.3596C6.49984 24.59 10.4832 29.7482 16.9082 29.7482C23.3332 29.7482 28.4915 25.192 28.4915 21.1387C28.4915 19.3634 27.8332 17.07 26.4082 15.8206C26.4082 15.8206 26.5999 19.3634 24.6832 19.1958C24.6832 19.1958 26.2665 14.5711 24.6082 12.4529C24.6082 12.4529 23.8082 14.7387 22.9581 14.8072Z" fill="url(#paint7_radial_125_3321)"/>
<path opacity="0.5" d="M22.9581 14.8072C23.0498 10.5939 16.0498 11.1729 17.8499 3.84341C17.8499 3.84341 13.1498 5.53485 13.9748 10.7234C14.2582 12.5063 13.5748 13.8396 13.5748 13.8396C12.8832 13.9691 11.8082 12.712 12.1832 10.7691C12.1832 10.7691 9.71651 12.4529 9.71651 14.6167C9.71651 16.7806 10.8582 19.0739 10.8582 19.0739C8.01651 18.51 8.29985 15.0054 8.29985 15.0054C8.29985 15.0054 6.49984 17.2072 6.49984 21.3596C6.49984 24.59 10.4832 29.7482 16.9082 29.7482C23.3332 29.7482 28.4915 25.192 28.4915 21.1387C28.4915 19.3634 27.8332 17.07 26.4082 15.8206C26.4082 15.8206 26.5999 19.3634 24.6832 19.1958C24.6832 19.1958 26.2665 14.5711 24.6082 12.4529C24.6082 12.4529 23.8082 14.7387 22.9581 14.8072Z" fill="url(#paint8_radial_125_3321)"/>
<path d="M7.06664 19.592C7.25831 23.8967 11.1333 29.0548 17.1917 29.0548C23.2499 29.0548 26.2749 23.2111 26.4667 19.79C26.4667 19.79 25.3333 21.8015 22.7749 22.2054C20.2166 22.6091 22.9499 18.1824 21.1584 15.5615C21.1584 15.5615 19.5749 20.1254 17.325 20.293C15.0749 20.4606 13.1666 17.2758 13.1666 15.5615C13.1666 15.5615 11.7833 18.6472 12.125 21.1006C12.65 24.8263 7.06664 19.592 7.06664 19.592Z" fill="url(#paint9_radial_125_3321)"/>
<path opacity="0.5" d="M22.9581 14.8072C23.0498 10.5939 16.0498 11.1729 17.8499 3.84341C17.8499 3.84341 13.1498 5.53485 13.9748 10.7234C14.2582 12.5063 13.5748 13.8396 13.5748 13.8396C12.8832 13.9691 11.8082 12.712 12.1832 10.7691C12.1832 10.7691 9.71651 12.4529 9.71651 14.6167C9.71651 16.7806 10.8582 19.0739 10.8582 19.0739C8.01651 18.51 8.29985 15.0054 8.29985 15.0054C8.29985 15.0054 6.49984 17.2072 6.49984 21.3596C6.49984 24.59 10.4832 29.7482 16.9082 29.7482C23.3332 29.7482 28.4915 25.192 28.4915 21.1387C28.4915 19.3634 27.8332 17.07 26.4082 15.8206C26.4082 15.8206 26.5999 19.3634 24.6832 19.1958C24.6832 19.1958 26.2665 14.5711 24.6082 12.4529C24.6082 12.4529 23.8082 14.7387 22.9581 14.8072Z" fill="url(#paint10_radial_125_3321)"/>
<path opacity="0.5" d="M22.9664 11.6304C24.8329 8.48378 20.208 8.0495 20.1997 6.11426C20.1997 6.11426 19.383 8.11044 21.3331 9.47426C22.9247 10.579 22.9664 11.6304 22.9664 11.6304Z" fill="url(#paint11_radial_125_3321)"/>
<path d="M13.1498 5.61101C12.4498 6.25101 12.8998 8.27005 11.1998 9.93862C11.1998 9.93862 10.4498 7.03577 13.1498 5.61101Z" fill="url(#paint12_radial_125_3321)"/>
<path opacity="0.5" d="M13.1498 5.61101C12.4415 6.25101 13.4165 8.89482 11.1998 9.93862C11.1998 9.93862 10.4498 7.03577 13.1498 5.61101Z" fill="url(#paint13_radial_125_3321)"/>
<path opacity="0.5" d="M22.9581 14.8072C23.0498 10.5939 16.0498 11.1729 17.8499 3.84341C17.8499 3.84341 13.1498 5.53485 13.9748 10.7234C14.2582 12.5063 13.5748 13.8396 13.5748 13.8396C12.8832 13.9691 11.8082 12.712 12.1832 10.7691C12.1832 10.7691 9.71651 12.4529 9.71651 14.6167C9.71651 16.7806 10.8582 19.0739 10.8582 19.0739C8.01651 18.51 8.29985 15.0054 8.29985 15.0054C8.29985 15.0054 6.49984 17.2072 6.49984 21.3596C6.49984 24.59 10.4832 29.7482 16.9082 29.7482C23.3332 29.7482 28.4915 25.192 28.4915 21.1387C28.4915 19.3634 27.8332 17.07 26.4082 15.8206C26.4082 15.8206 26.5999 19.3634 24.6832 19.1958C24.6832 19.1958 26.2665 14.5711 24.6082 12.4529C24.6082 12.4529 23.8082 14.7387 22.9581 14.8072Z" fill="url(#paint14_radial_125_3321)"/>
<path opacity="0.25" d="M22.9581 14.8072C23.0498 10.5939 16.0498 11.1729 17.8499 3.84341C17.8499 3.84341 13.1498 5.53485 13.9748 10.7234C14.2582 12.5063 13.5748 13.8396 13.5748 13.8396C12.8832 13.9691 11.8082 12.712 12.1832 10.7691C12.1832 10.7691 9.71651 12.4529 9.71651 14.6167C9.71651 16.7806 10.8582 19.0739 10.8582 19.0739C8.01651 18.51 8.29985 15.0054 8.29985 15.0054C8.29985 15.0054 6.49984 17.2072 6.49984 21.3596C6.49984 24.59 10.4832 29.7482 16.9082 29.7482C23.3332 29.7482 28.4915 25.192 28.4915 21.1387C28.4915 19.3634 27.8332 17.07 26.4082 15.8206C26.4082 15.8206 26.5999 19.3634 24.6832 19.1958C24.6832 19.1958 26.2665 14.5711 24.6082 12.4529C24.6082 12.4529 23.8082 14.7387 22.9581 14.8072Z" fill="url(#paint15_radial_125_3321)"/>
<path opacity="0.25" d="M22.9581 14.8072C23.0498 10.5939 16.0498 11.1729 17.8499 3.84341C17.8499 3.84341 13.1498 5.53485 13.9748 10.7234C14.2582 12.5063 13.5748 13.8396 13.5748 13.8396C12.8832 13.9691 11.8082 12.712 12.1832 10.7691C12.1832 10.7691 9.71651 12.4529 9.71651 14.6167C9.71651 16.7806 10.8582 19.0739 10.8582 19.0739C8.01651 18.51 8.29985 15.0054 8.29985 15.0054C8.29985 15.0054 6.49984 17.2072 6.49984 21.3596C6.49984 24.59 10.4832 29.7482 16.9082 29.7482C23.3332 29.7482 28.4915 25.192 28.4915 21.1387C28.4915 19.3634 27.8332 17.07 26.4082 15.8206C26.4082 15.8206 26.5999 19.3634 24.6832 19.1958C24.6832 19.1958 26.2665 14.5711 24.6082 12.4529C24.6082 12.4529 23.8082 14.7387 22.9581 14.8072Z" fill="url(#paint16_radial_125_3321)"/>
<path opacity="0.25" d="M22.9581 14.8072C23.0498 10.5939 16.0498 11.1729 17.8499 3.84341C17.8499 3.84341 13.1498 5.53485 13.9748 10.7234C14.2582 12.5063 13.5748 13.8396 13.5748 13.8396C12.8832 13.9691 11.8082 12.712 12.1832 10.7691C12.1832 10.7691 9.71651 12.4529 9.71651 14.6167C9.71651 16.7806 10.8582 19.0739 10.8582 19.0739C8.01651 18.51 8.29985 15.0054 8.29985 15.0054C8.29985 15.0054 6.49984 17.2072 6.49984 21.3596C6.49984 24.59 10.4832 29.7482 16.9082 29.7482C23.3332 29.7482 28.4915 25.192 28.4915 21.1387C28.4915 19.3634 27.8332 17.07 26.4082 15.8206C26.4082 15.8206 26.5999 19.3634 24.6832 19.1958C24.6832 19.1958 26.2665 14.5711 24.6082 12.4529C24.6082 12.4529 23.8082 14.7387 22.9581 14.8072Z" fill="url(#paint17_radial_125_3321)"/>
<defs>
<linearGradient id="paint0_linear_125_3321" x1="18.905" y1="30.4642" x2="14.6215" y2="-3.48765" gradientUnits="userSpaceOnUse">
<stop stop-color="#FF0000"/>
<stop offset="0.2317" stop-color="#FF1500"/>
<stop offset="0.7367" stop-color="#FF3D00"/>
<stop offset="0.9987" stop-color="#FF4C00"/>
</linearGradient>
<linearGradient id="paint1_linear_125_3321" x1="24.8908" y1="29.7094" x2="20.6074" y2="-4.2425" gradientUnits="userSpaceOnUse">
<stop stop-color="#FF0000"/>
<stop offset="0.2317" stop-color="#FF1500"/>
<stop offset="0.7367" stop-color="#FF3D00"/>
<stop offset="0.9987" stop-color="#FF4C00"/>
</linearGradient>
<linearGradient id="paint2_linear_125_3321" x1="15.6548" y1="30.8742" x2="11.3713" y2="-3.07765" gradientUnits="userSpaceOnUse">
<stop stop-color="#FF0000"/>
<stop offset="0.2317" stop-color="#FF1500"/>
<stop offset="0.7367" stop-color="#FF3D00"/>
<stop offset="0.9987" stop-color="#FF4C00"/>
</linearGradient>
<linearGradient id="paint3_linear_125_3321" x1="18.7673" y1="24.6986" x2="9.26561" y2="-4.98156" gradientUnits="userSpaceOnUse">
<stop stop-color="#FF8000"/>
<stop offset="0.6388" stop-color="#FF5B00"/>
<stop offset="0.9987" stop-color="#FF4C00"/>
</linearGradient>
<radialGradient id="paint4_radial_125_3321" cx="0" cy="0" r="1" gradientUnits="userSpaceOnUse" gradientTransform="translate(23.5481 0.977054) scale(14.8759 13.6008)">
<stop offset="0.00134333" stop-color="#FFED1C" stop-opacity="0.6"/>
<stop offset="0.9477" stop-color="#FFED1C" stop-opacity="0.0264782"/>
<stop offset="0.9914" stop-color="#FFED1C" stop-opacity="0"/>
</radialGradient>
<linearGradient id="paint5_linear_125_3321" x1="14.4327" y1="5.24819" x2="17.8239" y2="26.0541" gradientUnits="userSpaceOnUse">
<stop stop-color="#FF8000"/>
<stop offset="0.022669" stop-color="#FE7F02" stop-opacity="0.9773"/>
<stop offset="0.6663" stop-color="#ED582A" stop-opacity="0.3337"/>
<stop offset="1" stop-color="#E74939" stop-opacity="0"/>
</linearGradient>
<linearGradient id="paint6_linear_125_3321" x1="17.5671" y1="27.6167" x2="18.2967" y2="13.0745" gradientUnits="userSpaceOnUse">
<stop stop-color="#FFBC47"/>
<stop offset="0.1869" stop-color="#FFB137" stop-opacity="0.8131"/>
<stop offset="0.7223" stop-color="#FF940F" stop-opacity="0.2777"/>
<stop offset="1" stop-color="#FF8900" stop-opacity="0"/>
</linearGradient>
<radialGradient id="paint7_radial_125_3321" cx="0" cy="0" r="1" gradientUnits="userSpaceOnUse" gradientTransform="translate(17.3501 23.6944) scale(11.5073 8.54092)">
<stop offset="0.00134333" stop-color="#FFBC47"/>
<stop offset="0.2941" stop-color="#FFBF4B" stop-opacity="0.7068"/>
<stop offset="0.5624" stop-color="#FEC656" stop-opacity="0.4382"/>
<stop offset="0.8201" stop-color="#FCD368" stop-opacity="0.1801"/>
<stop offset="1" stop-color="#FBE07A" stop-opacity="0"/>
</radialGradient>
<radialGradient id="paint8_radial_125_3321" cx="0" cy="0" r="1" gradientUnits="userSpaceOnUse" gradientTransform="translate(17.3501 23.2619) scale(11.1527 8.27773)">
<stop offset="0.00134333" stop-color="white"/>
<stop offset="1" stop-color="white" stop-opacity="0"/>
</radialGradient>
<radialGradient id="paint9_radial_125_3321" cx="0" cy="0" r="1" gradientUnits="userSpaceOnUse" gradientTransform="translate(12.4599 25.1427) scale(13.7003 14.584)">
<stop offset="0.00134333" stop-color="#FFED1C" stop-opacity="0.6"/>
<stop offset="0.9477" stop-color="#FFED1C" stop-opacity="0.0264782"/>
<stop offset="0.9914" stop-color="#FFED1C" stop-opacity="0"/>
</radialGradient>
<radialGradient id="paint10_radial_125_3321" cx="0" cy="0" r="1" gradientUnits="userSpaceOnUse" gradientTransform="translate(17.3507 23.2608) rotate(93.1578) scale(3.95981 3.514)">
<stop offset="0.00134333" stop-color="white"/>
<stop offset="1" stop-color="white" stop-opacity="0"/>
</radialGradient>
<radialGradient id="paint11_radial_125_3321" cx="0" cy="0" r="1" gradientUnits="userSpaceOnUse" gradientTransform="translate(19.7439 6.10703) scale(4.91485 4.49357)">
<stop offset="0.00134333" stop-color="#FFED1C"/>
<stop offset="0.1997" stop-color="#FFEE2B" stop-opacity="0.8013"/>
<stop offset="0.5839" stop-color="#FFF254" stop-opacity="0.4167"/>
<stop offset="1" stop-color="#FFF686" stop-opacity="0"/>
</radialGradient>
<radialGradient id="paint12_radial_125_3321" cx="0" cy="0" r="1" gradientUnits="userSpaceOnUse" gradientTransform="translate(11.6398 8.26891) rotate(-54.0066) scale(3.74763 0.878138)">
<stop offset="0.00134333" stop-color="#FFED1C" stop-opacity="0.6"/>
<stop offset="0.9477" stop-color="#FFED1C" stop-opacity="0.0264782"/>
<stop offset="0.9914" stop-color="#FFED1C" stop-opacity="0"/>
</radialGradient>
<radialGradient id="paint13_radial_125_3321" cx="0" cy="0" r="1" gradientUnits="userSpaceOnUse" gradientTransform="translate(12.4282 5.41465) rotate(95.5286) scale(3.27312 1.43828)">
<stop offset="0.00134333" stop-color="#FFED1C"/>
<stop offset="0.1997" stop-color="#FFEE2B" stop-opacity="0.8013"/>
<stop offset="0.5839" stop-color="#FFF254" stop-opacity="0.4167"/>
<stop offset="1" stop-color="#FFF686" stop-opacity="0"/>
</radialGradient>
<radialGradient id="paint14_radial_125_3321" cx="0" cy="0" r="1" gradientUnits="userSpaceOnUse" gradientTransform="translate(18.6521 5.53004) scale(15.3358 14.0213)">
<stop offset="0.00134333" stop-color="#FF4C00"/>
<stop offset="0.135" stop-color="#FF5B0C" stop-opacity="0.8661"/>
<stop offset="0.3941" stop-color="#FF842C" stop-opacity="0.6067"/>
<stop offset="0.7491" stop-color="#FFC45F" stop-opacity="0.2512"/>
<stop offset="1" stop-color="#FFF686" stop-opacity="0"/>
</radialGradient>
<radialGradient id="paint15_radial_125_3321" cx="0" cy="0" r="1" gradientUnits="userSpaceOnUse" gradientTransform="translate(25.6271 16.8895) scale(8.14001 7.44229)">
<stop offset="0.00134333" stop-color="#FFED1C"/>
<stop offset="0.1997" stop-color="#FFEE2B" stop-opacity="0.8013"/>
<stop offset="0.5839" stop-color="#FFF254" stop-opacity="0.4167"/>
<stop offset="1" stop-color="#FFF686" stop-opacity="0"/>
</radialGradient>
<radialGradient id="paint16_radial_125_3321" cx="0" cy="0" r="1" gradientUnits="userSpaceOnUse" gradientTransform="translate(8.96438 19.542) scale(8.67621 7.93253)">
<stop offset="0.00134333" stop-color="#FFED1C"/>
<stop offset="0.1997" stop-color="#FFEE2B" stop-opacity="0.8013"/>
<stop offset="0.5839" stop-color="#FFF254" stop-opacity="0.4167"/>
<stop offset="1" stop-color="#FFF686" stop-opacity="0"/>
</radialGradient>
<radialGradient id="paint17_radial_125_3321" cx="0" cy="0" r="1" gradientUnits="userSpaceOnUse" gradientTransform="translate(17.2206 17.9387) rotate(85.7468) scale(13.594 9.03031)">
<stop stop-color="#FF4C00" stop-opacity="0"/>
<stop offset="0.9874" stop-color="#FF4C00" stop-opacity="0.9888"/>
<stop offset="0.9987" stop-color="#FF4C00"/>
</radialGradient>
</defs>
</svg>
