<svg width="100" height="100" viewBox="0 0 100 100" fill="none" xmlns="http://www.w3.org/2000/svg">
<path d="M87.3931 83.1414C95.2276 74.3121 100 62.7052 100 50C100 36.781 94.8345 24.7534 86.4276 15.8034V15.8017C86.4207 15.7914 86.4103 15.7879 86.4052 15.7793C77.6483 6.47069 65.3793 0.512069 51.7328 0.0448276L51.731 0.0431034L50.7569 0.0172414C50.5052 0.00862069 50.2534 0 50 0C49.7466 0 49.4948 0.00862069 49.2431 0.0172414L48.2724 0.0431034L48.2707 0.0448276C34.6241 0.512069 22.3552 6.47069 13.5983 15.7793C13.5914 15.7879 13.581 15.7914 13.5759 15.8017L13.5741 15.8052C5.16552 24.7534 0 36.781 0 50C0 62.7052 4.77241 74.3121 12.6069 83.1414C12.6172 83.1569 12.6172 83.1741 12.6293 83.1897C12.6603 83.2328 12.7052 83.2535 12.7379 83.2931C21.5414 93.1345 34.1724 99.4741 48.269 99.9569L48.2707 99.9586L49.2414 99.9845C49.4948 99.9914 49.7466 100 50 100C50.2534 100 50.5052 99.9914 50.7569 99.9828L51.7276 99.9569L51.7293 99.9552C65.8414 99.4707 78.4862 93.119 87.2896 83.2569C87.3121 83.2276 87.3483 83.219 87.369 83.1879C87.3828 83.1741 87.3828 83.1569 87.3931 83.1414ZM3.49138 51.7241H24.1862C24.381 59.0328 25.8086 66.1345 28.35 72.7879C23.4466 74.5621 18.7586 76.9414 14.3655 79.9103C7.90517 72.2259 3.88448 62.431 3.49138 51.7241ZM15.3069 19.0052C19.5966 21.7948 24.1638 24.0293 28.9276 25.6983C26.0103 32.7793 24.3966 40.4138 24.1862 48.2759H3.49138C3.90345 37.0569 8.29655 26.8414 15.3069 19.0052ZM96.5086 48.2759H75.8138C75.6034 40.4138 73.9897 32.7793 71.0724 25.6983C75.8362 24.0293 80.4035 21.7948 84.6931 19.0052C91.7035 26.8414 96.0966 37.0569 96.5086 48.2759ZM48.2759 25.7983C43.2914 25.6569 38.3983 24.9138 33.6707 23.5862C37.1655 16.4172 42.1 9.94655 48.2759 4.55862V25.7983ZM48.2759 29.2466V48.2759H27.6345C27.8466 40.7793 29.419 33.5086 32.231 26.7672C37.4138 28.269 42.7948 29.1 48.2759 29.2466ZM51.7241 29.2466C57.2052 29.1 62.5862 28.2707 67.7707 26.7672C70.5828 33.5086 72.1552 40.7793 72.3672 48.2759H51.7241V29.2466ZM51.7241 25.7983V4.55862C57.9 9.94655 62.8345 16.4172 66.3293 23.5862C61.6017 24.9138 56.7086 25.6569 51.7241 25.7983ZM69.6707 22.5379C66.3586 15.5983 61.7621 9.27586 56.0707 3.8569C66.1672 5.17759 75.2517 9.7431 82.2483 16.4741C78.2759 18.9948 74.0621 21.0224 69.6707 22.5379ZM30.3293 22.5379C25.9379 21.0224 21.7241 18.9948 17.7534 16.4741C24.7483 9.7431 33.8345 5.17759 43.931 3.8569C38.2379 9.27586 33.6414 15.5983 30.3293 22.5379ZM27.6345 51.7241H48.2759V69.031C42.5741 69.1828 36.9879 70.0724 31.619 71.6879C29.1931 65.3862 27.8293 58.6535 27.6345 51.7241ZM48.2759 72.4793V95.4414C41.6655 89.6741 36.4828 82.6672 32.9586 74.8948C37.9017 73.4379 43.0362 72.6276 48.2759 72.4793ZM51.7241 95.4414V72.4793C56.9638 72.6259 62.0983 73.4379 67.0414 74.8931C63.5172 82.6672 58.3345 89.6741 51.7241 95.4414ZM51.7241 69.031V51.7241H72.3655C72.1707 58.6535 70.8069 65.3862 68.3793 71.6897C63.0121 70.0724 57.4259 69.1828 51.7241 69.031ZM75.8138 51.7241H96.5086C96.1155 62.431 92.0966 72.2259 85.6345 79.9103C81.2414 76.9414 76.5535 74.5621 71.65 72.7879C74.1931 66.1345 75.619 59.0328 75.8138 51.7241ZM16.7086 82.4931C20.7879 79.7828 25.131 77.6034 29.669 75.9741C33.0224 83.4914 37.8362 90.3414 43.9293 96.1431C33.3241 94.7552 23.8328 89.7897 16.7086 82.4931ZM56.0707 96.1431C62.1638 90.3431 66.9776 83.4931 70.331 75.9741C74.869 77.6034 79.2103 79.7828 83.2914 82.4931C76.1672 89.7897 66.6759 94.7552 56.0707 96.1431Z" fill="#163BA4"/>
</svg>
