<svg width="500" height="500" viewBox="0 0 500 500" fill="none" xmlns="http://www.w3.org/2000/svg">
<path d="M26.7935 362.076H473.209C487.979 362.076 499.994 350.475 499.994 336.213V43.1046C499.994 28.8428 487.979 17.242 473.209 17.242H400.198C396.501 7.22838 386.682 0 375.059 0H321.489C309.865 0 300.047 7.22838 296.349 17.242H203.653C199.956 7.22838 190.137 0 178.514 0H124.944C113.32 0 103.502 7.22838 99.8043 17.242H26.7935C12.023 17.242 0.00854492 28.8428 0.00854492 43.1046V336.213C0.00854492 350.475 12.0241 362.076 26.7935 362.076ZM312.56 25.9878C312.561 25.9434 312.586 25.907 312.586 25.8626C312.586 25.8403 312.574 25.8221 312.574 25.7999C312.61 21.078 316.585 17.242 321.489 17.242H375.059C379.985 17.242 383.987 21.1103 383.987 25.8626V34.4831H312.56V25.9878ZM124.944 17.242H178.514C183.417 17.242 187.392 21.078 187.43 25.7999C187.43 25.8221 187.417 25.8403 187.417 25.8626C187.417 25.907 187.442 25.9434 187.443 25.9878V34.4831H116.017V25.8626C116.015 21.1103 120.018 17.242 124.944 17.242ZM17.8655 43.1046C17.8655 38.3524 21.8675 34.4841 26.7935 34.4841H98.1585V43.1046C98.1585 47.8659 102.152 51.7251 107.086 51.7251H196.369C201.304 51.7251 205.297 47.8649 205.297 43.1046V34.4841H294.702V43.1046C294.702 47.8659 298.696 51.7251 303.63 51.7251H392.913C397.848 51.7251 401.841 47.8649 401.841 43.1046V34.4841H473.206C478.132 34.4841 482.134 38.3524 482.134 43.1046V336.213C482.134 341.045 478.21 344.834 473.206 344.834H26.7935C21.7891 344.834 17.8655 341.045 17.8655 336.213V43.1046Z" fill="#163BA4"/>
<path d="M491.074 379.398H295.014C294.892 379.393 294.791 379.33 294.669 379.33C294.546 379.33 294.445 379.393 294.323 379.398H205.679C205.557 379.393 205.456 379.33 205.334 379.33C205.211 379.33 205.11 379.393 204.988 379.398H8.92796C3.99263 379.398 0 383.258 0 388.018C0 392.778 3.99367 396.639 8.92796 396.639H196.405V491.379C196.405 496.141 200.398 500 205.332 500C210.267 500 214.26 496.14 214.26 491.379V396.639H285.74V491.379C285.74 496.141 289.733 500 294.668 500C299.603 500 303.595 496.14 303.595 491.379V396.639H491.072C496.007 396.639 500 392.778 500 388.018C500 383.258 496.009 379.398 491.074 379.398Z" fill="#163BA4"/>
<path d="M307.563 153.734C313.841 153.734 318.936 148.814 318.936 142.753C318.936 136.691 313.841 131.772 307.563 131.772H216.582C210.304 131.772 205.209 136.692 205.209 142.754V274.526C205.209 280.588 210.304 285.508 216.582 285.508H307.563C313.841 285.508 318.936 280.588 318.936 274.526C318.936 268.465 313.841 263.545 307.563 263.545H227.954V219.62H284.817C291.095 219.62 296.19 214.7 296.19 208.639C296.19 202.577 291.096 197.659 284.818 197.659H227.955V153.734H307.563Z" fill="#163BA4"/>
<path d="M171.091 263.545H91.482V142.754C91.482 136.692 86.3867 131.772 80.109 131.772C73.8313 131.772 68.7371 136.692 68.7371 142.754V274.526C68.7371 280.588 73.8324 285.508 80.1101 285.508H171.091C177.369 285.508 182.464 280.588 182.464 274.526C182.464 268.465 177.369 263.545 171.091 263.545Z" fill="#163BA4"/>
<path d="M375.799 131.772H353.054C346.776 131.772 341.681 136.692 341.681 142.754V274.526C341.681 280.588 346.776 285.508 353.054 285.508H375.799C419.697 285.508 455.408 251.027 455.408 208.64C455.408 166.252 419.697 131.772 375.799 131.772ZM375.799 263.545H364.426V153.734H375.799C407.165 153.734 432.662 178.354 432.662 208.639C432.662 238.924 407.165 263.545 375.799 263.545Z" fill="#163BA4"/>
</svg>
