<svg width="242" height="70" viewBox="0 0 242 70" fill="none" xmlns="http://www.w3.org/2000/svg">
<path d="M67.3778 20.1872C67.3778 19.5189 67.0781 19.1848 66.4788 19.1848H58.5201C56.9293 19.1848 55.8672 19.2467 55.3345 19.3663C52.848 19.9315 51.6049 21.2269 51.6049 23.2566V33.6854C51.6049 34.3454 51.9009 34.6754 52.4928 34.6754H53.2403C53.8398 34.6754 54.1431 34.3454 54.1431 33.6854V23.2566C54.1431 22.4274 54.7315 21.891 55.908 21.6476C56.3777 21.5528 57.2399 21.5032 58.4979 21.5032H66.4788C67.0781 21.5032 67.3778 21.169 67.3778 20.5008V20.1872ZM84.5048 30.7977C84.5048 33.3183 82.7696 34.5806 79.3026 34.5806H71.7881V37.0598C71.7881 37.7199 71.4922 38.0499 70.9002 38.0499H70.2712C69.6791 38.0499 69.3831 37.7199 69.3831 37.0598V26.1072C69.3831 24.6262 70.0085 23.603 71.2592 23.0379C72.0841 22.6667 73.2902 22.4809 74.8776 22.4809H78.718C82.5772 22.4809 84.5048 23.6773 84.5048 26.07V30.7977ZM82.0667 30.8347V26.1072C82.0667 25.4636 81.6189 25.0429 80.7235 24.8489C80.3461 24.7705 79.6838 24.7293 78.7366 24.7293H74.9848C72.8536 24.7293 71.7881 25.2079 71.7881 26.169V32.3447H79.3026C81.1453 32.3447 82.0667 31.8414 82.0667 30.8347ZM102.401 30.8925C102.401 32.3034 101.758 33.3389 100.474 33.9989C99.5968 34.4485 98.4611 34.6754 97.0588 34.6754H93.059C90.4764 34.6754 88.7709 33.9617 87.9309 32.5344C87.6276 32.0188 87.4759 31.4742 87.4759 30.8925V26.3959C87.4759 25.4058 87.8903 24.5478 88.7228 23.8218C89.7403 22.9265 91.1833 22.4809 93.0479 22.4809H97.0588C100.622 22.4809 102.401 23.7763 102.401 26.3712V30.8925ZM99.952 30.8925V26.1938C99.952 25.2243 98.9641 24.7417 96.9923 24.7417H93.0774C92.371 24.7417 91.7309 24.8365 91.1609 25.0303C90.3065 25.3233 89.8809 25.7772 89.8809 26.3959V30.8925C89.8809 31.4865 90.3138 31.9155 91.1833 32.1715C91.7455 32.3406 92.3821 32.4272 93.0887 32.4272H97.0032C97.6248 32.4272 98.213 32.3323 98.7719 32.1383C99.56 31.862 99.952 31.4495 99.952 30.8925ZM120.483 34.2794C120.483 35.6819 119.688 36.7092 118.097 37.3611C116.987 37.819 115.677 38.0499 114.175 38.0499H113.164C112.565 38.0499 112.265 37.7199 112.265 37.0598V36.7918C112.265 36.1317 112.565 35.8017 113.164 35.8017H114.911C115.336 35.8017 115.932 35.6737 116.698 35.4139C117.567 35.1252 118 34.8445 118 34.5806H111.4C109.853 34.5806 108.573 34.3619 107.563 33.9288C106.094 33.2975 105.361 32.2581 105.361 30.81V26.2887C105.361 25.0056 105.953 24.0238 107.137 23.3391C108.129 22.7657 109.335 22.4809 110.76 22.4809H114.304C115.821 22.4809 117.12 22.7161 118.197 23.1823C119.721 23.8423 120.483 24.8861 120.483 26.3134V34.2794ZM118.045 32.3447V26.4206C118.045 25.8101 117.594 25.348 116.691 25.0429C116.069 24.8324 115.403 24.7293 114.696 24.7293H110.889C110.008 24.7293 109.368 24.7828 108.969 24.8861C108.166 25.0964 107.766 25.542 107.766 26.2268V30.773C107.766 31.8207 108.958 32.3447 111.344 32.3447H118.045ZM137.455 33.8463C137.455 34.3868 137.21 34.6548 136.718 34.6548H135.904C135.412 34.6548 135.168 34.3868 135.168 33.8463V29.4941H125.496V33.8463C125.496 34.3868 125.252 34.6548 124.76 34.6548H123.924C123.439 34.6548 123.199 34.3868 123.199 33.8463V23.1204C123.199 22.5801 123.439 22.3118 123.924 22.3118H124.76C125.252 22.3118 125.496 22.5801 125.496 23.1204V27.3654H135.168V23.1204C135.168 22.5801 135.412 22.3118 135.904 22.3118H136.718C137.21 22.3118 137.455 22.5801 137.455 23.1204V33.8463ZM155.377 28.7885C155.377 29.5311 155.151 29.9025 154.704 29.9025H142.738C142.738 31.5855 143.778 32.4272 145.861 32.4272H147.659C148.251 32.4272 148.547 32.7613 148.547 33.4296V33.673C148.547 34.3413 148.251 34.6754 147.659 34.6754H146.12C144.581 34.6754 143.323 34.4485 142.346 33.9989C140.951 33.3553 140.255 32.2951 140.255 30.8183V26.334C140.255 24.9273 140.947 23.8835 142.328 23.207C143.33 22.7161 144.562 22.4686 146.024 22.4686H150.519C151.736 22.4686 152.78 22.6996 153.653 23.1576C154.804 23.764 155.377 24.6592 155.377 25.8513V28.7885ZM153.035 27.5716V26.07C153.035 25.6122 152.573 25.2573 151.647 25.0056C150.996 24.8283 150.375 24.7417 149.783 24.7417H146.294C143.87 24.7417 142.66 25.2161 142.66 26.169V27.5716H153.035ZM172.208 33.8463C172.208 34.3868 171.964 34.6548 171.472 34.6548H170.658C170.166 34.6548 169.922 34.3868 169.922 33.8463V29.4941H160.25V33.8463C160.25 34.3868 160.006 34.6548 159.514 34.6548H158.677C158.193 34.6548 157.952 34.3868 157.952 33.8463V23.1204C157.952 22.5801 158.193 22.3118 158.677 22.3118H159.514C160.006 22.3118 160.25 22.5801 160.25 23.1204V27.3654H169.922V23.1204C169.922 22.5801 170.166 22.3118 170.658 22.3118H171.472C171.964 22.3118 172.208 22.5801 172.208 23.1204V33.8463ZM190.541 33.673C190.541 34.3413 190.171 34.6754 189.428 34.6754H180.514C178.875 34.6754 177.643 34.494 176.818 34.131C175.527 33.5576 174.879 32.5138 174.879 30.9874V26.1772C174.879 23.7144 176.592 22.4809 180.019 22.4809H189.557C190.156 22.4809 190.456 22.815 190.456 23.4835V23.7516C190.456 24.4116 190.156 24.7417 189.557 24.7417H180.178C179.349 24.7417 178.746 24.7954 178.368 24.8984C177.647 25.1005 177.284 25.5048 177.284 26.1072V30.8802C177.284 31.9114 178.383 32.4272 180.581 32.4272H189.642C190.242 32.4272 190.541 32.7613 190.541 33.4296V33.673ZM205.448 32.7778C205.866 33.013 206.077 33.3389 206.077 33.7555C206.077 34.3701 205.733 34.6754 205.049 34.6754H204.29C204.15 34.6754 204.016 34.6384 203.887 34.5682L195.662 29.9767V33.673C195.662 34.3413 195.366 34.6754 194.774 34.6754H194.163C193.571 34.6754 193.276 34.3413 193.276 33.673V23.3391C193.276 22.679 193.571 22.349 194.163 22.349H194.774C195.366 22.349 195.662 22.679 195.662 23.3391V27.2086L203.78 22.6873C203.976 22.6171 204.109 22.5801 204.179 22.5801H204.875C205.552 22.5801 205.892 22.8852 205.892 23.5C205.892 23.9207 205.689 24.2425 205.278 24.4695L197.9 28.5618L205.448 32.7778ZM223.963 31.037C223.963 31.3587 223.989 32.4601 224.037 34.3372C224.044 34.5641 223.674 34.6754 222.923 34.6754C222.091 34.6754 221.699 34.5228 221.739 34.2176C221.769 33.9989 221.739 33.8876 221.654 33.8792C221.64 33.8792 221.621 33.8833 221.599 33.8917C220.4 34.4156 219.242 34.6754 218.132 34.6754H214.543C210.632 34.6754 208.679 33.4625 208.679 31.037V23.4835C208.679 22.815 208.975 22.4809 209.566 22.4809H210.195C210.787 22.4809 211.083 22.815 211.083 23.4835V31.037C211.083 31.9651 212.238 32.4272 214.543 32.4272H218.132C219.171 32.4272 220.023 32.2457 220.677 31.8826C221.243 31.569 221.525 31.2184 221.525 30.8306V23.4835C221.525 22.815 221.821 22.4809 222.413 22.4809H223.064C223.663 22.4809 223.963 22.815 223.963 23.4835V31.037ZM242 28.7885C242 29.5311 241.774 29.9025 241.327 29.9025H229.361C229.361 31.5855 230.401 32.4272 232.484 32.4272H234.282C234.874 32.4272 235.17 32.7613 235.17 33.4296V33.673C235.17 34.3413 234.874 34.6754 234.282 34.6754H232.743C231.204 34.6754 229.946 34.4485 228.969 33.9989C227.574 33.3553 226.878 32.2951 226.878 30.8183V26.334C226.878 24.9273 227.57 23.8835 228.951 23.207C229.953 22.7161 231.185 22.4686 232.647 22.4686H237.142C238.359 22.4686 239.403 22.6996 240.276 23.1576C241.427 23.764 242 24.6592 242 25.8513V28.7885ZM239.658 27.5716V26.07C239.658 25.6122 239.196 25.2573 238.27 25.0056C237.619 24.8283 236.998 24.7417 236.406 24.7417H232.917C230.493 24.7417 229.283 25.2161 229.283 26.169V27.5716H239.658ZM59.8548 47.1925C59.8548 47.3793 59.87 48.0185 59.8978 49.1082C59.9021 49.2399 59.6874 49.3045 59.2513 49.3045C58.7681 49.3045 58.5405 49.2159 58.5641 49.0388C58.5813 48.9118 58.5641 48.8471 58.5146 48.8424C58.506 48.8424 58.4953 48.8448 58.4825 48.8495C57.7865 49.1536 57.1143 49.3045 56.4699 49.3045H54.3867C52.1166 49.3045 50.9824 48.6006 50.9824 47.1925V42.8078C50.9824 42.4198 51.1542 42.2259 51.4981 42.2259H51.863C52.2067 42.2259 52.3787 42.4198 52.3787 42.8078V47.1925C52.3787 47.7312 53.0487 47.9995 54.3867 47.9995H56.4699C57.0735 47.9995 57.5674 47.8941 57.9476 47.6834C58.2762 47.5014 58.4395 47.2978 58.4395 47.0728V42.8078C58.4395 42.4198 58.6112 42.2259 58.955 42.2259H59.333C59.6808 42.2259 59.8548 42.4198 59.8548 42.8078V47.1925ZM69.7066 48.8232C69.7066 49.137 69.5647 49.2926 69.2791 49.2926H68.8066C68.5211 49.2926 68.3793 49.137 68.3793 48.8232V46.2969H62.765V48.8232C62.765 49.137 62.6234 49.2926 62.3375 49.2926H61.8523C61.5708 49.2926 61.4313 49.137 61.4313 48.8232V42.5971C61.4313 42.2834 61.5708 42.1278 61.8523 42.1278H62.3375C62.6234 42.1278 62.765 42.2834 62.765 42.5971V45.0611H68.3793V42.5971C68.3793 42.2834 68.5211 42.1278 68.8066 42.1278H69.2791C69.5647 42.1278 69.7066 42.2834 69.7066 42.5971V48.8232ZM75.9993 49.2853C75.9993 49.1681 75.9993 49.0292 75.9993 48.864C75.9993 48.6221 76.0079 48.3227 76.0231 47.9658C73.6991 47.9108 72.5372 47.6139 72.5372 47.0751V44.3333C72.5372 44.0052 72.7971 43.7847 73.3167 43.6722L74.4701 43.6028C74.466 43.6315 74.5948 43.653 74.859 43.6652C75.6364 43.7081 76.0231 43.8829 76.0231 44.192V47.9658C76.0231 48.112 76.0188 48.3323 76.0124 48.6269C76.0037 48.9214 75.9993 49.1393 75.9993 49.2853L76.0059 49.2495L76.0124 50.6887C76.0124 51.0718 76.1862 51.2633 76.5321 51.2633H76.8992C77.2451 51.2633 77.419 51.0718 77.419 50.6887V44.3668C77.419 43.8566 78.0161 43.6028 79.2123 43.6028H79.2509C79.7579 43.6028 80.1208 43.6268 80.3401 43.6722C80.8598 43.7847 81.1195 44.0291 81.1195 44.4026V47.1445C81.1195 47.4175 80.8275 47.6354 80.2454 47.7983C79.7278 47.9419 79.1715 48.0066 78.5702 47.9874L77.419 47.9515L77.4404 49.2495C77.6252 49.283 77.9279 49.2998 78.347 49.2998C79.395 49.2998 80.2755 49.1728 80.9885 48.9191C82.0195 48.5549 82.535 47.9564 82.535 47.1229V44.3811C82.535 42.9922 81.4375 42.2977 79.2383 42.2977H79.1501C78.3834 42.2977 77.7025 42.3576 77.1119 42.4797C76.9744 42.5085 76.809 42.5205 76.6222 42.5205C76.373 42.5205 76.0124 42.4893 75.5397 42.4246C74.9985 42.348 74.6463 42.3073 74.4808 42.2977C72.2408 42.4558 71.1219 43.1286 71.1219 44.3117V47.0536C71.1219 48.5167 72.1271 49.2495 74.1351 49.2495H74.8889L75.9993 49.2853ZM92.7262 47.1086C92.7262 47.9276 92.3525 48.5287 91.607 48.9118C91.0981 49.1728 90.4388 49.3045 89.6248 49.3045H87.3031C85.804 49.3045 84.8139 48.8902 84.3263 48.0617C84.1502 47.7624 84.062 47.4463 84.062 47.1086V44.4985C84.062 43.9237 84.3027 43.4257 84.7859 43.0041C85.3765 42.4844 86.2141 42.2259 87.2966 42.2259H89.6248C91.693 42.2259 92.7262 42.9779 92.7262 44.4842V47.1086ZM91.3043 47.1086V44.3811C91.3043 43.8184 90.7308 43.5382 89.5861 43.5382H87.3138C86.9035 43.5382 86.5321 43.5932 86.2012 43.7057C85.7052 43.8758 85.4583 44.1392 85.4583 44.4985V47.1086C85.4583 47.4536 85.7093 47.7024 86.2141 47.851C86.5406 47.9492 86.9101 47.9995 87.3203 47.9995H89.5927C89.9534 47.9995 90.2948 47.9443 90.6193 47.8318C91.0765 47.6713 91.3043 47.432 91.3043 47.1086ZM103.222 47.0536C103.222 48.5167 102.215 49.2495 100.202 49.2495H95.8405V50.6887C95.8405 51.0718 95.6685 51.2633 95.3248 51.2633H94.9599C94.616 51.2633 94.4442 51.0718 94.4442 50.6887V44.3307C94.4442 43.4712 94.8073 42.8772 95.5332 42.5491C96.012 42.3337 96.7123 42.2259 97.6338 42.2259H99.8631C102.103 42.2259 103.222 42.9203 103.222 44.3093V47.0536ZM101.807 47.0751V44.3307C101.807 43.9572 101.547 43.713 101.027 43.6005C100.808 43.5548 100.424 43.5309 99.8738 43.5309H97.696C96.459 43.5309 95.8405 43.8088 95.8405 44.3668V47.9515H100.202C101.272 47.9515 101.807 47.6593 101.807 47.0751ZM113.901 48.8232C113.901 49.137 113.785 49.2926 113.555 49.2926H113.069C112.836 49.2926 112.717 49.137 112.717 48.8232V44.52L109.786 48.9406C109.614 49.1967 109.405 49.3261 109.156 49.3261C108.896 49.3261 108.686 49.1967 108.523 48.9406L105.791 44.6397V48.8232C105.791 49.137 105.673 49.2926 105.439 49.2926H104.891C104.661 49.2926 104.545 49.137 104.545 48.8232V42.9013C104.545 42.7143 104.601 42.554 104.713 42.4174C104.822 42.281 104.962 42.214 105.132 42.214C105.546 42.214 105.834 42.3337 105.993 42.5755L109.169 47.4822L112.58 42.5636C112.73 42.3431 112.988 42.233 113.353 42.233C113.718 42.233 113.901 42.475 113.901 42.9563V48.8232ZM124.399 47.178C124.399 48.5957 123.446 49.3045 121.536 49.3045H118.119C117.79 49.3045 117.43 49.2542 117.036 49.1513C115.769 48.8185 115.136 48.1863 115.136 47.2572V46.352C115.136 45.6167 115.479 45.0637 116.167 44.6899C116.691 44.405 117.322 44.2613 118.063 44.2613H123.003C122.932 43.78 122.384 43.5382 121.36 43.5382H120.305C119.964 43.5382 119.792 43.3465 119.792 42.9634V42.8078C119.792 42.4198 119.964 42.2259 120.307 42.2259H121.077C123.291 42.2259 124.399 42.9514 124.399 44.4003V47.178ZM123.003 47.2572V45.5736H118.037C117.771 45.5736 117.485 45.6263 117.174 45.7341C116.747 45.885 116.532 46.0884 116.532 46.3447V47.2427C116.532 47.5372 116.781 47.7456 117.281 47.8653C117.453 47.9084 117.72 47.9515 118.08 47.9995H121.549C122.518 47.9995 123.003 47.7528 123.003 47.2572ZM134.773 47.9157H135.572C135.715 47.9349 135.857 47.9492 136.001 47.9588C136.293 47.9731 136.429 48.1359 136.403 48.4497L136.36 48.9622C136.347 49.125 136.201 49.2206 135.919 49.2495H129.199C127.097 49.2495 126.046 48.5455 126.046 47.1374V42.8078C126.046 42.4198 126.218 42.2259 126.562 42.2259H126.927C127.271 42.2259 127.443 42.4198 127.443 42.8078V47.1374C127.443 47.6809 128.027 47.9515 129.197 47.9515H133.37V42.8078C133.37 42.4198 133.544 42.2259 133.892 42.2259H134.257C134.601 42.2259 134.773 42.4198 134.773 42.8078V47.9157ZM145.898 47.1925C145.898 47.3793 145.913 48.0185 145.941 49.1082C145.945 49.2399 145.731 49.3045 145.294 49.3045C144.811 49.3045 144.584 49.2159 144.607 49.0388C144.624 48.9118 144.607 48.8471 144.558 48.8424C144.549 48.8424 144.538 48.8448 144.526 48.8495C143.83 49.1536 143.157 49.3045 142.513 49.3045H140.43C138.16 49.3045 137.026 48.6006 137.026 47.1925V42.8078C137.026 42.4198 137.197 42.2259 137.541 42.2259H137.906C138.25 42.2259 138.422 42.4198 138.422 42.8078V47.1925C138.422 47.7312 139.092 47.9995 140.43 47.9995H142.513C143.117 47.9995 143.611 47.8941 143.991 47.6834C144.319 47.5014 144.483 47.2978 144.483 47.0728V42.8078C144.483 42.4198 144.654 42.2259 144.998 42.2259H145.376C145.724 42.2259 145.898 42.4198 145.898 42.8078V47.1925ZM156.287 47.1086C156.287 47.9276 155.913 48.5287 155.168 48.9118C154.659 49.1728 153.999 49.3045 153.185 49.3045H150.864C149.364 49.3045 148.374 48.8902 147.887 48.0617C147.711 47.7624 147.623 47.4463 147.623 47.1086V44.4985C147.623 43.9237 147.863 43.4257 148.346 43.0041C148.937 42.4844 149.775 42.2259 150.857 42.2259H153.185C155.253 42.2259 156.287 42.9779 156.287 44.4842V47.1086ZM154.865 47.1086V44.3811C154.865 43.8184 154.291 43.5382 153.147 43.5382H150.874C150.464 43.5382 150.092 43.5932 149.762 43.7057C149.266 43.8758 149.019 44.1392 149.019 44.4985V47.1086C149.019 47.4536 149.27 47.7024 149.775 47.851C150.101 47.9492 150.47 47.9995 150.881 47.9995H153.153C153.514 47.9995 153.855 47.9443 154.18 47.8318C154.637 47.6713 154.865 47.432 154.865 47.1086ZM166.132 48.8232C166.132 49.137 165.99 49.2926 165.704 49.2926H165.232C164.946 49.2926 164.805 49.137 164.805 48.8232V46.2969H159.19V48.8232C159.19 49.137 159.049 49.2926 158.763 49.2926H158.278C157.996 49.2926 157.857 49.137 157.857 48.8232V42.5971C157.857 42.2834 157.996 42.1278 158.278 42.1278H158.763C159.049 42.1278 159.19 42.2834 159.19 42.5971V45.0611H164.805V42.5971C164.805 42.2834 164.946 42.1278 165.232 42.1278H165.704C165.99 42.1278 166.132 42.2834 166.132 42.5971V48.8232ZM175.917 48.8232C175.917 49.137 175.775 49.2926 175.49 49.2926H175.017C174.731 49.2926 174.59 49.137 174.59 48.8232V46.2969H168.976V48.8232C168.976 49.137 168.834 49.2926 168.548 49.2926H168.063C167.781 49.2926 167.642 49.137 167.642 48.8232V42.5971C167.642 42.2834 167.781 42.1278 168.063 42.1278H168.548C168.834 42.1278 168.976 42.2834 168.976 42.5971V45.0611H174.59V42.5971C174.59 42.2834 174.731 42.1278 175.017 42.1278H175.49C175.775 42.1278 175.917 42.2834 175.917 42.5971V48.8232ZM184.405 47.511C184.405 48.6988 183.548 49.2926 181.832 49.2926H180.157C179.8 49.2926 179.439 49.2422 179.074 49.1393C178.026 48.8424 177.502 48.3107 177.502 47.5372V42.5564C177.502 42.2426 177.635 42.087 177.899 42.087H178.314C178.578 42.087 178.711 42.2426 178.711 42.5564V44.3093H181.832C183.548 44.3093 184.405 44.8959 184.405 46.0717V47.511ZM183.26 47.3289V46.1627C183.26 45.6766 182.79 45.4323 181.851 45.4323H178.711V47.3912C178.711 47.6115 178.909 47.791 179.302 47.9323C179.635 48.0497 179.963 48.1071 180.29 48.1071H181.838C182.362 48.1071 182.715 48.0666 182.895 47.9874C183.138 47.8798 183.26 47.6593 183.26 47.3289ZM184.963 42.0366H185.517C185.593 42.0366 185.657 42.087 185.713 42.1852C185.766 42.2833 185.794 42.3768 185.794 42.4654V48.8209C185.794 48.9094 185.766 49.0027 185.713 49.1009C185.657 49.1991 185.593 49.2495 185.517 49.2495H184.963C184.888 49.2495 184.824 49.1991 184.772 49.1009C184.718 49.0027 184.693 48.9094 184.693 48.8209V42.4654C184.693 42.3768 184.718 42.2833 184.772 42.1852C184.824 42.087 184.888 42.0366 184.963 42.0366ZM196.211 45.8873C196.211 46.3185 196.08 46.5339 195.82 46.5339H188.874C188.874 47.511 189.478 47.9995 190.687 47.9995H191.731C192.075 47.9995 192.246 48.1934 192.246 48.5814V48.7227C192.246 49.1105 192.075 49.3045 191.731 49.3045H190.837C189.944 49.3045 189.213 49.1728 188.647 48.9118C187.837 48.5383 187.433 47.9227 187.433 47.0655V44.4626C187.433 43.646 187.835 43.04 188.636 42.6473C189.218 42.3623 189.933 42.2187 190.782 42.2187H193.391C194.098 42.2187 194.703 42.3527 195.21 42.6187C195.878 42.9706 196.211 43.4904 196.211 44.1823V45.8873ZM194.851 45.1808V44.3093C194.851 44.0434 194.583 43.8374 194.046 43.6914C193.668 43.5884 193.307 43.5382 192.963 43.5382H190.938C189.531 43.5382 188.829 43.8135 188.829 44.3668V45.1808H194.851ZM213.842 48.7227C213.842 49.1105 213.627 49.3045 213.195 49.3045H208.021C207.07 49.3045 206.355 49.1991 205.876 48.9884C205.126 48.6557 204.75 48.0497 204.75 47.1637V44.3715C204.75 42.9418 205.745 42.2259 207.734 42.2259H213.271C213.619 42.2259 213.792 42.4198 213.792 42.8078V42.9634C213.792 43.3465 213.619 43.5382 213.271 43.5382H207.826C207.345 43.5382 206.995 43.5693 206.776 43.6291C206.357 43.7465 206.147 43.9811 206.147 44.3307V47.1014C206.147 47.7001 206.784 47.9995 208.06 47.9995H213.32C213.668 47.9995 213.842 48.1934 213.842 48.5814V48.7227ZM224.175 45.8873C224.175 46.3185 224.044 46.5339 223.784 46.5339H216.838C216.838 47.511 217.442 47.9995 218.651 47.9995H219.695C220.038 47.9995 220.21 48.1934 220.21 48.5814V48.7227C220.21 49.1105 220.038 49.3045 219.695 49.3045H218.801C217.908 49.3045 217.177 49.1728 216.61 48.9118C215.801 48.5383 215.397 47.9227 215.397 47.0655V44.4626C215.397 43.646 215.799 43.04 216.6 42.6473C217.182 42.3623 217.897 42.2187 218.745 42.2187H221.355C222.061 42.2187 222.667 42.3527 223.174 42.6187C223.842 42.9706 224.175 43.4904 224.175 44.1823V45.8873ZM222.815 45.1808V44.3093C222.815 44.0434 222.547 43.8374 222.01 43.6914C221.632 43.5884 221.271 43.5382 220.927 43.5382H218.902C217.495 43.5382 216.793 43.8135 216.793 44.3668V45.1808H222.815ZM232.083 43.0951C232.083 43.3992 231.948 43.5525 231.679 43.5525H229.2V48.8375C229.2 49.1417 229.065 49.2926 228.797 49.2926H228.457C228.105 49.2926 227.929 49.1417 227.929 48.8375V43.5525H225.463C225.195 43.5525 225.06 43.3992 225.06 43.0951V42.6688C225.06 42.3696 225.195 42.2187 225.463 42.2187H231.679C231.948 42.2187 232.083 42.3696 232.083 42.6688V43.0951ZM241.919 47.1925C241.919 47.3793 241.934 48.0185 241.962 49.1082C241.967 49.2399 241.752 49.3045 241.316 49.3045C240.833 49.3045 240.605 49.2159 240.629 49.0388C240.646 48.9118 240.629 48.8471 240.579 48.8424C240.571 48.8424 240.56 48.8448 240.547 48.8495C239.851 49.1536 239.179 49.3045 238.535 49.3045H236.451C234.181 49.3045 233.047 48.6006 233.047 47.1925V42.8078C233.047 42.4198 233.219 42.2259 233.563 42.2259H233.928C234.271 42.2259 234.443 42.4198 234.443 42.8078V47.1925C234.443 47.7312 235.113 47.9995 236.451 47.9995H238.535C239.138 47.9995 239.632 47.8941 240.012 47.6834C240.341 47.5014 240.504 47.2978 240.504 47.0728V42.8078C240.504 42.4198 240.676 42.2259 241.019 42.2259H241.398C241.745 42.2259 241.919 42.4198 241.919 42.8078V47.1925Z" fill="#2B2A29"/>
<path fill-rule="evenodd" clip-rule="evenodd" d="M0 0H39.6101V13.4869C36.7557 12.165 33.5199 11.419 30.0864 11.419C18.6189 11.419 9.31084 19.7528 9.31084 30.0229C9.31084 40.293 18.6189 48.6281 30.0864 48.6281C33.5199 48.6281 36.7557 47.8788 39.6101 46.557V69.9996H0V0Z" fill="#2B2A29"/>
<path d="M21.0557 46.8177L19.5703 46.0698V69.9997H21.0557V46.8177Z" fill="#FEFEFE"/>
<path fill-rule="evenodd" clip-rule="evenodd" d="M20.5732 46.5631C23.4239 47.8809 26.6598 48.6283 30.0868 48.6283C33.5203 48.6283 36.7562 47.879 39.6105 46.5571V69.9997H20.5732V46.5631Z" fill="#00A0E3"/>
<path d="M30.3872 19.6792H30.3878V19.6805C33.5766 19.6805 36.4628 20.8377 38.5513 22.7081C40.6394 24.578 41.9314 27.1626 41.9319 30.0172H41.9334V30.0186V30.0193H41.9319C41.9317 32.8745 40.6394 35.4593 38.5509 37.3296C36.4626 39.1994 33.5768 40.3564 30.3887 40.3568V40.3579H30.3872H30.3863V40.3568C27.1979 40.3566 24.3114 39.1994 22.2229 37.3292C20.1348 35.4592 18.8427 32.8747 18.8423 30.0201H18.8408V30.0186V30.018H18.8423C18.8425 27.1628 20.1348 24.5778 22.2233 22.7077C24.3116 20.8377 27.1976 19.6807 30.3855 19.6805V19.6792H30.3872ZM30.3878 20.3285V20.3299H30.3872H30.3855V20.3285C30.1731 20.3285 29.9615 20.3341 29.7519 20.345C28.7657 20.4775 27.8981 20.8556 27.1548 21.4212C28.034 21.4072 28.97 21.4575 29.9283 21.569C30.1915 21.0936 30.4652 20.6775 30.7477 20.3339C30.6281 20.3304 30.5083 20.3285 30.3878 20.3285ZM38.0376 23.1682L38.0161 23.1492C38.1229 23.4711 38.2088 23.8 38.2748 24.1348C38.7264 24.3912 39.1515 24.6645 39.5431 24.9536C39.5902 24.9885 39.6367 25.0232 39.6828 25.0586C39.2222 24.3682 38.6688 23.7336 38.0376 23.1682ZM36.8606 22.2552C36.2204 21.8262 35.5251 21.4592 34.7863 21.164C34.7593 21.6377 34.719 22.1131 34.6667 22.5893C35.6342 22.8985 36.5674 23.2661 37.4284 23.6883C37.3517 23.4116 37.2597 23.1402 37.1511 22.8749C37.0655 22.6659 36.9687 22.459 36.8606 22.2552ZM34.0749 20.9068C33.2973 20.6538 32.4783 20.4784 31.6293 20.3915C31.2973 20.7116 30.9756 21.144 30.6682 21.6667L30.7081 21.6726C31.79 21.8337 32.8909 22.0696 33.9619 22.3761C34.0134 21.8849 34.0513 21.3947 34.0749 20.9068ZM41.2081 30.0172C41.2081 29.3508 41.1326 28.7 40.989 28.0712C40.9845 28.5946 40.9341 29.1146 40.8405 29.6284C40.9699 29.7575 41.0927 29.8888 41.2081 30.0222V30.0193H41.2068V30.0186V30.0172H41.2081ZM38.0371 36.8693C38.6253 36.3424 39.1461 35.7551 39.587 35.119C39.3995 34.7745 39.1455 34.4402 38.8345 34.1171C38.6949 34.3058 38.5496 34.4918 38.3983 34.6745C37.7579 35.4465 37.0139 36.1622 36.185 36.8044C36.5286 37.1075 36.779 37.4221 36.9153 37.7445C37.3114 37.4756 37.6863 37.1835 38.0371 36.8693ZM40.0067 34.4569C40.5983 33.4315 40.9916 32.2999 41.1407 31.1024C41.0014 30.8775 40.8388 30.6573 40.6551 30.4427C40.3597 31.5233 39.8757 32.5673 39.2346 33.544C39.5341 33.8375 39.7936 34.1421 40.0067 34.4569ZM30.3887 39.7086C30.9462 39.7084 31.494 39.6706 32.029 39.5975C31.9352 39.4825 31.7993 39.3637 31.6291 39.243C31.3894 39.3245 31.147 39.4011 30.9016 39.4718C30.6058 39.5568 30.3062 39.6337 30.0033 39.7023C30.1304 39.7061 30.2584 39.7086 30.3863 39.7086V39.7073H30.3872H30.3887V39.7086ZM32.7818 39.4696C34.0505 39.2124 35.2351 38.7558 36.2918 38.1378C36.2268 37.8409 35.9906 37.5311 35.6233 37.2194C34.6369 37.9131 33.545 38.505 32.3754 38.9685C32.5539 39.1293 32.6922 39.2967 32.7818 39.4696ZM22.7366 36.8689C22.928 37.0401 23.1261 37.2046 23.3312 37.3628C23.433 37.2966 23.5475 37.2384 23.6735 37.1883C22.8022 36.2739 22.0996 35.2762 21.564 34.2367C21.2729 34.3252 21.0271 34.4369 20.8352 34.5734C21.3411 35.4213 21.9839 36.1946 22.7366 36.8689ZM23.9318 37.7942C24.2895 38.0328 24.6639 38.2518 25.0538 38.4501C24.7531 38.2105 24.467 37.9624 24.195 37.7065C24.0981 37.7317 24.01 37.7608 23.9318 37.7942ZM19.5891 30.6556C19.6746 31.835 19.9963 32.9571 20.5122 33.9845C20.7317 33.8504 20.9893 33.7379 21.2796 33.6459C21.2438 33.5661 21.209 33.4861 21.175 33.4056C20.7274 32.3462 20.446 31.255 20.3296 30.1734C20.0373 30.312 19.7884 30.4727 19.5891 30.6556ZM21.1167 25.0202C21.0191 25.1645 20.9259 25.3115 20.8367 25.4609C20.8738 25.4436 20.9111 25.4267 20.9493 25.41C21.002 25.2787 21.0579 25.1486 21.1167 25.0202ZM20.2214 26.6919C19.8203 27.6737 19.5916 28.7293 19.5681 29.8299C19.7818 29.698 20.0186 29.58 20.2771 29.4756C20.2464 28.7503 20.2908 28.0336 20.4089 27.3372C20.4664 26.9998 20.5405 26.6668 20.6327 26.3403C20.4751 26.4488 20.3375 26.5658 20.2214 26.6919ZM27.0253 38.6184C26.9769 38.3244 26.937 38.0159 26.9055 37.6956C26.6817 37.6649 26.4612 37.6399 26.2462 37.6213C26.4869 37.9689 26.7467 38.3021 27.0253 38.6184ZM27.6465 37.8165C27.687 38.186 27.7397 38.5368 27.8049 38.8654C27.9965 38.5737 28.1866 38.2754 28.375 37.971C28.1334 37.914 27.8895 37.8624 27.6465 37.8165ZM26.8532 37.033C26.8 36.1595 26.802 35.2096 26.8523 34.2179L26.8538 34.1935C26.0451 34.0786 25.2566 34.0035 24.5208 33.9767C24.8329 35.0179 25.2615 36.0204 25.81 36.9422C26.1444 36.9568 26.4948 36.9877 26.8532 37.033ZM27.5732 34.3054C27.5243 35.3068 27.5262 36.2655 27.5867 37.1436C27.9148 37.201 28.2449 37.2687 28.5703 37.3457C28.6238 37.3584 28.6772 37.3712 28.7308 37.3843L28.7786 37.3044C29.2416 36.5225 29.6893 35.7048 30.1156 34.8592L30.1195 34.8511C29.2844 34.6338 28.4232 34.449 27.5732 34.3054ZM26.8941 33.5425C26.9846 32.2817 27.1501 30.9685 27.3785 29.6708C26.1515 29.5211 24.9647 29.4581 23.8872 29.4925C23.8803 30.3706 23.9496 31.2633 24.097 32.1469C24.1628 32.5417 24.2438 32.9341 24.3409 33.3227C25.1426 33.3427 26.0072 33.4191 26.8941 33.5425ZM27.4964 29.0311C27.7335 27.8023 28.0258 26.5985 28.3621 25.4783C27.0116 25.3246 25.7114 25.2741 24.5467 25.3378C24.4513 25.6238 24.3658 25.9175 24.2908 26.2173V26.2186C24.0814 27.0551 23.9523 27.9397 23.9061 28.8466C25.0228 28.8132 26.2421 28.8781 27.4964 29.0311ZM28.5595 24.8457C28.8776 23.8676 29.2298 22.9671 29.6087 22.1868C28.4775 22.0657 27.3888 22.0325 26.408 22.0939C25.7374 22.8018 25.1964 23.6837 24.79 24.6801C25.9601 24.6334 27.2407 24.6918 28.5595 24.8457ZM30.336 22.2763C29.9491 23.0404 29.5892 23.9442 29.2649 24.9367C29.4503 24.9628 29.6362 24.9908 29.8222 25.0208C31.0159 25.2117 32.2243 25.4768 33.3965 25.81C33.6018 24.8866 33.7665 23.9594 33.8852 23.0346C32.8049 22.7187 31.6889 22.4765 30.5915 22.3131C30.5062 22.3003 30.4211 22.288 30.336 22.2763ZM29.0673 25.5674C28.7321 26.6823 28.4408 27.8898 28.2052 29.1263C28.5848 29.1819 28.9668 29.2456 29.3485 29.3167C30.3043 29.4942 31.2626 29.7186 32.1949 29.9855C32.6032 28.8247 32.9582 27.6412 33.2478 26.4491C32.0854 26.1161 30.8832 25.8515 29.6945 25.6612C29.4848 25.6277 29.2756 25.5964 29.0673 25.5674ZM28.0884 29.7665C27.8625 31.0665 27.6996 32.3859 27.612 33.6517C28.5497 33.8066 29.4996 34.0101 30.4153 34.2517C30.9841 33.0763 31.5086 31.8542 31.9722 30.6024C31.0656 30.3433 30.1326 30.1251 29.2008 29.9521C28.829 29.883 28.4575 29.8211 28.0884 29.7665ZM25.7496 38.1319C25.6205 37.9524 25.4964 37.7689 25.3773 37.5821C25.2772 37.5825 25.1797 37.5848 25.0847 37.5889C25.2978 37.7747 25.5196 37.9561 25.7496 38.1319ZM24.9947 36.9422C24.4732 36.0077 24.0653 35.0035 23.768 33.9665C23.2238 33.9722 22.7223 34.0079 22.2809 34.0772C22.8271 35.1098 23.5481 36.0968 24.4464 36.9933C24.5098 36.9843 24.5748 36.9764 24.6408 36.9693C24.7546 36.9574 24.8727 36.9482 24.9947 36.9422ZM23.598 33.321C23.5121 32.9634 23.4392 32.6032 23.3788 32.2412C23.2287 31.3402 23.1567 30.4293 23.1617 29.5316C22.3647 29.5936 21.6439 29.7164 21.0318 29.9049C21.1269 30.9976 21.4002 32.1041 21.8536 33.1769C21.8954 33.2761 21.9389 33.3747 21.9839 33.4734C22.4687 33.3836 23.0123 33.3342 23.598 33.321ZM23.1786 28.8838C23.224 27.9157 23.3603 26.9702 23.5841 26.0762L23.5843 26.0764C23.6418 25.847 23.705 25.6211 23.7738 25.3991C22.9212 25.4893 22.1616 25.6495 21.5348 25.8847C21.3531 26.3837 21.2172 26.9023 21.1269 27.434C21.0273 28.0213 20.9833 28.6243 20.9958 29.2349C21.6375 29.0579 22.3746 28.9424 23.1786 28.8838ZM24.0044 24.7284C24.3611 23.7855 24.829 22.9271 25.4058 22.1953C24.7861 22.2845 24.2286 22.4202 23.7547 22.6037L23.6801 22.6705C22.9152 23.3638 22.3118 24.1841 21.8724 25.0879C22.5043 24.9137 23.2232 24.7949 24.0044 24.7284ZM26.0518 21.4749C26.1176 21.4106 26.1849 21.3477 26.2528 21.2861C26.3872 21.165 26.5253 21.0492 26.668 20.9398C26.1534 21.1147 25.6733 21.3262 25.2283 21.5705C25.4934 21.531 25.7682 21.4989 26.0518 21.4749ZM29.0887 38.1562C28.9048 38.4558 28.7184 38.7508 28.5295 39.0409L28.5799 39.0194C29.0058 38.8334 29.4238 38.6226 29.8323 38.3898C29.5933 38.3071 29.3442 38.229 29.0887 38.1562ZM30.7771 35.1261C30.3523 35.9691 29.9037 36.7879 29.4383 37.5756C29.8263 37.6898 30.2005 37.8165 30.5495 37.9526C31.4763 37.3497 32.3462 36.6338 33.1389 35.8369C32.4313 35.548 31.6452 35.2805 30.8189 35.0427L30.7771 35.1261ZM34.5861 23.2517C34.4633 24.1734 34.2959 25.0971 34.0893 26.0163C35.3388 26.4056 36.5333 26.8727 37.6074 27.4096C37.7525 26.4246 37.7604 25.454 37.6115 24.5288C36.6907 24.0321 35.6633 23.6047 34.5861 23.2517ZM33.9386 26.6568C33.6466 27.8491 33.2906 29.0316 32.8823 30.1917C34.0869 30.5694 35.2334 31.0187 36.2581 31.5291C36.8251 30.4065 37.2447 29.2447 37.4854 28.0929C36.4159 27.5382 35.2089 27.0564 33.9386 26.6568ZM32.6598 30.8086C32.1981 32.0554 31.6771 33.273 31.1125 34.4448C32.0091 34.7056 32.8624 35.0027 33.6265 35.3256C34.5261 34.3425 35.3112 33.255 35.9467 32.1153C34.9543 31.617 33.837 31.1782 32.6598 30.8086ZM36.5721 32.4466C35.9416 33.5696 35.1706 34.6438 34.2894 35.6233C34.7944 35.8643 35.2465 36.1171 35.6293 36.3774C36.4504 35.7505 37.1862 35.0478 37.8162 34.2882C37.9928 34.0753 38.1608 33.8576 38.3205 33.6362C38.2157 33.5471 38.1068 33.4594 37.9936 33.3724C37.5707 33.0473 37.093 32.7379 36.5721 32.4466ZM33.8147 36.1307C33.0394 36.9276 32.1898 37.6509 31.2838 38.2722C31.4424 38.3495 31.5916 38.429 31.7302 38.5102C32.9273 38.0697 34.0436 37.4889 35.0484 36.7981C34.6928 36.5685 34.277 36.3453 33.8147 36.1307ZM30.627 38.6983C30.4515 38.8059 30.2745 38.91 30.0955 39.0096C30.2923 38.9614 30.4873 38.9098 30.6802 38.8541C30.7389 38.8372 30.7972 38.8198 30.8555 38.8023C30.7814 38.767 30.7053 38.7326 30.627 38.6983ZM38.3998 24.9885C38.4872 25.89 38.4427 26.8236 38.2821 27.7651C38.7237 28.0103 39.1401 28.2687 39.5257 28.5389C39.7611 28.7038 39.985 28.8733 40.197 29.0472C40.2729 28.4409 40.2849 27.8274 40.2266 27.2121C40.1983 26.9146 40.1537 26.6167 40.0922 26.3196C39.793 26.0169 39.4546 25.7284 39.0833 25.4543C38.866 25.2939 38.6377 25.1386 38.3998 24.9885ZM38.1441 28.4541C37.8815 29.6001 37.4531 30.7493 36.887 31.8588C37.4661 32.1786 37.9968 32.5195 38.465 32.8794C38.5466 32.9421 38.6264 33.0055 38.7044 33.0694C39.3506 32.051 39.8159 30.959 40.062 29.832C39.7666 29.5612 39.4378 29.3003 39.0803 29.0499C38.7865 28.8439 38.4735 28.6453 38.1441 28.4541Z" fill="#2B2A29"/>
</svg>
