<svg width="88" height="76" viewBox="0 0 88 76" fill="none" xmlns="http://www.w3.org/2000/svg">
<path d="M19.0946 50.5V69.25H81.5946V25.5H69.0946V19.25H83.8384C85.2321 19.25 85.7384 19.3937 86.2446 19.6687C86.7503 19.934 87.1642 20.3457 87.4321 20.85C87.7009 21.3563 87.8446 21.8625 87.8446 23.2562V71.4938C87.8446 72.8875 87.7009 73.3938 87.4258 73.9C87.1606 74.4057 86.7489 74.8195 86.2446 75.0875C85.7384 75.3563 85.2321 75.5 83.8384 75.5H16.8509C15.4571 75.5 14.9509 75.3562 14.4446 75.0812C13.9389 74.816 13.5251 74.4043 13.2571 73.9C12.9946 73.3938 12.8446 72.8875 12.8446 71.5V50.5H19.0946Z" fill="#163BA4"/>
<path d="M69.0946 6.75H6.5946V50.5H69.0946V6.75ZM75.3446 4.50625V52.7438C75.3446 54.1375 75.2009 54.6438 74.9258 55.15C74.6606 55.6557 74.2489 56.0695 73.7446 56.3375C73.2384 56.6063 72.7321 56.75 71.3384 56.75H4.35085C2.9571 56.75 2.45085 56.6062 1.9446 56.3312C1.43893 56.066 1.02506 55.6543 0.757104 55.15C0.494604 54.6438 0.344604 54.1375 0.344604 52.75V4.50625C0.344604 3.1125 0.488355 2.60625 0.763355 2.1C1.02864 1.59432 1.44033 1.18045 1.9446 0.9125C2.45085 0.65 2.9571 0.5 4.3446 0.5H71.3321C72.7259 0.5 73.2321 0.643749 73.7384 0.918749C74.244 1.18404 74.6579 1.59573 74.9258 2.1C75.1946 2.60625 75.3383 3.1125 75.3383 4.50625H75.3446Z" fill="#163BA4"/>
<path d="M37.8446 44.25C33.7006 44.25 29.7263 42.6038 26.7961 39.6735C23.8658 36.7433 22.2196 32.769 22.2196 28.625C22.2196 24.481 23.8658 20.5067 26.7961 17.5765C29.7263 14.6462 33.7006 13 37.8446 13C41.9886 13 45.9629 14.6462 48.8931 17.5765C51.8234 20.5067 53.4696 24.481 53.4696 28.625C53.4696 32.769 51.8234 36.7433 48.8931 39.6735C45.9629 42.6038 41.9886 44.25 37.8446 44.25ZM37.8446 38C40.331 38 42.7156 37.0123 44.4737 35.2541C46.2319 33.496 47.2196 31.1114 47.2196 28.625C47.2196 26.1386 46.2319 23.754 44.4737 21.9959C42.7156 20.2377 40.331 19.25 37.8446 19.25C35.3582 19.25 32.9736 20.2377 31.2155 21.9959C29.4573 23.754 28.4696 26.1386 28.4696 28.625C28.4696 31.1114 29.4573 33.496 31.2155 35.2541C32.9736 37.0123 35.3582 38 37.8446 38Z" fill="#163BA4"/>
</svg>
