<svg width="89" height="89" viewBox="0 0 89 89" fill="none" xmlns="http://www.w3.org/2000/svg">
<path fill-rule="evenodd" clip-rule="evenodd" d="M30.9831 11.4212C28.1845 9.35818 26.2998 8.89239 25.2886 9.08977C21.1167 9.90393 18.6437 11.528 15.2932 14.8784C10.7198 19.4518 8.50076 22.8666 9.46722 28.0442C10.58 34.0053 16.0162 43.1033 30.9996 58.0871C45.9821 73.0692 55.135 78.5629 61.1296 79.6988C63.9075 80.2254 66.0229 79.8138 67.9213 78.8788C69.9508 77.8792 71.905 76.1967 74.1463 73.8575C76.1342 71.7829 77.3404 70.335 78.1846 68.9104C78.9888 67.5533 79.5588 66.0529 79.9992 63.7992C80.1967 62.7879 79.7308 60.9033 77.6675 58.1042C75.7429 55.4938 73.0279 52.9013 70.5179 50.785C68.8617 49.3883 66.2992 49.2992 64.2292 50.8488L57.9029 55.585C52.1963 59.8567 44.2225 59.245 39.1879 54.21L34.8764 49.8988C29.8418 44.8642 29.2298 36.8904 33.5017 31.1838L38.2375 24.8576C39.7871 22.7876 39.6979 20.2251 38.3013 18.5688C36.1853 16.0594 33.5931 13.3451 30.9831 11.4212ZM35.9278 4.71343C39.3004 7.1996 42.3796 10.4783 44.6721 13.1967C48.8504 18.1518 48.5096 25.0413 44.9088 29.8517L40.1729 36.1778C38.4083 38.5346 38.6367 41.8738 40.7688 44.0063L45.0804 48.3175C47.2129 50.45 50.5517 50.6779 52.9088 48.9138L59.235 44.1779C64.0454 40.5771 70.9346 40.2358 75.8896 44.4138C78.6088 46.7063 81.8883 49.7859 84.375 53.1592C86.7225 56.3438 89.0846 60.7538 88.1779 65.3971C87.5954 68.3783 86.74 70.8188 85.3538 73.1583C84.0075 75.4308 82.2583 77.4367 80.1633 79.6229C77.7358 82.1567 74.9679 84.6975 71.6033 86.3546C68.1079 88.0763 64.1575 88.7546 59.5775 87.8867C50.8567 86.2338 40.1283 79.0004 25.1071 63.9796C10.087 48.9592 2.90005 38.2767 1.27538 29.5733C-0.495498 20.0863 4.43401 13.9525 9.40067 8.98585C13.5031 4.88343 17.3932 2.14006 23.6924 0.910724C28.3346 0.00476529 32.7438 2.36635 35.9278 4.71343Z" fill="#163BA4"/>
</svg>
