<svg width="74" height="100" viewBox="0 0 74 100" fill="none" xmlns="http://www.w3.org/2000/svg">
<path d="M39.7653 27.8579C40.6018 20.7751 42.4611 13.6066 45.309 6.51654C45.734 5.45873 45.2209 4.25658 44.1629 3.83158C43.1059 3.40717 41.9029 3.91967 41.4779 4.97767C40.6895 6.94076 39.9748 8.91048 39.3311 10.8837C38.5846 8.79583 37.4471 6.71185 35.7227 4.98764C29.9245 -0.810595 20.0608 0.0243644 19.6434 0.0624502C18.653 0.153466 17.8682 0.93823 17.777 1.92885C17.7385 2.34604 16.9038 12.2099 22.702 18.0081C26.7961 22.1023 32.9147 22.889 36.3061 22.9843C36.0274 24.5862 35.7971 26.1862 35.6168 27.7825C16.3372 28.5122 0.876465 44.4217 0.876465 63.8768C0.876465 83.7951 17.0811 100 36.9998 100C56.9185 100 73.1234 83.7949 73.1234 63.8764C73.1234 44.8881 58.3967 29.2749 39.7653 27.8579ZM28.8354 14.0398L33.3797 18.5841C30.8049 18.1808 27.7688 17.2359 25.6217 15.0886C22.4782 11.945 21.9147 6.84349 21.8536 4.13354C24.5594 4.18939 29.6446 4.7474 32.8039 7.90657C34.9377 10.0404 35.8821 13.0757 36.2883 15.6536L31.7549 11.1202C30.9489 10.3142 29.6418 10.3142 28.8356 11.1202C28.0293 11.9263 28.0293 13.2335 28.8354 14.0398ZM25.7317 33.9319C24.5889 35.3421 23.5221 36.979 22.5495 38.8346C21.7622 40.337 21.0544 41.9483 20.4292 43.6489C18.6358 42.7001 16.9393 41.5917 15.363 40.329C18.3524 37.58 21.8645 35.3921 25.7317 33.9319ZM12.502 43.3213C14.5528 44.9989 16.7848 46.4428 19.1596 47.6389C17.968 52.0098 17.269 56.8172 17.118 61.8119H5.07372C5.52255 54.7977 8.2409 48.3917 12.502 43.3213ZM5.07392 65.9406H17.1178V65.9404C17.269 70.9348 17.9678 75.742 19.1594 80.1127C16.7844 81.3086 14.5522 82.7527 12.5014 84.4301C8.2409 79.3601 5.52275 72.9545 5.07392 65.9406ZM15.3622 87.4226C16.9385 86.1599 18.6354 85.0515 20.429 84.1027C21.0544 85.8039 21.762 87.4154 22.5495 88.9179C23.5219 90.7734 24.5887 92.4105 25.7317 93.8205C21.8641 92.3601 18.3518 90.1718 15.3622 87.4226ZM34.9358 95.5834C30.5829 94.3716 26.7278 89.4 24.2206 82.3916C27.5778 81.1203 31.1885 80.3603 34.9358 80.1562V95.5834ZM34.9358 76.0225C30.7739 76.2266 26.7551 77.0477 23.0075 78.4369C22.0172 74.626 21.3969 70.3904 21.2493 65.9402H34.936V76.0225H34.9358ZM34.9358 61.8119H21.2491C21.3969 57.3616 22.0172 53.1258 23.0075 49.3149C26.7551 50.7045 30.7741 51.5256 34.9356 51.7299V61.8119H34.9358ZM34.9358 47.5963C31.1887 47.392 27.5778 46.6319 24.2208 45.3604C26.7278 38.352 30.5829 33.3807 34.9358 32.169V47.5963ZM68.9265 61.8119H56.8824C56.731 56.8174 56.0324 52.0102 54.8404 47.6393C57.2152 46.4428 59.4472 44.9989 61.4976 43.3212C65.7589 48.3915 68.4777 54.7977 68.9265 61.8119ZM58.6367 40.3288C57.0607 41.5917 55.3642 42.7001 53.5709 43.6491C52.9457 41.9481 52.2381 40.337 51.4506 38.8346C50.4781 36.9792 49.4113 35.3423 48.2684 33.9321C52.1353 35.3921 55.6473 37.58 58.6367 40.3288ZM52.7865 63.8762C52.7865 69.0801 52.135 74.0408 50.9928 78.4369C47.2455 77.0477 43.2268 76.2268 39.0645 76.0227V51.7299C43.2266 51.5256 47.2455 50.7045 50.9928 49.3151C52.1348 53.7114 52.7865 58.6721 52.7865 63.8762ZM39.0643 32.169C43.4172 33.3807 47.2723 38.3522 49.7795 45.3606C46.4225 46.6319 42.8121 47.392 39.0643 47.5963V32.169ZM39.0645 95.5834V80.1562C42.8119 80.3605 46.4227 81.1205 49.7797 82.3914C47.2727 89.4 43.4174 94.3714 39.0645 95.5834ZM48.2686 93.8203C49.4113 92.4103 50.4781 90.7734 51.4506 88.9177C52.2381 87.4152 52.9459 85.8037 53.5713 84.1025C55.3648 85.0513 57.0617 86.1599 58.6377 87.4226C55.6482 90.172 52.1359 92.3601 48.2686 93.8203ZM61.4986 84.4305C59.448 82.7529 57.216 81.3088 54.8408 80.1127C56.0324 75.742 56.7312 70.935 56.8824 65.9404H68.9265C68.4777 72.9543 65.7593 79.3601 61.4986 84.4305Z" fill="#163BA4"/>
<path d="M45.7075 61.8115H45.501C44.3612 61.8115 43.4368 62.7357 43.4368 63.8758C43.4368 65.0158 44.361 65.94 45.501 65.94H45.7075C46.8473 65.94 47.7717 65.0158 47.7717 63.8758C47.7715 62.7357 46.8473 61.8115 45.7075 61.8115Z" fill="#163BA4"/>
</svg>
