<svg width="800" height="800" viewBox="0 0 800 800" fill="none" xmlns="http://www.w3.org/2000/svg">
<g clip-path="url(#clip0_620_5285)">
<path d="M400 0C179.44 0 0 179.44 0 400C0 620.56 179.44 800 400 800C620.56 800 800 620.56 800 400C800 179.44 620.56 0 400 0ZM400 727.273C219.542 727.273 72.7273 580.458 72.7273 400C72.7273 219.542 219.542 72.7273 400 72.7273C580.458 72.7273 727.273 219.542 727.273 400C727.273 580.458 580.458 727.273 400 727.273Z" fill="#163BA4"/>
<path d="M599.168 310.778L484.075 294.051L432.608 189.762C426.482 177.35 413.842 169.491 400 169.491C386.158 169.491 373.518 177.35 367.391 189.762L315.925 294.051L200.831 310.778C187.135 312.769 175.753 322.364 171.479 335.527C167.2 348.691 170.768 363.142 180.681 372.802L263.961 453.981L244.303 568.604C241.964 582.247 247.573 596.034 258.771 604.17C269.966 612.303 284.81 613.379 297.067 606.938L400 552.822L502.938 606.938C508.259 609.736 514.07 611.115 519.857 611.115C519.898 611.115 519.937 611.115 519.978 611.115C540.029 611.079 556.274 594.812 556.274 574.752C556.274 571.959 555.959 569.239 555.365 566.626L536.044 453.981L619.321 372.802C629.234 363.142 632.802 348.691 628.524 335.527C624.247 322.364 612.868 312.769 599.168 310.778Z" fill="#163BA4"/>
</g>
<defs>
<clipPath id="clip0_620_5285">
<rect width="800" height="800" fill="white"/>
</clipPath>
</defs>
</svg>
