<svg width="683" height="385" viewBox="0 0 683 385" fill="none" xmlns="http://www.w3.org/2000/svg">
<path d="M333.734 3.26658C332.267 4.99992 319.201 31.9332 304.667 63.2666C279.067 118.733 278.401 120.067 274.267 120.867C271.867 121.267 246.267 125.267 217.334 129.667C188.401 134.067 162.401 138.2 159.734 139C153.867 140.733 150.001 146.6 151.334 151.933C151.734 153.8 168.401 172.067 188.267 192.733C208.267 213.4 228.001 233.933 232.134 238.333L239.867 246.333L234.401 280.333C231.467 299 228.801 314.6 228.534 314.867C228.267 315.133 215.867 309.533 201.067 302.333C186.267 295.133 172.534 289.267 170.667 289.267C168.801 289.267 149.601 297.133 128.001 306.6C106.401 316.2 88.5341 323.933 88.4008 323.8C88.2674 323.667 91.0674 305.267 94.6674 283C98.2674 260.6 101.334 240.067 101.334 237.4C101.334 232.867 99.3341 230.333 68.0008 197.533C49.6008 178.333 35.0674 162.067 35.6008 161.667C36.2674 161.133 56.8008 157.667 81.3341 153.8C120.667 147.667 126.267 146.6 128.801 143.933C130.267 142.333 140.267 121.933 150.801 98.7333C161.334 75.3999 170.267 56.4666 170.667 56.3333C171.067 56.3333 174.001 62.4666 177.334 69.7999C180.667 77.2666 184.534 84.1999 186.001 85.1333C189.734 87.7999 195.067 87.3999 199.201 84.1999C204.934 79.6666 204.001 74.9999 191.067 46.7333C180.667 24.1999 178.801 21.1332 175.067 19.2666C171.067 17.3999 170.267 17.3999 166.401 19.2666C162.401 21.1332 160.001 25.6666 138.001 73.6666C124.801 102.467 113.467 126.2 112.667 126.467C112.001 126.733 88.0008 130.6 59.3341 135C28.9341 139.8 6.1341 143.933 4.40077 145.133C0.9341 147.267 -0.6659 152.2 0.5341 156.6C0.9341 158.333 18.6674 177.933 40.0008 200.2C61.2008 222.467 78.6674 241.4 78.6674 242.2C78.6674 243.133 75.0674 266.333 70.6674 293.667C66.2674 321.133 63.0674 344.6 63.4674 345.933C64.4008 349.133 70.4008 353.667 73.6008 353.667C75.0674 353.667 97.4674 344.333 123.467 332.867L170.534 311.933L197.734 325.4L225.067 338.733L223.201 349.8C222.134 355.933 220.934 364.733 220.401 369.4C219.734 376.867 219.867 378.067 222.667 381C228.667 387.4 230.534 386.6 288.001 354.467L341.334 324.6L394.667 354.467C451.734 386.467 454.001 387.4 459.734 381.267C463.334 377.4 463.334 373.667 460.001 353C458.534 344.333 457.734 336.733 458.401 336.2C458.934 335.667 471.067 330.067 485.334 323.667L511.467 312.2L560.001 339.533C586.667 354.6 609.601 367 610.801 367C615.067 367 621.334 360.467 621.334 356.2C621.334 353.933 617.467 327.8 612.667 297.933C607.867 268.2 604.001 243.133 604.001 242.2C604.001 241.4 621.467 222.467 642.667 200.2C664.001 177.933 681.734 158.333 682.134 156.6C683.334 152.2 681.734 147.267 678.267 145.133C676.534 143.933 652.667 139.533 622.134 134.733L568.801 126.333L544.667 73.7999C522.667 25.6666 520.134 20.9999 516.267 19.2666C512.401 17.3999 511.601 17.3999 507.601 19.2666C503.734 21.1332 502.001 24.1999 491.601 46.8666C478.801 74.9999 477.734 79.6666 483.467 84.1999C487.601 87.3999 492.934 87.7999 496.801 85.1333C498.267 84.0666 502.134 77.1333 505.334 69.7999C508.667 62.3333 511.601 56.3333 512.001 56.3333C512.401 56.3333 521.334 75.3999 531.867 98.7333C542.401 121.933 552.401 142.333 553.867 143.933C556.401 146.6 562.001 147.667 601.334 153.8C625.867 157.667 646.401 161.133 647.067 161.667C647.601 162.067 633.067 178.2 614.667 197.533C584.534 229 581.334 232.867 581.334 236.867C581.334 239.4 584.667 261.933 588.667 287.133C592.667 312.333 595.734 333.133 595.334 333.4C595.067 333.667 577.067 323.933 555.334 311.533C531.467 298.067 514.401 289.267 512.267 289.267C510.267 289.267 496.401 294.733 481.334 301.4C466.267 307.933 453.867 313 453.601 312.467C453.467 311.933 450.934 296.867 448.001 278.867L442.801 246.333L450.401 238.333C516.934 169.533 530.667 154.733 531.334 151.933C532.667 146.6 528.801 140.733 522.934 139C519.201 137.933 408.001 120.333 404.934 120.333C404.667 120.333 392.534 94.7333 378.001 63.2666C363.467 31.9332 350.401 4.99992 348.934 3.26658C347.067 1.26658 344.667 0.333248 341.334 0.333248C338.001 0.333248 335.601 1.26658 333.734 3.26658ZM364.534 86.7333C376.934 113.667 388.001 136.733 389.334 138.067C391.201 140.067 401.867 142.2 444.134 148.6C473.067 153 496.934 156.867 497.201 157.133C497.467 157.4 480.534 175.4 459.467 197.133C438.534 218.867 420.934 238.067 420.534 239.667C420.134 241.133 423.734 267 428.667 297C433.467 326.867 437.067 351.667 436.801 351.933C436.534 352.2 415.867 341 390.934 327.133C358.534 308.867 344.401 301.667 341.334 301.667C338.267 301.667 324.267 308.867 291.734 327.133C266.801 341.133 246.134 352.333 245.867 351.933C245.601 351.667 249.201 326.867 254.001 297C258.934 267 262.534 241.133 262.134 239.667C261.734 238.067 244.134 218.867 223.201 197.133C202.134 175.4 185.201 157.4 185.467 157.133C185.734 156.867 209.601 153 238.534 148.6C280.801 142.2 291.467 140.067 293.334 138.067C294.667 136.733 305.734 113.667 318.134 86.7333C330.534 59.7999 340.934 37.7999 341.334 37.7999C341.734 37.7999 352.134 59.7999 364.534 86.7333Z" fill="#163BA4"/>
<path d="M201.866 96.8667C194.266 100.2 193.866 109.4 200.533 119.667C205.466 127.267 216 126.333 219.466 118.067C221.2 114.067 221.066 113 218.533 107.133C214.133 96.7333 209.2 93.8 201.866 96.8667Z" fill="#163BA4"/>
<path d="M470.535 97.5335C468.535 99.0002 465.735 103.267 464.135 106.867C461.601 113 461.468 114.067 463.201 118.067C465.601 123.8 471.868 126.467 477.201 123.934C481.735 121.8 488.401 108.867 487.335 104.334C485.468 96.4669 476.401 92.8669 470.535 97.5335Z" fill="#163BA4"/>
</svg>
