<svg width="627" height="388" viewBox="0 0 627 388" fill="none" xmlns="http://www.w3.org/2000/svg">
<path d="M308.124 1.6197C304.124 3.6197 301.99 7.6197 285.457 43.0864L267.324 82.4197L226.924 89.353C181.19 97.2197 179.99 97.6197 179.99 107.753C179.99 112.953 180.924 114.02 209.724 143.22L239.59 173.22L233.19 211.22C225.457 257.086 225.19 259.753 229.457 263.886C236.524 270.82 238.79 270.02 289.724 242.82L313.457 230.153L323.057 235.486C328.39 238.42 344.924 247.086 359.724 254.82C389.057 269.886 390.657 270.286 397.19 263.886C401.324 259.753 401.19 258.02 393.59 211.886L387.057 173.22L416.924 143.22C445.724 114.02 446.657 112.953 446.657 107.753C446.657 97.6197 445.457 97.2197 399.724 89.353L359.324 82.4197L341.057 43.0864C331.057 21.4864 321.724 3.2197 320.39 2.4197C315.857 -0.513637 312.657 -0.780304 308.124 1.6197ZM327.19 70.553C334.524 86.2864 341.59 100.286 343.19 101.753C345.324 103.753 352.524 105.486 373.99 109.22C389.457 111.753 403.59 114.286 405.724 114.686C409.19 115.353 408.524 116.286 386.657 138.82C373.59 152.286 363.59 163.62 363.057 165.753C362.524 167.753 364.39 182.686 367.457 201.486C370.39 219.353 372.657 233.886 372.39 233.886C371.457 233.886 354.924 225.353 335.857 215.086C325.19 209.22 315.057 204.553 313.324 204.553C311.59 204.553 301.457 209.22 290.79 215.086C271.857 225.353 255.19 233.886 254.257 233.886C253.99 233.886 256.257 219.353 259.057 201.486C261.99 183.62 263.99 167.62 263.59 165.753C263.057 163.886 252.524 151.753 239.99 138.82C218.124 116.286 217.457 115.353 220.924 114.686C223.057 114.286 237.324 111.753 252.657 109.22C273.59 105.62 281.324 103.753 283.324 101.886C284.79 100.42 291.99 86.4197 299.324 70.553C306.524 54.8197 312.924 41.8864 313.324 41.8864C313.724 41.8864 319.99 54.8197 327.19 70.553Z" fill="#163BA4"/>
<path d="M61.7235 143.22C60.1235 143.887 57.8569 146.153 56.7902 148.153C55.0569 151.487 55.0569 156.153 56.7902 185.22C57.7235 203.62 58.6569 220.687 58.5235 223.22C58.5235 227.753 57.5902 228.687 29.9902 249.753C14.3902 261.753 1.1902 272.42 0.790198 273.487C-0.809802 277.62 0.123531 284.153 2.65686 286.82C4.12353 288.42 10.3902 291.22 16.9235 293.22C23.4569 295.087 39.1902 300.153 51.9902 304.287L75.1902 311.887L87.0569 347.62C99.8569 386.153 100.657 387.62 109.724 387.62C115.19 387.62 119.19 383.087 140.657 351.487L157.99 326.02L194.39 325.887H230.924L234.79 322.02C238.924 317.753 239.724 313.087 237.057 308.153C236.257 306.553 225.99 292.687 214.257 277.353L192.924 249.353L194.657 242.687C195.59 238.953 200.257 223.753 204.924 208.953C209.457 194.02 213.324 180.153 213.324 178.02C213.324 172.553 208.39 167.087 203.324 166.953C200.257 166.82 147.19 183.087 134.257 188.02C133.19 188.42 120.124 179.22 103.724 166.687C87.9902 154.687 73.7235 144.153 72.2569 143.353C69.0569 141.62 65.8569 141.62 61.7235 143.22ZM103.99 197.22C118.524 208.153 127.19 213.887 129.324 213.887C131.19 213.887 143.59 210.287 157.057 205.753C170.524 201.22 181.724 197.887 182.124 198.287C182.39 198.553 179.457 209.887 175.324 223.353C171.324 236.82 167.99 249.753 167.99 252.02C167.99 255.22 171.724 261.087 185.457 278.953L202.79 301.887H176.124C159.724 301.887 148.257 302.42 146.39 303.353C144.657 304.153 136.79 314.553 128.657 326.687C120.657 338.687 113.724 348.553 113.324 348.553C112.924 348.553 108.79 336.953 104.124 322.953C97.9902 304.287 94.6569 296.287 92.1235 293.887C89.5902 291.487 81.7235 288.287 63.7235 282.553C49.8569 278.287 38.6569 274.287 38.6569 273.887C38.6569 273.487 47.9902 266.02 59.3235 257.353C70.7902 248.687 80.7902 240.287 81.5902 238.82C82.9235 236.153 82.1235 188.287 80.5235 182.82C80.1235 181.62 80.3902 180.553 80.9235 180.553C81.5902 180.553 91.9902 188.02 103.99 197.22Z" fill="#163BA4"/>
<path d="M551.858 144.953C549.324 146.686 535.324 157.22 520.791 168.42C506.124 179.486 493.458 188.42 492.391 188.02C479.858 183.22 426.391 166.82 423.324 166.953C414.658 167.22 411.191 176.686 415.324 188.686C418.524 197.486 433.324 246.82 433.324 248.42C433.324 249.086 423.858 262.286 412.124 277.62C400.524 292.82 390.391 306.686 389.458 308.153C386.924 313.086 387.724 317.886 391.858 322.02L395.724 325.886H432.258H468.658L473.191 332.953C475.724 336.686 484.658 349.886 493.191 362.153C511.058 387.886 513.991 390.42 522.391 386.286L527.324 383.886L539.458 347.886L551.458 311.886L574.791 304.286C587.458 300.153 603.191 295.086 609.724 293.22C616.258 291.22 622.524 288.42 623.991 286.82C626.524 284.153 627.458 277.62 625.858 273.486C625.458 272.42 612.258 261.62 596.524 249.62L567.991 227.886L568.124 221.886C568.124 218.553 568.924 201.486 569.858 183.886C571.858 148.686 571.458 145.753 564.524 143.22C559.458 141.22 556.791 141.62 551.858 144.953ZM546.258 182.42C545.858 183.353 545.058 196.553 544.524 211.486L543.591 238.953L553.591 246.686C558.924 251.086 568.924 258.686 575.724 263.886C582.524 268.953 587.991 273.486 587.991 273.886C587.991 274.286 576.391 278.286 562.258 282.82C544.258 288.553 535.724 292.02 533.724 294.153C532.258 295.886 527.191 308.553 522.524 322.82C517.858 336.953 513.724 348.553 513.324 348.553C512.924 348.553 506.124 338.686 497.991 326.686C489.991 314.553 481.991 304.153 480.258 303.353C478.391 302.42 466.791 301.886 450.524 301.886H423.858L441.191 278.953C454.524 261.486 458.658 255.086 458.658 252.02C458.658 249.886 455.324 236.953 451.191 223.486C447.191 210.02 444.124 198.553 444.524 198.286C444.924 197.886 456.124 201.22 469.591 205.753C483.058 210.286 495.458 213.886 497.324 213.886C499.458 213.886 508.124 208.153 522.524 197.22C543.724 181.086 547.724 178.553 546.258 182.42Z" fill="#163BA4"/>
</svg>
