<svg width="114" height="106" viewBox="0 0 114 106" fill="none" xmlns="http://www.w3.org/2000/svg">
<path d="M57.1963 0.5L0.946289 15.5V60.5C0.946289 85.3555 26.127 105.5 57.1963 105.5C88.2656 105.5 113.446 85.3555 113.446 60.5V15.5L57.1963 0.5ZM102.899 60.5C102.899 80.6914 82.4355 97.0625 57.1963 97.0625C31.957 97.0625 11.4932 80.6914 11.4932 60.5V21.8281L57.1963 8.9375L102.899 21.8281V60.5Z" fill="#163BA4"/>
<path d="M37.6258 48.6758C37.1371 48.283 36.5561 47.9713 35.9164 47.7586C35.2766 47.5459 34.5906 47.4364 33.8978 47.4364C33.205 47.4364 32.519 47.5459 31.8793 47.7586C31.2395 47.9713 30.6586 48.283 30.1698 48.6758C29.6788 49.0668 29.2892 49.5316 29.0233 50.0434C28.7575 50.5552 28.6206 51.104 28.6206 51.6582C28.6206 52.2124 28.7575 52.7612 29.0233 53.273C29.2892 53.7849 29.6788 54.2496 30.1698 54.6406L49.1249 69.8047L49.4325 70.0508C49.8948 70.4213 50.4439 70.7153 51.0485 70.9159C51.653 71.1165 52.301 71.2197 52.9554 71.2197C53.6099 71.2197 54.2579 71.1165 54.8624 70.9159C55.4669 70.7153 56.016 70.4213 56.4784 70.0508L89.2176 43.8594C89.6808 43.4895 90.0483 43.0502 90.299 42.5666C90.5498 42.083 90.6788 41.5646 90.6788 41.041C90.6788 40.5175 90.5498 39.999 90.299 39.5154C90.0483 39.0318 89.6808 38.5925 89.2176 38.2227L88.8075 37.8945C88.3451 37.524 87.796 37.23 87.1915 37.0294C86.587 36.8288 85.939 36.7256 85.2845 36.7256C84.6301 36.7256 83.9821 36.8288 83.3775 37.0294C82.773 37.23 82.2239 37.524 81.7616 37.8945L52.9481 60.9336L37.6258 48.6758Z" fill="#163BA4"/>
</svg>
