<svg width="92" height="86" viewBox="0 0 92 86" fill="none" xmlns="http://www.w3.org/2000/svg">
<path d="M75.2648 71.1668C77.566 71.1668 79.4315 69.3013 79.4315 67.0002C79.4315 64.699 77.566 62.8335 75.2648 62.8335C72.9636 62.8335 71.0981 64.699 71.0981 67.0002C71.0981 69.3013 72.9636 71.1668 75.2648 71.1668Z" fill="#163BA4"/>
<path d="M62.7648 71.1668C65.066 71.1668 66.9315 69.3013 66.9315 67.0002C66.9315 64.699 65.066 62.8335 62.7648 62.8335C60.4636 62.8335 58.5981 64.699 58.5981 67.0002C58.5981 69.3013 60.4636 71.1668 62.7648 71.1668Z" fill="#163BA4"/>
<path d="M75.2648 46.1668C77.566 46.1668 79.4315 44.3013 79.4315 42.0002C79.4315 39.699 77.566 37.8335 75.2648 37.8335C72.9636 37.8335 71.0981 39.699 71.0981 42.0002C71.0981 44.3013 72.9636 46.1668 75.2648 46.1668Z" fill="#163BA4"/>
<path d="M62.7648 46.1668C65.066 46.1668 66.9315 44.3013 66.9315 42.0002C66.9315 39.699 65.066 37.8335 62.7648 37.8335C60.4636 37.8335 58.5981 39.699 58.5981 42.0002C58.5981 44.3013 60.4636 46.1668 62.7648 46.1668Z" fill="#163BA4"/>
<path d="M87.7646 0.333496H4.43131C3.32625 0.333496 2.26644 0.772483 1.48504 1.55388C0.703635 2.33529 0.264648 3.39509 0.264648 4.50016V29.5002C0.264648 30.6052 0.703635 31.665 1.48504 32.4464C2.26644 33.2278 3.32625 33.6668 4.43131 33.6668H83.598V50.3335H54.4313C53.3262 50.3335 52.2664 50.7725 51.485 51.5539C50.7036 52.3353 50.2646 53.3951 50.2646 54.5002C50.2646 55.6052 50.7036 56.665 51.485 57.4464C52.2664 58.2278 53.3262 58.6668 54.4313 58.6668H83.598V75.3335H54.4313C53.3262 75.3335 52.2664 75.7725 51.485 76.5539C50.7036 77.3353 50.2646 78.3951 50.2646 79.5002C50.2646 80.6052 50.7036 81.665 51.485 82.4464C52.2664 83.2278 53.3262 83.6668 54.4313 83.6668H87.7646C88.8697 83.6668 89.9295 83.2278 90.7109 82.4464C91.4923 81.665 91.9313 80.6052 91.9313 79.5002V4.50016C91.9313 3.39509 91.4923 2.33529 90.7109 1.55388C89.9295 0.772483 88.8697 0.333496 87.7646 0.333496ZM83.598 25.3335H8.59798V8.66683H83.598V25.3335Z" fill="#163BA4"/>
<path d="M75.2648 21.1668C77.566 21.1668 79.4315 19.3013 79.4315 17.0002C79.4315 14.699 77.566 12.8335 75.2648 12.8335C72.9636 12.8335 71.0981 14.699 71.0981 17.0002C71.0981 19.3013 72.9636 21.1668 75.2648 21.1668Z" fill="#163BA4"/>
<path d="M62.7648 21.1668C65.066 21.1668 66.9315 19.3013 66.9315 17.0002C66.9315 14.699 65.066 12.8335 62.7648 12.8335C60.4636 12.8335 58.5981 14.699 58.5981 17.0002C58.5981 19.3013 60.4636 21.1668 62.7648 21.1668Z" fill="#163BA4"/>
<path d="M37.7645 52.417H35.6812C35.6812 49.1018 34.3642 45.9224 32.02 43.5782C29.6758 41.234 26.4964 39.917 23.1812 39.917C19.8659 39.917 16.6865 41.234 14.3423 43.5782C11.9981 45.9224 10.6812 49.1018 10.6812 52.417H8.59782C7.49275 52.417 6.43294 52.856 5.65154 53.6374C4.87014 54.4188 4.43115 55.4786 4.43115 56.5837V81.5837C4.43115 82.6887 4.87014 83.7485 5.65154 84.5299C6.43294 85.3113 7.49275 85.7503 8.59782 85.7503H37.7645C38.8696 85.7503 39.9294 85.3113 40.7108 84.5299C41.4922 83.7485 41.9312 82.6887 41.9312 81.5837V56.5837C41.9312 55.4786 41.4922 54.4188 40.7108 53.6374C39.9294 52.856 38.8696 52.417 37.7645 52.417ZM23.1812 48.2503C24.2862 48.2503 25.346 48.6893 26.1274 49.4707C26.9088 50.2521 27.3478 51.3119 27.3478 52.417H19.0145C19.0145 51.3119 19.4535 50.2521 20.2349 49.4707C21.0163 48.6893 22.0761 48.2503 23.1812 48.2503ZM33.5978 77.417H12.7645V60.7503H33.5978V77.417Z" fill="#163BA4"/>
<path d="M25.2648 64.917H21.0981V73.2503H25.2648V64.917Z" fill="#163BA4"/>
</svg>
