<svg width="100" height="92" viewBox="0 0 100 92" fill="none" xmlns="http://www.w3.org/2000/svg">
<mask id="mask0_70_3021" style="mask-type:luminance" maskUnits="userSpaceOnUse" x="0" y="0" width="100" height="92">
<path d="M99.8621 0.734863H0.239502V91.3718H99.8621V0.734863Z" fill="white"/>
</mask>
<g mask="url(#mask0_70_3021)">
<path d="M23.1344 83.2046C22.5484 85.3177 22.221 85.9147 21.6319 87.8707C21.4672 88.529 21.1089 89.1219 20.6032 89.5736C20.0976 90.0254 19.468 90.3147 18.7959 90.4046C14.9673 90.9677 11.1343 91.6362 7.24045 91.0844C3.66806 90.5766 1.38654 88.3355 1.208 84.7308C0.904049 78.5921 0.796989 72.4439 0.638767 66.2986C0.592275 64.4963 0.568495 62.6861 0.681402 60.8885C0.91112 57.2379 2.62299 55.2932 6.26801 55.0451C10.2619 54.7716 14.2816 54.8384 18.2904 54.8333C19.8648 54.8314 20.8387 55.8827 21.5329 57.1793C21.8756 57.8192 22.119 58.5112 22.3901 59.1327C24.8846 58.7811 27.2978 58.3373 29.731 58.1201C34.1819 57.7232 38.5653 58.1982 42.7105 59.9235C47.5362 61.9338 52.5141 62.3623 57.6523 61.8713C58.9158 61.7576 60.1885 61.7987 61.442 61.9939C65.5539 62.6189 67.5307 65.6719 66.5034 69.6742C66.4212 69.9933 66.2986 70.2992 66.076 70.9731C67.5194 70.8683 68.7968 70.8195 70.0635 70.6766C75.492 70.0623 80.5546 68.1278 85.6516 66.3171C87.9153 65.5129 90.1563 64.6195 92.4676 63.9867C93.8242 63.6403 95.2272 63.5171 96.623 63.6207C99.0956 63.7772 100.248 65.5742 99.6153 67.951C99.0962 69.9046 97.9028 71.3951 96.442 72.7171C92.2075 76.5463 87.248 79.1022 81.901 80.9695C74.3736 83.5975 66.6849 85.5671 58.7529 86.4861C48.2335 87.7677 37.4141 87.7802 27.3912 84.3397C25.961 83.8445 24.4721 83.6415 23.1344 83.2046ZM23.2082 79.4159C25.6304 80.0546 27.8748 80.657 30.1232 81.2367C37.153 83.0463 44.2994 84.0748 51.5507 83.5862C62.3724 82.8576 72.7421 80.0653 82.7974 76.079C86.67 74.5748 90.2474 72.401 93.3676 69.6582C94.0468 68.985 94.6855 68.2725 95.2801 67.5237L94.9462 67.0213C93.5069 67.4481 92.0504 67.8248 90.6313 68.3106C85.7063 69.9963 80.8301 71.8332 75.867 73.3939C71.9486 74.6254 67.9081 75.1308 63.795 74.2397C63.2111 74.1451 62.6123 74.2385 62.0855 74.5064C56.8604 77.1594 51.2182 77.6373 45.5104 77.6683C44.1798 77.6058 42.8637 77.3641 41.5978 76.9492C41.3974 76.9064 41.2084 76.8236 41.0415 76.7046C40.8747 76.5856 40.7337 76.4344 40.6278 76.2594C40.5215 76.0844 40.4523 75.8897 40.4243 75.6867C40.3965 75.4844 40.4101 75.2772 40.4648 75.0802C40.6641 74.4076 41.0966 73.8278 41.685 73.4457C42.4116 73.1058 43.2024 72.9236 44.0048 72.9106C46.2031 72.7361 48.4077 72.6373 50.61 72.5153C53.6963 72.3421 56.7522 71.9397 59.5772 70.6361C60.7224 70.1147 61.7462 69.3588 62.5825 68.4177C63.6063 67.2254 63.0611 66.0534 61.4885 65.8939C60.2224 65.8046 58.9513 65.8183 57.6879 65.9367C52.4919 66.2707 47.4048 65.9129 42.5581 63.7861C41.6385 63.3885 40.6965 63.0445 39.7366 62.7564C34.9212 61.2516 29.7754 61.1594 24.9092 62.4903C23.0168 62.9981 23.034 63.0802 23.1344 64.979C23.2938 68.0481 23.5044 71.1165 23.5606 74.1885C23.5915 75.8451 23.3465 77.5064 23.2071 79.4165L23.2082 79.4159ZM17.641 58.6041C14.4375 58.6041 11.3777 58.5744 8.31789 58.6131C5.57732 58.6475 4.89402 59.3456 4.83425 62.0814C4.6811 69.0909 4.45255 76.1004 4.44357 83.11C4.44005 86.079 5.91447 87.0469 8.02176 86.8891C10.8159 86.6802 13.6085 86.4272 16.3909 86.0927C17.8587 85.9165 18.1173 85.4611 18.0912 83.9201C18.005 82.6546 18.0015 81.3844 18.0806 80.1183C18.8228 73.6397 18.2985 67.1742 17.9766 60.7058C17.9009 59.9998 17.7885 59.2984 17.6399 58.6041H17.641Z" fill="#163BA4"/>
<path d="M57.0636 24.8007C61.336 27.7238 62.9181 32.0426 63.3949 36.9652C64.2295 45.5895 59.1118 50.9625 53.1099 53.2566C48.165 55.1482 43.0933 56.1085 37.8314 54.5638C31.7295 52.7725 28.1309 47.8781 27.9059 41.5347C27.6246 33.6089 32.3764 26.3871 40.1664 23.2039C44.9092 21.2681 54.1225 22.7891 57.0636 24.8007ZM42.5604 50.9391C45.1436 51.2469 49.8446 50.1374 52.1711 49.1142C56.4634 47.2264 59.6076 43.7517 58.8771 37.4066C58.2676 32.1145 55.5813 28.0831 50.4575 27.022C47.7834 26.4684 42.56 26.2199 39.9027 27.3474C34.1005 29.8087 31.8474 35.6298 32.1498 41.9914C32.4459 48.2117 38.7136 50.4808 42.5604 50.9398V50.9391Z" fill="#163BA4"/>
<path d="M11.1568 67.2524C9.41792 67.2733 8.19661 66.156 8.13447 64.4882C8.06376 62.5757 9.57138 60.9001 11.3716 60.8888C13.4617 60.8769 15.0769 62.1001 15.0905 63.7019C15.1049 65.431 13.1117 67.228 11.1568 67.2524Z" fill="#163BA4"/>
<path d="M46.5572 33.057V37.8025C47.2491 38.063 47.8961 38.2783 48.5199 38.5471C50.9742 39.602 51.5778 41.9089 49.969 44.0298C49.3048 44.9034 48.7828 45.257 46.8283 46.1543C46.6439 47.092 46.4583 48.0151 46.2814 48.9407C46.1833 49.4563 45.9372 49.8556 45.3742 49.8685C44.7804 49.8826 44.5718 49.3997 44.4659 48.9329C44.2674 48.0573 44.1318 47.1677 43.9518 46.1821C43.2333 45.9902 42.4508 45.7871 41.6721 45.5707C41.2952 45.482 40.9259 45.3624 40.5685 45.2132C40.2583 45.1054 39.9989 44.887 39.8399 44.5995C39.6809 44.3123 39.6332 43.9763 39.7063 43.656C39.8328 43.0348 40.3661 42.6421 41.1877 42.6957C42.0828 42.7543 42.972 42.9063 43.8412 43.0149C44.2042 42.0139 44.2459 41.4182 44.0873 39.7141C43.4818 39.4871 42.8266 39.2867 42.2121 39.0023C39.718 37.8521 39.1684 35.3608 40.9357 33.2543C41.6651 32.337 42.6262 31.631 43.7197 31.2095C44.01 31.1314 44.2639 30.9553 44.4386 30.7111C44.6132 30.4668 44.698 30.1695 44.678 29.8698C44.6843 29.3971 44.787 28.9307 44.9804 28.4993C45.0636 28.3603 45.1793 28.2435 45.3172 28.1587C45.4551 28.0739 45.6114 28.0236 45.7727 28.0122C45.9294 28.0565 46.0727 28.1374 46.1915 28.2483C46.3103 28.3592 46.4013 28.4967 46.456 28.6497C46.5642 29.2014 46.6228 29.7617 46.6318 30.3238C47.226 30.4591 47.8128 30.6248 48.3899 30.8204C49.3111 31.1829 49.7471 31.8975 49.6349 32.7117C49.5353 33.4325 49.1434 33.6763 48.4711 33.3801C47.8831 33.1223 47.335 32.7386 46.5572 33.057ZM44.2834 33.9978C43.0208 34.7467 42.3753 35.5432 42.6086 36.1367C42.8872 36.8458 43.5337 37.0243 44.2834 37.122V33.9978ZM46.6424 42.8914C47.4811 42.5816 48.25 42.2113 48.2246 41.3615C48.2031 40.6489 47.4178 40.502 46.7791 40.4059C46.7424 40.4004 46.7009 40.4333 46.5388 40.4938C46.5388 40.99 46.5299 41.533 46.5431 42.0757C46.549 42.3132 46.599 42.5499 46.6424 42.8914Z" fill="#163BA4"/>
<path d="M78.5051 11.433V16.179C79.1968 16.4395 79.8432 16.6547 80.467 16.9212C82.9218 17.976 83.5253 20.2834 81.9164 22.4044C81.2521 23.2776 80.7301 23.6311 78.7759 24.5289C78.5914 25.4665 78.4057 25.999 78.2289 26.9241C78.1307 27.4398 77.8843 27.8391 77.3218 27.8524C76.7277 27.8661 76.5188 27.3836 76.4134 26.9167C76.2146 26.0413 76.0795 25.5423 75.8991 24.5567C75.1807 24.3645 74.3985 24.1616 73.6194 23.9452C73.2426 23.8562 72.8735 23.7366 72.5158 23.5874C72.2057 23.4794 71.9462 23.2609 71.7872 22.9735C71.6283 22.6862 71.5807 22.3503 71.6539 22.0301C71.7801 21.4093 72.314 21.0167 73.1349 21.0702C74.0307 21.1284 74.9194 21.2807 75.789 21.3894C76.1515 20.3885 76.1932 19.7923 76.0349 18.0885C75.4295 17.8612 74.7741 17.6612 74.1581 17.3767C71.6634 16.2266 71.1146 13.7353 72.8813 11.6287C73.611 10.7114 74.5724 10.0054 75.6658 9.58389C75.9557 9.50574 76.2099 9.32955 76.3843 9.08532C76.5587 8.84109 76.6438 8.54389 76.6241 8.24425C76.6295 7.77151 76.7325 7.30514 76.9259 6.87383C77.0093 6.73484 77.1247 6.61788 77.2628 6.53306C77.4009 6.44818 77.5569 6.39783 77.7188 6.38623C77.8753 6.43062 78.0182 6.51163 78.1372 6.62258C78.2563 6.73353 78.3468 6.87127 78.4015 7.02425C78.5093 7.57597 78.5688 8.13615 78.5777 8.69824C79.1724 8.83324 79.7587 8.99901 80.336 9.19478C81.2569 9.55699 81.6932 10.2716 81.5807 11.0857C81.4813 11.8069 81.089 12.0503 80.417 11.7541C79.8307 11.4979 79.2825 11.1146 78.5051 11.433ZM76.2313 12.3738C74.9682 13.1231 74.323 13.9197 74.5557 14.5131C74.8343 15.2218 75.4813 15.4007 76.2313 15.4984V12.3738ZM78.5896 21.2679C79.4283 20.9581 80.1973 20.5874 80.1718 19.7376C80.1509 19.0251 79.3652 18.8781 78.7265 18.7824C78.6896 18.7769 78.648 18.8097 78.486 18.8703C78.486 19.3665 78.4771 19.9095 78.4902 20.4518C78.4962 20.6897 78.5468 20.9265 78.5896 21.2679Z" fill="#163BA4"/>
<path d="M88.5908 3.23519C92.8634 6.15823 94.4455 10.4773 94.9223 15.3998C95.7569 24.024 90.639 29.397 84.6372 31.691C79.6926 33.5823 74.6211 34.5429 69.3592 32.9982C63.2569 31.2069 59.6589 26.3122 59.4335 19.9687C59.1522 12.043 63.9039 4.82176 71.6938 1.63814C76.4366 -0.29649 85.6497 1.22477 88.5908 3.23519ZM74.0884 29.3735C76.6717 29.6817 81.3717 28.5718 83.6991 27.549C87.9914 25.6613 91.1348 22.1862 90.4045 15.8412C89.795 10.5495 87.1092 6.51763 81.9854 5.45696C79.311 4.90337 74.0884 4.6549 71.4307 5.7824C65.6283 8.24364 63.3753 14.0648 63.6777 20.4258C63.9729 26.647 70.2414 28.916 74.0884 29.3751V29.3735Z" fill="#163BA4"/>
</g>
</svg>
