<svg width="121" height="100" viewBox="0 0 121 100" fill="none" xmlns="http://www.w3.org/2000/svg">
<path d="M107.324 39.0071C111.647 41.0677 115.152 44.125 117.412 47.8062C119.672 51.4874 120.589 55.6335 120.051 59.7387C119.513 63.8439 117.544 67.7309 114.384 70.9256C111.223 74.1204 107.008 76.4848 102.252 77.7305C100.571 84.0448 96.3359 89.6945 90.247 93.7444C84.1581 97.7942 76.581 100.001 68.7702 100H55.9188C54.7827 100 53.6931 99.6264 52.8897 98.9614C52.0864 98.2963 51.635 97.3944 51.635 96.4539C51.635 95.5134 52.0864 94.6114 52.8897 93.9464C53.6931 93.2814 54.7827 92.9078 55.9188 92.9078H68.7702C74.0874 92.9091 79.2743 91.5457 83.6165 89.0054C87.9588 86.4651 91.2429 82.8729 93.0164 78.7234H90.1891C89.053 78.7234 87.9634 78.3498 87.16 77.6848C86.3567 77.0198 85.9053 76.1178 85.9053 75.1773V39.7163C85.9053 38.7758 86.3567 37.8739 87.16 37.2088C87.9634 36.5438 89.053 36.1702 90.1891 36.1702H94.4729C95.8609 36.1702 97.2231 36.2624 98.5597 36.4397C97.5952 28.5737 93.1379 21.284 86.0515 15.9831C78.965 10.6822 69.7538 7.74745 60.2026 7.74745C50.6514 7.74745 41.4402 10.6822 34.3537 15.9831C27.2673 21.284 22.81 28.5737 21.8456 36.4397C23.197 36.2605 24.5636 36.1704 25.9323 36.1702H30.2161C31.3522 36.1702 32.4418 36.5438 33.2452 37.2088C34.0485 37.8739 34.4999 38.7758 34.4999 39.7163V75.1773C34.4999 76.1178 34.0485 77.0198 33.2452 77.6848C32.4418 78.3498 31.3522 78.7234 30.2161 78.7234H25.9323C20.269 78.7286 14.7621 77.1853 10.2673 74.3333C5.77252 71.4813 2.54147 67.4803 1.07617 62.9518C-0.389143 58.4234 -0.00665855 53.6211 2.16419 49.2911C4.33504 44.9612 8.1727 41.3459 13.0809 39.0071C13.0809 28.6618 18.0455 18.7402 26.8825 11.4249C35.7196 4.10966 47.7052 0 60.2026 0C72.7 0 84.6856 4.10966 93.5227 11.4249C102.36 18.7402 107.324 28.6618 107.324 39.0071ZM25.9323 43.2624C21.3878 43.2624 17.0294 44.7568 13.8159 47.4169C10.6024 50.077 8.79713 53.6849 8.79713 57.4468C8.79713 61.2087 10.6024 64.8166 13.8159 67.4767C17.0294 70.1368 21.3878 71.6312 25.9323 71.6312V43.2624ZM111.608 57.4468C111.608 53.6849 109.803 50.077 106.589 47.4169C103.376 44.7568 99.0174 43.2624 94.4729 43.2624V71.6312C99.0174 71.6312 103.376 70.1368 106.589 67.4767C109.803 64.8166 111.608 61.2087 111.608 57.4468Z" fill="#163BA4"/>
</svg>
