<svg width="101" height="100" viewBox="0 0 101 100" fill="none" xmlns="http://www.w3.org/2000/svg">
<g clip-path="url(#clip0_123_2760)">
<path d="M94.6911 84.2588L86.2984 40.0236C86.1406 39.1906 85.4122 38.5879 84.5648 38.5879H16.1741C15.3263 38.5879 14.5984 39.1906 14.4404 40.0236L10.2491 62.1129C10.2489 62.1145 6.04758 84.259 6.04758 84.259C5.94954 84.7754 6.08684 85.3086 6.42219 85.7135C6.75754 86.1182 7.25559 86.3525 7.78118 86.3525H20.4587L15.0468 97.4619C14.62 98.3381 14.9843 99.3943 15.8605 99.8213C16.1095 99.9424 16.3728 99.9998 16.632 99.9998C17.2857 99.9998 17.914 99.635 18.2197 99.0076L24.3845 86.3525H76.3542L82.5195 99.0078C82.946 99.884 84.0023 100.248 84.8788 99.8215C85.755 99.3947 86.1191 98.3383 85.6923 97.4621L80.28 86.3525H92.9576C93.4831 86.3525 93.9816 86.1182 94.3165 85.7135C94.6519 85.3084 94.7892 84.7754 94.6911 84.2588ZM48.6048 82.823H30.0128L31.4669 68.1887C31.5632 67.2186 30.8552 66.3543 29.8853 66.2578C28.9142 66.1617 28.0511 66.8695 27.9546 67.8395L26.4657 82.8229H23.2814H9.91223L13.439 64.2348H48.6046V82.823H48.6048ZM48.6048 60.7055H14.1087L17.6355 42.1174H30.5109L29.0128 57.1928C28.9163 58.1627 29.6245 59.027 30.5945 59.1234C31.5636 59.2176 32.4286 58.5117 32.5251 57.5418L34.0575 42.1174H48.6048V60.7055ZM52.1339 82.823V64.235H65.0171C65.9919 64.235 66.7818 63.4449 66.7818 62.4703C66.7818 61.4957 65.9919 60.7057 65.0171 60.7057H52.1339V42.1176H66.6812L70.7261 82.8232H52.1339V82.823ZM77.4574 82.823H74.273L70.2281 42.1174H83.1034L86.6302 60.7055H76.3113C75.3365 60.7055 74.5466 61.4955 74.5466 62.4701C74.5466 63.4447 75.3365 64.2348 76.3113 64.2348H87.2999L90.8267 82.8229L77.4574 82.823Z" fill="#163BA4"/>
<path d="M58.4411 0.516791C57.7516 -0.172467 56.6344 -0.172467 55.9454 0.516791L29.3573 27.1051C28.668 27.7943 28.668 28.9117 29.3573 29.6006C29.7018 29.9451 30.1534 30.1176 30.6051 30.1176C31.0567 30.1176 31.5084 29.9453 31.8528 29.6006L58.4411 3.0123C59.1303 2.32324 59.1303 1.20585 58.4411 0.516791Z" fill="#163BA4"/>
<path d="M76.382 0.516791C75.6925 -0.172467 74.5753 -0.172467 73.8863 0.516791L47.2982 27.1051C46.6089 27.7939 46.6089 28.9115 47.2982 29.6006C47.6427 29.9451 48.0945 30.1176 48.546 30.1176C48.9976 30.1176 49.4494 29.9453 49.7937 29.6006L76.382 3.0123C77.0712 2.32324 77.0712 1.20585 76.382 0.516791Z" fill="#163BA4"/>
<path d="M94.3231 0.516791C93.6337 -0.172467 92.5165 -0.172467 91.8274 0.516791L65.2391 27.1051C64.5499 27.7939 64.5499 28.9115 65.2389 29.6006C65.5837 29.9451 66.0354 30.1176 66.487 30.1176C66.9386 30.1176 67.3903 29.9453 67.735 29.6006L94.3231 3.0123C95.0122 2.32324 95.0122 1.20585 94.3231 0.516791Z" fill="#163BA4"/>
</g>
<defs>
<clipPath id="clip0_123_2760">
<rect width="100" height="100" fill="white" transform="translate(0.428223)"/>
</clipPath>
</defs>
</svg>
