<svg width="152" height="85" viewBox="0 0 152 85" fill="none" xmlns="http://www.w3.org/2000/svg">
<path d="M41.8145 28.4317H67.1643L46.655 46.0029L54.4887 74.4346L33.9808 56.8633L13.4715 74.4346L21.3053 46.0029L0.797363 28.4317H26.1471L33.9808 0C36.5911 9.47776 39.2028 18.9539 41.8145 28.4317ZM30.1911 34.9958H17.929L27.849 43.4953L24.0608 57.2481L33.9808 48.7486L43.9009 57.2481L40.1112 43.4953L50.0313 34.9958H37.7691L33.9808 21.2447C32.7171 25.8278 31.4548 30.4127 30.1911 34.9958Z" fill="#163BA4"/>
<path d="M82.9604 38.9971H108.31L87.8009 56.5684L95.6346 85L75.1267 67.4288L54.6174 85L62.4511 56.5684L41.9432 38.9971H67.293L75.1267 10.5654C77.737 20.0432 80.3487 29.5193 82.9604 38.9971ZM71.337 45.5613H59.0749L68.9949 54.0608L65.2066 67.8135L75.1267 59.314L85.0467 67.8135L81.2571 54.0608L91.1771 45.5613H78.915L75.1267 31.8101C73.863 36.3933 72.6007 40.9781 71.337 45.5613Z" fill="#163BA4"/>
<path d="M126.65 28.4317H152L131.491 46.0029L139.324 74.4346L118.817 56.8633L98.3072 74.4346L106.141 46.0029L85.6331 28.4317H110.983L118.817 0C121.427 9.47776 124.039 18.9539 126.65 28.4317ZM115.027 34.9958H102.765L112.685 43.4953L108.896 57.2481L118.817 48.7486L128.737 57.2481L124.947 43.4953L134.867 34.9958H122.605L118.817 21.2447C117.553 25.8278 116.291 30.4127 115.027 34.9958Z" fill="#163BA4"/>
</svg>
