<svg width="68" height="68" viewBox="0 0 68 68" fill="none" xmlns="http://www.w3.org/2000/svg">
<path d="M2.69483 56.6528C1.59083 57.8376 0.9898 59.4047 1.01837 61.0239C1.04694 62.643 1.70287 64.1879 2.84798 65.333C3.99309 66.4781 5.53796 67.1341 7.15714 67.1626C8.77632 67.1912 10.3434 66.5902 11.5282 65.4862L32.0282 44.9862L23.1948 36.1528L2.69483 56.6528Z" fill="#163BA4"/>
<path d="M53.917 18.6667L62.8476 14.0417L67.5281 5.01394L63.167 0.652832L54.1393 5.33339L49.5142 14.2501L38.6531 25.1251L43.0559 29.5417L53.917 18.6667Z" fill="#163BA4"/>
<path d="M55.8754 42.3334H55.0282C53.5518 42.3418 52.0889 42.6146 50.7087 43.1389L25.0976 17.4584C25.6045 16.0844 25.8631 14.6312 25.8615 13.1667L25.7782 12.3334C25.6624 10.3045 25.0481 8.33543 23.9898 6.60054C22.9315 4.86565 21.4617 3.41845 19.7107 2.38706C17.9597 1.35567 15.9813 0.7719 13.9509 0.68744C11.9204 0.602979 9.90048 1.02043 8.06984 1.90283L16.4032 10.2362C16.8219 10.6626 17.144 11.1742 17.3476 11.7362C17.58 12.3716 17.6542 13.054 17.5637 13.7245C17.4733 14.3949 17.2209 15.0333 16.8284 15.5844C16.436 16.1355 15.9152 16.5827 15.3112 16.8875C14.7071 17.1922 14.038 17.3452 13.3615 17.3334C12.885 17.3186 12.4148 17.2198 11.9726 17.0417C11.4146 16.8367 10.9042 16.52 10.4726 16.1112L2.13929 7.77783C1.2485 9.60812 0.823501 11.6301 0.902024 13.6641C0.980547 15.6981 1.56016 17.6813 2.5894 19.4374C3.61864 21.1936 5.06564 22.6684 6.80189 23.7309C8.53814 24.7933 10.5099 25.4106 12.5421 25.5278L13.3615 25.6667C14.8379 25.6583 16.3008 25.3855 17.681 24.8612L43.3615 50.4445C42.8195 51.8447 42.5371 53.332 42.5282 54.8334L42.6115 55.6667C42.8423 58.8062 44.2492 61.743 46.5511 63.8904C48.8529 66.0378 51.8802 67.2375 55.0282 67.2501C56.8828 67.2483 58.7122 66.8206 60.3754 66.0001L52.0421 57.6667C51.6523 57.2494 51.3501 56.7583 51.1532 56.2223C50.9324 55.598 50.8636 54.9302 50.9524 54.2741C51.0413 53.6179 51.2852 52.9924 51.664 52.4494C52.0427 51.9063 52.5455 51.4613 53.1305 51.1513C53.7156 50.8413 54.3661 50.6752 55.0282 50.6667C55.5047 50.6816 55.9748 50.7803 56.4171 50.9584C56.9835 51.1458 57.4976 51.4647 57.9171 51.8889L66.2504 60.2223C67.171 58.3886 67.6206 56.3546 67.5588 54.3037C67.497 52.2528 66.9256 50.2496 65.8962 48.4747C64.8668 46.6998 63.4118 45.209 61.6624 44.1369C59.913 43.0647 57.9242 42.445 55.8754 42.3334Z" fill="#163BA4"/>
</svg>
