<svg width="101" height="100" viewBox="0 0 101 100" fill="none" xmlns="http://www.w3.org/2000/svg">
<g clip-path="url(#clip0_123_2748)">
<path d="M48.5937 64.7304C48.0127 64.1493 47.0707 64.1493 46.49 64.7304L43.4814 67.739L37.7452 62.0028L40.7548 58.9932C41.3358 58.4122 41.3358 57.4704 40.7548 56.8895C40.1737 56.3086 39.2317 56.3085 38.6511 56.8895L35.5202 60.0204C35.1663 59.8573 34.7797 59.7684 34.3784 59.7684C33.6485 59.7684 32.962 60.0528 32.4455 60.5692L14.9974 78.0174C14.4163 78.5985 14.4163 79.5403 14.9974 80.1211C15.5784 80.7022 16.5204 80.7022 17.1011 80.1211L34.3782 62.844L42.6394 71.1052L18.6228 95.122C17.5032 96.2416 16.0114 96.8449 14.4226 96.8291C12.8345 96.8105 11.3571 96.1681 10.2628 95.0211C8.09321 92.7455 8.18071 89.0413 10.4581 86.764L13.3138 83.9083C13.8948 83.3272 13.8948 82.3854 13.3138 81.8045C12.7327 81.2235 11.7907 81.2237 11.21 81.8045L8.35435 84.6602C4.94416 88.0706 4.8342 93.6396 8.10981 97.0748C9.76217 98.8068 11.9915 99.7762 14.3876 99.8043C14.4237 99.8047 14.4593 99.8049 14.495 99.8049C16.8517 99.8049 19.0613 98.8914 20.7265 97.2258L44.914 73.0383C45.7437 72.2086 45.9244 70.9748 45.4621 69.9656L48.5933 66.8343C49.1746 66.2533 49.1746 65.3113 48.5937 64.7304Z" fill="#163BA4"/>
<path d="M95.1703 39.5099C94.7648 38.795 93.8568 38.5442 93.1423 38.9495C92.4277 39.3548 92.1767 40.2626 92.582 40.9773C95.2716 45.7213 95.6757 51.1797 93.7976 56.0543C90.3644 49.9037 84.8456 44.0175 80.4873 40.9392L86.9864 34.4464L89.604 37.064C89.8946 37.3546 90.2753 37.4999 90.6562 37.4999C91.0368 37.4999 91.4175 37.3548 91.7079 37.0644C92.2892 36.4835 92.2892 35.5415 91.7083 34.9604L89.0915 32.3436L90.8388 30.5979C91.1183 30.319 91.2753 29.9405 91.2755 29.5455C91.2757 29.1508 91.1191 28.7721 90.8398 28.4928L77.159 14.812C76.5824 14.2355 75.6488 14.2304 75.0664 14.8009C74.9129 14.9513 74.739 15.0755 74.5469 15.1714C73.3373 15.78 71.5269 15.2892 70.2429 14.0052C68.9663 12.7288 68.4777 10.9817 69.0585 9.74793C69.1556 9.53875 69.2865 9.3489 69.4482 9.18425C70.0195 8.60163 70.0148 7.66764 69.4378 7.09088L62.7823 0.43555C62.2013 -0.145509 61.2593 -0.145509 60.6786 0.43555L46.1687 14.9452C45.5876 15.5263 45.5876 16.4681 46.1687 17.049L52.824 23.7043C53.3985 24.2789 54.3279 24.2861 54.9115 23.7205C55.069 23.5678 55.2489 23.442 55.4508 23.3443C56.658 22.7555 58.4571 23.2502 59.7276 24.5205C61.0079 25.8006 61.4993 27.608 60.8966 28.8184C60.8014 29.0096 60.6776 29.1846 60.5288 29.3381C59.9633 29.9217 59.9706 30.8508 60.5452 31.4254L62.3288 33.209L49.5601 45.9795C48.9791 46.5605 48.9793 47.5025 49.5603 48.0834C49.8508 48.3738 50.2314 48.5189 50.6123 48.5189C50.9932 48.5189 51.3738 48.3738 51.6645 48.0832L64.4329 35.313L70.1699 41.0499L57.3995 53.8203C56.8184 54.4014 56.8184 55.3432 57.3995 55.9241C57.6899 56.2147 58.0707 56.3598 58.4514 56.3598C58.8321 56.3598 59.2129 56.2147 59.5034 55.9241L72.2738 43.1537L74.2193 45.0992C74.4982 45.3781 74.8767 45.5349 75.2713 45.5349C75.6658 45.5349 76.0443 45.3783 76.3232 45.0992L78.3488 43.0755C83.0475 46.2193 89.5161 53.3795 92.4622 60.0175C92.6886 60.5272 93.1808 60.8677 93.7376 60.8993C93.7659 60.9009 93.7941 60.9016 93.8222 60.9016C94.3474 60.9016 94.8367 60.6239 95.1046 60.1675C98.8572 53.7787 98.8818 46.0562 95.1703 39.5099ZM53.876 20.5488L49.3246 15.9972L61.7303 3.59143L66.2817 8.14284L53.876 20.5488ZM61.8315 22.4166C60.7913 21.3767 59.5557 20.6756 58.2913 20.341L66.0657 12.5663C66.3999 13.8343 67.1009 15.0716 68.1388 16.1093C69.2747 17.2453 70.6734 17.9794 72.0851 18.2642L63.9851 26.3643C63.7005 24.9512 62.9665 23.5517 61.8315 22.4166ZM75.2709 41.9437L63.9421 30.6149L76.348 18.2091L87.6827 29.5438L75.2709 41.9437Z" fill="#163BA4"/>
<path d="M90.2954 84.5659L87.9073 82.1788C87.3262 81.5977 86.3842 81.5977 85.8036 82.1788C85.2225 82.7598 85.2225 83.7016 85.8036 84.2825L88.1917 86.6706C89.3366 87.8155 89.9671 89.3386 89.9671 90.9599C89.9671 92.5808 89.3364 94.104 88.1917 95.249C87.046 96.3947 85.5225 97.0256 83.9024 97.0256C82.2822 97.0256 80.7588 96.3945 79.6131 95.249L65.5727 81.2088C65.953 80.4916 66.1546 79.6877 66.1546 78.853C66.1546 77.5065 65.6302 76.2404 64.6778 75.2883C63.7257 74.3359 62.4596 73.8115 61.1131 73.8115C60.2784 73.8115 59.4745 74.0131 58.7573 74.3932L57.6912 73.3271L66.2696 64.7487L67.337 65.8161C66.3331 67.7199 66.6311 70.1357 68.2306 71.7353C69.1829 72.6877 70.4488 73.2121 71.7954 73.2121C72.6302 73.2121 73.4341 73.0105 74.1513 72.6304L82.0338 80.5129C82.6149 81.094 83.5569 81.094 84.1375 80.5129C84.7186 79.9319 84.7186 78.9901 84.1375 78.4092L75.3601 69.6318C75.0812 69.3527 74.7027 69.196 74.3082 69.196C73.9136 69.196 73.5351 69.3527 73.2562 69.6318C72.8658 70.0222 72.3472 70.2371 71.7952 70.2371C71.2433 70.2371 70.7247 70.022 70.3343 69.6318C69.5288 68.8263 69.5288 67.5156 70.3343 66.7101C70.9154 66.129 70.9152 65.187 70.3343 64.6064L67.3214 61.5934C67.0425 61.3143 66.664 61.1577 66.2694 61.1577C65.8749 61.1577 65.4964 61.3143 65.2175 61.5934L65.0429 61.7681L61.9848 58.71C61.7059 58.4309 61.3274 58.2743 60.9329 58.2743C60.5383 58.2743 60.1598 58.4309 59.8809 58.71L59.2018 59.3891L22.0761 22.2627L21.2577 16.4601C21.1894 15.9751 20.8868 15.555 20.4484 15.3364L10.3018 10.277C9.72934 9.99187 9.03851 10.1038 8.58597 10.5565L3.49882 15.6435C3.04627 16.096 2.93397 16.7868 3.21932 17.3593L8.27893 27.5061C8.49749 27.9442 8.91761 28.2469 9.40257 28.3154L15.2052 29.1338L19.4159 33.3446C19.997 33.9256 20.939 33.9256 21.5197 33.3446C22.1007 32.7635 22.1007 31.8215 21.5197 31.2409L16.9575 26.6787C16.7292 26.4504 16.4329 26.3025 16.1134 26.2576L10.5928 25.4789L6.36036 16.9904L9.93305 13.4177L18.421 17.6501L19.1997 23.1709C19.2448 23.4906 19.3925 23.7867 19.6208 24.015L57.0981 61.4923L54.4348 64.1556L24.4945 34.2151C23.9134 33.634 22.9714 33.634 22.3908 34.2151C21.8097 34.7962 21.8097 35.738 22.3908 36.3188L52.3308 66.2589L51.6517 66.938C51.3726 67.2169 51.216 67.5954 51.216 67.99C51.216 68.3845 51.3726 68.763 51.6517 69.0419L54.71 72.1L54.5355 72.2746C53.9545 72.8556 53.9545 73.7974 54.5355 74.3783L57.5485 77.3912C58.1295 77.9723 59.0715 77.9723 59.6522 77.3912C60.0426 77.0008 60.5612 76.7858 61.1131 76.7858C61.6651 76.7858 62.1837 77.0008 62.5741 77.3912C62.9645 77.7817 63.1794 78.3002 63.1794 78.8522C63.1794 79.4041 62.9645 79.9227 62.5741 80.3131C62.295 80.592 62.1383 80.9705 62.1383 81.3651C62.1383 81.7596 62.295 82.1381 62.5741 82.417L77.5096 97.3523C79.2172 99.0599 81.4875 100 83.9026 100C86.3176 100 88.588 99.0599 90.2956 97.3523C92.0024 95.6455 92.9425 93.3751 92.9425 90.9593C92.9425 88.5435 92.0023 86.2727 90.2954 84.5659ZM56.8135 69.9964L54.8074 67.9904L60.2538 62.544L60.9329 61.8649L62.9391 63.8712L56.8135 69.9964Z" fill="#163BA4"/>
</g>
<defs>
<clipPath id="clip0_123_2748">
<rect width="100" height="100" fill="white" transform="translate(0.5)"/>
</clipPath>
</defs>
</svg>
