<svg width="446" height="464" viewBox="0 0 446 464" fill="none" xmlns="http://www.w3.org/2000/svg">
<path d="M374.218 355.707C377.969 355.707 381.008 352.668 381.008 348.918V17.423C381.008 7.94994 373.3 0.242188 363.827 0.242188H90.0706C80.5984 0.242188 72.8906 7.94994 72.8906 17.423V446.577C72.8906 456.05 80.5984 463.758 90.0715 463.758H363.828C373.301 463.758 381.009 456.05 381.009 446.577V380.604C381.009 376.854 377.97 373.814 374.219 373.814C370.468 373.814 367.429 376.854 367.429 380.604V446.577C367.429 448.563 365.814 450.179 363.828 450.179H90.0706C88.0852 450.179 86.4693 448.563 86.4693 446.577V17.423C86.4693 15.4377 88.0843 13.8217 90.0706 13.8217H363.827C365.812 13.8217 367.428 15.4368 367.428 17.423V348.919C367.428 352.668 370.467 355.707 374.218 355.707Z" fill="#163BA4"/>
<path d="M260.625 51.9811C262.711 48.8651 261.874 44.6473 258.757 42.5624C249.33 36.2542 238.331 32.9209 226.947 32.9209C195.37 32.9209 169.682 58.6107 169.682 90.1867C169.682 121.764 195.37 147.453 226.947 147.453C258.524 147.453 284.213 121.764 284.213 90.1867C284.213 83.5816 283.097 77.1051 280.894 70.9346C279.633 67.4039 275.747 65.5589 272.217 66.8227C268.686 68.0838 266.844 71.9684 268.105 75.5C278.225 103.842 257.128 133.873 226.947 133.873C202.859 133.873 183.261 114.276 183.261 90.1858C183.261 66.0975 202.858 46.4995 226.947 46.4995C235.633 46.4995 244.021 49.0407 251.205 53.8479C254.322 55.9346 258.539 55.0981 260.625 51.9811Z" fill="#163BA4"/>
<path d="M226.95 59.1689C209.846 59.1689 195.932 73.0834 195.932 90.1864C195.932 107.29 209.846 121.205 226.95 121.205C244.053 121.205 257.968 107.29 257.968 90.1864C257.968 73.0834 244.052 59.1689 226.95 59.1689ZM226.95 107.624C217.335 107.624 209.511 99.8007 209.511 90.1855C209.511 80.5703 217.335 72.7476 226.95 72.7476C236.565 72.7476 244.388 80.5703 244.388 90.1855C244.388 99.8007 236.565 107.624 226.95 107.624Z" fill="#163BA4"/>
<path d="M226.948 96.977C230.698 96.977 233.738 93.9371 233.738 90.1872C233.738 86.4373 230.698 83.3975 226.948 83.3975C223.198 83.3975 220.158 86.4373 220.158 90.1872C220.158 93.9371 223.198 96.977 226.948 96.977Z" fill="#163BA4"/>
<path d="M104.577 38.7172C108.327 38.7172 111.367 35.6774 111.367 31.9275C111.367 28.1776 108.327 25.1377 104.577 25.1377C100.827 25.1377 97.7871 28.1776 97.7871 31.9275C97.7871 35.6774 100.827 38.7172 104.577 38.7172Z" fill="#163BA4"/>
<path d="M141.444 245.772C145.194 245.772 148.234 242.732 148.234 238.982C148.234 235.232 145.194 232.192 141.444 232.192C137.694 232.192 134.654 235.232 134.654 238.982C134.654 242.732 137.694 245.772 141.444 245.772Z" fill="#163BA4"/>
<path d="M141.444 268.405C145.194 268.405 148.234 265.365 148.234 261.615C148.234 257.865 145.194 254.825 141.444 254.825C137.694 254.825 134.654 257.865 134.654 261.615C134.654 265.365 137.694 268.405 141.444 268.405Z" fill="#163BA4"/>
<path d="M141.444 291.038C145.194 291.038 148.234 287.998 148.234 284.248C148.234 280.498 145.194 277.458 141.444 277.458C137.694 277.458 134.654 280.498 134.654 284.248C134.654 287.998 137.694 291.038 141.444 291.038Z" fill="#163BA4"/>
<path d="M175.647 245.772C179.397 245.772 182.437 242.732 182.437 238.982C182.437 235.232 179.397 232.192 175.647 232.192C171.897 232.192 168.857 235.232 168.857 238.982C168.857 242.732 171.897 245.772 175.647 245.772Z" fill="#163BA4"/>
<path d="M175.647 268.405C179.397 268.405 182.437 265.365 182.437 261.615C182.437 257.865 179.397 254.825 175.647 254.825C171.897 254.825 168.857 257.865 168.857 261.615C168.857 265.365 171.897 268.405 175.647 268.405Z" fill="#163BA4"/>
<path d="M175.647 291.038C179.397 291.038 182.437 287.998 182.437 284.248C182.437 280.498 179.397 277.458 175.647 277.458C171.897 277.458 168.857 280.498 168.857 284.248C168.857 287.998 171.897 291.038 175.647 291.038Z" fill="#163BA4"/>
<path d="M209.848 245.772C213.598 245.772 216.638 242.732 216.638 238.982C216.638 235.232 213.598 232.192 209.848 232.192C206.098 232.192 203.059 235.232 203.059 238.982C203.059 242.732 206.098 245.772 209.848 245.772Z" fill="#163BA4"/>
<path d="M209.848 268.405C213.598 268.405 216.638 265.365 216.638 261.615C216.638 257.865 213.598 254.825 209.848 254.825C206.098 254.825 203.059 257.865 203.059 261.615C203.059 265.365 206.098 268.405 209.848 268.405Z" fill="#163BA4"/>
<path d="M209.848 291.038C213.598 291.038 216.638 287.998 216.638 284.248C216.638 280.498 213.598 277.458 209.848 277.458C206.098 277.458 203.059 280.498 203.059 284.248C203.059 287.998 206.098 291.038 209.848 291.038Z" fill="#163BA4"/>
<path d="M244.05 245.772C247.799 245.772 250.839 242.732 250.839 238.982C250.839 235.232 247.799 232.192 244.05 232.192C240.3 232.192 237.26 235.232 237.26 238.982C237.26 242.732 240.3 245.772 244.05 245.772Z" fill="#163BA4"/>
<path d="M244.05 268.405C247.799 268.405 250.839 265.365 250.839 261.615C250.839 257.865 247.799 254.825 244.05 254.825C240.3 254.825 237.26 257.865 237.26 261.615C237.26 265.365 240.3 268.405 244.05 268.405Z" fill="#163BA4"/>
<path d="M244.05 291.038C247.799 291.038 250.839 287.998 250.839 284.248C250.839 280.498 247.799 277.458 244.05 277.458C240.3 277.458 237.26 280.498 237.26 284.248C237.26 287.998 240.3 291.038 244.05 291.038Z" fill="#163BA4"/>
<path d="M278.251 245.772C282.001 245.772 285.04 242.732 285.04 238.982C285.04 235.232 282.001 232.192 278.251 232.192C274.501 232.192 271.461 235.232 271.461 238.982C271.461 242.732 274.501 245.772 278.251 245.772Z" fill="#163BA4"/>
<path d="M278.251 268.405C282.001 268.405 285.04 265.365 285.04 261.615C285.04 257.865 282.001 254.825 278.251 254.825C274.501 254.825 271.461 257.865 271.461 261.615C271.461 265.365 274.501 268.405 278.251 268.405Z" fill="#163BA4"/>
<path d="M278.251 291.038C282.001 291.038 285.04 287.998 285.04 284.248C285.04 280.498 282.001 277.458 278.251 277.458C274.501 277.458 271.461 280.498 271.461 284.248C271.461 287.998 274.501 291.038 278.251 291.038Z" fill="#163BA4"/>
<path d="M312.454 245.772C316.204 245.772 319.244 242.732 319.244 238.982C319.244 235.232 316.204 232.192 312.454 232.192C308.704 232.192 305.664 235.232 305.664 238.982C305.664 242.732 308.704 245.772 312.454 245.772Z" fill="#163BA4"/>
<path d="M312.454 268.405C316.204 268.405 319.244 265.365 319.244 261.615C319.244 257.865 316.204 254.825 312.454 254.825C308.704 254.825 305.664 257.865 305.664 261.615C305.664 265.365 308.704 268.405 312.454 268.405Z" fill="#163BA4"/>
<path d="M312.454 291.038C316.204 291.038 319.244 287.998 319.244 284.248C319.244 280.498 316.204 277.458 312.454 277.458C308.704 277.458 305.664 280.498 305.664 284.248C305.664 287.998 308.704 291.038 312.454 291.038Z" fill="#163BA4"/>
<path d="M141.444 313.669C145.194 313.669 148.234 310.63 148.234 306.88C148.234 303.13 145.194 300.09 141.444 300.09C137.694 300.09 134.654 303.13 134.654 306.88C134.654 310.63 137.694 313.669 141.444 313.669Z" fill="#163BA4"/>
<path d="M175.647 313.669C179.397 313.669 182.437 310.63 182.437 306.88C182.437 303.13 179.397 300.09 175.647 300.09C171.897 300.09 168.857 303.13 168.857 306.88C168.857 310.63 171.897 313.669 175.647 313.669Z" fill="#163BA4"/>
<path d="M209.848 313.669C213.598 313.669 216.638 310.63 216.638 306.88C216.638 303.13 213.598 300.09 209.848 300.09C206.098 300.09 203.059 303.13 203.059 306.88C203.059 310.63 206.098 313.669 209.848 313.669Z" fill="#163BA4"/>
<path d="M244.05 313.669C247.799 313.669 250.839 310.63 250.839 306.88C250.839 303.13 247.799 300.09 244.05 300.09C240.3 300.09 237.26 303.13 237.26 306.88C237.26 310.63 240.3 313.669 244.05 313.669Z" fill="#163BA4"/>
<path d="M278.251 313.669C282.001 313.669 285.04 310.63 285.04 306.88C285.04 303.13 282.001 300.09 278.251 300.09C274.501 300.09 271.461 303.13 271.461 306.88C271.461 310.63 274.501 313.669 278.251 313.669Z" fill="#163BA4"/>
<path d="M312.454 313.669C316.204 313.669 319.244 310.63 319.244 306.88C319.244 303.13 316.204 300.09 312.454 300.09C308.704 300.09 305.664 303.13 305.664 306.88C305.664 310.63 308.704 313.669 312.454 313.669Z" fill="#163BA4"/>
<path d="M349.321 38.7172C353.071 38.7172 356.111 35.6774 356.111 31.9275C356.111 28.1776 353.071 25.1377 349.321 25.1377C345.571 25.1377 342.531 28.1776 342.531 31.9275C342.531 35.6774 345.571 38.7172 349.321 38.7172Z" fill="#163BA4"/>
<path d="M104.577 438.822C108.327 438.822 111.367 435.782 111.367 432.032C111.367 428.282 108.327 425.242 104.577 425.242C100.827 425.242 97.7871 428.282 97.7871 432.032C97.7871 435.782 100.827 438.822 104.577 438.822Z" fill="#163BA4"/>
<path d="M349.321 438.822C353.071 438.822 356.111 435.782 356.111 432.032C356.111 428.282 353.071 425.242 349.321 425.242C345.571 425.242 342.531 428.282 342.531 432.032C342.531 435.782 345.571 438.822 349.321 438.822Z" fill="#163BA4"/>
<path d="M324.925 167.822C324.925 164.071 321.886 161.032 318.135 161.032H180.811C177.06 161.032 174.021 164.071 174.021 167.822C174.021 171.573 177.06 174.612 180.811 174.612H187.613V195.981H142.556V174.612H149.125C152.876 174.612 155.915 171.573 155.915 167.822C155.915 164.071 152.876 161.032 149.125 161.032H135.766C132.016 161.032 128.977 164.071 128.977 167.822V202.77C128.977 206.521 132.016 209.56 135.766 209.56H318.135C321.886 209.56 324.925 206.521 324.925 202.77V167.822ZM201.193 174.612H252.709V195.981H201.193V174.612ZM311.345 195.981H266.287V174.612H311.345V195.981Z" fill="#163BA4"/>
<path d="M128.977 345.355V394.228C128.977 397.979 132.016 401.018 135.766 401.018H318.135C321.886 401.018 324.925 397.979 324.925 394.228V345.355C324.925 341.605 321.886 338.565 318.135 338.565H135.766C132.017 338.565 128.977 341.605 128.977 345.355ZM142.556 352.145H311.345V387.438H142.556V352.145Z" fill="#163BA4"/>
<path d="M226.948 376.582C230.698 376.582 233.738 373.543 233.738 369.793C233.738 366.043 230.698 363.003 226.948 363.003C223.198 363.003 220.158 366.043 220.158 369.793C220.158 373.543 223.198 376.582 226.948 376.582Z" fill="#163BA4"/>
<path d="M445.583 270.279C445.583 266.528 442.544 263.489 438.793 263.489H404.704C400.953 263.489 397.914 266.528 397.914 270.279C397.914 274.03 400.953 277.069 404.704 277.069H438.793C442.543 277.069 445.583 274.03 445.583 270.279Z" fill="#163BA4"/>
<path d="M425.338 208.055L395.816 225.101C392.568 226.975 391.456 231.128 393.331 234.375C395.216 237.639 399.374 238.726 402.606 236.86L432.127 219.815C435.375 217.941 436.487 213.788 434.612 210.541C432.737 207.292 428.584 206.181 425.338 208.055Z" fill="#163BA4"/>
<path d="M402.606 306.114C399.356 304.239 395.205 305.351 393.331 308.599C391.456 311.846 392.568 315.999 395.816 317.874L425.338 334.918C428.581 336.789 432.736 335.685 434.612 332.433C436.487 329.186 435.375 325.033 432.127 323.158L402.606 306.114Z" fill="#163BA4"/>
<path d="M47.7458 270.279C47.7458 266.528 44.7067 263.489 40.956 263.489H6.86594C3.11527 263.489 0.0761719 266.528 0.0761719 270.279C0.0761719 274.03 3.11527 277.069 6.86594 277.069H40.9551C44.7058 277.069 47.7458 274.03 47.7458 270.279Z" fill="#163BA4"/>
<path d="M49.8423 225.101L20.3204 208.055C17.0739 206.181 12.9186 207.292 11.0455 210.541C9.17065 213.788 10.2833 217.941 13.5306 219.815L43.0525 236.86C46.279 238.723 50.4416 237.644 52.3273 234.375C54.2022 231.128 53.0896 226.975 49.8423 225.101Z" fill="#163BA4"/>
<path d="M20.3204 334.918L49.8423 317.874C53.0896 315.999 54.2022 311.847 52.3273 308.6C50.4534 305.352 46.298 304.24 43.0525 306.114L13.5306 323.159C10.2833 325.033 9.17065 329.186 11.0455 332.433C12.9286 335.696 17.0884 336.784 20.3204 334.918Z" fill="#163BA4"/>
</svg>
