<svg width="1317" height="737" viewBox="0 0 1317 737" fill="none" xmlns="http://www.w3.org/2000/svg">
<path d="M461.334 317.514L275.503 513.42C270.476 518.719 270.476 527.312 275.503 532.613C278.017 535.264 281.311 536.588 284.605 536.588C287.9 536.588 291.195 535.264 293.708 532.613L479.539 336.707C484.566 331.408 484.566 322.815 479.539 317.514C474.511 312.213 466.362 312.213 461.334 317.514Z" fill="#163BA4"/>
<path d="M544.634 248.892C539.606 243.592 531.457 243.592 526.428 248.892L503.331 273.241C498.304 278.54 498.304 287.134 503.331 292.435C505.845 295.085 509.139 296.41 512.433 296.41C515.728 296.41 519.022 295.085 521.536 292.435L544.633 268.085C549.661 262.784 549.661 254.191 544.634 248.892Z" fill="#163BA4"/>
<path d="M631.003 624.107H573.839C542.049 624.107 516.185 596.841 516.185 563.328V526.645C562.242 520.002 597.849 478.28 597.849 427.931C597.849 397.666 584.788 369.361 562.937 350.617L643.325 265.869C645.739 263.324 647.096 259.872 647.096 256.273C647.096 252.674 645.739 249.221 643.325 246.677L465.891 59.626C460.863 54.3265 452.714 54.3265 447.684 59.626L99.1203 427.088C94.0933 432.388 94.0933 440.981 99.1203 446.281L137.264 486.492L99.6416 526.152L49.1877 527.156C45.8599 527.223 42.6841 528.645 40.3296 531.127L38.2338 533.335C38.2313 533.338 38.23 533.339 38.2274 533.342L4.62962 568.76C-0.397372 574.06 -0.397372 582.653 4.62962 587.954L142.166 732.946C144.68 735.597 147.974 736.921 151.268 736.921C154.563 736.921 157.858 735.597 160.371 732.946L193.968 697.528L196.067 695.315C198.422 692.831 199.772 689.485 199.835 685.975L200.788 632.785L238.408 593.123L276.552 633.334C278.965 635.879 282.24 637.309 285.654 637.309C289.068 637.309 292.343 635.879 294.757 633.334L429.971 490.79C445.063 510.342 466.687 523.217 490.436 526.664V563.33C490.436 611.81 527.85 651.252 573.837 651.252H631.003C638.111 651.252 643.876 645.176 643.876 637.681C643.876 630.186 638.111 624.107 631.003 624.107ZM151.268 704.158L31.9376 578.358L47.3288 562.132L166.66 687.932L151.268 704.158ZM178.912 617.461C176.558 619.944 175.207 623.292 175.144 626.801L174.587 657.903L75.812 553.773L105.315 553.186C108.644 553.119 111.82 551.696 114.174 549.214L155.466 505.683L220.203 573.929L178.912 617.461ZM285.656 604.544L126.428 436.685L456.788 88.4144L616.014 256.273L285.656 604.544ZM503.311 500.451C481.523 500.451 461.2 489.554 448.304 471.465L544.605 369.94C561.764 383.537 572.101 404.962 572.101 427.931C572.101 467.919 541.242 500.451 503.311 500.451Z" fill="#163BA4"/>
<path d="M1216.38 554.401C1216.38 558.618 1213.2 561.697 1209.67 561.697C1206.15 561.697 1202.96 558.618 1202.96 554.403V27.3179C1202.96 22.4124 1199.15 18.0918 1194.05 18.0918H782.343C777.241 18.0918 773.427 22.4149 773.427 27.3179V709.682C773.427 714.588 777.244 718.908 782.343 718.908H1194.05C1199.15 718.908 1202.96 714.585 1202.96 709.682V604.784C1202.96 600.567 1206.15 597.488 1209.68 597.488C1213.2 597.488 1216.39 600.567 1216.39 604.784V709.682C1216.39 722.998 1206.18 733.5 1194.05 733.5H782.344C770.212 733.5 760.006 722.998 760.006 709.682V27.3179C760.006 14.0022 770.212 3.5 782.343 3.5H1194.05C1206.18 3.5 1216.38 14.0023 1216.38 27.3179V554.401Z" fill="#163BA4" stroke="#163BA4" stroke-width="7"/>
<path d="M1035.88 80.3943L1035.88 80.3939C1038.06 76.959 1037.12 72.3498 1034.01 70.1477L1034.01 70.1473C1020.41 60.5291 1004.58 55.46 988.193 55.46C942.818 55.46 905.57 94.554 905.57 143.014C905.57 191.475 942.818 230.569 988.193 230.569C1033.57 230.569 1070.82 191.475 1070.82 143.014C1070.82 132.887 1069.2 122.968 1066.01 113.523L1035.88 80.3943ZM1035.88 80.3943C1033.78 83.7222 1029.69 84.4936 1026.7 82.3775L1026.7 82.377C1015.31 74.3214 1001.99 70.0503 988.193 70.0503C949.851 70.0503 918.993 102.965 918.993 143.012C918.993 183.063 949.852 215.976 988.193 215.976C1036.25 215.976 1069.3 165.607 1053.41 118.542L1053.41 118.542C1052.07 114.584 1054.09 110.431 1057.51 109.139L1057.51 109.138M1035.88 80.3943L1057.51 109.138M1057.51 109.138C1060.82 107.885 1064.7 109.638 1066.01 113.522L1057.51 109.138Z" fill="#163BA4" stroke="#163BA4" stroke-width="7"/>
<path d="M945.049 143.013C945.049 117.566 964.589 97.1943 988.198 97.1943C1011.8 97.1943 1031.34 117.566 1031.34 143.013C1031.34 168.462 1011.8 188.833 988.198 188.833C964.589 188.833 945.049 168.461 945.049 143.013ZM958.471 143.011C958.471 160.047 971.623 174.239 988.198 174.239C1004.77 174.239 1017.92 160.046 1017.92 143.011C1017.92 125.976 1004.77 111.785 988.198 111.785C971.623 111.785 958.471 125.976 958.471 143.011Z" fill="#163BA4" stroke="#163BA4" stroke-width="7"/>
<path d="M994.905 143.015C994.905 147.23 991.719 150.311 988.194 150.311C984.668 150.311 981.482 147.23 981.482 143.015C981.482 138.799 984.668 135.719 988.194 135.719C991.719 135.719 994.905 138.799 994.905 143.015Z" fill="#163BA4" stroke="#163BA4" stroke-width="7"/>
<path d="M810.87 50.3799C810.87 54.5954 807.684 57.6757 804.158 57.6757C800.633 57.6757 797.447 54.5954 797.447 50.3799C797.447 46.1643 800.633 43.084 804.158 43.084C807.684 43.084 810.87 46.1643 810.87 50.3799Z" fill="#163BA4" stroke="#163BA4" stroke-width="7"/>
<path d="M866.315 379.602C866.315 383.817 863.129 386.897 859.604 386.897C856.078 386.897 852.893 383.817 852.893 379.602C852.893 375.386 856.078 372.306 859.604 372.306C863.129 372.306 866.315 375.386 866.315 379.602Z" fill="#163BA4" stroke="#163BA4" stroke-width="7"/>
<path d="M866.315 415.588C866.315 419.803 863.129 422.884 859.604 422.884C856.078 422.884 852.893 419.803 852.893 415.588C852.893 411.372 856.078 408.292 859.604 408.292C863.129 408.292 866.315 411.372 866.315 415.588Z" fill="#163BA4" stroke="#163BA4" stroke-width="7"/>
<path d="M866.315 451.575C866.315 455.791 863.129 458.871 859.604 458.871C856.078 458.871 852.893 455.791 852.893 451.575C852.893 447.36 856.078 444.279 859.604 444.279C863.129 444.279 866.315 447.36 866.315 451.575Z" fill="#163BA4" stroke="#163BA4" stroke-width="7"/>
<path d="M917.754 379.602C917.754 383.817 914.569 386.897 911.043 386.897C907.518 386.897 904.332 383.817 904.332 379.602C904.332 375.386 907.518 372.306 911.043 372.306C914.569 372.306 917.754 375.386 917.754 379.602Z" fill="#163BA4" stroke="#163BA4" stroke-width="7"/>
<path d="M917.754 415.588C917.754 419.803 914.569 422.884 911.043 422.884C907.518 422.884 904.332 419.803 904.332 415.588C904.332 411.372 907.518 408.292 911.043 408.292C914.569 408.292 917.754 411.372 917.754 415.588Z" fill="#163BA4" stroke="#163BA4" stroke-width="7"/>
<path d="M917.754 451.575C917.754 455.791 914.569 458.871 911.043 458.871C907.518 458.871 904.332 455.791 904.332 451.575C904.332 447.36 907.518 444.279 911.043 444.279C914.569 444.279 917.754 447.36 917.754 451.575Z" fill="#163BA4" stroke="#163BA4" stroke-width="7"/>
<path d="M969.188 379.602C969.188 383.817 966.002 386.897 962.477 386.897C958.951 386.897 955.766 383.817 955.766 379.602C955.766 375.386 958.951 372.306 962.477 372.306C966.002 372.306 969.188 375.386 969.188 379.602Z" fill="#163BA4" stroke="#163BA4" stroke-width="7"/>
<path d="M969.188 415.588C969.188 419.803 966.002 422.884 962.477 422.884C958.951 422.884 955.766 419.803 955.766 415.588C955.766 411.372 958.951 408.292 962.477 408.292C966.002 408.292 969.188 411.372 969.188 415.588Z" fill="#163BA4" stroke="#163BA4" stroke-width="7"/>
<path d="M969.188 451.575C969.188 455.791 966.002 458.871 962.477 458.871C958.951 458.871 955.766 455.791 955.766 451.575C955.766 447.36 958.951 444.279 962.477 444.279C966.002 444.279 969.188 447.36 969.188 451.575Z" fill="#163BA4" stroke="#163BA4" stroke-width="7"/>
<path d="M1020.62 379.602C1020.62 383.817 1017.44 386.897 1013.91 386.897C1010.39 386.897 1007.2 383.817 1007.2 379.602C1007.2 375.386 1010.39 372.306 1013.91 372.306C1017.44 372.306 1020.62 375.386 1020.62 379.602Z" fill="#163BA4" stroke="#163BA4" stroke-width="7"/>
<path d="M1020.62 415.588C1020.62 419.803 1017.44 422.884 1013.91 422.884C1010.39 422.884 1007.2 419.803 1007.2 415.588C1007.2 411.372 1010.39 408.292 1013.91 408.292C1017.44 408.292 1020.62 411.372 1020.62 415.588Z" fill="#163BA4" stroke="#163BA4" stroke-width="7"/>
<path d="M1020.62 451.575C1020.62 455.791 1017.44 458.871 1013.91 458.871C1010.39 458.871 1007.2 455.791 1007.2 451.575C1007.2 447.36 1010.39 444.279 1013.91 444.279C1017.44 444.279 1020.62 447.36 1020.62 451.575Z" fill="#163BA4" stroke="#163BA4" stroke-width="7"/>
<path d="M1072.06 379.602C1072.06 383.817 1068.87 386.897 1065.35 386.897C1061.82 386.897 1058.64 383.817 1058.64 379.602C1058.64 375.386 1061.82 372.306 1065.35 372.306C1068.87 372.306 1072.06 375.386 1072.06 379.602Z" fill="#163BA4" stroke="#163BA4" stroke-width="7"/>
<path d="M1072.06 415.588C1072.06 419.803 1068.87 422.884 1065.35 422.884C1061.82 422.884 1058.64 419.803 1058.64 415.588C1058.64 411.372 1061.82 408.292 1065.35 408.292C1068.87 408.292 1072.06 411.372 1072.06 415.588Z" fill="#163BA4" stroke="#163BA4" stroke-width="7"/>
<path d="M1072.06 451.575C1072.06 455.791 1068.87 458.871 1065.35 458.871C1061.82 458.871 1058.64 455.791 1058.64 451.575C1058.64 447.36 1061.82 444.279 1065.35 444.279C1068.87 444.279 1072.06 447.36 1072.06 451.575Z" fill="#163BA4" stroke="#163BA4" stroke-width="7"/>
<path d="M1123.5 379.602C1123.5 383.817 1120.31 386.897 1116.79 386.897C1113.26 386.897 1110.08 383.817 1110.08 379.602C1110.08 375.386 1113.26 372.306 1116.79 372.306C1120.31 372.306 1123.5 375.386 1123.5 379.602Z" fill="#163BA4" stroke="#163BA4" stroke-width="7"/>
<path d="M1123.5 415.588C1123.5 419.803 1120.31 422.884 1116.79 422.884C1113.26 422.884 1110.08 419.803 1110.08 415.588C1110.08 411.372 1113.26 408.292 1116.79 408.292C1120.31 408.292 1123.5 411.372 1123.5 415.588Z" fill="#163BA4" stroke="#163BA4" stroke-width="7"/>
<path d="M1123.5 451.575C1123.5 455.791 1120.31 458.871 1116.79 458.871C1113.26 458.871 1110.08 455.791 1110.08 451.575C1110.08 447.36 1113.26 444.279 1116.79 444.279C1120.31 444.279 1123.5 447.36 1123.5 451.575Z" fill="#163BA4" stroke="#163BA4" stroke-width="7"/>
<path d="M866.315 487.56C866.315 491.775 863.129 494.855 859.604 494.855C856.078 494.855 852.893 491.775 852.893 487.56C852.893 483.344 856.078 480.264 859.604 480.264C863.129 480.264 866.315 483.344 866.315 487.56Z" fill="#163BA4" stroke="#163BA4" stroke-width="7"/>
<path d="M917.754 487.56C917.754 491.775 914.569 494.855 911.043 494.855C907.518 494.855 904.332 491.775 904.332 487.56C904.332 483.344 907.518 480.264 911.043 480.264C914.569 480.264 917.754 483.344 917.754 487.56Z" fill="#163BA4" stroke="#163BA4" stroke-width="7"/>
<path d="M969.188 487.56C969.188 491.775 966.002 494.855 962.477 494.855C958.951 494.855 955.766 491.775 955.766 487.56C955.766 483.344 958.951 480.264 962.477 480.264C966.002 480.264 969.188 483.344 969.188 487.56Z" fill="#163BA4" stroke="#163BA4" stroke-width="7"/>
<path d="M1020.62 487.56C1020.62 491.775 1017.44 494.855 1013.91 494.855C1010.39 494.855 1007.2 491.775 1007.2 487.56C1007.2 483.344 1010.39 480.264 1013.91 480.264C1017.44 480.264 1020.62 483.344 1020.62 487.56Z" fill="#163BA4" stroke="#163BA4" stroke-width="7"/>
<path d="M1072.06 487.56C1072.06 491.775 1068.87 494.855 1065.35 494.855C1061.82 494.855 1058.64 491.775 1058.64 487.56C1058.64 483.344 1061.82 480.264 1065.35 480.264C1068.87 480.264 1072.06 483.344 1072.06 487.56Z" fill="#163BA4" stroke="#163BA4" stroke-width="7"/>
<path d="M1123.5 487.56C1123.5 491.775 1120.31 494.855 1116.79 494.855C1113.26 494.855 1110.08 491.775 1110.08 487.56C1110.08 483.344 1113.26 480.264 1116.79 480.264C1120.31 480.264 1123.5 483.344 1123.5 487.56Z" fill="#163BA4" stroke="#163BA4" stroke-width="7"/>
<path d="M1178.94 50.3799C1178.94 54.5954 1175.76 57.6757 1172.23 57.6757C1168.71 57.6757 1165.52 54.5954 1165.52 50.3799C1165.52 46.1643 1168.71 43.084 1172.23 43.084C1175.76 43.084 1178.94 46.1643 1178.94 50.3799Z" fill="#163BA4" stroke="#163BA4" stroke-width="7"/>
<path d="M810.87 686.555C810.87 690.77 807.684 693.851 804.158 693.851C800.633 693.851 797.447 690.77 797.447 686.555C797.447 682.339 800.633 679.259 804.158 679.259C807.684 679.259 810.87 682.339 810.87 686.555Z" fill="#163BA4" stroke="#163BA4" stroke-width="7"/>
<path d="M1178.94 686.555C1178.94 690.77 1175.76 693.851 1172.23 693.851C1168.71 693.851 1165.52 690.77 1165.52 686.555C1165.52 682.339 1168.71 679.259 1172.23 679.259C1175.76 679.259 1178.94 682.339 1178.94 686.555Z" fill="#163BA4" stroke="#163BA4" stroke-width="7"/>
<path d="M932.537 277.251V273.751H929.037H918.807C915.28 273.751 912.096 270.672 912.096 266.455C912.096 262.238 915.28 259.159 918.807 259.159H1125.33C1128.86 259.159 1132.04 262.238 1132.04 266.455V322.024C1132.04 326.24 1128.86 329.319 1125.33 329.319H851.065C847.538 329.319 844.354 326.24 844.354 322.024V266.455C844.354 262.238 847.538 259.159 851.065 259.159H871.155C874.681 259.159 877.866 262.238 877.866 266.455C877.866 270.672 874.681 273.751 871.155 273.751H861.276H857.776V277.251V311.228V314.728H861.276H929.037H932.537V311.228V277.251ZM949.46 273.751H945.96V277.251V311.228V314.728H949.46H1026.94H1030.44V311.228V277.251V273.751H1026.94H949.46ZM1115.12 314.728H1118.62V311.228V277.251V273.751H1115.12H1047.36H1043.86V277.251V311.228V314.728H1047.36H1115.12Z" fill="#163BA4" stroke="#163BA4" stroke-width="7"/>
<path d="M861.276 556.033H857.776V559.533V615.65V619.15H861.276H1115.12H1118.62V615.65V559.533V556.033H1115.12H861.276ZM844.354 626.446V548.737C844.354 544.521 847.539 541.441 851.065 541.441H1125.33C1128.86 541.441 1132.04 544.52 1132.04 548.737V626.446C1132.04 630.663 1128.86 633.742 1125.33 633.742H851.065C847.538 633.742 844.354 630.663 844.354 626.446Z" fill="#163BA4" stroke="#163BA4" stroke-width="7"/>
<path d="M994.905 587.593C994.905 591.808 991.719 594.889 988.194 594.889C984.668 594.889 981.482 591.808 981.482 587.593C981.482 583.377 984.668 580.297 988.194 580.297C991.719 580.297 994.905 583.377 994.905 587.593Z" fill="#163BA4" stroke="#163BA4" stroke-width="7"/>
<path d="M1306.79 422.068C1310.32 422.068 1313.5 425.147 1313.5 429.364C1313.5 433.581 1310.31 436.66 1306.79 436.66H1255.52C1252 436.66 1248.81 433.581 1248.81 429.364C1248.81 425.147 1252 422.068 1255.52 422.068H1306.79Z" fill="#163BA4" stroke="#163BA4" stroke-width="7"/>
<path d="M1288.38 333.415L1288.38 333.415L1243.98 360.517L1243.98 360.517C1240.76 362.481 1239.52 366.999 1241.49 370.599L1288.38 333.415ZM1288.38 333.415C1291.47 331.527 1295.52 332.559 1297.43 336.057C1299.4 339.657 1298.16 344.175 1294.94 346.139L1296.64 348.913M1288.38 333.415L1296.64 348.913M1296.64 348.913L1294.94 346.139L1250.54 373.241M1296.64 348.913L1250.54 373.241M1250.54 373.241C1247.46 375.122 1243.41 374.11 1241.49 370.6L1250.54 373.241Z" fill="#163BA4" stroke="#163BA4" stroke-width="7"/>
<path d="M1241.49 491.972L1241.49 491.971C1243.4 488.476 1247.45 487.441 1250.54 489.33C1250.54 489.331 1250.54 489.331 1250.54 489.331L1294.94 516.431C1294.94 516.431 1294.94 516.431 1294.94 516.431C1298.16 518.395 1299.4 522.913 1297.43 526.513L1297.43 526.514C1295.52 530.011 1291.47 531.04 1288.38 529.154L1243.98 502.054C1243.98 502.054 1243.98 502.054 1243.98 502.054C1240.76 500.09 1239.52 495.572 1241.49 491.972Z" fill="#163BA4" stroke="#163BA4" stroke-width="7"/>
<path d="M708.479 422.068C712.006 422.068 715.191 425.147 715.191 429.364C715.191 433.58 712.005 436.66 708.478 436.66H657.211C653.685 436.66 650.5 433.581 650.5 429.364C650.5 425.147 653.685 422.068 657.211 422.068H708.479Z" fill="#163BA4" stroke="#163BA4" stroke-width="7"/>
<path d="M675.621 333.415L675.622 333.415L720.02 360.517L721.843 357.53L720.02 360.517C723.237 362.481 724.475 367 722.509 370.6L722.508 370.6C720.592 374.112 716.533 375.119 713.455 373.241L669.058 346.139L669.058 346.139C665.84 344.175 664.603 339.657 666.568 336.057L666.569 336.055C668.475 332.561 672.528 331.526 675.621 333.415Z" fill="#163BA4" stroke="#163BA4" stroke-width="7"/>
<path d="M722.509 491.972L722.508 491.971C720.601 488.477 716.548 487.443 713.456 489.33L713.456 489.33L669.058 516.431C669.058 516.431 669.057 516.431 669.057 516.431C665.84 518.395 664.603 522.913 666.568 526.513L666.569 526.514C668.484 530.022 672.54 531.036 675.622 529.155L722.509 491.972ZM722.509 491.972C724.475 495.572 723.237 500.09 720.02 502.054C720.02 502.054 720.02 502.054 720.02 502.054L675.622 529.155L722.509 491.972Z" fill="#163BA4" stroke="#163BA4" stroke-width="7"/>
</svg>
