<svg width="513" height="512" viewBox="0 0 513 512" fill="none" xmlns="http://www.w3.org/2000/svg">
<g clip-path="url(#clip0_81_2701)">
<path d="M158.234 167.666C151.968 175.349 142.697 179.755 132.798 179.755C114.7 179.755 99.9771 165.032 99.9771 146.935C99.9771 128.837 114.7 114.114 132.798 114.114V98.9658C106.349 98.9658 84.8301 120.485 84.8301 146.934C84.8301 173.383 106.349 194.902 132.798 194.902C147.269 194.902 160.82 188.464 169.974 177.238L158.234 167.666Z" fill="#163BA4"/>
<path d="M355.978 112.095H340.83V127.243H355.978V112.095Z" fill="#163BA4"/>
<path d="M295.386 112.095H280.238V127.243H295.386V112.095Z" fill="#163BA4"/>
<path d="M325.683 112.095H310.535V127.243H325.683V112.095Z" fill="#163BA4"/>
<path d="M140.373 140.371H125.225V155.519H140.373V140.371Z" fill="#163BA4"/>
<path d="M496.854 221.16V259.535H478.172C460.632 259.535 446.361 273.805 446.361 291.346V310.028H318.109V235.298H324.673C348.082 235.298 370.138 226.233 386.782 209.777C401.62 195.104 410.614 176.058 412.585 155.519H412.922L413.009 148.041V148.039V148.031L413.018 147.76C413.028 147.486 413.036 147.212 413.036 146.935C413.036 146.761 413.03 146.589 413.029 146.416L413.104 140.371H412.792C409.422 94.7008 371.189 58.5718 324.672 58.5718H88.364C39.641 58.5718 0.00195312 98.2108 0.00195312 146.935C0.00195312 147.212 0.00995312 147.486 0.0199531 147.76L0.114953 155.519H44.854C49.184 200.23 86.971 235.298 132.799 235.298H252.468V375.164C252.468 393.262 267.191 407.985 285.288 407.985C303.385 407.985 318.108 393.262 318.108 375.164V365.57H446.361V383.243C446.361 400.783 460.631 415.054 478.172 415.054H496.854V453.429H512.002V221.16H496.854ZM324.673 73.7198C362.831 73.7198 394.266 103.065 397.596 140.371H213.563H176.487C174.444 112.662 159.565 88.4678 137.79 73.7198H324.673ZM44.694 140.371H15.442C18.618 104.795 47.359 76.4788 83.109 73.9278C61.239 88.8938 46.731 113.301 44.694 140.371ZM59.584 146.935C59.584 115.136 80.458 86.7688 110.601 77.1828C140.131 86.6188 161.58 114.315 161.58 146.935C161.58 147.032 161.575 147.127 161.572 147.222C161.564 147.433 161.557 147.644 161.555 147.856L161.466 155.519H205.485C201.196 191.793 170.076 220.15 132.799 220.15C92.428 220.15 59.584 187.306 59.584 146.935ZM302.961 375.164C302.961 384.908 295.033 392.837 285.288 392.837C275.543 392.837 267.615 384.909 267.615 375.164V236.308H302.96V375.164H302.961ZM182.271 220.15C186.746 217.112 190.982 213.659 194.907 209.777C209.745 195.104 218.739 176.058 220.71 155.519H397.364C393.077 191.794 361.949 220.15 324.672 220.15H182.271ZM446.361 350.422H318.109V325.175H446.362L446.361 350.422ZM496.854 399.905H478.172C468.984 399.905 461.509 392.43 461.509 383.242V291.345C461.509 282.157 468.984 274.682 478.172 274.682H496.854V399.905Z" fill="#163BA4"/>
</g>
<defs>
<clipPath id="clip0_81_2701">
<rect width="512" height="512" fill="white" transform="translate(0.00195312)"/>
</clipPath>
</defs>
</svg>
