<svg width="959" height="505" viewBox="0 0 959 505" fill="none" xmlns="http://www.w3.org/2000/svg">
<path d="M357.7 192.956L213.345 337.311C209.44 341.216 209.44 347.548 213.345 351.454C215.298 353.407 217.857 354.383 220.416 354.383C222.975 354.383 225.535 353.407 227.487 351.454L371.842 207.099C375.747 203.194 375.747 196.862 371.842 192.956C367.936 189.05 361.606 189.05 357.7 192.956Z" fill="#163BA4"/>
<path d="M422.408 142.391C418.502 138.486 412.172 138.486 408.265 142.391L390.323 160.333C386.418 164.238 386.418 170.57 390.323 174.476C392.276 176.429 394.835 177.405 397.394 177.405C399.953 177.405 402.512 176.429 404.465 174.476L422.407 156.534C426.313 152.628 426.313 146.296 422.408 142.391Z" fill="#163BA4"/>
<path d="M489.5 418.872H445.095C420.4 418.872 400.309 398.781 400.309 374.086V347.056C436.086 342.161 463.746 311.418 463.746 274.318C463.746 252.017 453.6 231.16 436.626 217.348L499.072 154.901C500.947 153.026 502.001 150.482 502.001 147.83C502.001 145.178 500.947 142.634 499.072 140.759L361.24 2.92875C357.334 -0.97625 351.004 -0.97625 347.097 2.92875L76.3298 273.697C72.4248 277.602 72.4248 283.934 76.3298 287.839L105.96 317.469L76.7347 346.693L37.5417 347.433C34.9567 347.482 32.4897 348.53 30.6607 350.359L29.0328 351.986C29.0308 351.988 29.0298 351.989 29.0278 351.991L2.92875 378.089C-0.97625 381.994 -0.97625 388.326 2.92875 392.232L109.768 499.071C111.721 501.024 114.28 502 116.839 502C119.398 502 121.958 501.024 123.91 499.071L150.008 472.973L151.639 471.342C153.468 469.512 154.517 467.046 154.566 464.46L155.306 425.266L184.53 396.041L214.16 425.671C216.035 427.546 218.579 428.6 221.231 428.6C223.883 428.6 226.427 427.546 228.302 425.671L333.337 320.636C345.061 335.043 361.858 344.53 380.307 347.07V374.088C380.307 409.811 409.37 438.874 445.093 438.874H489.5C495.022 438.874 499.5 434.397 499.5 428.874C499.5 423.351 495.022 418.872 489.5 418.872ZM116.839 477.858L24.1418 385.161L36.0977 373.205L128.795 465.902L116.839 477.858ZM138.313 413.975C136.484 415.804 135.435 418.271 135.386 420.857L134.953 443.775L58.2237 367.046L81.1417 366.613C83.7277 366.564 86.1948 365.515 88.0238 363.686L120.1 331.61L170.388 381.898L138.313 413.975ZM221.232 404.457L97.5427 280.768L354.169 24.1418L477.857 147.83L221.232 404.457ZM390.308 327.755C373.383 327.755 357.596 319.725 347.578 306.396L422.386 231.587C435.715 241.606 443.745 257.393 443.745 274.318C443.745 303.783 419.773 327.755 390.308 327.755Z" fill="#163BA4"/>
<path d="M799.215 25H556.787C551.614 25 547.42 28.582 547.42 33V497C547.42 501.418 551.614 505 556.787 505H799.215C804.387 505 808.581 501.418 808.581 497V33C808.581 28.582 804.387 25 799.215 25ZM789.848 489H566.153V41H789.848V489Z" fill="#163BA4"/>
<path d="M733.76 59C732.047 57.71 729.843 56.999 727.56 57H628.441C626.158 56.999 623.954 57.71 622.241 59C587.323 85.302 583.98 130.8 614.775 160.624C630.778 176.122 653.806 185 678 185C724.559 185 762.301 152.765 762.302 113C762.302 92.336 751.906 72.668 733.76 59ZM724.824 152.192C699.476 174.279 657.964 174.634 632.104 152.984C606.244 131.334 605.828 95.879 631.176 73.792C631.482 73.525 631.791 73.261 632.104 73H723.897C749.757 94.65 750.173 130.105 724.824 152.192Z" fill="#163BA4"/>
<path d="M677.999 73C652.147 73.026 631.196 90.92 631.166 113C631.166 135.091 652.134 153 677.999 153C703.864 153 724.833 135.091 724.833 113C724.833 90.909 703.864 73 677.999 73ZM677.999 137C662.48 137 649.899 126.255 649.899 113C649.899 99.745 662.48 89 677.999 89C693.519 89 706.099 99.745 706.099 113C706.099 126.255 693.519 137 677.999 137Z" fill="#163BA4"/>
<path d="M678.001 129C688.347 129 696.734 121.837 696.734 113C696.734 104.163 688.347 97 678.001 97C667.655 97 659.268 104.163 659.268 113C659.268 121.837 667.655 129 678.001 129Z" fill="#163BA4"/>
<path d="M762.301 201H593.701C588.528 201 584.334 204.582 584.334 209V241C584.334 245.418 588.528 249 593.701 249H762.301C767.473 249 771.667 245.418 771.667 241V209C771.667 204.582 767.473 201 762.301 201ZM752.934 233H603.067V217H752.934V233Z" fill="#163BA4"/>
<path d="M603.067 329H584.334V345H603.067V329Z" fill="#163BA4"/>
<path d="M640.534 329H621.801V345H640.534V329Z" fill="#163BA4"/>
<path d="M678.001 329H659.268V345H678.001V329Z" fill="#163BA4"/>
<path d="M603.067 297H584.334V313H603.067V297Z" fill="#163BA4"/>
<path d="M640.534 297H621.801V313H640.534V297Z" fill="#163BA4"/>
<path d="M678.001 297H659.268V313H678.001V297Z" fill="#163BA4"/>
<path d="M603.067 265H584.334V281H603.067V265Z" fill="#163BA4"/>
<path d="M640.534 265H621.801V281H640.534V265Z" fill="#163BA4"/>
<path d="M678.001 265H659.268V281H678.001V265Z" fill="#163BA4"/>
<path d="M603.067 361H584.334V377H603.067V361Z" fill="#163BA4"/>
<path d="M640.534 361H621.801V377H640.534V361Z" fill="#163BA4"/>
<path d="M678.001 361H659.268V377H678.001V361Z" fill="#163BA4"/>
<path d="M603.067 393H584.334V409H603.067V393Z" fill="#163BA4"/>
<path d="M640.534 393H621.801V409H640.534V393Z" fill="#163BA4"/>
<path d="M678.001 393H659.268V409H678.001V393Z" fill="#163BA4"/>
<path d="M603.067 425H584.334V441H603.067V425Z" fill="#163BA4"/>
<path d="M640.534 425H621.801V441H640.534V425Z" fill="#163BA4"/>
<path d="M678.001 425H659.268V441H678.001V425Z" fill="#163BA4"/>
<path d="M603.067 457H584.334V473H603.067V457Z" fill="#163BA4"/>
<path d="M640.534 457H621.801V473H640.534V457Z" fill="#163BA4"/>
<path d="M678.001 457H659.268V473H678.001V457Z" fill="#163BA4"/>
<path d="M762.299 409H706.099C700.926 409 696.732 412.582 696.732 417V465C696.732 469.418 700.926 473 706.099 473H762.299C767.472 473 771.666 469.418 771.666 465V417C771.666 412.582 767.472 409 762.299 409ZM752.932 457H715.466V425H752.932V457Z" fill="#163BA4"/>
<path d="M765.047 155.334L736.945 179.336L750.192 190.65L778.294 166.648L765.047 155.334Z" fill="#163BA4"/>
<path d="M771.666 297H696.732V313H771.666V297Z" fill="#163BA4"/>
<path d="M771.666 329H696.732V345H771.666V329Z" fill="#163BA4"/>
<path d="M752.933 361H715.467V377H752.933V361Z" fill="#163BA4"/>
</svg>
