<svg width="101" height="80" viewBox="0 0 101 80" fill="none" xmlns="http://www.w3.org/2000/svg">
<mask id="path-1-inside-1_422_5323" fill="white">
<path d="M89.3434 61.1025C89.956 61.1025 90.4523 60.5801 90.4523 59.9353V2.95329C90.4523 1.32492 89.1935 0 87.6464 0H42.9385C41.3916 0 40.1328 1.32492 40.1328 2.95329V76.7225C40.1328 78.3508 41.3916 79.6758 42.9387 79.6758H87.6466C89.1937 79.6758 90.4524 78.3508 90.4524 76.7225V65.3821C90.4524 64.7374 89.9561 64.215 89.3436 64.215C88.7311 64.215 88.2347 64.7374 88.2347 65.3821V76.7225C88.2347 77.0637 87.971 77.3415 87.6466 77.3415H42.9385C42.6143 77.3415 42.3504 77.0639 42.3504 76.7225V2.95329C42.3504 2.61202 42.6141 2.33425 42.9385 2.33425H87.6464C87.9707 2.33425 88.2346 2.61187 88.2346 2.95329V59.9355C88.2346 60.5801 88.7309 61.1025 89.3434 61.1025Z"/>
</mask>
<path d="M89.3434 61.1025C89.956 61.1025 90.4523 60.5801 90.4523 59.9353V2.95329C90.4523 1.32492 89.1935 0 87.6464 0H42.9385C41.3916 0 40.1328 1.32492 40.1328 2.95329V76.7225C40.1328 78.3508 41.3916 79.6758 42.9387 79.6758H87.6466C89.1937 79.6758 90.4524 78.3508 90.4524 76.7225V65.3821C90.4524 64.7374 89.9561 64.215 89.3436 64.215C88.7311 64.215 88.2347 64.7374 88.2347 65.3821V76.7225C88.2347 77.0637 87.971 77.3415 87.6466 77.3415H42.9385C42.6143 77.3415 42.3504 77.0639 42.3504 76.7225V2.95329C42.3504 2.61202 42.6141 2.33425 42.9385 2.33425H87.6464C87.9707 2.33425 88.2346 2.61187 88.2346 2.95329V59.9355C88.2346 60.5801 88.7309 61.1025 89.3434 61.1025Z" fill="#163BA4"/>
<path d="M89.3434 68.1025C94.1554 68.1025 97.4523 64.1039 97.4523 59.9353H83.4523C83.4523 57.0562 85.7565 54.1025 89.3434 54.1025V68.1025ZM97.4523 59.9353V2.95329H83.4523V59.9353H97.4523ZM97.4523 2.95329C97.4523 -2.19894 93.393 -7 87.6464 -7V7C84.994 7 83.4523 4.84877 83.4523 2.95329H97.4523ZM87.6464 -7H42.9385V7H87.6464V-7ZM42.9385 -7C37.1919 -7 33.1328 -2.19871 33.1328 2.95329H47.1328C47.1328 4.84854 45.5913 7 42.9385 7V-7ZM33.1328 2.95329V76.7225H47.1328V2.95329H33.1328ZM33.1328 76.7225C33.1328 81.8747 37.1921 86.6758 42.9387 86.6758V72.6758C45.591 72.6758 47.1328 74.8269 47.1328 76.7225H33.1328ZM42.9387 86.6758H87.6466V72.6758H42.9387V86.6758ZM87.6466 86.6758C93.3931 86.6758 97.4524 81.8747 97.4524 76.7225H83.4524C83.4524 74.8269 84.9942 72.6758 87.6466 72.6758V86.6758ZM97.4524 76.7225V65.3821H83.4524V76.7225H97.4524ZM97.4524 65.3821C97.4524 61.2135 94.1556 57.215 89.3436 57.215V71.215C85.7567 71.215 83.4524 68.2612 83.4524 65.3821H97.4524ZM89.3436 57.215C84.5316 57.215 81.2347 61.2135 81.2347 65.3821H95.2347C95.2347 68.2612 92.9305 71.215 89.3436 71.215V57.215ZM81.2347 65.3821V76.7225H95.2347V65.3821H81.2347ZM81.2347 76.7225C81.2347 73.541 83.7705 70.3415 87.6466 70.3415V84.3415C92.1715 84.3415 95.2347 80.5865 95.2347 76.7225H81.2347ZM87.6466 70.3415H42.9385V84.3415H87.6466V70.3415ZM42.9385 70.3415C46.8126 70.3415 49.3504 73.5388 49.3504 76.7225H35.3504C35.3504 80.5889 38.4159 84.3415 42.9385 84.3415V70.3415ZM49.3504 76.7225V2.95329H35.3504V76.7225H49.3504ZM49.3504 2.95329C49.3504 6.13471 46.8147 9.33425 42.9385 9.33425V-4.66575C38.4135 -4.66575 35.3504 -0.910669 35.3504 2.95329H49.3504ZM42.9385 9.33425H87.6464V-4.66575H42.9385V9.33425ZM87.6464 9.33425C83.7722 9.33425 81.2346 6.13683 81.2346 2.95329H95.2346C95.2346 -0.913099 92.1691 -4.66575 87.6464 -4.66575V9.33425ZM81.2346 2.95329V59.9355H95.2346V2.95329H81.2346ZM81.2346 59.9355C81.2346 64.1045 84.532 68.1025 89.3434 68.1025V54.1025C92.9298 54.1025 95.2346 57.0556 95.2346 59.9355H81.2346Z" fill="#163BA4" mask="url(#path-1-inside-1_422_5323)"/>
<mask id="path-3-inside-2_422_5323" fill="white">
<path d="M70.7936 8.89354C71.1342 8.3579 70.9976 7.63289 70.4886 7.2745C68.949 6.19017 67.1527 5.61719 65.2936 5.61719C60.1367 5.61719 55.9414 10.0331 55.9414 15.4609C55.9414 20.8888 60.1367 25.3047 65.2936 25.3047C70.4506 25.3047 74.6459 20.8888 74.6459 15.4609C74.6459 14.3255 74.4636 13.2122 74.1039 12.1515C73.8979 11.5446 73.2632 11.2275 72.6868 11.4447C72.11 11.6615 71.8093 12.3292 72.0152 12.9363C73.6679 17.8082 70.2226 22.9703 65.2936 22.9703C61.3597 22.9703 58.1591 19.6017 58.1591 15.4607C58.1591 11.3201 61.3596 7.95128 65.2936 7.95128C66.7121 7.95128 68.0819 8.38809 69.2552 9.21442C69.7643 9.57311 70.4529 9.42932 70.7936 8.89354Z"/>
</mask>
<path d="M70.7936 8.89354C71.1342 8.3579 70.9976 7.63289 70.4886 7.2745C68.949 6.19017 67.1527 5.61719 65.2936 5.61719C60.1367 5.61719 55.9414 10.0331 55.9414 15.4609C55.9414 20.8888 60.1367 25.3047 65.2936 25.3047C70.4506 25.3047 74.6459 20.8888 74.6459 15.4609C74.6459 14.3255 74.4636 13.2122 74.1039 12.1515C73.8979 11.5446 73.2632 11.2275 72.6868 11.4447C72.11 11.6615 71.8093 12.3292 72.0152 12.9363C73.6679 17.8082 70.2226 22.9703 65.2936 22.9703C61.3597 22.9703 58.1591 19.6017 58.1591 15.4607C58.1591 11.3201 61.3596 7.95128 65.2936 7.95128C66.7121 7.95128 68.0819 8.38809 69.2552 9.21442C69.7643 9.57311 70.4529 9.42932 70.7936 8.89354Z" fill="#163BA4"/>
<path d="M70.7936 8.89354L64.8869 5.1371L64.8864 5.13788L70.7936 8.89354ZM70.4886 7.2745L66.4577 12.9975L66.4588 12.9982L70.4886 7.2745ZM74.1039 12.1515L80.733 9.90335L80.7326 9.90208L74.1039 12.1515ZM72.6868 11.4447L75.1495 17.9972L75.1553 17.995L72.6868 11.4447ZM72.0152 12.9363L78.6442 10.6876L78.6441 10.6874L72.0152 12.9363ZM69.2552 9.21442L73.2873 3.49233L73.2858 3.49128L69.2552 9.21442ZM76.7003 12.65C78.9826 9.06113 78.181 4.12944 74.5183 1.55077L66.4588 12.9982C63.8142 11.1363 63.2858 7.65467 64.8869 5.1371L76.7003 12.65ZM74.5194 1.55153C71.816 -0.352524 68.6153 -1.38281 65.2936 -1.38281V12.6172C65.6901 12.6172 66.082 12.7329 66.4577 12.9975L74.5194 1.55153ZM65.2936 -1.38281C55.9372 -1.38281 48.9414 6.50932 48.9414 15.4609H62.9414C62.9414 13.5569 64.3363 12.6172 65.2936 12.6172V-1.38281ZM48.9414 15.4609C48.9414 24.4125 55.9371 32.3047 65.2936 32.3047V18.3047C64.3363 18.3047 62.9414 17.365 62.9414 15.4609H48.9414ZM65.2936 32.3047C74.6502 32.3047 81.6459 24.4125 81.6459 15.4609H67.6459C67.6459 17.365 66.251 18.3047 65.2936 18.3047V32.3047ZM81.6459 15.4609C81.6459 13.5718 81.3418 11.6984 80.733 9.90335L67.4747 14.3997C67.5854 14.726 67.6459 15.0792 67.6459 15.4609H81.6459ZM80.7326 9.90208C79.3477 5.82089 74.762 3.18209 70.2183 4.89441L75.1553 17.995C71.7645 19.2728 68.4482 17.2683 67.4752 14.401L80.7326 9.90208ZM70.224 4.89224C65.882 6.52421 64.047 11.2373 65.3863 15.1852L78.6441 10.6874C79.5716 13.4212 78.3381 16.7988 75.1495 17.9972L70.224 4.89224ZM65.3863 15.185C65.4765 15.451 65.4297 15.7007 65.3046 15.8878C65.2457 15.9757 65.2005 15.9998 65.2097 15.9945C65.2159 15.9911 65.2317 15.9834 65.2549 15.9772C65.2794 15.9706 65.295 15.9703 65.2936 15.9703V29.9703C75.5264 29.9703 81.669 19.6044 78.6442 10.6876L65.3863 15.185ZM65.2936 15.9703C65.3204 15.9703 65.3521 15.978 65.3702 15.9861C65.3823 15.9915 65.3624 15.9853 65.326 15.9469C65.2508 15.8677 65.1591 15.7088 65.1591 15.4607H51.1591C51.1591 23.1255 57.1602 29.9703 65.2936 29.9703V15.9703ZM65.1591 15.4607C65.1591 15.2128 65.2507 15.0539 65.3259 14.9747C65.3624 14.9363 65.3823 14.93 65.3702 14.9354C65.352 14.9435 65.3204 14.9513 65.2936 14.9513V0.951278C57.16 0.951278 51.1591 7.79629 51.1591 15.4607H65.1591ZM65.2936 14.9513C65.2886 14.9513 65.2804 14.9509 65.27 14.9492C65.2596 14.9476 65.2493 14.9452 65.2398 14.9422C65.219 14.9355 65.2138 14.9299 65.2246 14.9376L73.2858 3.49128C70.9478 1.84467 68.1734 0.951278 65.2936 0.951278V14.9513ZM65.2231 14.9365C69.1133 17.6777 74.2916 16.4386 76.7008 12.6492L64.8864 5.13788C66.6143 2.42004 70.4152 1.4685 73.2873 3.49233L65.2231 14.9365Z" fill="#163BA4" mask="url(#path-3-inside-2_422_5323)"/>
<mask id="path-5-inside-3_422_5323" fill="white">
<path d="M65.2942 10.1289C62.5009 10.1289 60.2285 12.5207 60.2285 15.4606C60.2285 18.4007 62.5009 20.7925 65.2942 20.7925C68.0874 20.7925 70.3598 18.4007 70.3598 15.4606C70.3598 12.5207 68.0872 10.1289 65.2942 10.1289ZM65.2942 18.4581C63.7239 18.4581 62.4462 17.1133 62.4462 15.4605C62.4462 13.8077 63.7239 12.463 65.2942 12.463C66.8645 12.463 68.1421 13.8077 68.1421 15.4605C68.1421 17.1133 66.8645 18.4581 65.2942 18.4581Z"/>
</mask>
<path d="M65.2942 10.1289C62.5009 10.1289 60.2285 12.5207 60.2285 15.4606C60.2285 18.4007 62.5009 20.7925 65.2942 20.7925C68.0874 20.7925 70.3598 18.4007 70.3598 15.4606C70.3598 12.5207 68.0872 10.1289 65.2942 10.1289ZM65.2942 18.4581C63.7239 18.4581 62.4462 17.1133 62.4462 15.4605C62.4462 13.8077 63.7239 12.463 65.2942 12.463C66.8645 12.463 68.1421 13.8077 68.1421 15.4605C68.1421 17.1133 66.8645 18.4581 65.2942 18.4581Z" fill="#163BA4"/>
<path d="M65.2942 3.12891C58.3016 3.12891 53.2285 8.99672 53.2285 15.4606H67.2285C67.2285 16.0447 66.7003 17.1289 65.2942 17.1289V3.12891ZM53.2285 15.4606C53.2285 21.9246 58.3015 27.7925 65.2942 27.7925V13.7925C66.7004 13.7925 67.2285 14.8768 67.2285 15.4606H53.2285ZM65.2942 27.7925C72.287 27.7925 77.3598 21.9244 77.3598 15.4606H63.3598C63.3598 14.877 63.8878 13.7925 65.2942 13.7925V27.7925ZM77.3598 15.4606C77.3598 8.99672 72.2865 3.12891 65.2942 3.12891V17.1289C63.8879 17.1289 63.3598 16.0447 63.3598 15.4606H77.3598ZM65.2942 11.4581C67.9234 11.4581 69.4462 13.5894 69.4462 15.4605H55.4462C55.4462 20.6372 59.5245 25.4581 65.2942 25.4581V11.4581ZM69.4462 15.4605C69.4462 17.332 67.9229 19.463 65.2942 19.463V5.463C59.5249 5.463 55.4462 10.2833 55.4462 15.4605H69.4462ZM65.2942 19.463C62.665 19.463 61.1421 17.3315 61.1421 15.4605H75.1421C75.1421 10.2838 71.064 5.463 65.2942 5.463V19.463ZM61.1421 15.4605C61.1421 13.5899 62.6646 11.4581 65.2942 11.4581V25.4581C71.0644 25.4581 75.1421 20.6367 75.1421 15.4605H61.1421Z" fill="#163BA4" mask="url(#path-5-inside-3_422_5323)"/>
<path d="M65.2924 16.6282C65.9049 16.6282 66.4013 16.1057 66.4013 15.4611C66.4013 14.8165 65.9049 14.2939 65.2924 14.2939C64.68 14.2939 64.1836 14.8165 64.1836 15.4611C64.1836 16.1057 64.68 16.6282 65.2924 16.6282Z" fill="#163BA4" stroke="#163BA4" stroke-width="7"/>
<path d="M45.3081 6.61354C45.9205 6.61354 46.4169 6.091 46.4169 5.44642C46.4169 4.80184 45.9205 4.2793 45.3081 4.2793C44.6957 4.2793 44.1992 4.80184 44.1992 5.44642C44.1992 6.091 44.6957 6.61354 45.3081 6.61354Z" fill="#163BA4" stroke="#163BA4" stroke-width="7"/>
<path d="M51.3296 42.2053C51.942 42.2053 52.4384 41.6828 52.4384 41.0382C52.4384 40.3936 51.942 39.8711 51.3296 39.8711C50.7172 39.8711 50.2207 40.3936 50.2207 41.0382C50.2207 41.6828 50.7172 42.2053 51.3296 42.2053Z" fill="#163BA4" stroke="#163BA4" stroke-width="7"/>
<path d="M51.3296 46.096C51.942 46.096 52.4384 45.5734 52.4384 44.9288C52.4384 44.2843 51.942 43.7617 51.3296 43.7617C50.7172 43.7617 50.2207 44.2843 50.2207 44.9288C50.2207 45.5734 50.7172 46.096 51.3296 46.096Z" fill="#163BA4" stroke="#163BA4" stroke-width="7"/>
<path d="M51.3296 49.9866C51.942 49.9866 52.4384 49.4641 52.4384 48.8195C52.4384 48.1749 51.942 47.6523 51.3296 47.6523C50.7172 47.6523 50.2207 48.1749 50.2207 48.8195C50.2207 49.4641 50.7172 49.9866 51.3296 49.9866Z" fill="#163BA4" stroke="#163BA4" stroke-width="7"/>
<path d="M56.9155 42.2053C57.5279 42.2053 58.0244 41.6828 58.0244 41.0382C58.0244 40.3936 57.5279 39.8711 56.9155 39.8711C56.3031 39.8711 55.8066 40.3936 55.8066 41.0382C55.8066 41.6828 56.3031 42.2053 56.9155 42.2053Z" fill="#163BA4" stroke="#163BA4" stroke-width="7"/>
<path d="M56.9155 46.096C57.5279 46.096 58.0244 45.5734 58.0244 44.9288C58.0244 44.2843 57.5279 43.7617 56.9155 43.7617C56.3031 43.7617 55.8066 44.2843 55.8066 44.9288C55.8066 45.5734 56.3031 46.096 56.9155 46.096Z" fill="#163BA4" stroke="#163BA4" stroke-width="7"/>
<path d="M56.9155 49.9866C57.5279 49.9866 58.0244 49.4641 58.0244 48.8195C58.0244 48.1749 57.5279 47.6523 56.9155 47.6523C56.3031 47.6523 55.8066 48.1749 55.8066 48.8195C55.8066 49.4641 56.3031 49.9866 56.9155 49.9866Z" fill="#163BA4" stroke="#163BA4" stroke-width="7"/>
<path d="M62.4995 42.2053C63.1119 42.2053 63.6083 41.6828 63.6083 41.0382C63.6083 40.3936 63.1119 39.8711 62.4995 39.8711C61.8871 39.8711 61.3906 40.3936 61.3906 41.0382C61.3906 41.6828 61.8871 42.2053 62.4995 42.2053Z" fill="#163BA4" stroke="#163BA4" stroke-width="7"/>
<path d="M62.4995 46.096C63.1119 46.096 63.6083 45.5734 63.6083 44.9288C63.6083 44.2843 63.1119 43.7617 62.4995 43.7617C61.8871 43.7617 61.3906 44.2843 61.3906 44.9288C61.3906 45.5734 61.8871 46.096 62.4995 46.096Z" fill="#163BA4" stroke="#163BA4" stroke-width="7"/>
<path d="M62.4995 49.9866C63.1119 49.9866 63.6083 49.4641 63.6083 48.8195C63.6083 48.1749 63.1119 47.6523 62.4995 47.6523C61.8871 47.6523 61.3906 48.1749 61.3906 48.8195C61.3906 49.4641 61.8871 49.9866 62.4995 49.9866Z" fill="#163BA4" stroke="#163BA4" stroke-width="7"/>
<path d="M68.0854 42.2053C68.6978 42.2053 69.1943 41.6828 69.1943 41.0382C69.1943 40.3936 68.6978 39.8711 68.0854 39.8711C67.473 39.8711 66.9766 40.3936 66.9766 41.0382C66.9766 41.6828 67.473 42.2053 68.0854 42.2053Z" fill="#163BA4" stroke="#163BA4" stroke-width="7"/>
<path d="M68.0854 46.096C68.6978 46.096 69.1943 45.5734 69.1943 44.9288C69.1943 44.2843 68.6978 43.7617 68.0854 43.7617C67.473 43.7617 66.9766 44.2843 66.9766 44.9288C66.9766 45.5734 67.473 46.096 68.0854 46.096Z" fill="#163BA4" stroke="#163BA4" stroke-width="7"/>
<path d="M68.0854 49.9866C68.6978 49.9866 69.1943 49.4641 69.1943 48.8195C69.1943 48.1749 68.6978 47.6523 68.0854 47.6523C67.473 47.6523 66.9766 48.1749 66.9766 48.8195C66.9766 49.4641 67.473 49.9866 68.0854 49.9866Z" fill="#163BA4" stroke="#163BA4" stroke-width="7"/>
<path d="M73.6714 42.2053C74.2838 42.2053 74.7802 41.6828 74.7802 41.0382C74.7802 40.3936 74.2838 39.8711 73.6714 39.8711C73.059 39.8711 72.5625 40.3936 72.5625 41.0382C72.5625 41.6828 73.059 42.2053 73.6714 42.2053Z" fill="#163BA4" stroke="#163BA4" stroke-width="7"/>
<path d="M73.6714 46.096C74.2838 46.096 74.7802 45.5734 74.7802 44.9288C74.7802 44.2843 74.2838 43.7617 73.6714 43.7617C73.059 43.7617 72.5625 44.2843 72.5625 44.9288C72.5625 45.5734 73.059 46.096 73.6714 46.096Z" fill="#163BA4" stroke="#163BA4" stroke-width="7"/>
<path d="M73.6714 49.9866C74.2838 49.9866 74.7802 49.4641 74.7802 48.8195C74.7802 48.1749 74.2838 47.6523 73.6714 47.6523C73.059 47.6523 72.5625 48.1749 72.5625 48.8195C72.5625 49.4641 73.059 49.9866 73.6714 49.9866Z" fill="#163BA4" stroke="#163BA4" stroke-width="7"/>
<path d="M79.2573 42.2053C79.8697 42.2053 80.3662 41.6828 80.3662 41.0382C80.3662 40.3936 79.8697 39.8711 79.2573 39.8711C78.6449 39.8711 78.1484 40.3936 78.1484 41.0382C78.1484 41.6828 78.6449 42.2053 79.2573 42.2053Z" fill="#163BA4" stroke="#163BA4" stroke-width="7"/>
<path d="M79.2573 46.096C79.8697 46.096 80.3662 45.5734 80.3662 44.9288C80.3662 44.2843 79.8697 43.7617 79.2573 43.7617C78.6449 43.7617 78.1484 44.2843 78.1484 44.9288C78.1484 45.5734 78.6449 46.096 79.2573 46.096Z" fill="#163BA4" stroke="#163BA4" stroke-width="7"/>
<path d="M79.2573 49.9866C79.8697 49.9866 80.3662 49.4641 80.3662 48.8195C80.3662 48.1749 79.8697 47.6523 79.2573 47.6523C78.6449 47.6523 78.1484 48.1749 78.1484 48.8195C78.1484 49.4641 78.6449 49.9866 79.2573 49.9866Z" fill="#163BA4" stroke="#163BA4" stroke-width="7"/>
<path d="M51.3296 53.8762C51.942 53.8762 52.4384 53.3537 52.4384 52.7091C52.4384 52.0645 51.942 51.542 51.3296 51.542C50.7172 51.542 50.2207 52.0645 50.2207 52.7091C50.2207 53.3537 50.7172 53.8762 51.3296 53.8762Z" fill="#163BA4" stroke="#163BA4" stroke-width="7"/>
<path d="M56.9155 53.8762C57.5279 53.8762 58.0244 53.3537 58.0244 52.7091C58.0244 52.0645 57.5279 51.542 56.9155 51.542C56.3031 51.542 55.8066 52.0645 55.8066 52.7091C55.8066 53.3537 56.3031 53.8762 56.9155 53.8762Z" fill="#163BA4" stroke="#163BA4" stroke-width="7"/>
<path d="M62.4995 53.8762C63.1119 53.8762 63.6083 53.3537 63.6083 52.7091C63.6083 52.0645 63.1119 51.542 62.4995 51.542C61.8871 51.542 61.3906 52.0645 61.3906 52.7091C61.3906 53.3537 61.8871 53.8762 62.4995 53.8762Z" fill="#163BA4" stroke="#163BA4" stroke-width="7"/>
<path d="M68.0854 53.8762C68.6978 53.8762 69.1943 53.3537 69.1943 52.7091C69.1943 52.0645 68.6978 51.542 68.0854 51.542C67.473 51.542 66.9766 52.0645 66.9766 52.7091C66.9766 53.3537 67.473 53.8762 68.0854 53.8762Z" fill="#163BA4" stroke="#163BA4" stroke-width="7"/>
<path d="M73.6714 53.8762C74.2838 53.8762 74.7802 53.3537 74.7802 52.7091C74.7802 52.0645 74.2838 51.542 73.6714 51.542C73.059 51.542 72.5625 52.0645 72.5625 52.7091C72.5625 53.3537 73.059 53.8762 73.6714 53.8762Z" fill="#163BA4" stroke="#163BA4" stroke-width="7"/>
<path d="M79.2573 53.8762C79.8697 53.8762 80.3662 53.3537 80.3662 52.7091C80.3662 52.0645 79.8697 51.542 79.2573 51.542C78.6449 51.542 78.1484 52.0645 78.1484 52.7091C78.1484 53.3537 78.6449 53.8762 79.2573 53.8762Z" fill="#163BA4" stroke="#163BA4" stroke-width="7"/>
<path d="M85.2788 6.61354C85.8912 6.61354 86.3876 6.091 86.3876 5.44642C86.3876 4.80184 85.8912 4.2793 85.2788 4.2793C84.6664 4.2793 84.1699 4.80184 84.1699 5.44642C84.1699 6.091 84.6664 6.61354 85.2788 6.61354Z" fill="#163BA4" stroke="#163BA4" stroke-width="7"/>
<path d="M45.3081 75.3889C45.9205 75.3889 46.4169 74.8664 46.4169 74.2218C46.4169 73.5772 45.9205 73.0547 45.3081 73.0547C44.6957 73.0547 44.1992 73.5772 44.1992 74.2218C44.1992 74.8664 44.6957 75.3889 45.3081 75.3889Z" fill="#163BA4" stroke="#163BA4" stroke-width="7"/>
<path d="M85.2788 75.3889C85.8912 75.3889 86.3876 74.8664 86.3876 74.2218C86.3876 73.5772 85.8912 73.0547 85.2788 73.0547C84.6664 73.0547 84.1699 73.5772 84.1699 74.2218C84.1699 74.8664 84.6664 75.3889 85.2788 75.3889Z" fill="#163BA4" stroke="#163BA4" stroke-width="7"/>
<mask id="path-36-inside-4_422_5323" fill="white">
<path d="M81.2938 28.8058C81.2938 28.1611 80.7975 27.6387 80.185 27.6387H57.7581C57.1456 27.6387 56.6493 28.1611 56.6493 28.8058C56.6493 29.4505 57.1456 29.9729 57.7581 29.9729H58.8691V33.6461H51.5107V29.9729H52.5835C53.196 29.9729 53.6923 29.4505 53.6923 28.8058C53.6923 28.1611 53.196 27.6387 52.5835 27.6387H50.4018C49.7893 27.6387 49.293 28.1611 49.293 28.8058V34.8132C49.293 35.4579 49.7893 35.9803 50.4018 35.9803H80.185C80.7975 35.9803 81.2938 35.4579 81.2938 34.8132V28.8058ZM61.0868 29.9729H69.5V33.6461H61.0868V29.9729ZM79.0761 33.6461H71.7176V29.9729H79.0761V33.6461Z"/>
</mask>
<path d="M81.2938 28.8058C81.2938 28.1611 80.7975 27.6387 80.185 27.6387H57.7581C57.1456 27.6387 56.6493 28.1611 56.6493 28.8058C56.6493 29.4505 57.1456 29.9729 57.7581 29.9729H58.8691V33.6461H51.5107V29.9729H52.5835C53.196 29.9729 53.6923 29.4505 53.6923 28.8058C53.6923 28.1611 53.196 27.6387 52.5835 27.6387H50.4018C49.7893 27.6387 49.293 28.1611 49.293 28.8058V34.8132C49.293 35.4579 49.7893 35.9803 50.4018 35.9803H80.185C80.7975 35.9803 81.2938 35.4579 81.2938 34.8132V28.8058ZM61.0868 29.9729H69.5V33.6461H61.0868V29.9729ZM79.0761 33.6461H71.7176V29.9729H79.0761V33.6461Z" fill="#163BA4"/>
<path d="M58.8691 29.9729H65.8691V22.9729H58.8691V29.9729ZM58.8691 33.6461V40.6461H65.8691V33.6461H58.8691ZM51.5107 33.6461H44.5107V40.6461H51.5107V33.6461ZM51.5107 29.9729V22.9729H44.5107V29.9729H51.5107ZM61.0868 29.9729V22.9729H54.0868V29.9729H61.0868ZM69.5 29.9729H76.5V22.9729H69.5V29.9729ZM69.5 33.6461V40.6461H76.5V33.6461H69.5ZM61.0868 33.6461H54.0868V40.6461H61.0868V33.6461ZM79.0761 33.6461V40.6461H86.0761V33.6461H79.0761ZM71.7176 33.6461H64.7176V40.6461H71.7176V33.6461ZM71.7176 29.9729V22.9729H64.7176V29.9729H71.7176ZM79.0761 29.9729H86.0761V22.9729H79.0761V29.9729ZM88.2938 28.8058C88.2938 24.6372 84.997 20.6387 80.185 20.6387V34.6387C76.598 34.6387 74.2938 31.6849 74.2938 28.8058H88.2938ZM80.185 20.6387H57.7581V34.6387H80.185V20.6387ZM57.7581 20.6387C52.9461 20.6387 49.6493 24.6372 49.6493 28.8058H63.6493C63.6493 31.6849 61.3451 34.6387 57.7581 34.6387V20.6387ZM49.6493 28.8058C49.6493 32.9744 52.9461 36.9729 57.7581 36.9729V22.9729C61.3451 22.9729 63.6493 25.9266 63.6493 28.8058H49.6493ZM57.7581 36.9729H58.8691V22.9729H57.7581V36.9729ZM51.8691 29.9729V33.6461H65.8691V29.9729H51.8691ZM58.8691 26.6461H51.5107V40.6461H58.8691V26.6461ZM58.5107 33.6461V29.9729H44.5107V33.6461H58.5107ZM51.5107 36.9729H52.5835V22.9729H51.5107V36.9729ZM52.5835 36.9729C57.3955 36.9729 60.6923 32.9744 60.6923 28.8058H46.6923C46.6923 25.9266 48.9965 22.9729 52.5835 22.9729V36.9729ZM60.6923 28.8058C60.6923 24.6372 57.3955 20.6387 52.5835 20.6387V34.6387C48.9965 34.6387 46.6923 31.6849 46.6923 28.8058H60.6923ZM52.5835 20.6387H50.4018V34.6387H52.5835V20.6387ZM50.4018 20.6387C45.5898 20.6387 42.293 24.6372 42.293 28.8058H56.293C56.293 31.6849 53.9888 34.6387 50.4018 34.6387V20.6387ZM42.293 28.8058V34.8132H56.293V28.8058H42.293ZM42.293 34.8132C42.293 38.9818 45.5898 42.9803 50.4018 42.9803V28.9803C53.9888 28.9803 56.293 31.9341 56.293 34.8132H42.293ZM50.4018 42.9803H80.185V28.9803H50.4018V42.9803ZM80.185 42.9803C84.997 42.9803 88.2938 38.9818 88.2938 34.8132H74.2938C74.2938 31.9341 76.598 28.9803 80.185 28.9803V42.9803ZM88.2938 34.8132V28.8058H74.2938V34.8132H88.2938ZM61.0868 36.9729H69.5V22.9729H61.0868V36.9729ZM62.5 29.9729V33.6461H76.5V29.9729H62.5ZM69.5 26.6461H61.0868V40.6461H69.5V26.6461ZM68.0868 33.6461V29.9729H54.0868V33.6461H68.0868ZM79.0761 26.6461H71.7176V40.6461H79.0761V26.6461ZM78.7176 33.6461V29.9729H64.7176V33.6461H78.7176ZM71.7176 36.9729H79.0761V22.9729H71.7176V36.9729ZM72.0761 29.9729V33.6461H86.0761V29.9729H72.0761Z" fill="#163BA4" mask="url(#path-36-inside-4_422_5323)"/>
<mask id="path-38-inside-5_422_5323" fill="white">
<path d="M49.293 59.3234V67.7243C49.293 68.369 49.7893 68.8914 50.4018 68.8914H80.185C80.7975 68.8914 81.2938 68.369 81.2938 67.7243V59.3234C81.2938 58.6787 80.7975 58.1562 80.185 58.1562H50.4018C49.7894 58.1562 49.293 58.6787 49.293 59.3234ZM51.5107 60.4905H79.0761V66.5572H51.5107V60.4905Z"/>
</mask>
<path d="M49.293 59.3234V67.7243C49.293 68.369 49.7893 68.8914 50.4018 68.8914H80.185C80.7975 68.8914 81.2938 68.369 81.2938 67.7243V59.3234C81.2938 58.6787 80.7975 58.1562 80.185 58.1562H50.4018C49.7894 58.1562 49.293 58.6787 49.293 59.3234ZM51.5107 60.4905H79.0761V66.5572H51.5107V60.4905Z" fill="#163BA4"/>
<path d="M51.5107 60.4905V53.4905H44.5107V60.4905H51.5107ZM79.0761 60.4905H86.0761V53.4905H79.0761V60.4905ZM79.0761 66.5572V73.5572H86.0761V66.5572H79.0761ZM51.5107 66.5572H44.5107V73.5572H51.5107V66.5572ZM42.293 59.3234V67.7243H56.293V59.3234H42.293ZM42.293 67.7243C42.293 71.8929 45.5898 75.8914 50.4018 75.8914V61.8914C53.9888 61.8914 56.293 64.8452 56.293 67.7243H42.293ZM50.4018 75.8914H80.185V61.8914H50.4018V75.8914ZM80.185 75.8914C84.997 75.8914 88.2938 71.8929 88.2938 67.7243H74.2938C74.2938 64.8452 76.598 61.8914 80.185 61.8914V75.8914ZM88.2938 67.7243V59.3234H74.2938V67.7243H88.2938ZM88.2938 59.3234C88.2938 55.1548 84.997 51.1562 80.185 51.1562V65.1562C76.598 65.1562 74.2938 62.2025 74.2938 59.3234H88.2938ZM80.185 51.1562H50.4018V65.1562H80.185V51.1562ZM50.4018 51.1562C45.5906 51.1562 42.293 55.1542 42.293 59.3234H56.293C56.293 62.2031 53.9883 65.1562 50.4018 65.1562V51.1562ZM51.5107 67.4905H79.0761V53.4905H51.5107V67.4905ZM72.0761 60.4905V66.5572H86.0761V60.4905H72.0761ZM79.0761 59.5572H51.5107V73.5572H79.0761V59.5572ZM58.5107 66.5572V60.4905H44.5107V66.5572H58.5107Z" fill="#163BA4" mask="url(#path-38-inside-5_422_5323)"/>
<path d="M65.2924 64.6907C65.9049 64.6907 66.4013 64.1682 66.4013 63.5236C66.4013 62.879 65.9049 62.3564 65.2924 62.3564C64.68 62.3564 64.1836 62.879 64.1836 63.5236C64.1836 64.1682 64.68 64.6907 65.2924 64.6907Z" fill="#163BA4" stroke="#163BA4" stroke-width="7"/>
<mask id="path-41-inside-6_422_5323" fill="white">
<path d="M101 46.4181C101 45.7734 100.503 45.251 99.8909 45.251H94.3237C93.7112 45.251 93.2148 45.7734 93.2148 46.4181C93.2148 47.0628 93.7112 47.5852 94.3237 47.5852H99.8909C100.503 47.5852 101 47.0628 101 46.4181Z"/>
</mask>
<path d="M101 46.4181C101 45.7734 100.503 45.251 99.8909 45.251H94.3237C93.7112 45.251 93.2148 45.7734 93.2148 46.4181C93.2148 47.0628 93.7112 47.5852 94.3237 47.5852H99.8909C100.503 47.5852 101 47.0628 101 46.4181Z" fill="#163BA4"/>
<path d="M108 46.4181C108 42.2495 104.703 38.251 99.8909 38.251V52.251C96.304 52.251 93.9998 49.2973 93.9998 46.4181H108ZM99.8909 38.251H94.3237V52.251H99.8909V38.251ZM94.3237 38.251C89.5117 38.251 86.2148 42.2495 86.2148 46.4181H100.215C100.215 49.2973 97.9106 52.251 94.3237 52.251V38.251ZM86.2148 46.4181C86.2148 50.5867 89.5117 54.5852 94.3237 54.5852V40.5852C97.9106 40.5852 100.215 43.5389 100.215 46.4181H86.2148ZM94.3237 54.5852H99.8909V40.5852H94.3237V54.5852ZM99.8909 54.5852C104.702 54.5852 108 50.5873 108 46.4181H93.9998C93.9998 43.5383 96.3044 40.5852 99.8909 40.5852V54.5852Z" fill="#163BA4" mask="url(#path-41-inside-6_422_5323)"/>
<mask id="path-43-inside-7_422_5323" fill="white">
<path d="M97.6923 35.722L92.871 38.652C92.3407 38.9742 92.159 39.6881 92.4651 40.2463C92.773 40.8073 93.452 40.9941 93.9798 40.6734L98.8012 37.7435C99.3315 37.4212 99.5132 36.7074 99.207 36.1492C98.9007 35.5908 98.2225 35.3997 97.6923 35.722Z"/>
</mask>
<path d="M97.6923 35.722L92.871 38.652C92.3407 38.9742 92.159 39.6881 92.4651 40.2463C92.773 40.8073 93.452 40.9941 93.9798 40.6734L98.8012 37.7435C99.3315 37.4212 99.5132 36.7074 99.207 36.1492C98.9007 35.5908 98.2225 35.3997 97.6923 35.722Z" fill="#163BA4"/>
<path d="M97.6923 35.722L101.328 41.704L101.328 41.7036L97.6923 35.722ZM92.871 38.652L96.5063 44.634L96.5063 44.634L92.871 38.652ZM92.4651 40.2463L86.3279 43.6128L86.3283 43.6136L92.4651 40.2463ZM93.9798 40.6734L97.6149 46.6556L97.6152 46.6554L93.9798 40.6734ZM98.8012 37.7435L95.1659 31.7614L95.1658 31.7615L98.8012 37.7435ZM99.207 36.1492L105.344 32.7826L105.344 32.7821L99.207 36.1492ZM94.057 29.74L89.2357 32.67L96.5063 44.634L101.328 41.704L94.057 29.74ZM89.2357 32.6699C85.3704 35.0189 84.2969 39.9104 86.3279 43.6128L98.6024 36.8797C100.021 39.4657 99.3109 42.9296 96.5063 44.634L89.2357 32.6699ZM86.3283 43.6136C88.4793 47.5338 93.548 49.1268 97.6149 46.6556L90.3448 34.6912C93.3561 32.8615 97.0666 34.0807 98.602 36.879L86.3283 43.6136ZM97.6152 46.6554L102.436 43.7255L95.1658 31.7615L90.3445 34.6914L97.6152 46.6554ZM102.436 43.7255C106.302 41.3766 107.375 36.4851 105.344 32.7826L93.0697 39.5157C91.6511 36.9297 92.3613 33.4658 95.1659 31.7614L102.436 43.7255ZM105.344 32.7821C103.207 28.8873 98.1478 27.2533 94.0563 29.7404L101.328 41.7036C98.2971 43.5462 94.5942 42.2944 93.07 39.5163L105.344 32.7821Z" fill="#163BA4" mask="url(#path-43-inside-7_422_5323)"/>
<mask id="path-45-inside-8_422_5323" fill="white">
<path d="M93.9798 52.5775C93.4492 52.2552 92.7712 52.4463 92.4651 53.0047C92.159 53.5629 92.3407 54.2767 92.871 54.5989L97.6923 57.5287C98.222 57.8504 98.9005 57.6605 99.207 57.1016C99.5132 56.5434 99.3315 55.8296 98.8012 55.5073L93.9798 52.5775Z"/>
</mask>
<path d="M93.9798 52.5775C93.4492 52.2552 92.7712 52.4463 92.4651 53.0047C92.159 53.5629 92.3407 54.2767 92.871 54.5989L97.6923 57.5287C98.222 57.8504 98.9005 57.6605 99.207 57.1016C99.5132 56.5434 99.3315 55.8296 98.8012 55.5073L93.9798 52.5775Z" fill="#163BA4"/>
<path d="M93.9798 52.5775L97.615 46.5954L97.6137 46.5946L93.9798 52.5775ZM92.4651 53.0047L98.6024 56.3712L98.6035 56.3692L92.4651 53.0047ZM92.871 54.5989L89.2357 60.581L89.2358 60.581L92.871 54.5989ZM97.6923 57.5287L94.0571 63.5108L94.0592 63.5121L97.6923 57.5287ZM99.207 57.1016L93.0697 53.735L93.0691 53.7361L99.207 57.1016ZM98.8012 55.5073L102.436 49.5252L102.436 49.5252L98.8012 55.5073ZM97.6137 46.5946C93.525 44.1113 88.4645 45.7399 86.3268 49.6401L98.6035 56.3692C97.0779 59.1527 93.3734 60.3992 90.346 58.5604L97.6137 46.5946ZM86.3279 49.6381C84.2969 53.3405 85.3704 58.2321 89.2357 60.581L96.5063 48.6169C99.3109 50.3213 100.021 53.7852 98.6024 56.3712L86.3279 49.6381ZM89.2358 60.581L94.0571 63.5108L101.327 51.5466L96.5062 48.6168L89.2358 60.581ZM94.0592 63.5121C98.1401 65.99 103.203 64.3737 105.345 60.467L93.0691 53.7361C94.5982 50.9474 98.304 49.7107 101.325 51.5454L94.0592 63.5121ZM105.344 60.4681C107.375 56.7657 106.302 51.8741 102.436 49.5252L95.1659 61.4893C92.3613 59.785 91.6511 56.3211 93.0697 53.735L105.344 60.4681ZM102.436 49.5252L97.615 46.5954L90.3447 58.5596L95.166 61.4894L102.436 49.5252Z" fill="#163BA4" mask="url(#path-45-inside-8_422_5323)"/>
<mask id="path-47-inside-9_422_5323" fill="white">
<path d="M36.0272 46.4181C36.0272 45.7734 35.5309 45.251 34.9184 45.251H29.351C28.7385 45.251 28.2422 45.7734 28.2422 46.4181C28.2422 47.0628 28.7385 47.5852 29.351 47.5852H34.9182C35.5308 47.5852 36.0272 47.0628 36.0272 46.4181Z"/>
</mask>
<path d="M36.0272 46.4181C36.0272 45.7734 35.5309 45.251 34.9184 45.251H29.351C28.7385 45.251 28.2422 45.7734 28.2422 46.4181C28.2422 47.0628 28.7385 47.5852 29.351 47.5852H34.9182C35.5308 47.5852 36.0272 47.0628 36.0272 46.4181Z" fill="#163BA4"/>
<path d="M43.0272 46.4181C43.0272 42.2495 39.7304 38.251 34.9184 38.251V52.251C31.3315 52.251 29.0272 49.2973 29.0272 46.4181H43.0272ZM34.9184 38.251H29.351V52.251H34.9184V38.251ZM29.351 38.251C24.539 38.251 21.2422 42.2495 21.2422 46.4181H35.2422C35.2422 49.2972 32.938 52.251 29.351 52.251V38.251ZM21.2422 46.4181C21.2422 50.5867 24.539 54.5852 29.351 54.5852V40.5852C32.938 40.5852 35.2422 43.5389 35.2422 46.4181H21.2422ZM29.351 54.5852H34.9182V40.5852H29.351V54.5852ZM34.9182 54.5852C39.7291 54.5852 43.0272 50.5879 43.0272 46.4181H29.0272C29.0272 43.5377 31.3325 40.5852 34.9182 40.5852V54.5852Z" fill="#163BA4" mask="url(#path-47-inside-9_422_5323)"/>
<mask id="path-49-inside-10_422_5323" fill="white">
<path d="M36.3695 38.652L31.5482 35.722C31.018 35.3997 30.3394 35.5908 30.0335 36.1492C29.7273 36.7074 29.909 37.4212 30.4393 37.7435L35.2607 40.6734C35.7876 40.9935 36.4674 40.808 36.7754 40.2463C37.0815 39.6881 36.8998 38.9742 36.3695 38.652Z"/>
</mask>
<path d="M36.3695 38.652L31.5482 35.722C31.018 35.3997 30.3394 35.5908 30.0335 36.1492C29.7273 36.7074 29.909 37.4212 30.4393 37.7435L35.2607 40.6734C35.7876 40.9935 36.4674 40.808 36.7754 40.2463C37.0815 39.6881 36.8998 38.9742 36.3695 38.652Z" fill="#163BA4"/>
<path d="M36.3695 38.652L32.7342 44.634L32.7342 44.634L36.3695 38.652ZM31.5482 35.722L27.9122 41.7036L27.9129 41.704L31.5482 35.722ZM30.0335 36.1492L36.1708 39.5157L36.1726 39.5125L30.0335 36.1492ZM30.4393 37.7435L34.0747 31.7615L34.0746 31.7614L30.4393 37.7435ZM35.2607 40.6734L31.6253 46.6554L31.6263 46.656L35.2607 40.6734ZM36.7754 40.2463L30.6381 36.8797L30.6372 36.8813L36.7754 40.2463ZM40.0048 32.67L35.1835 29.74L27.9129 41.704L32.7342 44.634L40.0048 32.67ZM35.1842 29.7404C31.0952 27.2549 26.032 28.8842 23.8944 32.7859L36.1726 39.5125C34.6468 42.2975 30.9408 43.5446 27.9122 41.7036L35.1842 29.7404ZM23.8962 32.7826C21.8653 36.4851 22.9388 41.3766 26.8041 43.7255L34.0746 31.7614C36.8792 33.4658 37.5893 36.9297 36.1708 39.5157L23.8962 32.7826ZM26.804 43.7255L31.6253 46.6554L38.896 34.6914L34.0747 31.7615L26.804 43.7255ZM31.6263 46.656C35.6826 49.1202 40.7572 47.5447 42.9135 43.6112L30.6372 36.8813C32.1776 34.0714 35.8926 32.8669 38.895 34.6908L31.6263 46.656ZM42.9126 43.6128C44.9436 39.9104 43.87 35.0189 40.0048 32.6699L32.7342 44.634C29.9296 42.9296 29.2195 39.4657 30.6381 36.8797L42.9126 43.6128Z" fill="#163BA4" mask="url(#path-49-inside-10_422_5323)"/>
<mask id="path-51-inside-11_422_5323" fill="white">
<path d="M31.5482 57.5286L36.3695 54.5988C36.8998 54.2766 37.0815 53.5627 36.7754 53.0046C36.4693 52.4464 35.7907 52.2553 35.2607 52.5774L30.4393 55.5072C29.909 55.8295 29.7273 56.5433 30.0335 57.1015C30.341 57.6623 31.0204 57.8494 31.5482 57.5286Z"/>
</mask>
<path d="M31.5482 57.5286L36.3695 54.5988C36.8998 54.2766 37.0815 53.5627 36.7754 53.0046C36.4693 52.4464 35.7907 52.2553 35.2607 52.5774L30.4393 55.5072C29.909 55.8295 29.7273 56.5433 30.0335 57.1015C30.341 57.6623 31.0204 57.8494 31.5482 57.5286Z" fill="#163BA4"/>
<path d="M31.5482 57.5286L35.1833 63.5108L35.1834 63.5107L31.5482 57.5286ZM36.3695 54.5988L40.0047 60.5809L40.0048 60.5809L36.3695 54.5988ZM36.7754 53.0046L30.6374 56.3698L30.6381 56.3711L36.7754 53.0046ZM35.2607 52.5774L38.8958 58.5595L38.8961 58.5593L35.2607 52.5774ZM30.4393 55.5072L26.8042 49.5251L26.8041 49.5251L30.4393 55.5072ZM30.0335 57.1015L36.1714 53.7359L36.1708 53.7349L30.0335 57.1015ZM35.1834 63.5107L40.0047 60.5809L32.7343 48.6167L27.913 51.5465L35.1834 63.5107ZM40.0048 60.5809C43.87 58.232 44.9436 53.3404 42.9126 49.638L30.6381 56.3711C29.2195 53.7851 29.9296 50.3212 32.7342 48.6168L40.0048 60.5809ZM42.9133 49.6393C40.7758 45.7406 35.7145 44.1102 31.6252 46.5955L38.8961 58.5593C35.8669 60.4003 32.1628 59.1521 30.6374 56.3698L42.9133 49.6393ZM31.6255 46.5953L26.8042 49.5251L34.0745 61.4893L38.8958 58.5595L31.6255 46.5953ZM26.8041 49.5251C22.9388 51.8741 21.8653 56.7656 23.8962 60.468L36.1708 53.7349C37.5893 56.3209 36.8792 59.7849 34.0746 61.4892L26.8041 49.5251ZM23.8957 60.467C26.0465 64.3897 31.1169 65.9817 35.1833 63.5108L27.9132 51.5465C30.9238 49.717 34.6355 50.935 36.1714 53.7359L23.8957 60.467Z" fill="#163BA4" mask="url(#path-51-inside-11_422_5323)"/>
<path d="M0.907478 15.0599L0.907401 15.0594C0.903292 15.0351 0.9 15.0078 0.9 14.9785V2.17113C0.9 1.85857 1.18863 1.62949 1.51236 1.62949H32.5958C32.9195 1.62949 33.2081 1.85851 33.2081 2.17113V14.9785C33.2081 15.0078 33.2048 15.035 33.2007 15.0594L33.2007 15.0598C33.2005 15.0607 33.2001 15.0631 33.1996 15.066L0.907478 15.0599ZM0.907478 15.0599L0.90768 15.0611C0.908149 15.0639 0.909168 15.07 0.910283 15.0752L1.00813 15.0546L0.907478 15.0599ZM1.01957 15.2996C1.00352 15.2804 0.988051 15.2595 0.974166 15.2369L0.973741 15.2362L0.973744 15.2362C0.972263 15.2337 0.970959 15.2313 0.970292 15.2301C0.957038 15.2077 0.94558 15.1844 0.935972 15.1605L0.935908 15.1604L0.935841 15.1602L1.01957 15.2996ZM1.01957 15.2996C1.02126 15.302 1.02395 15.3056 1.02731 15.3094M1.01957 15.2996L33.1979 15.0752C33.1926 15.1005 33.1855 15.1262 33.1758 15.1517L33.1753 15.153L33.1727 15.1591L33.1726 15.1593L33.1726 15.1594M1.02731 15.3094L1.0271 15.3091L1.10254 15.2435L1.0283 15.3105C1.02796 15.3101 1.02763 15.3098 1.02731 15.3094ZM1.02731 15.3094L2.9523 17.5218M2.9523 17.5218C3.06937 24.1598 9.36352 29.5052 17.054 29.5052C24.7446 29.5052 31.0388 24.1598 31.1558 17.5216M2.9523 17.5218C2.95208 17.5096 2.95189 17.4974 2.95172 17.4851L3.05171 17.4837L2.97626 17.5494L2.9523 17.5218ZM31.1558 17.5216L33.081 15.3091C33.084 15.3057 33.0862 15.3028 33.0877 15.3007L33.0883 15.2998M31.1558 17.5216L31.1319 17.5492L31.0564 17.4835L31.1564 17.485C31.1562 17.4972 31.1561 17.5094 31.1558 17.5216ZM33.0883 15.2998C33.1043 15.2806 33.1199 15.2597 33.134 15.2368L33.1344 15.2361C33.1359 15.2336 33.1372 15.2313 33.1378 15.23M33.0883 15.2998C33.0874 15.3009 33.0866 15.3019 33.0857 15.3029L33.0905 15.2967C33.091 15.2959 33.0905 15.2967 33.0898 15.2977L33.0883 15.2998ZM33.1378 15.23C33.1513 15.2073 33.1627 15.1839 33.1724 15.16M33.1378 15.23C33.1377 15.2303 33.1375 15.2306 33.1373 15.2309M33.1378 15.23C33.138 15.2297 33.1382 15.2294 33.1383 15.2293L33.1383 15.2291L33.1373 15.2309M33.1724 15.16C33.1724 15.1599 33.1724 15.1598 33.1725 15.1597L33.1726 15.1594M33.1724 15.16C33.172 15.1607 33.1723 15.1602 33.1726 15.1594M33.1724 15.16L33.1726 15.1594M33.1373 15.2309L33.1362 15.2328L33.1373 15.2309ZM33.0514 15.1798C33.0624 15.1613 33.0718 15.142 33.0798 15.1221L33.0824 15.1161C33.09 15.0962 33.0957 15.0756 33.1 15.0545L33.0514 15.1798ZM17.054 28.4219C10.1499 28.4219 4.51915 23.7264 4.19038 17.8755H10.7203V25.873C10.7203 26.1856 11.0089 26.4146 11.3327 26.4146C11.6564 26.4146 11.945 26.1856 11.945 25.873V17.8755H22.1631V25.873C22.1631 26.1856 22.4517 26.4146 22.7754 26.4146C23.0992 26.4146 23.3878 26.1856 23.3878 25.873V17.8755H29.9177C29.5889 23.7264 23.9582 28.4219 17.054 28.4219ZM31.9833 14.4369H6.29442C5.97068 14.4369 5.68205 14.666 5.68205 14.9785C5.68205 15.2911 5.97068 15.5202 6.29442 15.5202H31.3514L30.2445 16.7923H3.86354L2.75666 15.5202H4.24496C4.5687 15.5202 4.85733 15.2911 4.85733 14.9785C4.85733 14.666 4.5687 14.4369 4.24496 14.4369H2.12473V2.71276H8.67084V13.212C8.67084 13.5245 8.95947 13.7536 9.2832 13.7536C9.60693 13.7536 9.89556 13.5245 9.89556 13.212V2.71276H16.4417V13.212C16.4417 13.5245 16.7303 13.7536 17.054 13.7536C17.3778 13.7536 17.6664 13.5245 17.6664 13.212V2.71276H24.2125V13.212C24.2125 13.5245 24.5011 13.7536 24.8249 13.7536C25.1486 13.7536 25.4372 13.5245 25.4372 13.212V2.71276H31.9833V14.4369Z" fill="#163BA4" stroke="#163BA4" stroke-width="0.2"/>
<path d="M17.054 18.6324C14.7531 18.6324 12.8551 20.2487 12.8551 22.2655C12.8551 24.2823 14.7531 25.8986 17.054 25.8986C19.3549 25.8986 21.2529 24.2823 21.2529 22.2655C21.2529 20.2487 19.3549 18.6324 17.054 18.6324ZM17.054 24.8153C15.3997 24.8153 14.0798 23.6579 14.0798 22.2655C14.0798 20.873 15.3997 19.7157 17.054 19.7157C18.7083 19.7157 20.0282 20.873 20.0282 22.2655C20.0282 23.6579 18.7083 24.8153 17.054 24.8153Z" fill="#163BA4" stroke="#163BA4" stroke-width="0.2"/>
<path d="M18.5904 21.7239C18.2667 21.7239 17.9781 21.953 17.9781 22.2656C17.9781 22.6839 17.5776 23.0488 17.0534 23.0488C16.5291 23.0488 16.1286 22.6839 16.1286 22.2656C16.1286 21.8472 16.5291 21.4823 17.0534 21.4823C17.3771 21.4823 17.6657 21.2532 17.6657 20.9407C17.6657 20.6281 17.3771 20.399 17.0534 20.399C15.8825 20.399 14.9039 21.2228 14.9039 22.2656C14.9039 23.3083 15.8825 24.1321 17.0534 24.1321C18.2242 24.1321 19.2028 23.3083 19.2028 22.2656C19.2028 21.953 18.9142 21.7239 18.5904 21.7239Z" fill="#163BA4" stroke="#163BA4" stroke-width="0.2"/>
</svg>
