<svg width="101" height="76" fill="none" xmlns="http://www.w3.org/2000/svg"><path d="M92.32.5H8.989C4.394.5.654 4.237.654 8.833v33.334c0 4.596 3.74 8.333 8.334 8.333H92.32c4.594 0 8.333-3.737 8.333-8.333V8.833c0-4.596-3.74-8.333-8.333-8.333zm4.168 41.667a4.17 4.17 0 01-4.167 4.166H8.988a4.17 4.17 0 01-4.167-4.166V8.833a4.17 4.17 0 014.167-4.166H92.32a4.17 4.17 0 014.167 4.166v33.334z" fill="#163BA4"/><path d="M90.237 29.667H11.072a2.082 2.082 0 00-2.084 2.083v8.333c0 1.152.932 2.084 2.084 2.084h79.166a2.082 2.082 0 002.084-2.084V31.75a2.082 2.082 0 00-2.084-2.083zM88.154 38h-75v-4.167h75V38zM11.07 17.167h62.5a2.082 2.082 0 002.084-2.084A2.082 2.082 0 0073.571 13h-62.5a2.082 2.082 0 100 4.167zm77.084-8.334A4.17 4.17 0 0083.988 13a4.17 4.17 0 004.166 4.167A4.17 4.17 0 0092.321 13a4.17 4.17 0 00-4.167-4.167zm-12.5 47.917a2.082 2.082 0 00-2.083-2.083 2.082 2.082 0 00-2.084 2.083c0 4.659 1.225 7.106 2.303 9.265 1.001 2 1.864 3.727 1.864 7.402 0 1.151.932 2.083 2.084 2.083a2.082 2.082 0 002.083-2.083c0-4.66-1.225-7.107-2.303-9.265-1.001-2-1.864-3.728-1.864-7.402zm-47.916-2.083a2.082 2.082 0 00-2.084 2.083c0 3.674-.863 5.402-1.864 7.402-1.078 2.158-2.303 4.606-2.303 9.265 0 1.151.932 2.083 2.084 2.083a2.082 2.082 0 002.083-2.083c0-3.675.863-5.402 1.864-7.402 1.078-2.158 2.303-4.606 2.303-9.265a2.082 2.082 0 00-2.084-2.083zm22.916 0a2.082 2.082 0 00-2.083 2.083v16.667a2.082 2.082 0 104.167 0V56.75a2.082 2.082 0 00-2.084-2.083z" fill="#163BA4"/></svg>