<svg width="121" height="120" fill="none" xmlns="http://www.w3.org/2000/svg"><path d="M119.357 91.64V4.454H1.232v87.188h52.031v13.593H35.451v10.313h49.687v-10.313H67.326V91.641h52.031zM9.201 12.423h101.718v70.781H9.201V12.422zM94.636 56.33c0 6.26-5.282 11.353-11.536 11.353H67.27V55.877h6.976L64.604 42.98 54.93 55.877h6.976v11.805H33.733c-4.44 0-7.781-3.36-7.781-7.776a8.023 8.023 0 018.04-8.021c.532 0 1.062.056 1.565.14 0-.029-.029-.085-.029-.14 0-6.262 5.082-11.348 11.336-11.348 1.2 0 2.345.223 3.463.586 1.088-8.022 8.086-14.221 16.406-14.221 9.102 0 16.344 7.401 16.344 16.513 0 .531-.028 1.062-.084 1.593.112 0 .224-.028.335-.028 6.255 0 11.337 5.088 11.308 11.349z" fill="#163BA4"/></svg>