<svg width="93" height="93" fill="none" xmlns="http://www.w3.org/2000/svg"><path d="M20 46.361v26.64h26.639l-5.556-5.556H25.556V51.917L20 46.36z" fill="#163BA4"/><path d="M91.861 87.695L83.89 79.61v7.278H6.11V75.361h5.556v-4.444H6.11V52.444h5.556V48H6.11V30.222h5.556v-4.444H6.11V10.25l44.28 44.028v-7.834L5.306 1.584a2.778 2.778 0 00-4.75 1.972v86.11a2.778 2.778 0 002.777 2.779H89.89a2.778 2.778 0 001.972-4.75z" fill="#163BA4"/><path d="M61.667 81.333h11.11a5.556 5.556 0 005.556-5.555V22.166l-6.389-11.75a5.556 5.556 0 00-4.889-2.777 5.555 5.555 0 00-4.888 3L56.11 22.222v53.556a5.556 5.556 0 005.556 5.555zm0-57.778l5.388-10.472 5.723 10.5v41.084H61.667V23.554zm0 45.64h11.11v6.777h-11.11v-6.778z" fill="#163BA4"/></svg>