<svg width="20" height="12" fill="none" xmlns="http://www.w3.org/2000/svg"><path d="M9.753 0h.494c4 .02 7.506 2.116 9.5 5.264l.026.047.227.351-.227.351c-2.02 3.195-5.526 5.29-9.523 5.31l-.003.001h-.272a11.69 11.69 0 01-5.618-1.428l.062.031A11.578 11.578 0 01.254 6.06l-.027-.045L0 5.664l.227-.351C2.247 2.117 5.753.02 9.75 0h.003zM10 1.317h-.247a9.959 9.959 0 00-8.16 4.315l-.021.033c1.872 2.643 4.919 4.347 8.363 4.347h.069H10h.247a9.958 9.958 0 008.16-4.313l.021-.034c-1.81-2.626-4.794-4.33-8.178-4.348H10zm0-1.314a5.663 5.663 0 110 11.325A5.663 5.663 0 0110 .003zm0 10.008a4.346 4.346 0 100-8.691 4.346 4.346 0 000 8.691zm0-6.672a2.327 2.327 0 110 4.653 2.327 2.327 0 010-4.653zm0 3.336a1.01 1.01 0 100-2.02 1.01 1.01 0 000 2.02z" fill="#353030"/></svg>