<svg width="35" height="33" fill="none" xmlns="http://www.w3.org/2000/svg"><path d="M22.958 14.807c.092-4.213-6.908-3.634-5.108-10.964 0 0-4.7 1.692-3.875 6.88.283 1.783-.4 3.117-.4 3.117-.692.13-1.767-1.128-1.392-3.07 0 0-2.466 1.683-2.466 3.847 0 2.164 1.141 4.457 1.141 4.457C8.017 18.51 8.3 15.005 8.3 15.005s-1.8 2.202-1.8 6.355c0 3.23 3.983 8.388 10.408 8.388 6.425 0 11.583-4.556 11.583-8.61 0-1.775-.658-4.068-2.083-5.317 0 0 .192 3.542-1.725 3.375 0 0 1.584-4.625-.075-6.743 0 0-.8 2.286-1.65 2.354z" fill="url(#paint0_linear_125_3321)"/><path d="M22.966 11.63c1.867-3.146-2.758-3.58-2.766-5.516 0 0-.817 1.996 1.133 3.36 1.592 1.105 1.633 2.156 1.633 2.156z" fill="url(#paint1_linear_125_3321)"/><path d="M13.15 5.611c-.709.64.266 3.284-1.95 4.328 0 0-.75-2.903 1.95-4.328z" fill="url(#paint2_linear_125_3321)"/><path opacity=".5" d="M7.958 16.064c-.617.968-1.458 2.758-1.458 5.296 0 2.834 3.95 8.045 10.408 8.045 6.308 0 11.208-4.442 11.208-8.259 0-1.379-.416-3.139-1.341-4.388-.067.784-.275 1.851-.917 2.407a1.56 1.56 0 01-1.208.374l-.467-.038.142-.404c.017-.038 1.225-3.65.35-5.79-.35.784-.95 1.797-1.684 1.85l-.416.031.008-.38c.034-1.578-1.025-2.416-2.25-3.384-1.75-1.386-3.725-2.956-3-6.94-1.216.655-3.583 2.46-2.991 6.186.3 1.867-.409 3.253-.434 3.314l-.083.16-.183.03c-.35.062-.717-.068-1.05-.357-.45-.404-.859-1.166-.876-2.202-.683.64-1.624 1.745-1.624 3.002 0 2.064 1.1 4.29 1.108 4.312l.308.625-.733-.145c-1.917-.38-2.633-2.011-2.817-3.345z" fill="url(#paint3_linear_125_3321)"/><path d="M20.2 6.114c-.167 1.15.333 2.804 1.133 3.36.734.51 1.559 1.387 1.625 2.156 1.25-2.24-.508-3.07-1.517-3.398-.424-.137-1.208-.937-1.241-2.118z" fill="url(#paint4_radial_125_3321)"/><path d="M16.358 5.787c-2.766 3.962.825 8.144-1.025 10.651-1.85 2.507-3.725.19-3.85-1.379 0 0 .017 5.075 2.759 7.078 2.741 2.004-5.275 1.57-6.375-.876 0 0 0 8.145 9.041 8.145 9.042 0 10.55-7.581 10.55-7.581s-3.291 2.567-5.483.564c0 0 1.642-2.629 2.058-5.326 0 0-1.133.655-2.875.404 0 0 .967-3.787-1.008-5.029-2.533-1.592-4.675-5.386-3.792-6.651z" fill="url(#paint5_linear_125_3321)"/><path d="M17.05 10.449c-1.45 1.745 1.375 6.225-1.592 8-1.641.983-2.583-.198-2.583-.198s.442 1.813 2.208 3.428c1.767 1.616-2.658 3.802-6.25.976 0 0 1.234 6.788 9.592 5.645 9.225-1.257 8.542-7.527 8.542-7.527s-2.5 3.596-6.059 1.874c0 0 2.242-2.857 2.242-4.495 0 0-1.517.823-3.25.03 0 0 .825-3.81-.158-4.38-2.359-1.38-2.692-3.353-2.692-3.353z" fill="url(#paint6_linear_125_3321)"/><path opacity=".5" d="M22.958 14.807c.092-4.213-6.908-3.634-5.108-10.964 0 0-4.7 1.692-3.875 6.88.283 1.783-.4 3.117-.4 3.117-.692.13-1.767-1.128-1.392-3.07 0 0-2.466 1.683-2.466 3.847 0 2.164 1.141 4.457 1.141 4.457C8.017 18.51 8.3 15.005 8.3 15.005s-1.8 2.202-1.8 6.355c0 3.23 3.983 8.388 10.408 8.388 6.425 0 11.583-4.556 11.583-8.61 0-1.775-.658-4.068-2.083-5.317 0 0 .192 3.542-1.725 3.375 0 0 1.584-4.625-.075-6.743 0 0-.8 2.286-1.65 2.354z" fill="url(#paint7_radial_125_3321)"/><path opacity=".5" d="M22.958 14.807c.092-4.213-6.908-3.634-5.108-10.964 0 0-4.7 1.692-3.875 6.88.283 1.783-.4 3.117-.4 3.117-.692.13-1.767-1.128-1.392-3.07 0 0-2.466 1.683-2.466 3.847 0 2.164 1.141 4.457 1.141 4.457C8.017 18.51 8.3 15.005 8.3 15.005s-1.8 2.202-1.8 6.355c0 3.23 3.983 8.388 10.408 8.388 6.425 0 11.583-4.556 11.583-8.61 0-1.775-.658-4.068-2.083-5.317 0 0 .192 3.542-1.725 3.375 0 0 1.584-4.625-.075-6.743 0 0-.8 2.286-1.65 2.354z" fill="url(#paint8_radial_125_3321)"/><path d="M7.067 19.592c.191 4.305 4.066 9.463 10.125 9.463 6.058 0 9.083-5.844 9.275-9.265 0 0-1.134 2.012-3.692 2.415-2.558.404.175-4.023-1.617-6.643 0 0-1.583 4.563-3.833 4.731-2.25.168-4.158-3.017-4.158-4.731 0 0-1.384 3.085-1.042 5.539.525 3.725-5.058-1.509-5.058-1.509z" fill="url(#paint9_radial_125_3321)"/><path opacity=".5" d="M22.958 14.807c.092-4.213-6.908-3.634-5.108-10.964 0 0-4.7 1.692-3.875 6.88.283 1.783-.4 3.117-.4 3.117-.692.13-1.767-1.128-1.392-3.07 0 0-2.466 1.683-2.466 3.847 0 2.164 1.141 4.457 1.141 4.457C8.017 18.51 8.3 15.005 8.3 15.005s-1.8 2.202-1.8 6.355c0 3.23 3.983 8.388 10.408 8.388 6.425 0 11.583-4.556 11.583-8.61 0-1.775-.658-4.068-2.083-5.317 0 0 .192 3.542-1.725 3.375 0 0 1.584-4.625-.075-6.743 0 0-.8 2.286-1.65 2.354z" fill="url(#paint10_radial_125_3321)"/><path opacity=".5" d="M22.966 11.63c1.867-3.146-2.758-3.58-2.766-5.516 0 0-.817 1.996 1.133 3.36 1.592 1.105 1.633 2.156 1.633 2.156z" fill="url(#paint11_radial_125_3321)"/><path d="M13.15 5.611c-.7.64-.25 2.659-1.95 4.328 0 0-.75-2.903 1.95-4.328z" fill="url(#paint12_radial_125_3321)"/><path opacity=".5" d="M13.15 5.611c-.709.64.266 3.284-1.95 4.328 0 0-.75-2.903 1.95-4.328z" fill="url(#paint13_radial_125_3321)"/><path opacity=".5" d="M22.958 14.807c.092-4.213-6.908-3.634-5.108-10.964 0 0-4.7 1.692-3.875 6.88.283 1.783-.4 3.117-.4 3.117-.692.13-1.767-1.128-1.392-3.07 0 0-2.466 1.683-2.466 3.847 0 2.164 1.141 4.457 1.141 4.457C8.017 18.51 8.3 15.005 8.3 15.005s-1.8 2.202-1.8 6.355c0 3.23 3.983 8.388 10.408 8.388 6.425 0 11.583-4.556 11.583-8.61 0-1.775-.658-4.068-2.083-5.317 0 0 .192 3.542-1.725 3.375 0 0 1.584-4.625-.075-6.743 0 0-.8 2.286-1.65 2.354z" fill="url(#paint14_radial_125_3321)"/><path opacity=".25" d="M22.958 14.807c.092-4.213-6.908-3.634-5.108-10.964 0 0-4.7 1.692-3.875 6.88.283 1.783-.4 3.117-.4 3.117-.692.13-1.767-1.128-1.392-3.07 0 0-2.466 1.683-2.466 3.847 0 2.164 1.141 4.457 1.141 4.457C8.017 18.51 8.3 15.005 8.3 15.005s-1.8 2.202-1.8 6.355c0 3.23 3.983 8.388 10.408 8.388 6.425 0 11.583-4.556 11.583-8.61 0-1.775-.658-4.068-2.083-5.317 0 0 .192 3.542-1.725 3.375 0 0 1.584-4.625-.075-6.743 0 0-.8 2.286-1.65 2.354z" fill="url(#paint15_radial_125_3321)"/><path opacity=".25" d="M22.958 14.807c.092-4.213-6.908-3.634-5.108-10.964 0 0-4.7 1.692-3.875 6.88.283 1.783-.4 3.117-.4 3.117-.692.13-1.767-1.128-1.392-3.07 0 0-2.466 1.683-2.466 3.847 0 2.164 1.141 4.457 1.141 4.457C8.017 18.51 8.3 15.005 8.3 15.005s-1.8 2.202-1.8 6.355c0 3.23 3.983 8.388 10.408 8.388 6.425 0 11.583-4.556 11.583-8.61 0-1.775-.658-4.068-2.083-5.317 0 0 .192 3.542-1.725 3.375 0 0 1.584-4.625-.075-6.743 0 0-.8 2.286-1.65 2.354z" fill="url(#paint16_radial_125_3321)"/><path opacity=".25" d="M22.958 14.807c.092-4.213-6.908-3.634-5.108-10.964 0 0-4.7 1.692-3.875 6.88.283 1.783-.4 3.117-.4 3.117-.692.13-1.767-1.128-1.392-3.07 0 0-2.466 1.683-2.466 3.847 0 2.164 1.141 4.457 1.141 4.457C8.017 18.51 8.3 15.005 8.3 15.005s-1.8 2.202-1.8 6.355c0 3.23 3.983 8.388 10.408 8.388 6.425 0 11.583-4.556 11.583-8.61 0-1.775-.658-4.068-2.083-5.317 0 0 .192 3.542-1.725 3.375 0 0 1.584-4.625-.075-6.743 0 0-.8 2.286-1.65 2.354z" fill="url(#paint17_radial_125_3321)"/><defs><radialGradient id="paint4_radial_125_3321" cx="0" cy="0" r="1" gradientUnits="userSpaceOnUse" gradientTransform="matrix(14.8759 0 0 13.6008 23.548 .977)"><stop offset=".001" stop-color="#FFED1C" stop-opacity=".6"/><stop offset=".948" stop-color="#FFED1C" stop-opacity=".026"/><stop offset=".991" stop-color="#FFED1C" stop-opacity="0"/></radialGradient><radialGradient id="paint7_radial_125_3321" cx="0" cy="0" r="1" gradientUnits="userSpaceOnUse" gradientTransform="matrix(11.5073 0 0 8.54092 17.35 23.694)"><stop offset=".001" stop-color="#FFBC47"/><stop offset=".294" stop-color="#FFBF4B" stop-opacity=".707"/><stop offset=".562" stop-color="#FEC656" stop-opacity=".438"/><stop offset=".82" stop-color="#FCD368" stop-opacity=".18"/><stop offset="1" stop-color="#FBE07A" stop-opacity="0"/></radialGradient><radialGradient id="paint8_radial_125_3321" cx="0" cy="0" r="1" gradientUnits="userSpaceOnUse" gradientTransform="matrix(11.1527 0 0 8.27773 17.35 23.262)"><stop offset=".001" stop-color="#fff"/><stop offset="1" stop-color="#fff" stop-opacity="0"/></radialGradient><radialGradient id="paint9_radial_125_3321" cx="0" cy="0" r="1" gradientUnits="userSpaceOnUse" gradientTransform="matrix(13.7003 0 0 14.584 12.46 25.143)"><stop offset=".001" stop-color="#FFED1C" stop-opacity=".6"/><stop offset=".948" stop-color="#FFED1C" stop-opacity=".026"/><stop offset=".991" stop-color="#FFED1C" stop-opacity="0"/></radialGradient><radialGradient id="paint10_radial_125_3321" cx="0" cy="0" r="1" gradientUnits="userSpaceOnUse" gradientTransform="matrix(-.21813 3.9538 -3.50866 -.19357 17.35 23.26)"><stop offset=".001" stop-color="#fff"/><stop offset="1" stop-color="#fff" stop-opacity="0"/></radialGradient><radialGradient id="paint11_radial_125_3321" cx="0" cy="0" r="1" gradientUnits="userSpaceOnUse" gradientTransform="matrix(4.91485 0 0 4.49357 19.744 6.107)"><stop offset=".001" stop-color="#FFED1C"/><stop offset=".2" stop-color="#FFEE2B" stop-opacity=".801"/><stop offset=".584" stop-color="#FFF254" stop-opacity=".417"/><stop offset="1" stop-color="#FFF686" stop-opacity="0"/></radialGradient><radialGradient id="paint12_radial_125_3321" cx="0" cy="0" r="1" gradientUnits="userSpaceOnUse" gradientTransform="matrix(2.20245 -3.03215 .71049 .51607 11.64 8.269)"><stop offset=".001" stop-color="#FFED1C" stop-opacity=".6"/><stop offset=".948" stop-color="#FFED1C" stop-opacity=".026"/><stop offset=".991" stop-color="#FFED1C" stop-opacity="0"/></radialGradient><radialGradient id="paint13_radial_125_3321" cx="0" cy="0" r="1" gradientUnits="userSpaceOnUse" gradientTransform="matrix(-.31534 3.2579 -1.43159 -.13857 12.428 5.415)"><stop offset=".001" stop-color="#FFED1C"/><stop offset=".2" stop-color="#FFEE2B" stop-opacity=".801"/><stop offset=".584" stop-color="#FFF254" stop-opacity=".417"/><stop offset="1" stop-color="#FFF686" stop-opacity="0"/></radialGradient><radialGradient id="paint14_radial_125_3321" cx="0" cy="0" r="1" gradientUnits="userSpaceOnUse" gradientTransform="matrix(15.3358 0 0 14.0213 18.652 5.53)"><stop offset=".001" stop-color="#FF4C00"/><stop offset=".135" stop-color="#FF5B0C" stop-opacity=".866"/><stop offset=".394" stop-color="#FF842C" stop-opacity=".607"/><stop offset=".749" stop-color="#FFC45F" stop-opacity=".251"/><stop offset="1" stop-color="#FFF686" stop-opacity="0"/></radialGradient><radialGradient id="paint15_radial_125_3321" cx="0" cy="0" r="1" gradientUnits="userSpaceOnUse" gradientTransform="matrix(8.14001 0 0 7.44229 25.627 16.89)"><stop offset=".001" stop-color="#FFED1C"/><stop offset=".2" stop-color="#FFEE2B" stop-opacity=".801"/><stop offset=".584" stop-color="#FFF254" stop-opacity=".417"/><stop offset="1" stop-color="#FFF686" stop-opacity="0"/></radialGradient><radialGradient id="paint16_radial_125_3321" cx="0" cy="0" r="1" gradientUnits="userSpaceOnUse" gradientTransform="matrix(8.67621 0 0 7.93253 8.964 19.542)"><stop offset=".001" stop-color="#FFED1C"/><stop offset=".2" stop-color="#FFEE2B" stop-opacity=".801"/><stop offset=".584" stop-color="#FFF254" stop-opacity=".417"/><stop offset="1" stop-color="#FFF686" stop-opacity="0"/></radialGradient><radialGradient id="paint17_radial_125_3321" cx="0" cy="0" r="1" gradientUnits="userSpaceOnUse" gradientTransform="matrix(1.00814 13.55657 -9.00544 .6697 17.222 17.938)"><stop stop-color="#FF4C00" stop-opacity="0"/><stop offset=".987" stop-color="#FF4C00" stop-opacity=".989"/><stop offset=".999" stop-color="#FF4C00"/></radialGradient><linearGradient id="paint0_linear_125_3321" x1="18.905" y1="30.464" x2="14.621" y2="-3.488" gradientUnits="userSpaceOnUse"><stop stop-color="red"/><stop offset=".232" stop-color="#FF1500"/><stop offset=".737" stop-color="#FF3D00"/><stop offset=".999" stop-color="#FF4C00"/></linearGradient><linearGradient id="paint1_linear_125_3321" x1="24.891" y1="29.709" x2="20.607" y2="-4.242" gradientUnits="userSpaceOnUse"><stop stop-color="red"/><stop offset=".232" stop-color="#FF1500"/><stop offset=".737" stop-color="#FF3D00"/><stop offset=".999" stop-color="#FF4C00"/></linearGradient><linearGradient id="paint2_linear_125_3321" x1="15.655" y1="30.874" x2="11.371" y2="-3.078" gradientUnits="userSpaceOnUse"><stop stop-color="red"/><stop offset=".232" stop-color="#FF1500"/><stop offset=".737" stop-color="#FF3D00"/><stop offset=".999" stop-color="#FF4C00"/></linearGradient><linearGradient id="paint3_linear_125_3321" x1="18.767" y1="24.699" x2="9.266" y2="-4.982" gradientUnits="userSpaceOnUse"><stop stop-color="#FF8000"/><stop offset=".639" stop-color="#FF5B00"/><stop offset=".999" stop-color="#FF4C00"/></linearGradient><linearGradient id="paint5_linear_125_3321" x1="14.433" y1="5.248" x2="17.824" y2="26.054" gradientUnits="userSpaceOnUse"><stop stop-color="#FF8000"/><stop offset=".023" stop-color="#FE7F02" stop-opacity=".977"/><stop offset=".666" stop-color="#ED582A" stop-opacity=".334"/><stop offset="1" stop-color="#E74939" stop-opacity="0"/></linearGradient><linearGradient id="paint6_linear_125_3321" x1="17.567" y1="27.617" x2="18.297" y2="13.075" gradientUnits="userSpaceOnUse"><stop stop-color="#FFBC47"/><stop offset=".187" stop-color="#FFB137" stop-opacity=".813"/><stop offset=".722" stop-color="#FF940F" stop-opacity=".278"/><stop offset="1" stop-color="#FF8900" stop-opacity="0"/></linearGradient></defs></svg>