<svg width="500" height="500" fill="none" xmlns="http://www.w3.org/2000/svg"><path d="M26.794 362.076h446.415c14.77 0 26.785-11.601 26.785-25.863V43.105c0-14.262-12.015-25.863-26.785-25.863h-73.011C396.501 7.228 386.682 0 375.059 0h-53.57c-11.624 0-21.442 7.228-25.14 17.242h-92.696C199.956 7.228 190.137 0 178.514 0h-53.57c-11.624 0-21.442 7.228-25.14 17.242h-73.01c-14.771 0-26.785 11.6-26.785 25.863v293.108c0 14.262 12.015 25.863 26.785 25.863zM312.56 25.988c.001-.045.026-.081.026-.125 0-.023-.012-.04-.012-.063.036-4.722 4.011-8.558 8.915-8.558h53.57c4.926 0 8.928 3.868 8.928 8.62v8.621H312.56v-8.495zm-187.616-8.746h53.57c4.903 0 8.878 3.836 8.916 8.558 0 .022-.013.04-.013.063 0 .044.025.08.026.125v8.495h-71.426v-8.62c-.002-4.753 4.001-8.621 8.927-8.621zM17.865 43.105c0-4.753 4.003-8.62 8.929-8.62h71.365v8.62c0 4.76 3.993 8.62 8.927 8.62h89.283c4.935 0 8.928-3.86 8.928-8.62v-8.62h89.405v8.62c0 4.76 3.994 8.62 8.928 8.62h89.283c4.935 0 8.928-3.86 8.928-8.62v-8.62h71.365c4.926 0 8.928 3.867 8.928 8.62v293.108c0 4.832-3.924 8.621-8.928 8.621H26.793c-5.004 0-8.927-3.789-8.927-8.621V43.105zm473.209 336.293h-196.06c-.122-.005-.223-.068-.345-.068-.123 0-.224.063-.346.068h-88.644c-.122-.005-.223-.068-.345-.068-.123 0-.224.063-.346.068H8.928c-4.935 0-8.928 3.86-8.928 8.62s3.994 8.621 8.928 8.621h187.477v94.74c0 4.762 3.993 8.621 8.927 8.621 4.935 0 8.928-3.86 8.928-8.621v-94.74h71.48v94.74c0 4.762 3.993 8.621 8.928 8.621 4.935 0 8.927-3.86 8.927-8.621v-94.74h187.477c4.935 0 8.928-3.861 8.928-8.621s-3.991-8.62-8.926-8.62z" fill="#163BA4"/><path d="M307.563 153.734c6.278 0 11.373-4.92 11.373-10.981 0-6.062-5.095-10.981-11.373-10.981h-90.981c-6.278 0-11.373 4.92-11.373 10.982v131.772c0 6.062 5.095 10.982 11.373 10.982h90.981c6.278 0 11.373-4.92 11.373-10.982 0-6.061-5.095-10.981-11.373-10.981h-79.609V219.62h56.863c6.278 0 11.373-4.92 11.373-10.981 0-6.062-5.094-10.98-11.372-10.98h-56.863v-43.925h79.608zM171.091 263.545H91.482V142.754c0-6.062-5.095-10.982-11.373-10.982s-11.372 4.92-11.372 10.982v131.772c0 6.062 5.095 10.982 11.373 10.982h90.981c6.278 0 11.373-4.92 11.373-10.982 0-6.061-5.095-10.981-11.373-10.981zm204.708-131.773h-22.745c-6.278 0-11.373 4.92-11.373 10.982v131.772c0 6.062 5.095 10.982 11.373 10.982h22.745c43.898 0 79.609-34.481 79.609-76.868 0-42.388-35.711-76.868-79.609-76.868zm0 131.773h-11.373V153.734h11.373c31.366 0 56.863 24.62 56.863 54.905s-25.497 54.906-56.863 54.906z" fill="#163BA4"/></svg>