<svg width="88" height="76" fill="none" xmlns="http://www.w3.org/2000/svg"><path d="M19.095 50.5v18.75h62.5V25.5h-12.5v-6.25h14.743c1.394 0 1.9.144 2.407.419.505.265.92.677 1.187 1.181.269.506.413 1.012.413 2.406v48.238c0 1.394-.144 1.9-.42 2.406-.264.506-.676.92-1.18 1.188-.507.268-1.013.412-2.407.412H16.851c-1.394 0-1.9-.144-2.406-.419a2.837 2.837 0 01-1.188-1.181c-.262-.506-.412-1.013-.412-2.4v-21h6.25z" fill="#163BA4"/><path d="M69.095 6.75h-62.5V50.5h62.5V6.75zm6.25-2.244v48.238c0 1.394-.144 1.9-.42 2.406-.264.506-.676.92-1.18 1.188-.507.268-1.013.412-2.407.412H4.351c-1.394 0-1.9-.144-2.406-.419A2.837 2.837 0 01.757 55.15c-.262-.506-.412-1.012-.412-2.4V4.506c0-1.394.143-1.9.418-2.406.266-.506.677-.92 1.182-1.188C2.45.65 2.957.5 4.345.5h66.987c1.394 0 1.9.144 2.406.419.506.265.92.677 1.188 1.181.269.506.412 1.012.412 2.406h.007z" fill="#163BA4"/><path d="M37.845 44.25a15.625 15.625 0 110-31.25 15.625 15.625 0 010 31.25zm0-6.25a9.375 9.375 0 100-18.75 9.375 9.375 0 000 18.75z" fill="#163BA4"/></svg>