<svg width="89" height="89" fill="none" xmlns="http://www.w3.org/2000/svg"><path fill-rule="evenodd" clip-rule="evenodd" d="M30.983 11.421C28.184 9.358 26.3 8.892 25.29 9.09c-4.172.814-6.645 2.438-9.996 5.788-4.573 4.574-6.792 7.989-5.826 13.166 1.113 5.961 6.55 15.06 21.533 30.043C45.982 73.07 55.135 78.563 61.13 79.7c2.777.526 4.893.115 6.791-.82 2.03-1 3.984-2.682 6.225-5.022 1.988-2.074 3.194-3.522 4.039-4.947.804-1.357 1.374-2.857 1.814-5.11.198-1.012-.268-2.897-2.331-5.696-1.925-2.61-4.64-5.203-7.15-7.319-1.656-1.397-4.219-1.486-6.289.064l-6.326 4.736c-5.707 4.272-13.68 3.66-18.715-1.375L34.876 49.9c-5.034-5.035-5.646-13.009-1.374-18.715l4.735-6.326c1.55-2.07 1.46-4.633.064-6.29-2.116-2.509-4.708-5.223-7.318-7.147zm4.945-6.708c3.372 2.487 6.452 5.765 8.744 8.484 4.178 4.955 3.838 11.844.237 16.655l-4.736 6.326c-1.765 2.357-1.536 5.696.596 7.828l4.311 4.312c2.133 2.132 5.472 2.36 7.829.596l6.326-4.736c4.81-3.6 11.7-3.942 16.655.236 2.719 2.292 5.998 5.372 8.485 8.745 2.347 3.185 4.71 7.595 3.803 12.238-.583 2.981-1.438 5.422-2.824 7.761-1.347 2.273-3.096 4.279-5.19 6.465-2.428 2.534-5.196 5.075-8.56 6.732-3.496 1.721-7.447 2.4-12.026 1.532-8.721-1.653-19.45-8.887-34.47-23.907C10.086 48.96 2.9 38.277 1.274 29.573-.496 20.086 4.433 13.953 9.4 8.986 13.503 4.883 17.393 2.14 23.692.91c4.643-.906 9.052 1.455 12.236 3.802z" fill="#163BA4"/></svg>