<svg width="74" height="100" fill="none" xmlns="http://www.w3.org/2000/svg"><path d="M39.765 27.858c.837-7.083 2.696-14.251 5.544-21.341a2.064 2.064 0 10-3.831-1.54 94.415 94.415 0 00-2.147 5.907c-.746-2.088-1.884-4.172-3.608-5.896C29.924-.811 20.06.024 19.643.062a2.064 2.064 0 00-1.866 1.867c-.039.417-.873 10.28 4.925 16.08 4.094 4.093 10.213 4.88 13.604 4.975a81.097 81.097 0 00-.69 4.798c-19.279.73-34.74 16.64-34.74 36.095C.876 83.795 17.081 100 37 100c19.919 0 36.123-16.205 36.123-36.124 0-18.988-14.726-34.601-33.358-36.018zM28.835 14.04l4.545 4.544c-2.575-.403-5.611-1.348-7.758-3.495-3.144-3.144-3.707-8.246-3.768-10.955 2.705.055 7.79.613 10.95 3.773 2.134 2.133 3.078 5.169 3.484 7.747l-4.533-4.534a2.065 2.065 0 00-2.92 2.92zm-3.103 19.892c-1.143 1.41-2.21 3.047-3.183 4.903a40.448 40.448 0 00-2.12 4.814 32.124 32.124 0 01-5.066-3.32 32.054 32.054 0 0110.369-6.397zm-13.23 9.39a36.278 36.278 0 006.658 4.317c-1.192 4.37-1.891 9.178-2.042 14.173H5.074a31.848 31.848 0 017.428-18.49zM5.074 65.94h12.044c.151 4.994.85 9.801 2.041 14.172a36.274 36.274 0 00-6.658 4.317 31.848 31.848 0 01-7.427-18.49zm10.288 21.482a32.12 32.12 0 015.067-3.32 40.427 40.427 0 002.12 4.815c.973 1.855 2.04 3.492 3.183 4.902a32.057 32.057 0 01-10.37-6.397zm19.574 8.16c-4.353-1.211-8.208-6.183-10.715-13.191 3.357-1.272 6.968-2.032 10.715-2.236v15.427zm0-19.56c-4.162.204-8.18 1.025-11.928 2.414-.99-3.811-1.611-8.047-1.759-12.497h13.687v10.082zm0-14.211H21.249c.148-4.45.768-8.686 1.759-12.497 3.747 1.39 7.766 2.21 11.928 2.415v10.082zm0-14.216c-3.747-.204-7.358-.964-10.715-2.236 2.507-7.008 6.362-11.98 10.715-13.191v15.427zm33.99 14.216H56.883c-.151-4.995-.85-9.802-2.042-14.173a36.28 36.28 0 006.658-4.318 31.848 31.848 0 017.429 18.49zm-10.29-21.483a32.113 32.113 0 01-5.065 3.32 40.39 40.39 0 00-2.12-4.814c-.973-1.856-2.04-3.493-3.183-4.903a32.054 32.054 0 0110.369 6.397zm-5.85 23.547c0 5.204-.651 10.165-1.793 14.56a39.927 39.927 0 00-11.928-2.413V51.73c4.162-.204 8.18-1.025 11.928-2.415 1.142 4.396 1.793 9.357 1.793 14.561zM39.064 32.17c4.353 1.212 8.208 6.183 10.715 13.192a35.756 35.756 0 01-10.715 2.235V32.17zm0 63.414V80.156c3.748.204 7.359.965 10.716 2.235-2.507 7.009-6.363 11.98-10.715 13.192zm9.205-1.763c1.142-1.41 2.21-3.047 3.182-4.902a40.427 40.427 0 002.12-4.816 32.108 32.108 0 015.067 3.32 32.05 32.05 0 01-10.37 6.398zm13.23-9.39a36.26 36.26 0 00-6.658-4.317c1.191-4.371 1.89-9.178 2.041-14.173h12.045a31.85 31.85 0 01-7.428 18.49z" fill="#163BA4"/><path d="M45.708 61.812H45.5a2.064 2.064 0 000 4.128h.207a2.064 2.064 0 000-4.128z" fill="#163BA4"/></svg>