<svg width="683" height="385" fill="none" xmlns="http://www.w3.org/2000/svg"><path d="M333.734 3.267c-1.467 1.733-14.533 28.666-29.067 60-25.6 55.466-26.266 56.8-30.4 57.6-2.4.4-28 4.4-56.933 8.8s-54.933 8.533-57.6 9.333c-5.867 1.733-9.733 7.6-8.4 12.933.4 1.867 17.067 20.134 36.933 40.8 20 20.667 39.734 41.2 43.867 45.6l7.733 8-5.466 34c-2.934 18.667-5.6 34.267-5.867 34.534-.267.266-12.667-5.334-27.467-12.534-14.8-7.2-28.533-13.066-30.4-13.066-1.866 0-21.066 7.866-42.666 17.333-21.6 9.6-39.467 17.333-39.6 17.2-.134-.133 2.666-18.533 6.266-40.8 3.6-22.4 6.667-42.933 6.667-45.6 0-4.533-2-7.067-33.333-39.867-18.4-19.2-32.934-35.466-32.4-35.866.666-.534 21.2-4 45.733-7.867 39.333-6.133 44.933-7.2 47.467-9.867 1.466-1.6 11.466-22 22-45.2 10.533-23.333 19.466-42.266 19.866-42.4.4 0 3.334 6.134 6.667 13.467 3.333 7.467 7.2 14.4 8.667 15.333 3.733 2.667 9.066 2.267 13.2-.933 5.733-4.533 4.8-9.2-8.134-37.467-10.4-22.533-12.266-25.6-16-27.466-4-1.867-4.8-1.867-8.666 0-4 1.866-6.4 6.4-28.4 54.4-13.2 28.8-24.534 52.533-25.334 52.8-.666.266-24.666 4.133-53.333 8.533-30.4 4.8-53.2 8.933-54.933 10.133C.934 147.267-.666 152.2.534 156.6c.4 1.733 18.133 21.333 39.467 43.6 21.2 22.267 38.666 41.2 38.666 42 0 .933-3.6 24.133-8 51.467-4.4 27.466-7.6 50.933-7.2 52.266.934 3.2 6.934 7.734 10.134 7.734 1.466 0 23.866-9.334 49.866-20.8l47.067-20.934 27.2 13.467 27.333 13.333-1.866 11.067c-1.067 6.133-2.267 14.933-2.8 19.6-.667 7.467-.534 8.667 2.266 11.6 6 6.4 7.867 5.6 65.334-26.533l53.333-29.867 53.333 29.867c57.067 32 59.334 32.933 65.067 26.8 3.6-3.867 3.6-7.6.267-28.267-1.467-8.667-2.267-16.267-1.6-16.8.533-.533 12.666-6.133 26.933-12.533l26.133-11.467 48.534 27.333c26.666 15.067 49.6 27.467 50.8 27.467 4.266 0 10.533-6.533 10.533-10.8 0-2.267-3.867-28.4-8.667-58.267-4.8-29.733-8.666-54.8-8.666-55.733 0-.8 17.466-19.733 38.666-42 21.334-22.267 39.067-41.867 39.467-43.6 1.2-4.4-.4-9.333-3.867-11.467-1.733-1.2-25.6-5.6-56.133-10.4l-53.333-8.4L544.667 73.8c-22-48.133-24.533-52.8-28.4-54.533-3.866-1.867-4.666-1.867-8.666 0-3.867 1.866-5.6 4.933-16 27.6-12.8 28.133-13.867 32.8-8.134 37.333 4.134 3.2 9.467 3.6 13.334.933 1.466-1.066 5.333-8 8.533-15.333 3.333-7.467 6.267-13.467 6.667-13.467.4 0 9.333 19.067 19.866 42.4 10.534 23.2 20.534 43.6 22 45.2 2.534 2.667 8.134 3.734 47.467 9.867 24.533 3.867 45.067 7.333 45.733 7.867.534.4-14 16.533-32.4 35.866-30.133 31.467-33.333 35.334-33.333 39.334 0 2.533 3.333 25.066 7.333 50.266s7.067 46 6.667 46.267c-.267.267-18.267-9.467-40-21.867-23.867-13.466-40.933-22.266-43.067-22.266-2 0-15.866 5.466-30.933 12.133-15.067 6.533-27.467 11.6-27.733 11.067-.134-.534-2.667-15.6-5.6-33.6l-5.2-32.534 7.6-8c66.533-68.8 80.266-83.6 80.933-86.4 1.333-5.333-2.533-11.2-8.4-12.933-3.733-1.067-114.933-18.667-118-18.667-.267 0-12.4-25.6-26.933-57.066-14.534-31.334-27.6-58.267-29.067-60-1.867-2-4.267-2.934-7.6-2.934-3.333 0-5.733.934-7.6 2.934zm30.8 83.466c12.4 26.934 23.467 50 24.8 51.334 1.867 2 12.533 4.133 54.8 10.533 28.933 4.4 52.8 8.267 53.067 8.533.266.267-16.667 18.267-37.734 40-20.933 21.734-38.533 40.934-38.933 42.534-.4 1.466 3.2 27.333 8.133 57.333 4.8 29.867 8.4 54.667 8.134 54.933-.267.267-20.934-10.933-45.867-24.8-32.4-18.266-46.533-25.466-49.6-25.466s-17.067 7.2-49.6 25.466c-24.933 14-45.6 25.2-45.867 24.8-.266-.266 3.334-25.066 8.134-54.933 4.933-30 8.533-55.867 8.133-57.333-.4-1.6-18-20.8-38.933-42.534-21.067-21.733-38-39.733-37.734-40 .267-.266 24.134-4.133 53.067-8.533 42.267-6.4 52.933-8.533 54.8-10.533 1.333-1.334 12.4-24.4 24.8-51.334 12.4-26.933 22.8-48.933 23.2-48.933.4 0 10.8 22 23.2 48.933z" fill="#163BA4"/><path d="M201.866 96.867c-7.6 3.333-8 12.533-1.333 22.8 4.933 7.6 15.467 6.666 18.933-1.6 1.734-4 1.6-5.067-.933-10.934-4.4-10.4-9.333-13.333-16.667-10.266zm268.669.667c-2 1.466-4.8 5.733-6.4 9.333-2.534 6.133-2.667 7.2-.934 11.2 2.4 5.733 8.667 8.4 14 5.867 4.534-2.134 11.2-15.067 10.134-19.6-1.867-7.867-10.934-11.467-16.8-6.8z" fill="#163BA4"/></svg>