<svg width="100" height="92" fill="none" xmlns="http://www.w3.org/2000/svg"><mask id="a" style="mask-type:luminance" maskUnits="userSpaceOnUse" x="0" y="0" width="100" height="92"><path d="M99.862.735H.24v90.637h99.622V.735z" fill="#fff"/></mask><g mask="url(#a)" fill="#163BA4"><path d="M23.134 83.205c-.586 2.113-.913 2.71-1.502 4.666a3.384 3.384 0 01-2.836 2.534c-3.829.563-7.662 1.231-11.556.68-3.572-.508-5.853-2.75-6.032-6.354-.304-6.139-.411-12.287-.57-18.432-.046-1.803-.07-3.613.043-5.41.23-3.651 1.942-5.596 5.587-5.844 3.994-.273 8.014-.207 12.022-.212 1.575-.002 2.549 1.05 3.243 2.346.343.64.586 1.332.857 1.954 2.495-.352 4.908-.796 7.341-1.013 4.45-.397 8.834.078 12.98 1.803 4.825 2.01 9.803 2.44 14.941 1.948a15.564 15.564 0 013.79.123c4.112.625 6.089 3.678 5.061 7.68-.082.32-.204.625-.427 1.3 1.443-.106 2.72-.154 3.988-.297 5.428-.615 10.49-2.55 15.588-4.36 2.263-.804 4.504-1.697 6.816-2.33 1.356-.347 2.76-.47 4.155-.366 2.473.156 3.625 1.953 2.992 4.33-.519 1.954-1.712 3.444-3.173 4.766-4.234 3.83-9.194 6.385-14.541 8.252-7.527 2.629-15.216 4.598-23.148 5.517-10.52 1.282-21.339 1.294-31.362-2.146-1.43-.496-2.919-.699-4.257-1.135zm.074-3.79c2.422.64 4.667 1.242 6.915 1.822 7.03 1.81 14.176 2.838 21.428 2.35 10.821-.73 21.191-3.522 31.246-7.508a35.453 35.453 0 0010.57-6.42 24.153 24.153 0 001.913-2.135l-.334-.503c-1.44.427-2.896.804-4.315 1.29-4.925 1.685-9.8 3.522-14.764 5.083-3.918 1.231-7.959 1.737-12.072.846a2.788 2.788 0 00-1.71.266c-5.225 2.653-10.867 3.131-16.575 3.162a14.79 14.79 0 01-3.912-.719 1.494 1.494 0 01-.97-.69 1.496 1.496 0 01-.163-1.179c.2-.672.632-1.252 1.22-1.634a5.693 5.693 0 012.32-.535c2.198-.175 4.403-.274 6.605-.396 3.086-.173 6.142-.575 8.967-1.879a9.023 9.023 0 003.006-2.218c1.023-1.193.478-2.365-1.094-2.524a23.222 23.222 0 00-3.801.043c-5.196.334-10.283-.024-15.13-2.15a25.794 25.794 0 00-2.821-1.03 26.38 26.38 0 00-14.828-.267c-1.892.508-1.875.59-1.775 2.489.16 3.07.37 6.138.427 9.21.03 1.656-.215 3.317-.354 5.228l.001-.001zm-5.567-20.81c-3.203 0-6.263-.03-9.323.008-2.74.035-3.424.733-3.484 3.468-.153 7.01-.381 14.02-.39 21.029-.004 2.969 1.47 3.937 3.578 3.78a186.78 186.78 0 008.369-.797c1.468-.177 1.726-.632 1.7-2.173a29.177 29.177 0 01-.01-3.802c.742-6.478.218-12.944-.104-19.412a20.468 20.468 0 00-.337-2.102h.001zM57.064 24.8c4.272 2.924 5.854 7.243 6.33 12.165.836 8.624-4.282 13.997-10.284 16.292-4.945 1.891-10.017 2.852-15.279 1.307-6.102-1.791-9.7-6.686-9.925-13.03-.281-7.925 4.47-15.147 12.26-18.33 4.743-1.936 13.957-.415 16.898 1.597zM42.56 50.94c2.584.307 7.285-.803 9.611-1.826 4.292-1.888 7.437-5.362 6.706-11.707-.61-5.292-3.296-9.324-8.42-10.385-2.674-.554-7.897-.802-10.554.325-5.803 2.462-8.056 8.283-7.753 14.644.296 6.22 6.564 8.49 10.41 8.949z"/><path d="M11.157 67.252c-1.74.021-2.96-1.096-3.023-2.764-.07-1.912 1.437-3.588 3.238-3.6 2.09-.011 3.705 1.212 3.719 2.814.014 1.729-1.98 3.526-3.934 3.55zm35.4-34.195v4.745c.692.261 1.34.476 1.963.745 2.454 1.055 3.058 3.362 1.449 5.483-.664.873-1.186 1.227-3.14 2.124-.185.938-.37 1.861-.548 2.787-.098.515-.344.915-.907.927-.594.015-.802-.468-.908-.935-.199-.876-.334-1.765-.514-2.75-.719-.193-1.501-.396-2.28-.612a7.069 7.069 0 01-1.103-.358 1.332 1.332 0 01-.863-1.557c.127-.621.66-1.014 1.482-.96.895.058 1.784.21 2.653.319.363-1.001.405-1.597.246-3.3-.605-.228-1.26-.428-1.875-.713-2.494-1.15-3.044-3.641-1.276-5.748a6.581 6.581 0 012.784-2.044 1.298 1.298 0 00.958-1.34c.006-.473.109-.94.302-1.37a1.008 1.008 0 01.793-.488 1.02 1.02 0 01.683.638 9.5 9.5 0 01.176 1.674c.594.135 1.18.3 1.758.496.921.363 1.357 1.078 1.245 1.892-.1.72-.492.964-1.164.668-.588-.258-1.136-.641-1.914-.323zm-2.274.94c-1.262.75-1.908 1.546-1.674 2.14.278.709.925.887 1.674.985v-3.124zm2.36 8.894c.838-.31 1.607-.68 1.582-1.53-.022-.712-.807-.859-1.446-.955-.037-.006-.078.027-.24.088 0 .496-.01 1.039.004 1.582.006.237.056.474.1.815zm31.862-31.458v4.746c.692.26 1.338.476 1.962.742 2.455 1.055 3.058 3.362 1.45 5.483-.665.874-1.187 1.227-3.141 2.125-.185.938-.37 1.47-.547 2.395-.098.516-.345.915-.907.928-.594.014-.803-.468-.909-.935-.198-.876-.334-1.375-.514-2.36-.718-.192-1.5-.395-2.28-.612a7.116 7.116 0 01-1.103-.358 1.334 1.334 0 01-.862-1.557c.126-.62.66-1.013 1.48-.96.897.058 1.785.21 2.655.32.362-1.002.404-1.598.246-3.302-.605-.227-1.26-.427-1.877-.711-2.495-1.15-3.043-3.642-1.277-5.748a6.585 6.585 0 012.785-2.045 1.298 1.298 0 00.958-1.34c.005-.472.109-.939.302-1.37a1.009 1.009 0 01.793-.488 1.022 1.022 0 01.683.638c.107.552.167 1.112.176 1.674.594.135 1.18.301 1.758.497.92.362 1.357 1.077 1.245 1.89-.1.722-.492.965-1.164.67-.586-.257-1.135-.64-1.912-.322zm-2.274.94c-1.263.75-1.908 1.547-1.675 2.14.278.709.925.888 1.675.985v-3.124zm2.359 8.895c.838-.31 1.607-.68 1.582-1.53-.021-.713-.807-.86-1.445-.956-.037-.005-.079.028-.241.088 0 .496-.009 1.04.004 1.582.006.238.057.474.1.816z"/><path d="M88.59 3.235c4.273 2.923 5.855 7.242 6.332 12.165.835 8.624-4.283 13.997-10.285 16.291-4.944 1.891-10.016 2.852-15.278 1.307-6.102-1.791-9.7-6.686-9.925-13.03-.282-7.925 4.47-15.146 12.26-18.33C76.437-.296 85.65 1.225 88.59 3.235zM74.089 29.374c2.584.308 7.284-.802 9.611-1.825 4.292-1.888 7.436-5.363 6.706-11.708-.61-5.291-3.296-9.323-8.42-10.384-2.674-.554-7.897-.802-10.554.325-5.803 2.462-8.056 8.283-7.753 14.644.295 6.221 6.563 8.49 10.41 8.95v-.003z"/></g></svg>