<svg width="121" height="100" fill="none" xmlns="http://www.w3.org/2000/svg"><path d="M107.324 39.007c4.323 2.06 7.828 5.118 10.088 8.8 2.26 3.68 3.177 7.826 2.639 11.932-.538 4.105-2.507 7.992-5.667 11.187-3.161 3.194-7.376 5.559-12.132 6.805-1.681 6.314-5.916 11.964-12.005 16.013-6.089 4.05-13.666 6.257-21.477 6.256H55.92c-1.136 0-2.226-.374-3.03-1.039-.803-.665-1.254-1.567-1.254-2.507 0-.94.451-1.843 1.255-2.508.803-.665 1.893-1.038 3.029-1.038h12.85c5.317.001 10.504-1.362 14.847-3.903 4.342-2.54 7.626-6.132 9.4-10.282h-2.828c-1.136 0-2.226-.373-3.029-1.038-.803-.665-1.255-1.567-1.255-2.508v-35.46c0-.941.452-1.843 1.255-2.508.803-.665 1.893-1.039 3.03-1.039h4.283c1.388 0 2.75.092 4.087.27-.965-7.866-5.422-15.156-12.508-20.457-7.087-5.3-16.298-8.236-25.85-8.236-9.55 0-18.762 2.935-25.848 8.236-7.087 5.301-11.544 12.59-12.508 20.457a31.14 31.14 0 014.086-.27h4.284c1.136 0 2.226.374 3.03 1.039.802.665 1.254 1.567 1.254 2.507v35.461c0 .94-.452 1.843-1.255 2.508-.803.665-1.893 1.038-3.029 1.038h-4.284c-5.663.006-11.17-1.538-15.665-4.39-4.494-2.852-7.726-6.853-9.19-11.381-1.466-4.529-1.084-9.33 1.087-13.66 2.171-4.33 6.009-7.946 10.917-10.285 0-10.345 4.965-20.267 13.802-27.582C35.72 4.11 47.704 0 60.203 0 72.7 0 84.686 4.11 93.523 11.425s13.801 17.237 13.801 27.582zm-81.392 4.255c-4.544 0-8.903 1.495-12.116 4.155-3.214 2.66-5.019 6.268-5.019 10.03 0 3.762 1.805 7.37 5.019 10.03 3.213 2.66 7.572 4.154 12.116 4.154V43.262zm85.676 14.185c0-3.762-1.805-7.37-5.019-10.03-3.213-2.66-7.572-4.155-12.116-4.155v28.37c4.544 0 8.903-1.495 12.116-4.155 3.214-2.66 5.019-6.268 5.019-10.03z" fill="#163BA4"/></svg>