<svg xmlns="http://www.w3.org/2000/svg" width="355.2" height="161.2"><path fill="#DB1F30" d="M146.7 0L0 24.2V137l146.7 24.2z"/><path fill="#FFF" d="M92.3 86.1C89.7 93.3 82.2 98.8 74 98.8c-10.3 0-19.3-8.5-19.3-18.2s9-18.2 19.3-18.2c8.3 0 15.7 5.5 18.3 12.7l28.4-4.7c-2-8.7-6.6-16.6-13.3-23.1-9.1-8.7-21-13.5-33.4-13.5s-24.3 4.8-33.4 13.5C31.2 56.2 26 68.1 26 80.6c0 12.5 5.2 24.4 14.5 33.3 9.1 8.7 21 13.5 33.4 13.5s24.3-4.8 33.4-13.5c6.8-6.5 11.3-14.4 13.3-23.1l-28.3-4.7z"/><path d="M210.4 83.9c-1.6 4.3-6 7.5-10.9 7.5-6.1 0-11.5-5.1-11.5-10.8 0-5.8 5.4-10.8 11.5-10.8 4.9 0 9.4 3.3 10.9 7.5l16.9-2.8c-1.2-5.2-3.9-9.9-7.9-13.8-5.4-5.2-12.5-8-19.9-8s-14.5 2.8-19.9 8C174 66 171 73.1 171 80.5c0 7.5 3.1 14.5 8.6 19.8 5.4 5.2 12.5 8 19.9 8 7.4 0 14.5-2.8 19.9-8 4-3.8 6.7-8.6 7.9-13.8l-16.9-2.6zm84.9-29.8h-64.6l1.7 17h22.1v36h17v-36h22.1zm50.8 19.7c1.2-2 1.9-4.2 1.9-6.7 0-7.2-5.8-13-13-13h-32.2v53.1h34.6c9.8 0 17.8-8 17.8-17.8 0-6.8-3.7-12.6-9.1-15.6zm-26.3-8.1h10.1c2 0 3.5 1.6 3.5 3.5 0 2-1.6 3.5-3.5 3.5h-10.1v-7zm13 28.6h-13v-9.9h13c2.7 0 4.9 2.2 4.9 4.9.1 2.8-2.2 5-4.9 5z" fill="#878A8C"/></svg>