<svg width="68" height="68" fill="none" xmlns="http://www.w3.org/2000/svg"><path d="M2.695 56.653a6.25 6.25 0 008.833 8.833l20.5-20.5-8.833-8.833-20.5 20.5zm51.222-37.986l8.93-4.625 4.681-9.028L63.167.653l-9.028 4.68-4.625 8.917-10.86 10.875 4.402 4.417 10.861-10.875z" fill="#163BA4"/><path d="M55.875 42.333h-.847c-1.476.009-2.94.282-4.32.806l-25.61-25.68a12.36 12.36 0 00.764-4.292l-.084-.834A12.361 12.361 0 008.07 1.903l8.333 8.333c.419.427.741.938.945 1.5a4.166 4.166 0 01-3.986 5.597 4.055 4.055 0 01-1.39-.291 4.376 4.376 0 01-1.5-.93L2.14 7.777a12.361 12.361 0 0010.403 17.75l.82.139a12.362 12.362 0 004.319-.806l25.68 25.583a12.361 12.361 0 00-.833 4.39l.084.833A12.5 12.5 0 0055.028 67.25 12.113 12.113 0 0060.375 66l-8.333-8.333a4.276 4.276 0 01-.889-1.445 4.167 4.167 0 013.875-5.555c.477.015.947.113 1.39.291a3.78 3.78 0 011.5.93l8.332 8.334a12.361 12.361 0 00-10.375-17.889z" fill="#163BA4"/></svg>