<svg width="1317" height="737" fill="none" xmlns="http://www.w3.org/2000/svg"><path d="M461.334 317.514L275.503 513.42c-5.027 5.299-5.027 13.892 0 19.193 2.514 2.651 5.808 3.975 9.102 3.975 3.295 0 6.59-1.324 9.103-3.975l185.831-195.906c5.027-5.299 5.027-13.892 0-19.193-5.028-5.301-13.177-5.301-18.205 0zm83.3-68.622c-5.028-5.3-13.177-5.3-18.206 0l-23.097 24.349c-5.027 5.299-5.027 13.893 0 19.194 2.514 2.65 5.808 3.975 9.102 3.975 3.295 0 6.589-1.325 9.103-3.975l23.097-24.35c5.028-5.301 5.028-13.894.001-19.193z" fill="#163BA4"/><path d="M631.003 624.107h-57.164c-31.79 0-57.654-27.266-57.654-60.779v-36.683c46.057-6.643 81.664-48.365 81.664-98.714 0-30.265-13.061-58.57-34.912-77.314l80.388-84.748c2.414-2.545 3.771-5.997 3.771-9.596s-1.357-7.052-3.771-9.596L465.891 59.626c-5.028-5.3-13.177-5.3-18.207 0L99.12 427.088c-5.027 5.3-5.027 13.893 0 19.193l38.144 40.211-37.622 39.66-50.454 1.004c-3.328.067-6.504 1.489-8.858 3.971l-2.096 2.208-.007.007L4.63 568.76c-5.027 5.3-5.027 13.893 0 19.194l137.536 144.992c2.514 2.651 5.808 3.975 9.102 3.975 3.295 0 6.59-1.324 9.103-3.975l33.597-35.418 2.099-2.213c2.355-2.484 3.705-5.83 3.768-9.34l.953-53.19 37.62-39.662 38.144 40.211c2.413 2.545 5.688 3.975 9.102 3.975 3.414 0 6.689-1.43 9.103-3.975L429.971 490.79c15.092 19.552 36.716 32.427 60.465 35.874v36.666c0 48.48 37.414 87.922 83.401 87.922h57.166c7.108 0 12.873-6.076 12.873-13.571s-5.765-13.574-12.873-13.574zm-479.735 80.051l-119.33-125.8 15.39-16.226 119.332 125.8-15.392 16.226zm27.644-86.697c-2.354 2.483-3.705 5.831-3.768 9.34l-.557 31.102-98.775-104.13 29.503-.587c3.329-.067 6.505-1.49 8.859-3.972l41.292-43.531 64.737 68.246-41.291 43.532zm106.744-12.917L126.428 436.685l330.36-348.27 159.226 167.858-330.358 348.271zm217.655-104.093c-21.788 0-42.111-10.897-55.007-28.986l96.301-101.525c17.159 13.597 27.496 35.022 27.496 57.991 0 39.988-30.859 72.52-68.79 72.52z" fill="#163BA4"/><path d="M1216.38 554.401c0 4.217-3.18 7.296-6.71 7.296-3.52 0-6.71-3.079-6.71-7.294V27.318c0-4.906-3.81-9.226-8.91-9.226H782.343c-5.102 0-8.916 4.323-8.916 9.226v682.364c0 4.906 3.817 9.226 8.916 9.226h411.707c5.1 0 8.91-4.323 8.91-9.226V604.784c0-4.217 3.19-7.296 6.72-7.296 3.52 0 6.71 3.079 6.71 7.296v104.898c0 13.316-10.21 23.818-22.34 23.818H782.344c-12.132 0-22.338-10.502-22.338-23.818V27.318c0-13.316 10.206-23.818 22.337-23.818h411.707c12.13 0 22.33 10.502 22.33 23.818V554.4z" fill="#163BA4" stroke="#163BA4" stroke-width="7"/><path d="M1035.88 80.394h0c2.18-3.435 1.24-8.044-1.87-10.246h0c-13.6-9.619-29.43-14.688-45.817-14.688-45.375 0-82.623 39.094-82.623 87.554 0 48.461 37.248 87.555 82.623 87.555 45.377 0 82.627-39.094 82.627-87.555 0-10.127-1.62-20.046-4.81-29.491l-30.13-33.129zm0 0c-2.1 3.328-6.19 4.1-9.18 1.983h0c-11.39-8.056-24.71-12.327-38.507-12.327-38.342 0-69.2 32.915-69.2 72.962 0 40.051 30.859 72.964 69.2 72.964 48.057 0 81.107-50.369 65.217-97.434h0c-1.34-3.958.68-8.111 4.1-9.403v-.001m-21.63-28.744l21.63 28.744m0 0c3.31-1.253 7.19.5 8.5 4.384l-8.5-4.384z" fill="#163BA4" stroke="#163BA4" stroke-width="7"/><path d="M945.049 143.013c0-25.447 19.54-45.819 43.149-45.819 23.602 0 43.142 20.372 43.142 45.819 0 25.449-19.54 45.82-43.142 45.82-23.609 0-43.149-20.372-43.149-45.82zm13.422-.002c0 17.036 13.152 31.228 29.727 31.228 16.572 0 29.722-14.193 29.722-31.228 0-17.035-13.15-31.226-29.722-31.226-16.575 0-29.727 14.191-29.727 31.226z" fill="#163BA4" stroke="#163BA4" stroke-width="7"/><path d="M994.905 143.015c0 4.215-3.186 7.296-6.711 7.296-3.526 0-6.712-3.081-6.712-7.296 0-4.216 3.186-7.296 6.712-7.296 3.525 0 6.711 3.08 6.711 7.296zM810.87 50.38c0 4.215-3.186 7.296-6.712 7.296-3.525 0-6.711-3.08-6.711-7.296s3.186-7.296 6.711-7.296c3.526 0 6.712 3.08 6.712 7.296zm55.445 329.222c0 4.215-3.186 7.295-6.711 7.295-3.526 0-6.711-3.08-6.711-7.295 0-4.216 3.185-7.296 6.711-7.296 3.525 0 6.711 3.08 6.711 7.296zm0 35.986c0 4.215-3.186 7.296-6.711 7.296-3.526 0-6.711-3.081-6.711-7.296 0-4.216 3.185-7.296 6.711-7.296 3.525 0 6.711 3.08 6.711 7.296zm0 35.987c0 4.216-3.186 7.296-6.711 7.296-3.526 0-6.711-3.08-6.711-7.296 0-4.215 3.185-7.296 6.711-7.296 3.525 0 6.711 3.081 6.711 7.296zm51.439-71.973c0 4.215-3.185 7.295-6.711 7.295-3.525 0-6.711-3.08-6.711-7.295 0-4.216 3.186-7.296 6.711-7.296 3.526 0 6.711 3.08 6.711 7.296zm0 35.986c0 4.215-3.185 7.296-6.711 7.296-3.525 0-6.711-3.081-6.711-7.296 0-4.216 3.186-7.296 6.711-7.296 3.526 0 6.711 3.08 6.711 7.296zm0 35.987c0 4.216-3.185 7.296-6.711 7.296-3.525 0-6.711-3.08-6.711-7.296 0-4.215 3.186-7.296 6.711-7.296 3.526 0 6.711 3.081 6.711 7.296zm51.434-71.973c0 4.215-3.186 7.295-6.711 7.295-3.526 0-6.711-3.08-6.711-7.295 0-4.216 3.185-7.296 6.711-7.296 3.525 0 6.711 3.08 6.711 7.296zm0 35.986c0 4.215-3.186 7.296-6.711 7.296-3.526 0-6.711-3.081-6.711-7.296 0-4.216 3.185-7.296 6.711-7.296 3.525 0 6.711 3.08 6.711 7.296zm0 35.987c0 4.216-3.186 7.296-6.711 7.296-3.526 0-6.711-3.08-6.711-7.296 0-4.215 3.185-7.296 6.711-7.296 3.525 0 6.711 3.081 6.711 7.296zm51.432-71.973c0 4.215-3.18 7.295-6.71 7.295-3.52 0-6.71-3.08-6.71-7.295 0-4.216 3.19-7.296 6.71-7.296 3.53 0 6.71 3.08 6.71 7.296zm0 35.986c0 4.215-3.18 7.296-6.71 7.296-3.52 0-6.71-3.081-6.71-7.296 0-4.216 3.19-7.296 6.71-7.296 3.53 0 6.71 3.08 6.71 7.296zm0 35.987c0 4.216-3.18 7.296-6.71 7.296-3.52 0-6.71-3.08-6.71-7.296 0-4.215 3.19-7.296 6.71-7.296 3.53 0 6.71 3.081 6.71 7.296zm51.44-71.973c0 4.215-3.19 7.295-6.71 7.295-3.53 0-6.71-3.08-6.71-7.295 0-4.216 3.18-7.296 6.71-7.296 3.52 0 6.71 3.08 6.71 7.296zm0 35.986c0 4.215-3.19 7.296-6.71 7.296-3.53 0-6.71-3.081-6.71-7.296 0-4.216 3.18-7.296 6.71-7.296 3.52 0 6.71 3.08 6.71 7.296zm0 35.987c0 4.216-3.19 7.296-6.71 7.296-3.53 0-6.71-3.08-6.71-7.296 0-4.215 3.18-7.296 6.71-7.296 3.52 0 6.71 3.081 6.71 7.296zm51.44-71.973c0 4.215-3.19 7.295-6.71 7.295-3.53 0-6.71-3.08-6.71-7.295 0-4.216 3.18-7.296 6.71-7.296 3.52 0 6.71 3.08 6.71 7.296zm0 35.986c0 4.215-3.19 7.296-6.71 7.296-3.53 0-6.71-3.081-6.71-7.296 0-4.216 3.18-7.296 6.71-7.296 3.52 0 6.71 3.08 6.71 7.296zm0 35.987c0 4.216-3.19 7.296-6.71 7.296-3.53 0-6.71-3.08-6.71-7.296 0-4.215 3.18-7.296 6.71-7.296 3.52 0 6.71 3.081 6.71 7.296zM866.315 487.56c0 4.215-3.186 7.295-6.711 7.295-3.526 0-6.711-3.08-6.711-7.295 0-4.216 3.185-7.296 6.711-7.296 3.525 0 6.711 3.08 6.711 7.296zm51.439 0c0 4.215-3.185 7.295-6.711 7.295-3.525 0-6.711-3.08-6.711-7.295 0-4.216 3.186-7.296 6.711-7.296 3.526 0 6.711 3.08 6.711 7.296zm51.434 0c0 4.215-3.186 7.295-6.711 7.295-3.526 0-6.711-3.08-6.711-7.295 0-4.216 3.185-7.296 6.711-7.296 3.525 0 6.711 3.08 6.711 7.296zm51.432 0c0 4.215-3.18 7.295-6.71 7.295-3.52 0-6.71-3.08-6.71-7.295 0-4.216 3.19-7.296 6.71-7.296 3.53 0 6.71 3.08 6.71 7.296zm51.44 0c0 4.215-3.19 7.295-6.71 7.295-3.53 0-6.71-3.08-6.71-7.295 0-4.216 3.18-7.296 6.71-7.296 3.52 0 6.71 3.08 6.71 7.296zm51.44 0c0 4.215-3.19 7.295-6.71 7.295-3.53 0-6.71-3.08-6.71-7.295 0-4.216 3.18-7.296 6.71-7.296 3.52 0 6.71 3.08 6.71 7.296zm55.44-437.18c0 4.215-3.18 7.296-6.71 7.296-3.52 0-6.71-3.08-6.71-7.296s3.19-7.296 6.71-7.296c3.53 0 6.71 3.08 6.71 7.296zM810.87 686.555c0 4.215-3.186 7.296-6.712 7.296-3.525 0-6.711-3.081-6.711-7.296 0-4.216 3.186-7.296 6.711-7.296 3.526 0 6.712 3.08 6.712 7.296zm368.07 0c0 4.215-3.18 7.296-6.71 7.296-3.52 0-6.71-3.081-6.71-7.296 0-4.216 3.19-7.296 6.71-7.296 3.53 0 6.71 3.08 6.71 7.296zM932.537 277.251v-3.5h-13.73c-3.527 0-6.711-3.079-6.711-7.296 0-4.217 3.184-7.296 6.711-7.296h206.523c3.53 0 6.71 3.079 6.71 7.296v55.569c0 4.216-3.18 7.295-6.71 7.295H851.065c-3.527 0-6.711-3.079-6.711-7.295v-55.569c0-4.217 3.184-7.296 6.711-7.296h20.09c3.526 0 6.711 3.079 6.711 7.296 0 4.217-3.185 7.296-6.711 7.296h-13.379v40.977h74.761v-37.477zm16.923-3.5h-3.5v40.977h84.48v-40.977h-80.98zm165.66 40.977h3.5v-40.977h-74.76v40.977h71.26zM861.276 556.033h-3.5v63.117h260.844v-63.117H861.276zm-16.922 70.413v-77.709c0-4.216 3.185-7.296 6.711-7.296h274.265c3.53 0 6.71 3.079 6.71 7.296v77.709c0 4.217-3.18 7.296-6.71 7.296H851.065c-3.527 0-6.711-3.079-6.711-7.296z" fill="#163BA4" stroke="#163BA4" stroke-width="7"/><path d="M994.905 587.593c0 4.215-3.186 7.296-6.711 7.296-3.526 0-6.712-3.081-6.712-7.296 0-4.216 3.186-7.296 6.712-7.296 3.525 0 6.711 3.08 6.711 7.296zm311.885-165.525c3.53 0 6.71 3.079 6.71 7.296 0 4.217-3.19 7.296-6.71 7.296h-51.27c-3.52 0-6.71-3.079-6.71-7.296 0-4.217 3.19-7.296 6.71-7.296h51.27zm-18.41-88.653h0l-44.4 27.102h0c-3.22 1.964-4.46 6.482-2.49 10.082l46.89-37.184zm0 0c3.09-1.888 7.14-.856 9.05 2.642 1.97 3.6.73 8.118-2.49 10.082l1.7 2.774m-8.26-15.498l8.26 15.498m0 0l-1.7-2.774-44.4 27.102m46.1-24.328l-46.1 24.328m0 0c-3.08 1.881-7.13.869-9.05-2.641l9.05 2.641zm-9.05 118.731v-.001c1.91-3.495 5.96-4.53 9.05-2.641v.001l44.4 27.1s0 0 0 0c3.22 1.964 4.46 6.482 2.49 10.082v.001c-1.91 3.497-5.96 4.526-9.05 2.64l-44.4-27.1s0 0 0 0c-3.22-1.964-4.46-6.482-2.49-10.082zm-533.011-69.904c3.527 0 6.712 3.079 6.712 7.296 0 4.216-3.186 7.296-6.713 7.296h-51.267c-3.526 0-6.711-3.079-6.711-7.296 0-4.217 3.185-7.296 6.711-7.296h51.268zm-32.858-88.653h.001l44.398 27.102 1.823-2.987-1.823 2.987c3.217 1.964 4.455 6.483 2.489 10.083h-.001c-1.916 3.512-5.975 4.519-9.053 2.641l-44.397-27.102h0c-3.218-1.964-4.455-6.482-2.49-10.082l.001-.002c1.906-3.494 5.959-4.529 9.052-2.64zm46.888 158.557l-.001-.001c-1.907-3.494-5.96-4.528-9.052-2.641h0l-44.398 27.101h-.001c-3.217 1.964-4.454 6.482-2.489 10.082l.001.001c1.915 3.508 5.971 4.522 9.053 2.641l46.887-37.183zm0 0c1.966 3.6.728 8.118-2.489 10.082 0 0 0 0 0 0l-44.398 27.101 46.887-37.183z" fill="#163BA4" stroke="#163BA4" stroke-width="7"/></svg>