<svg width="446" height="464" fill="none" xmlns="http://www.w3.org/2000/svg"><path d="M374.218 355.707a6.789 6.789 0 006.79-6.789V17.423c0-9.473-7.708-17.18-17.181-17.18H90.071c-9.473 0-17.18 7.707-17.18 17.18v429.154c0 9.473 7.707 17.181 17.18 17.181h273.757c9.473 0 17.181-7.708 17.181-17.181v-65.973a6.79 6.79 0 00-6.79-6.79 6.79 6.79 0 00-6.79 6.79v65.973a3.605 3.605 0 01-3.601 3.602H90.071a3.606 3.606 0 01-3.602-3.602V17.423a3.605 3.605 0 013.602-3.601h273.756a3.605 3.605 0 013.601 3.601v331.496a6.788 6.788 0 006.79 6.788z" fill="#163BA4"/><path d="M260.625 51.981a6.789 6.789 0 00-1.868-9.419c-9.427-6.308-20.426-9.641-31.81-9.641-31.577 0-57.265 25.69-57.265 57.266 0 31.577 25.688 57.266 57.265 57.266s57.266-25.689 57.266-57.266a57.093 57.093 0 00-3.319-19.252c-1.261-3.531-5.147-5.376-8.677-4.112a6.79 6.79 0 00-4.112 8.677c10.12 28.342-10.977 58.373-41.158 58.373-24.088 0-43.686-19.597-43.686-43.687 0-24.089 19.597-43.687 43.686-43.687 8.686 0 17.074 2.542 24.258 7.349a6.79 6.79 0 009.42-1.867z" fill="#163BA4"/><path d="M226.95 59.169c-17.104 0-31.018 13.914-31.018 31.017 0 17.104 13.914 31.019 31.018 31.019 17.103 0 31.018-13.915 31.018-31.019 0-17.103-13.916-31.017-31.018-31.017zm0 48.455c-9.615 0-17.439-7.823-17.439-17.438 0-9.616 7.824-17.438 17.439-17.438s17.438 7.822 17.438 17.438c0 9.615-7.823 17.438-17.438 17.438z" fill="#163BA4"/><path d="M226.948 96.977a6.79 6.79 0 100-13.58 6.79 6.79 0 000 13.58zm-122.371-58.26a6.79 6.79 0 100-13.58 6.79 6.79 0 000 13.58zm36.867 207.055a6.79 6.79 0 100-13.58 6.79 6.79 0 000 13.58zm0 22.633a6.79 6.79 0 100-13.58 6.79 6.79 0 000 13.58zm0 22.633a6.79 6.79 0 100-13.58 6.79 6.79 0 000 13.58zm34.203-45.266a6.79 6.79 0 100-13.58 6.79 6.79 0 000 13.58zm0 22.633a6.79 6.79 0 100-13.58 6.79 6.79 0 000 13.58zm0 22.633a6.79 6.79 0 100-13.58 6.79 6.79 0 000 13.58zm34.201-45.266a6.79 6.79 0 100-13.58 6.79 6.79 0 000 13.58zm0 22.633a6.79 6.79 0 100-13.58 6.79 6.79 0 000 13.58zm0 22.633a6.79 6.79 0 100-13.58 6.79 6.79 0 000 13.58zm34.202-45.266a6.79 6.79 0 10-.002-13.58 6.79 6.79 0 00.002 13.58zm0 22.633a6.79 6.79 0 10-.002-13.58 6.79 6.79 0 00.002 13.58zm0 22.633a6.79 6.79 0 10-.002-13.58 6.79 6.79 0 00.002 13.58zm34.201-45.266a6.79 6.79 0 006.789-6.79 6.79 6.79 0 10-13.579 0 6.79 6.79 0 006.79 6.79zm0 22.633a6.79 6.79 0 006.789-6.79 6.79 6.79 0 10-13.579 0 6.79 6.79 0 006.79 6.79zm0 22.633a6.79 6.79 0 006.789-6.79 6.79 6.79 0 10-13.579 0 6.79 6.79 0 006.79 6.79zm34.203-45.266a6.79 6.79 0 100-13.58 6.79 6.79 0 000 13.58zm0 22.633a6.79 6.79 0 100-13.58 6.79 6.79 0 000 13.58zm0 22.633a6.79 6.79 0 100-13.58 6.79 6.79 0 000 13.58zm-171.01 22.631a6.79 6.79 0 100-13.579 6.79 6.79 0 000 13.579zm34.203 0a6.79 6.79 0 100-13.579 6.79 6.79 0 000 13.579zm34.201 0a6.79 6.79 0 100-13.579 6.79 6.79 0 00-6.789 6.79 6.788 6.788 0 006.789 6.789zm34.202 0a6.79 6.79 0 10-.002-13.578 6.79 6.79 0 00.002 13.578zm34.201 0a6.788 6.788 0 006.789-6.789 6.79 6.79 0 10-13.579 0 6.79 6.79 0 006.79 6.789zm34.203 0a6.79 6.79 0 100-13.579 6.79 6.79 0 000 13.579zm36.867-274.952a6.79 6.79 0 100-13.58 6.79 6.79 0 000 13.58zM104.577 438.822a6.79 6.79 0 100-13.58 6.79 6.79 0 000 13.58zm244.744 0a6.79 6.79 0 100-13.58 6.79 6.79 0 000 13.58zm-24.396-271a6.789 6.789 0 00-6.79-6.79H180.811a6.789 6.789 0 00-6.79 6.79 6.789 6.789 0 006.79 6.79h6.802v21.369h-45.057v-21.369h6.569a6.789 6.789 0 006.79-6.79 6.789 6.789 0 00-6.79-6.79h-13.359a6.789 6.789 0 00-6.789 6.79v34.948a6.789 6.789 0 006.789 6.79h182.369a6.789 6.789 0 006.79-6.79v-34.948zm-123.732 6.79h51.516v21.369h-51.516v-21.369zm110.152 21.369h-45.058v-21.369h45.058v21.369zM128.977 345.355v48.873a6.789 6.789 0 006.789 6.79h182.369a6.789 6.789 0 006.79-6.79v-48.873a6.79 6.79 0 00-6.79-6.79H135.766a6.79 6.79 0 00-6.789 6.79zm13.579 6.79h168.789v35.293H142.556v-35.293z" fill="#163BA4"/><path d="M226.948 376.582a6.79 6.79 0 100-13.579 6.79 6.79 0 000 13.579zm218.635-106.303a6.789 6.789 0 00-6.79-6.79h-34.089a6.789 6.789 0 00-6.79 6.79 6.789 6.789 0 006.79 6.79h34.089a6.79 6.79 0 006.79-6.79zm-20.245-62.224l-29.522 17.046a6.788 6.788 0 00-2.485 9.274 6.79 6.79 0 009.275 2.485l29.521-17.045a6.788 6.788 0 002.485-9.274 6.789 6.789 0 00-9.274-2.486zm-22.732 98.059a6.788 6.788 0 00-9.275 2.485 6.79 6.79 0 002.485 9.275l29.522 17.044a6.79 6.79 0 006.789-11.76l-29.521-17.044zm-354.86-35.835a6.79 6.79 0 00-6.79-6.79H6.866a6.789 6.789 0 00-6.79 6.79 6.79 6.79 0 006.79 6.79h34.09a6.79 6.79 0 006.79-6.79zm2.096-45.178L20.32 208.055a6.79 6.79 0 00-9.274 2.486 6.789 6.789 0 002.485 9.274l29.522 17.045c3.226 1.863 7.389.784 9.274-2.485a6.789 6.789 0 00-2.485-9.274zM20.32 334.918l29.522-17.044a6.79 6.79 0 00-6.79-11.76l-29.521 17.045a6.789 6.789 0 00-2.486 9.274 6.79 6.79 0 009.275 2.485z" fill="#163BA4"/></svg>